<?xml version="1.0" encoding="UTF-8"?>
<svg id="Layer_2" data-name="Layer 2" xmlns="http://www.w3.org/2000/svg" viewBox="0 0 845.72 183.09">
  <defs>
    <style>
      .cls-1 {
        fill: #fbf5e9;
      }
    </style>
  </defs>
  <g id="Layer_1-2" data-name="Layer 1">
    <g>
      <path class="cls-1" d="M6.59,35.29c1.31-1.15,1.97-2.98,1.97-5.5v-.66c.74.96,1.84,1.44,3.3,1.44,0,0,0,0,.01,0,0,0,0,0,.01,0,3.08,0,5.21-.74,6.39-2.22,1.54,1.48,3.21,2.22,5.01,2.22,1.62,0,3.21-.49,4.77-1.47,1.34.98,3.03,1.47,5.07,1.47h9.57c2.18,0,3.82-.51,4.93-1.53s1.67-2.49,1.67-4.41v-9.06l-3.24.45v7.59c0,2.34-1.11,3.51-3.33,3.51h-2.37s0,0-.01,0c0,0,0,0-.01,0h-2.13c.58-1.68.87-3.24.87-4.68,0-1.82-.68-3.4-2.04-4.73-1.36-1.33-2.99-2-4.89-2-2.04,0-3.72.67-5.04,2-1.32,1.33-1.98,3.02-1.98,5.06,0,1.38.27,2.66.81,3.84-.8.34-1.68.51-2.64.51-1.42,0-2.74-.43-3.96-1.29.06-.4.09-.8.09-1.2v-5.91l-3.24.45v4.44c0,1.24-.34,2.14-1.04,2.69-.69.55-1.76.82-3.22.82-.01,0-.02,0-.03,0-.01,0-.02,0-.03,0-2,0-3.1-.87-3.3-2.61v-8.94l-3.24.45.03,13.65c0,3.08-1.67,4.62-5.01,4.62l.27,2.73c2.68,0,4.67-.58,5.98-1.73ZM29.45,19.96c.71-.73,1.64-1.1,2.8-1.1,1.04,0,1.91.41,2.61,1.22.7.81,1.05,1.75,1.05,2.83,0,1.16-.27,2.56-.81,4.2h-2.13c-1.42,0-2.54-.39-3.36-1.18-.82-.79-1.23-1.83-1.23-3.11,0-1.18.36-2.13,1.07-2.86Z"/>
      <polygon class="cls-1" points="9.63 11.07 6.94 8.46 4.29 11.07 7 13.71 9.63 11.07"/>
      <path class="cls-1" d="M14.76,15.27c.58,0,1.08-.15,1.5-.47.42-.31.71-.73.87-1.27.44.66,1.06.99,1.86.99.74,0,1.33-.23,1.79-.68.45-.45.67-1.05.67-1.81s-.19-1.76-.57-2.94l-1.59.63c.34.92.51,1.61.51,2.07,0,.66-.32,1.01-.96,1.05-.32.02-.6-.09-.83-.33-.23-.24-.38-.59-.46-1.05l-.3-1.44-1.56.3.27,1.41c.04.28.06.48.06.6,0,.4-.1.72-.3.94-.2.23-.46.34-.78.34-.56,0-.93-.45-1.11-1.35l-.27-1.59-1.62.24.27,1.77c.28,1.72,1.13,2.58,2.55,2.58Z"/>
      <polygon class="cls-1" points="17.53 35.34 20.01 37.77 22.66 35.13 19.99 32.52 17.53 34.92 15.07 32.52 12.42 35.13 15.09 37.77 17.53 35.34"/>
      <polygon class="cls-1" points="47.46 11.13 49.96 13.56 52.59 10.92 49.92 8.31 47.46 10.71 45 8.31 42.37 10.92 45.04 13.56 47.46 11.13"/>
      <path class="cls-1" d="M59.95,30.57c1.06,0,2.19-.26,3.39-.78,0,1.58-.71,2.72-2.12,3.43s-3.6,1.07-6.58,1.07l.36,2.73c7.72,0,11.58-2.38,11.58-7.14v-7.02c0-2.1-.61-3.79-1.82-5.07s-2.77-1.92-4.7-1.92c-2.04,0-3.73.7-5.07,2.1-1.34,1.4-2.01,3.18-2.01,5.34s.64,3.98,1.92,5.29c1.28,1.31,2.96,1.96,5.04,1.96ZM57.05,20.31c.73-.74,1.63-1.11,2.71-1.11s1.92.36,2.58,1.06c.66.71.99,1.66.99,2.83v3.69c-.98.32-1.99.48-3.03.48-1.34.04-2.4-.29-3.18-1.01-.78-.71-1.17-1.73-1.17-3.07,0-1.18.36-2.14,1.09-2.88Z"/>
      <polygon class="cls-1" points="81.96 11.01 84.45 13.44 87.09 10.8 84.42 8.19 81.96 10.59 79.5 8.19 76.86 10.8 79.53 13.44 81.96 11.01"/>
      <path class="cls-1" d="M97.77,28.35c1.54,1.48,3.21,2.22,5.01,2.22h6.75c2.62,0,4.68-.7,6.19-2.1,1.51-1.4,2.27-3.32,2.27-5.76,0-2-.67-3.67-2-5s-3-2-5-2c-2.12,0-3.84.67-5.16,2-1.32,1.33-1.98,3.09-1.98,5.27,0,1.12.37,2.5,1.11,4.14h-2.19c-1.42,0-2.74-.43-3.96-1.29.06-.4.09-.8.09-1.2v-5.91l-3.24.45v4.44c0,1.24-.34,2.14-1.04,2.69-.69.55-1.76.82-3.22.82,0,0,0,0-.02,0,0,0,0,0-.02,0-.88,0-1.52-.22-1.92-.66s-.6-1.17-.6-2.19l-.03-9.87-3.24.45v1.77c-1.3-.48-2.53-.72-3.69-.72-2.02,0-3.7.75-5.03,2.23-1.33,1.49-2,3.29-2,5.39s.66,3.82,1.98,5.22c1.32,1.4,3,2.1,5.04,2.1,1.6,0,3.37-.5,5.31-1.5.9.82,2.29,1.23,4.17,1.23,3.08,0,5.21-.74,6.39-2.22ZM108.17,20.07c.75-.78,1.65-1.17,2.71-1.17s2.01.37,2.75,1.09c.73.73,1.09,1.66,1.09,2.78,0,1.36-.45,2.43-1.35,3.19-.9.77-2.13,1.15-3.69,1.15h-1.38c-.84-1.48-1.26-2.9-1.26-4.26,0-1.08.38-2.01,1.12-2.79ZM81.9,27.57c-1.16-.02-2.11-.42-2.85-1.2-.74-.78-1.11-1.75-1.11-2.91,0-1.22.38-2.25,1.15-3.08.77-.83,1.76-1.25,2.96-1.25.9,0,2.09.26,3.57.78v4.71c0,.78.06,1.47.18,2.07-1.28.6-2.58.89-3.9.87Z"/>
      <polygon class="cls-1" points="97.02 35.34 99.51 37.77 102.15 35.13 99.48 32.52 97.02 34.92 94.56 32.52 91.92 35.13 94.59 37.77 97.02 35.34"/>
      <polygon class="cls-1" points="113.25 10.89 110.55 8.28 107.91 10.89 110.61 13.53 113.25 10.89"/>
      <polygon class="cls-1" points="124.86 8.67 121.59 9.12 121.59 30.57 124.86 30.57 124.86 8.67"/>
      <path class="cls-1" d="M132.71,35.29c1.31-1.15,1.96-2.98,1.96-5.5v-.66c.74.96,1.84,1.44,3.3,1.44,0,0,0,0,.02,0,0,0,0,0,.02,0,3.08,0,5.21-.74,6.39-2.22,1.54,1.48,3.21,2.22,5.01,2.22,0,0,0,0,.01,0,0,0,0,0,.02,0,2.8,0,5.45-.36,7.94-1.1,2.49-.73,5.27-1.92,8.35-3.58l.57-3.27c-3.44-2.7-5.9-4.46-7.38-5.29-1.48-.83-2.88-1.25-4.2-1.25-1.1,0-2.43.3-3.99.9l.63,2.91c1.36-.3,2.33-.45,2.91-.45,1.06,0,2.17.31,3.33.94s2.95,1.9,5.37,3.79c-4.28,1.96-8.79,2.94-13.53,2.94,0,0,0,0-.02,0,0,0,0,0-.01,0-1.42,0-2.74-.43-3.96-1.29.06-.4.09-.8.09-1.2v-5.91l-3.24.45v4.44c0,1.24-.34,2.14-1.04,2.69-.69.55-1.76.82-3.22.82-.01,0-.02,0-.03,0-.01,0-.02,0-.03,0-2,0-3.1-.87-3.3-2.61v-8.94l-3.24.45.03,13.65c0,3.08-1.67,4.62-5.01,4.62l.27,2.73c2.68,0,4.67-.58,5.99-1.73Z"/>
      <polygon class="cls-1" points="143.76 14.49 146.25 16.92 148.89 14.28 146.22 11.67 143.76 14.07 141.3 11.67 138.66 14.28 141.33 16.92 143.76 14.49"/>
      <path class="cls-1" d="M176.13,30.57c2.2,0,3.86-.51,4.96-1.53,1.11-1.02,1.67-2.49,1.67-4.41v-9.06l-3.27.45.03,7.59c0,2.34-1.12,3.51-3.36,3.51-.01,0-.02,0-.03,0-.01,0-.02,0-.03,0-2.22,0-3.33-1.21-3.33-3.63v-14.82l-3.27.45.03,15.33c0,4.08,2.2,6.12,6.6,6.12Z"/>
      <polygon class="cls-1" points="176.82 35.16 179.52 37.77 182.16 35.16 179.46 32.52 176.82 35.16"/>
      <path class="cls-1" d="M194.43,38.22v-9.63c0-1.6.6-2.57,1.8-2.91.42,1.54,1.23,2.79,2.43,3.74s2.63,1.42,4.29,1.42c2.04,0,3.71-.7,5.02-2.1,1.31-1.4,1.97-3.14,1.97-5.22s-.66-3.9-1.98-5.39c-1.32-1.49-2.99-2.23-5.01-2.23-1.8,0-3.33.6-4.61,1.8-1.27,1.2-2.04,2.7-2.33,4.5-3.24.4-4.86,2.44-4.86,6.12l.03,10.35,3.24-.45ZM200.22,20.55c.72-.8,1.63-1.2,2.73-1.2s1.97.4,2.68,1.2c.71.8,1.07,1.77,1.07,2.91s-.36,2.02-1.07,2.77-1.6,1.12-2.68,1.12-2.01-.38-2.73-1.12c-.72-.75-1.08-1.67-1.08-2.77s.36-2.11,1.08-2.91Z"/>
      <path class="cls-1" d="M219.42,8.97c0,.66-.32,1.01-.96,1.05-.32.02-.6-.09-.83-.33-.23-.24-.38-.59-.46-1.05l-.3-1.44-1.56.3.27,1.41c.04.28.06.48.06.6,0,.4-.1.72-.3.94-.2.23-.46.34-.78.34-.56,0-.93-.45-1.11-1.35l-.27-1.59-1.62.24.27,1.77c.28,1.72,1.13,2.58,2.55,2.58.58,0,1.08-.15,1.5-.47.42-.31.71-.73.87-1.27.44.66,1.06.99,1.86.99.74,0,1.33-.23,1.79-.68.45-.45.67-1.05.67-1.81s-.19-1.76-.57-2.94l-1.59.63c.34.92.51,1.61.51,2.07Z"/>
      <polygon class="cls-1" points="219.57 4.08 219.21 2.37 211.38 4.11 211.71 5.79 219.57 4.08"/>
      <path class="cls-1" d="M218.64,30.57c2.5,0,4.29-.65,5.37-1.95,1.4,1.3,2.96,1.95,4.68,1.95,3.4,0,6.29-.4,8.67-1.2,2.62.8,5.36,1.2,8.22,1.2h2.37c2.18,0,3.82-.51,4.93-1.53s1.67-2.49,1.67-4.41v-9.06l-3.24.45v7.59c0,2.34-1.11,3.51-3.33,3.51h-2.37s0,0-.01,0c0,0,0,0-.01,0-1.5,0-2.77-.07-3.81-.21,1.46-1.36,2.19-2.96,2.19-4.8s-.63-3.29-1.9-4.53c-1.27-1.24-2.89-1.86-4.85-1.86s-3.55.62-4.84,1.85-1.93,2.76-1.93,4.57.73,3.49,2.19,4.83c-1,.1-2.31.15-3.93.15-1.24,0-2.41-.36-3.51-1.08.08-.4.12-.87.12-1.41l-.03-2.43c0-2.02-.62-3.63-1.86-4.83-1.24-1.2-2.84-1.8-4.8-1.8h-2.58v3.36h1.86c1.2,0,2.18.34,2.94,1.01.76.67,1.15,1.54,1.17,2.62l.03,1.5c0,.96-.29,1.71-.87,2.25-.58.54-1.41.81-2.49.81h-7.53l.57,3.45h6.93ZM234.57,19.9c.66-.67,1.51-1,2.55-1s1.92.34,2.62,1.02c.71.68,1.07,1.54,1.07,2.58,0,.86-.34,1.67-1,2.43-.67.76-1.56,1.34-2.66,1.74-1.08-.34-1.95-.89-2.59-1.65-.65-.76-.98-1.6-.98-2.52,0-1.06.33-1.92.99-2.6Z"/>
      <polygon class="cls-1" points="237 11.1 239.49 13.53 242.13 10.89 239.46 8.28 237 10.68 234.54 8.28 231.9 10.89 234.57 13.53 237 11.1"/>
      <path class="cls-1" d="M247.62,7.41l5.85-1.11c1.98-.38,2.97-1.48,2.97-3.3,0-.82-.29-1.52-.87-2.12-.58-.59-1.27-.88-2.07-.88-.9,0-1.64.3-2.22.88-.58.59-.87,1.35-.87,2.27,0,.68.2,1.32.6,1.92l-3.69.75.3,1.59ZM252.38,2.11c.27-.29.6-.44,1-.44s.73.14.99.41c.26.27.39.6.39,1,0,.82-.54,1.34-1.62,1.56l-.57.12c-.4-.52-.6-1.04-.6-1.56,0-.44.14-.8.41-1.1Z"/>
      <polygon class="cls-1" points="252.72 10.71 250.26 8.31 247.62 10.92 250.29 13.56 252.72 11.13 255.21 13.56 257.85 10.92 255.18 8.31 252.72 10.71"/>
      <path class="cls-1" d="M272.25,37.02c2.94,0,5.14-.83,6.6-2.49,1.46-1.66,2.19-3.94,2.19-6.84v-12.12l-3.24.45v11.28c0,2.14-.45,3.72-1.35,4.74-.9,1.02-2.27,1.53-4.11,1.53s-3.15-.45-4.11-1.33c-.96-.89-1.45-2.21-1.47-3.98,0-1.66.33-3.5.99-5.52l-2.64-.72c-.88,2.68-1.32,5.06-1.32,7.14,0,2.6.74,4.56,2.22,5.88,1.48,1.32,3.56,1.98,6.24,1.98Z"/>
      <polygon class="cls-1" points="274.8 15.9 272.1 13.29 269.46 15.9 272.16 18.54 274.8 15.9"/>
      <polygon class="cls-1" points="288.87 30.57 288.87 12.42 285.6 12.87 285.6 30.57 288.87 30.57"/>
      <path class="cls-1" d="M290.91,8.79h-3.87c-.3-.36-.45-.78-.45-1.26,0-.34.13-.62.39-.84.26-.22.59-.33.99-.33.5,0,1.14.15,1.92.45v-1.74c-.92-.38-1.74-.57-2.46-.57-.8,0-1.46.25-2,.75s-.79,1.13-.79,1.89c0,.62.14,1.17.42,1.65h-1.5v2.1h6.9l.45-2.1Z"/>
      <polygon class="cls-1" points="311.97 11.1 314.46 13.53 317.1 10.89 314.43 8.28 311.97 10.68 309.51 8.28 306.87 10.89 309.54 13.53 311.97 11.1"/>
      <polygon class="cls-1" points="345.06 14.49 347.55 16.92 350.19 14.28 347.52 11.67 345.06 14.07 342.6 11.67 339.96 14.28 342.63 16.92 345.06 14.49"/>
      <path class="cls-1" d="M373.14,28.89c1.52,1.1,3.01,1.65,4.47,1.65,1.96,0,3.51-.54,4.65-1.62,1.7,1.08,3.36,1.62,4.98,1.62,2.1,0,3.67-.58,4.71-1.74,1.3,1.18,2.79,1.77,4.47,1.77h2.37c2.18,0,3.83-.51,4.94-1.53,1.11-1.02,1.67-2.49,1.67-4.41v-9.06l-3.24.45v7.59c0,2.34-1.11,3.51-3.33,3.51h-2.37s0,0-.02,0c0,0,0,0-.02,0-1.16,0-2.25-.31-3.27-.93.1-.54.15-1.07.15-1.59v-9.06l-3.24.45v7.59c0,2.34-1.11,3.51-3.33,3.51-1.04,0-2.06-.2-3.06-.6.16-.6.24-1.23.24-1.89v-5.91l-3.27.45.03,4.44c0,2.34-1.12,3.51-3.36,3.51-.88,0-1.81-.2-2.79-.6.16-.6.24-1.22.24-1.86v-5.91l-3.27.45.03,4.44c0,2.34-1.12,3.51-3.36,3.51h-17.46c-1.42,0-2.74-.43-3.96-1.29.06-.4.09-.8.09-1.2v-5.91l-3.24.45v4.44c0,1.24-.35,2.14-1.04,2.69-.69.55-1.77.82-3.23.82,0,0,0,0-.01,0,0,0,0,0-.01,0h-1.05c-1.18,0-2.06-.24-2.64-.72.22-.1.55-.27.99-.51l.57-3.27c-3.44-2.7-5.9-4.46-7.38-5.29-1.48-.83-2.88-1.25-4.2-1.25-1.1,0-2.43.3-3.99.9l.63,2.91c1.36-.3,2.33-.45,2.91-.45,1.06,0,2.17.31,3.33.94,1.16.63,2.95,1.9,5.37,3.79-4.28,1.96-8.79,2.94-13.53,2.94,0,0,0,0-.02,0,0,0,0,0-.01,0h-1.71v-4.11c0-2.1-.6-3.78-1.8-5.04-1.2-1.26-2.77-1.91-4.71-1.95-2-.02-3.66.67-4.98,2.07-1.32,1.4-1.98,3.2-1.98,5.4s.63,3.88,1.89,5.16c1.26,1.28,2.94,1.92,5.04,1.92h3.27c-.7,2.36-3.1,3.54-7.2,3.54-2.28,0-4.04-.5-5.28-1.48-1.24-.99-1.87-2.45-1.89-4.37,0-1.66.33-3.5.99-5.52l-2.64-.72c-.88,2.68-1.32,5.06-1.32,7.14,0,2.52.86,4.46,2.58,5.82,1.72,1.36,4.04,2.04,6.96,2.04,6.58,0,10.23-2.15,10.95-6.45h1.83s0,0,.01,0c0,0,0,0,.02,0,2.32,0,4.52-.25,6.6-.75,2.08-.5,4.29-1.3,6.63-2.4.64,2.1,2.2,3.15,4.68,3.15h1.08c3.08,0,5.21-.74,6.39-2.22,1.54,1.48,3.21,2.22,5.01,2.22h17.46c2.2,0,3.86-.56,4.98-1.68ZM312.39,27.27c-1.32,0-2.37-.33-3.15-1.01-.78-.67-1.17-1.63-1.17-2.9s.34-2.23,1.04-2.97c.69-.74,1.58-1.09,2.68-1.05,1.08.02,1.94.38,2.58,1.08.64.7.96,1.64.96,2.82l.03,3.9c-1.4.08-2.39.12-2.97.12Z"/>
      <polygon class="cls-1" points="403.56 11.13 406.05 13.56 408.69 10.92 406.02 8.31 403.56 10.71 401.1 8.31 398.46 10.92 401.13 13.56 403.56 11.13"/>
      <path class="cls-1" d="M421.5,30.84c1.6,0,3.37-.5,5.31-1.5.9.82,2.29,1.23,4.17,1.23h2.37c2.18,0,3.82-.51,4.93-1.53s1.67-2.49,1.67-4.41v-9.06l-3.24.45v7.59c0,2.34-1.11,3.51-3.33,3.51h-2.37s0,0-.01,0c0,0,0,0-.01,0-.88,0-1.52-.22-1.92-.66-.4-.44-.6-1.17-.6-2.19l-.03-9.87-3.24.45v1.77c-1.3-.48-2.53-.72-3.69-.72-2.02,0-3.7.75-5.02,2.23-1.33,1.49-2,3.29-2,5.39s.66,3.82,1.98,5.22c1.32,1.4,3,2.1,5.04,2.1ZM418.69,20.38c.77-.83,1.75-1.25,2.96-1.25.9,0,2.09.26,3.57.78v4.71c0,.78.06,1.47.18,2.07-1.28.6-2.58.89-3.9.87-1.16-.02-2.11-.42-2.85-1.2-.74-.78-1.11-1.75-1.11-2.91,0-1.22.38-2.25,1.16-3.08Z"/>
      <polygon class="cls-1" points="421.56 11.01 424.05 13.44 426.69 10.8 424.02 8.19 421.56 10.59 419.1 8.19 416.46 10.8 419.13 13.44 421.56 11.01"/>
      <polygon class="cls-1" points="435.45 34.92 432.99 32.52 430.35 35.13 433.02 37.77 435.45 35.34 437.94 37.77 440.58 35.13 437.91 32.52 435.45 34.92"/>
      <path class="cls-1" d="M447.25,35.29c1.31-1.15,1.97-2.98,1.97-5.5v-14.22l-3.24.45.03,13.65c0,3.08-1.67,4.62-5.01,4.62l.27,2.73c2.68,0,4.67-.58,5.98-1.73Z"/>
      <path class="cls-1" d="M460.11,30.57s0,0,.01,0c0,0,0,0,.02,0,2.32,0,4.52-.25,6.6-.75,2.08-.5,4.29-1.3,6.63-2.4.64,2.1,2.2,3.15,4.68,3.15h3.45c2.18,0,3.83-.51,4.94-1.53,1.11-1.02,1.67-2.49,1.67-4.41v-9.06l-3.24.45v7.59c0,2.34-1.11,3.51-3.33,3.51h-2.37s0,0-.02,0c0,0,0,0-.02,0h-1.05c-1.18,0-2.06-.24-2.64-.72.22-.1.55-.27.99-.51l.57-3.27c-3.44-2.7-5.9-4.46-7.38-5.29-1.48-.83-2.88-1.25-4.2-1.25-1.1,0-2.43.3-3.99.9l.63,2.91c1.36-.3,2.33-.45,2.91-.45,1.06,0,2.17.31,3.33.94s2.95,1.9,5.37,3.79c-4.28,1.96-8.79,2.94-13.53,2.94-.01,0-.02,0-.03,0-.01,0-.02,0-.03,0-2.22,0-3.33-1.21-3.33-3.63v-14.82l-3.27.45.03,15.33c0,4.08,2.2,6.12,6.6,6.12Z"/>
      <polygon class="cls-1" points="472.17 34.89 469.47 32.25 466.83 34.89 469.53 37.5 472.17 34.89"/>
      <polygon class="cls-1" points="486.27 11.13 488.76 13.56 491.4 10.92 488.73 8.31 486.27 10.71 483.81 8.31 481.17 10.92 483.84 13.56 486.27 11.13"/>
      <polygon class="cls-1" points="504.27 11.01 506.76 13.44 509.4 10.8 506.73 8.19 504.27 10.59 501.81 8.19 499.17 10.8 501.84 13.44 504.27 11.01"/>
      <path class="cls-1" d="M504.21,30.84c1.6,0,3.37-.5,5.31-1.5.9.82,2.29,1.23,4.17,1.23h6.75c2.62,0,4.68-.7,6.2-2.1,1.51-1.4,2.26-3.32,2.26-5.76,0-2-.67-3.67-2-5s-3-2-4.99-2c-2.12,0-3.84.67-5.16,2-1.32,1.33-1.98,3.09-1.98,5.27,0,1.12.37,2.5,1.11,4.14h-2.19c-.88,0-1.52-.22-1.92-.66s-.6-1.17-.6-2.19l-.03-9.87-3.24.45v1.77c-1.3-.48-2.53-.72-3.69-.72-2.02,0-3.7.75-5.03,2.23-1.33,1.49-2,3.29-2,5.39s.66,3.82,1.98,5.22c1.32,1.4,3,2.1,5.04,2.1ZM519.07,20.07c.75-.78,1.66-1.17,2.72-1.17s2.01.37,2.75,1.09c.73.73,1.09,1.66,1.09,2.78,0,1.36-.45,2.43-1.35,3.19-.9.77-2.13,1.15-3.69,1.15h-1.38c-.84-1.48-1.26-2.9-1.26-4.26,0-1.08.38-2.01,1.12-2.79ZM501.4,20.38c.77-.83,1.76-1.25,2.96-1.25.9,0,2.09.26,3.57.78v4.71c0,.78.06,1.47.18,2.07-1.28.6-2.58.89-3.9.87-1.16-.02-2.11-.42-2.85-1.2-.74-.78-1.11-1.75-1.11-2.91,0-1.22.38-2.25,1.15-3.08Z"/>
      <path class="cls-1" d="M531.12,30.57h7.05c1.1,0,2.4-.15,3.9-.46s2.71-.69,3.63-1.12c1.12,1.06,2.8,1.59,5.04,1.59,5.56,0,10.59-.42,15.09-1.26l.69-3.45c-3.7.64-7.03,1.02-9.99,1.14-.9-1.4-1.35-2.76-1.35-4.08,0-1.16.4-2.09,1.2-2.79.8-.7,1.84-1.05,3.12-1.05.94,0,2.32.26,4.14.78l.9-2.79c-2.38-.8-4.24-1.2-5.58-1.2-2,0-3.66.6-4.96,1.8-1.31,1.2-1.96,2.74-1.96,4.62,0,1.6.43,3.2,1.29,4.8-.54.02-1.4.03-2.58.03,0,0,0,0-.02,0,0,0,0,0-.02,0-2.22,0-3.33-1.21-3.33-3.63v-14.82l-3.27.45.03,15.33c0,.68.06,1.31.18,1.89-1.26.32-2.69.55-4.29.69l-2.58-14.43-3.21.81,2.76,13.71h-6.45l.57,3.45Z"/>
      <path class="cls-1" d="M582.42,37.02c2.7,0,4.78-.71,6.24-2.13,1.46-1.42,2.29-3.4,2.49-5.94.84,1.08,2.05,1.62,3.63,1.62,0,0,0,0,0,0h9.48c2.14,0,3.83-.59,5.08-1.77,1.25-1.18,1.88-2.8,1.88-4.86,0-1.92-.67-3.45-2.01-4.59-1.34-1.14-3.12-1.71-5.34-1.71h-4.68l8.13-8.91-3.15-1.71-8.82,10.59,1.74,3.03h7.05c1.18,0,2.11.3,2.79.89.68.59,1.02,1.39,1.02,2.38s-.34,1.79-1.04,2.35c-.69.57-1.62.85-2.8.85h-9.33c-.96,0-1.79-.27-2.49-.81-.7-.54-1.05-1.29-1.05-2.25v-15.54l-3.27.45v18.33c0,2.14-.45,3.72-1.35,4.74-.9,1.02-2.27,1.53-4.11,1.53s-3.15-.45-4.11-1.33c-.96-.89-1.45-2.21-1.47-3.98,0-1.66.33-3.5.99-5.52l-2.64-.72c-.88,2.68-1.32,5.06-1.32,7.14,0,2.6.74,4.56,2.22,5.88,1.48,1.32,3.56,1.98,6.24,1.98Z"/>
      <polygon class="cls-1" points="630.02 15.9 627.32 13.29 624.68 15.9 627.38 18.54 630.02 15.9"/>
      <path class="cls-1" d="M627.47,37.02c2.94,0,5.14-.83,6.6-2.49,1.46-1.66,2.19-3.94,2.19-6.84v-12.12l-3.24.45v11.28c0,2.14-.45,3.72-1.35,4.74-.9,1.02-2.27,1.53-4.11,1.53s-3.15-.45-4.11-1.33c-.96-.89-1.45-2.21-1.47-3.98,0-1.66.33-3.5.99-5.52l-2.64-.72c-.88,2.68-1.32,5.06-1.32,7.14,0,2.6.74,4.56,2.22,5.88,1.48,1.32,3.56,1.98,6.24,1.98Z"/>
      <path class="cls-1" d="M643.97,23.49v-11.07l-3.27.45.03,11.58c0,4.08,2.2,6.12,6.6,6.12,2.2,0,3.85-.51,4.96-1.53s1.67-2.49,1.67-4.41v-9.06l-3.27.45.03,7.59c0,2.34-1.12,3.51-3.36,3.51-.01,0-.02,0-.03,0-.01,0-.02,0-.03,0-2.22,0-3.33-1.21-3.33-3.63Z"/>
      <path class="cls-1" d="M646.08,8.79h-3.87c-.3-.36-.45-.78-.45-1.26,0-.34.13-.62.39-.84.26-.22.59-.33.99-.33.5,0,1.14.15,1.92.45v-1.74c-.92-.38-1.74-.57-2.46-.57-.8,0-1.46.25-2,.75s-.79,1.13-.79,1.89c0,.62.14,1.17.42,1.65h-1.5v2.1h6.9l.45-2.1Z"/>
      <polygon class="cls-1" points="648.02 35.16 650.72 37.77 653.36 35.16 650.67 32.52 648.02 35.16"/>
      <polygon class="cls-1" points="673.52 15.9 670.82 13.29 668.18 15.9 670.88 18.54 673.52 15.9"/>
      <path class="cls-1" d="M670.97,37.02c2.7,0,4.78-.72,6.24-2.15,1.46-1.43,2.29-3.41,2.49-5.93.78,1.08,1.92,1.62,3.42,1.62,0,0,0,0,0,0h6.75c2.62,0,4.68-.7,6.2-2.1,1.51-1.4,2.26-3.32,2.26-5.76,0-2-.67-3.67-2-5s-3-2-4.99-2c-2.12,0-3.84.67-5.16,2-1.32,1.33-1.98,3.09-1.98,5.27,0,1.12.37,2.5,1.11,4.14h-2.19c-2.06,0-3.17-1.05-3.33-3.15l-.03-.39v-8.01l-3.24.45v11.28c0,2.14-.45,3.72-1.35,4.74-.9,1.02-2.27,1.53-4.11,1.53s-3.15-.45-4.11-1.33c-.96-.89-1.45-2.21-1.47-3.98,0-1.66.33-3.5.99-5.52l-2.64-.72c-.88,2.68-1.32,5.06-1.32,7.14,0,2.6.74,4.56,2.22,5.88,1.48,1.32,3.56,1.98,6.24,1.98ZM688.51,20.07c.75-.78,1.66-1.17,2.72-1.17s2.01.37,2.75,1.09c.73.73,1.09,1.66,1.09,2.78,0,1.36-.45,2.43-1.35,3.19-.9.77-2.13,1.15-3.69,1.15h-1.38c-.84-1.48-1.26-2.9-1.26-4.26,0-1.08.38-2.01,1.12-2.79Z"/>
      <path class="cls-1" d="M711.68,11.07h-4.17c-.34-.4-.51-.82-.51-1.26,0-.38.14-.69.43-.92s.67-.35,1.16-.35c.56,0,1.25.15,2.07.45v-2.31c-.86-.42-1.64-.63-2.34-.63-1.02,0-1.85.29-2.49.87-.64.58-.96,1.35-.96,2.31,0,.66.18,1.27.54,1.83h-1.74v2.52h7.29l.72-2.52Z"/>
      <path class="cls-1" d="M707.78,30.57h3.24c-.22,1.3-1.04,2.24-2.45,2.83-1.41.59-3.47.89-6.19.89l.36,2.73c7.34,0,11.19-2.15,11.55-6.45h1.68c2.2,0,3.85-.51,4.96-1.53s1.67-2.49,1.67-4.41v-9.06l-3.27.45.03,7.59c0,2.34-1.12,3.51-3.36,3.51,0,0,0,0-.01,0,0,0,0,0-.01,0h-1.65v-4.26c0-2.1-.6-3.79-1.81-5.07-1.21-1.28-2.78-1.92-4.7-1.92-2.04,0-3.73.7-5.07,2.1-1.34,1.4-2.01,3.18-2.01,5.34s.65,3.96,1.93,5.28c1.29,1.32,3,1.98,5.12,1.98ZM704.8,20.31c.73-.74,1.63-1.11,2.71-1.11s1.92.36,2.58,1.06c.66.71.99,1.66.99,2.83v4.08c-.14,0-.58.02-1.33.04-.75.03-1.29.05-1.6.05-1.36,0-2.44-.35-3.24-1.05-.8-.7-1.2-1.71-1.2-3.03,0-1.18.37-2.14,1.1-2.88Z"/>
      <polygon class="cls-1" points="723.53 10.68 720.83 8.07 718.19 10.68 720.89 13.32 723.53 10.68"/>
      <path class="cls-1" d="M736.55,22.8l-1.98-.15c-1.32,2.2-2.08,4.54-2.28,7.02h2.91c.1-2.48.55-4.77,1.35-6.87Z"/>
      <polygon class="cls-1" points="746.57 10.56 743.87 7.95 741.23 10.56 743.93 13.2 746.57 10.56"/>
      <path class="cls-1" d="M744.56,30.57c4.4,0,6.62-1.98,6.66-5.94l-.03-2.43c0-2.02-.62-3.63-1.86-4.83-1.24-1.2-2.84-1.8-4.8-1.8h-2.58v3.36h1.86c1.2,0,2.18.34,2.94,1.01.76.67,1.15,1.54,1.17,2.62l.03,1.5c0,.96-.29,1.71-.87,2.25-.58.54-1.41.81-2.49.81h-7.53l.57,3.45h6.93Z"/>
      <path class="cls-1" d="M760.67,30.57h3.24c-.22,1.3-1.04,2.24-2.45,2.83-1.41.59-3.47.89-6.19.89l.36,2.73c7.34,0,11.19-2.15,11.55-6.45h1.68c3.4,0,6.29-.4,8.67-1.2,2.62.8,5.36,1.2,8.22,1.2,2.2,0,3.86-.51,4.96-1.53,1.11-1.02,1.67-2.49,1.67-4.41v-9.06l-3.27.45.03,7.59c0,2.34-1.12,3.51-3.36,3.51,0,0,0,0-.02,0,0,0,0,0-.02,0-1.5,0-2.77-.07-3.81-.21,1.46-1.36,2.19-2.96,2.19-4.8s-.63-3.29-1.9-4.53c-1.27-1.24-2.89-1.86-4.85-1.86s-3.55.62-4.84,1.85-1.93,2.76-1.93,4.57.73,3.49,2.19,4.83c-1,.1-2.31.15-3.93.15h-1.65v-4.26c0-2.1-.6-3.79-1.81-5.07-1.21-1.28-2.78-1.92-4.7-1.92-2.04,0-3.73.7-5.07,2.1-1.34,1.4-2.01,3.18-2.01,5.34s.65,3.96,1.93,5.28c1.29,1.32,3,1.98,5.12,1.98ZM774.74,19.9c.66-.67,1.51-1,2.55-1s1.92.34,2.62,1.02c.71.68,1.07,1.54,1.07,2.58,0,.86-.34,1.67-1,2.43-.67.76-1.56,1.34-2.66,1.74-1.08-.34-1.95-.89-2.59-1.65-.65-.76-.98-1.6-.98-2.52,0-1.06.33-1.92.99-2.6ZM757.69,20.31c.73-.74,1.63-1.11,2.71-1.11s1.92.36,2.58,1.06c.66.71.99,1.66.99,2.83v4.08c-.14,0-.58.02-1.33.04-.75.03-1.29.05-1.6.05-1.36,0-2.44-.35-3.24-1.05-.8-.7-1.2-1.71-1.2-3.03,0-1.18.37-2.14,1.1-2.88Z"/>
      <polygon class="cls-1" points="779.78 10.89 777.08 8.28 774.44 10.89 777.14 13.53 779.78 10.89"/>
      <polygon class="cls-1" points="793.31 10.68 790.61 8.07 787.97 10.68 790.67 13.32 793.31 10.68"/>
      <polygon class="cls-1" points="811.4 40.89 808.94 38.49 806.3 41.1 808.97 43.74 811.4 41.31 813.89 43.74 816.53 41.1 813.86 38.49 811.4 40.89"/>
      <path class="cls-1" d="M809.39,37.02c3.18,0,5.44-.75,6.78-2.24,1.34-1.49,2.01-3.71,2.01-6.65v-5.1c0-1.14.29-2,.87-2.6.58-.59,1.42-.88,2.52-.88h2.19v11.01h13.5c2.62,0,4.68-.7,6.2-2.1,1.51-1.4,2.26-3.32,2.26-5.76,0-2-.67-3.67-2-5s-3-2-4.99-2c-2.12,0-3.84.67-5.16,2-1.32,1.33-1.98,3.09-1.98,5.27,0,1.12.37,2.5,1.11,4.14h-5.67v-9.18l-2.07-1.83h-3.93c-1.96,0-3.46.56-4.52,1.68-1.05,1.12-1.57,2.64-1.57,4.56v5.4c0,2.14-.42,3.65-1.25,4.51-.83.87-2.24,1.31-4.21,1.31-1.78,0-3.15-.45-4.11-1.33-.96-.89-1.45-2.21-1.47-3.98,0-1.66.33-3.5.99-5.52l-2.64-.72c-.88,2.68-1.32,5.06-1.32,7.14,0,2.6.74,4.56,2.22,5.88,1.48,1.32,3.56,1.98,6.24,1.98ZM835.9,20.07c.75-.78,1.66-1.17,2.72-1.17s2.01.37,2.75,1.09c.73.73,1.09,1.66,1.09,2.78,0,1.36-.45,2.43-1.35,3.19-.9.77-2.13,1.15-3.69,1.15h-1.38c-.84-1.48-1.26-2.9-1.26-4.26,0-1.08.38-2.01,1.12-2.79Z"/>
      <polygon class="cls-1" points="840.98 10.89 838.28 8.28 835.64 10.89 838.34 13.53 840.98 10.89"/>
      <path class="cls-1" d="M7.84,77.7v-14.42l-1.86.34v14.01c.02,2-.48,3.48-1.5,4.43-1.02.95-2.52,1.43-4.48,1.43l.22,1.74c5.08,0,7.63-2.51,7.63-7.53Z"/>
      <polygon class="cls-1" points="42.87 60.53 41.11 62.29 42.9 64.09 44.67 62.29 42.87 60.53"/>
      <polygon class="cls-1" points="49.45 62.29 47.65 60.53 45.85 62.29 47.68 64.09 49.45 62.29"/>
      <polygon class="cls-1" points="55.96 83.19 54.16 81.42 52.36 83.19 54.19 84.96 55.96 83.19"/>
      <path class="cls-1" d="M57.2,63.29l-1.89.34v8.83c0,2.73-1.45,4.09-4.34,4.09-1.74,0-3.34-.58-4.8-1.74.14-.56.22-1.23.22-2.02v-6.17l-1.89.37v5.46c0,1.45-.4,2.49-1.19,3.13-.8.64-2.09.96-3.89.96-1.38,0-2.8-.51-4.25-1.52.39-.89.59-1.85.59-2.88,0-1.98-.67-3.55-2-4.7-1.33-1.15-3.12-1.72-5.35-1.72h-6.23l8.99-10.2-1.77-.9-9.49,11.04,1.12,1.92h7.59c1.61,0,2.89.41,3.83,1.22.94.82,1.41,1.93,1.41,3.33s-.47,2.46-1.41,3.24c-.94.78-2.23,1.16-3.86,1.16h-9.55c-2.87,0-4.31-1.44-4.31-4.31v-16.31l-1.89.37v16.21c0,4.03,2.07,6.04,6.2,6.04h9.86c2.31,0,4.1-.71,5.36-2.14,1.65,1.43,3.37,2.14,5.15,2.14,3,0,5.01-.74,6.04-2.23,1.67,1.49,3.51,2.23,5.52,2.23s3.6-.5,4.65-1.5,1.58-2.42,1.58-4.26v-9.52Z"/>
      <path class="cls-1" d="M68.04,76.55h-8.03l.46,2.02h10.38c4.15,0,6.23-2.02,6.23-6.04v-16.58l-1.86.37-.03,15.93c0,2.87-1.44,4.31-4.31,4.31h-1.02l-3.22-16.58-1.92.5,3.32,16.09Z"/>
      <polygon class="cls-1" points="84.66 55.94 82.77 56.31 82.77 78.57 84.66 78.57 84.66 55.94"/>
      <path class="cls-1" d="M104.4,85.23c2.81,0,4.91-.77,6.31-2.33,1.39-1.55,2.16-3.67,2.31-6.35.72,1.34,1.94,2.02,3.66,2.02,3,0,5.01-.74,6.04-2.23,1.67,1.49,3.51,2.23,5.52,2.23s3.6-.5,4.65-1.5c1.05-1,1.58-2.42,1.58-4.26v-9.52l-1.89.34v8.83c0,2.73-1.45,4.09-4.34,4.09-1.74,0-3.34-.58-4.81-1.74.14-.56.22-1.23.22-2.02v-6.17l-1.89.37v5.46c0,1.45-.4,2.49-1.19,3.13-.8.64-2.09.96-3.89.96-.62,0-1.15-.07-1.6-.22-.45-.14-.87-.51-1.27-1.08s-.66-1.36-.76-2.36v-9.61l-1.89.34v11.78c0,2.67-.54,4.63-1.63,5.91-1.08,1.27-2.73,1.91-4.94,1.91-2.09,0-3.7-.54-4.85-1.63-1.15-1.08-1.75-2.67-1.81-4.76,0-2.13.4-4.35,1.21-6.67l-1.55-.43c-.93,2.75-1.39,5.26-1.39,7.53,0,2.6.75,4.58,2.25,5.94s3.49,2.03,5.97,2.03Z"/>
      <polygon class="cls-1" points="104.8 65.58 106.57 63.81 104.77 62.05 102.97 63.81 104.8 65.58"/>
      <polygon class="cls-1" points="121.7 83.19 119.9 81.42 118.13 83.19 119.93 84.99 121.7 83.19"/>
      <polygon class="cls-1" points="126.47 83.19 124.67 81.42 122.87 83.19 124.7 84.99 126.47 83.19"/>
      <polygon class="cls-1" points="133.23 83.19 131.43 81.42 129.63 83.19 131.46 84.96 133.23 83.19"/>
      <path class="cls-1" d="M166.73,75.72c-1.16.56-2.3.84-3.44.84-2.6,0-5.17-.59-7.69-1.77,1.88-1.09,3.34-2.26,4.39-3.5,1.04-1.24,1.57-2.48,1.57-3.72,0-1.67-.67-3.05-2.01-4.14-1.34-1.08-3.04-1.63-5.08-1.63-2.38,0-5.01.75-7.91,2.26l-.74,1.8c1.05,1.98,2.02,3.61,2.88,4.87.87,1.26,1.96,2.67,3.29,4.22-2.15,1.1-3.68,2.08-4.59,2.96-.91.88-1.36,2.02-1.36,3.43,0,1.74.75,3.13,2.25,4.19,1.5,1.05,3.49,1.58,5.97,1.58s5.02-.5,7.94-1.49l-.53-1.64c-2.69.79-5.08,1.18-7.19,1.18s-3.63-.37-4.81-1.12c-1.18-.74-1.77-1.72-1.77-2.91,0-.99.43-1.86,1.3-2.6.62-.52,2.18-1.44,4.68-2.76,2.89,1.88,6.03,2.82,9.42,2.82,1.57,0,3.16-.5,4.77-1.49,1.34.99,3.03,1.49,5.05,1.49h7.53s0,0,0,0,0,0,0,0c4.01,0,8.43-1.12,13.27-3.35.48,2.23,2.06,3.35,4.74,3.35h3.97c2.05,0,3.6-.51,4.65-1.52,1.05-1.01,1.58-2.43,1.58-4.25v-9.52l-1.89.34v8.83c0,2.73-1.45,4.09-4.34,4.09h-3.94c-1.92,0-3.1-.64-3.53-1.92.52-.25,1.31-.64,2.39-1.18l.19-1.83c-3.55-3.1-6.05-5.1-7.49-6-1.44-.9-2.84-1.35-4.2-1.35-.97,0-2.23.27-3.78.81l.43,1.74c1.3-.35,2.31-.53,3.04-.53,1.16,0,2.4.4,3.72,1.19,1.32.8,3.42,2.44,6.29,4.94-5.39,2.75-10.43,4.12-15.1,4.12,0,0,0,0,0,0s0,0,0,0h-3.04c.87-2.21,1.3-4.16,1.3-5.86,0-1.8-.66-3.38-1.98-4.76s-2.92-2.06-4.8-2.06c-2,0-3.64.67-4.91,2-1.27,1.33-1.91,3.01-1.91,5.04s.48,3.57,1.43,4.81ZM153.62,74.11c-1.2-1.36-2.21-2.66-3.02-3.88-.82-1.22-1.74-2.81-2.77-4.77,2.33-1.14,4.42-1.71,6.26-1.71,1.65,0,2.99.41,4.01,1.24,1.02.83,1.53,1.9,1.53,3.22,0,1.76-2,3.72-6.01,5.89ZM168.57,67.22c.92-.97,2.17-1.46,3.74-1.46,1.34,0,2.47.54,3.38,1.61.91,1.07,1.36,2.3,1.36,3.69s-.43,3.21-1.3,5.49h-2.91c-1.72,0-3.08-.5-4.11-1.5-1.02-1-1.54-2.33-1.54-3.98s.46-2.87,1.38-3.84Z"/>
      <polygon class="cls-1" points="189.86 84.86 191.62 83.1 189.82 81.33 188.03 83.1 189.86 84.86"/>
      <polygon class="cls-1" points="210.04 60.5 211.8 58.73 210 56.96 208.21 58.73 210.04 60.5"/>
      <polygon class="cls-1" points="205.26 60.5 207.03 58.73 205.23 56.96 203.46 58.73 205.26 60.5"/>
      <polygon class="cls-1" points="229.46 57.02 227.67 58.79 229.49 60.59 231.26 58.79 229.46 57.02"/>
      <polygon class="cls-1" points="224.69 57.02 222.92 58.79 224.72 60.59 226.49 58.79 224.69 57.02"/>
      <path class="cls-1" d="M250.5,65.89c-1.35,1.34-2.03,2.98-2.03,4.9,0,1.53.55,3.45,1.64,5.77h-3.04s-.02,0-.03,0c-.01,0-.02,0-.03,0-2.87,0-4.31-1.44-4.31-4.31v-16.31l-1.89.37.03,16.21c0,.93.11,1.77.34,2.51-1.18,1.01-2.56,1.52-4.15,1.52-1.24,0-2.13-.3-2.67-.91-.54-.61-.81-1.63-.81-3.05v-10.08l-1.89.34v2.01c-1.7-.62-3.19-.93-4.5-.93-2.03,0-3.69.74-4.99,2.23-1.3,1.49-1.95,3.28-1.95,5.36s.65,3.83,1.94,5.22,2.96,2.09,5.01,2.09c1.67,0,3.61-.56,5.8-1.67.85.93,2.2,1.4,4.06,1.4s3.42-.68,4.87-2.05c.99,1.36,2.71,2.05,5.15,2.05,0,0,0,0,.02,0,0,0,0,0,.02,0h6.63c2.69,0,4.78-.69,6.29-2.06,1.51-1.37,2.26-3.28,2.26-5.72,0-1.98-.65-3.63-1.94-4.94-1.29-1.31-2.9-1.97-4.82-1.97s-3.65.67-5.01,2.01ZM227.17,76.9c-1.51,0-2.74-.51-3.7-1.53-.96-1.02-1.44-2.31-1.44-3.86s.49-2.88,1.47-3.98,2.23-1.66,3.74-1.66c1.08,0,2.55.3,4.43.9l.03,5.89c0,1.22.13,2.23.4,3.04-1.74.81-3.38,1.21-4.93,1.21ZM260.37,70.97c0,1.76-.57,3.13-1.72,4.11-1.15.98-2.7,1.47-4.67,1.47h-1.86c-1.2-2.21-1.8-4.08-1.8-5.61,0-1.36.49-2.56,1.46-3.6.97-1.03,2.15-1.55,3.53-1.55,1.47,0,2.68.49,3.63,1.46.95.97,1.43,2.21,1.43,3.72Z"/>
      <path class="cls-1" d="M287.96,76.43c1.65,1.43,3.37,2.14,5.15,2.14,3,0,5.01-.74,6.04-2.23,1.67,1.49,3.51,2.23,5.52,2.23h6.63c2.69,0,4.78-.69,6.29-2.06,1.51-1.37,2.26-3.28,2.26-5.72,0-1.98-.65-3.63-1.94-4.94-1.29-1.31-2.9-1.97-4.82-1.97s-3.65.67-5.01,2.01c-1.35,1.34-2.03,2.98-2.03,4.9,0,1.53.55,3.45,1.64,5.77h-3.04c-1.74,0-3.34-.58-4.8-1.74.14-.56.22-1.23.22-2.02v-6.17l-1.89.37v5.46c0,1.45-.4,2.49-1.19,3.13-.8.64-2.09.96-3.89.96-1.39,0-2.8-.51-4.25-1.52.39-.89.59-1.85.59-2.88,0-1.98-.67-3.55-2-4.7-1.33-1.15-3.12-1.72-5.35-1.72h-6.23l8.99-10.2-1.77-.9-9.49,11.04,1.12,1.92h7.6c1.61,0,2.89.41,3.83,1.22.94.82,1.41,1.93,1.41,3.33s-.47,2.46-1.41,3.24c-.94.78-2.23,1.16-3.86,1.16h-9.55c-2.87,0-4.31-1.44-4.31-4.31v-16.31l-1.89.37v16.21c0,4.03,2.07,6.04,6.2,6.04h9.86c2.31,0,4.1-.71,5.36-2.14ZM309.38,67.35c.97-1.03,2.15-1.55,3.53-1.55,1.47,0,2.68.49,3.63,1.46.95.97,1.43,2.21,1.43,3.72,0,1.76-.57,3.13-1.72,4.11-1.15.98-2.7,1.47-4.67,1.47h-1.86c-1.2-2.21-1.8-4.08-1.8-5.61,0-1.36.49-2.56,1.46-3.6Z"/>
      <polygon class="cls-1" points="298.38 62.29 296.58 60.53 294.81 62.29 296.61 64.09 298.38 62.29"/>
      <polygon class="cls-1" points="303.15 62.29 301.35 60.53 299.55 62.29 301.38 64.09 303.15 62.29"/>
      <path class="cls-1" d="M330.82,66.54c-.46,2.19-.68,3.99-.68,5.39,0,2.19.65,3.84,1.94,4.96,1.29,1.12,3.15,1.67,5.56,1.67h8.37c2.05,0,3.6-.5,4.65-1.5,1.05-1,1.58-2.42,1.58-4.26v-9.52l-1.89.34.03,8.83c0,1.34-.37,2.36-1.12,3.05-.74.69-1.82,1.04-3.22,1.04h-7.97c-4.09,0-6.14-1.71-6.14-5.11,0-1.01.19-2.56.56-4.65l-1.67-.25Z"/>
      <polygon class="cls-1" points="342.01 84.92 343.78 83.16 341.98 81.39 340.18 83.16 342.01 84.92"/>
      <path class="cls-1" d="M359.44,77.64c.02,2-.48,3.48-1.5,4.43-1.02.95-2.52,1.43-4.48,1.43l.22,1.74c5.08,0,7.63-2.51,7.63-7.53v-14.42l-1.86.34v14.01Z"/>
      <path class="cls-1" d="M390.5,78.57h3.97c2.05,0,3.6-.51,4.65-1.52,1.05-1.01,1.58-2.43,1.58-4.25v-9.52l-1.89.34v8.83c0,2.73-1.45,4.09-4.34,4.09h-3.94c-1.92,0-3.1-.64-3.53-1.92.52-.25,1.31-.64,2.39-1.18l.19-1.83c-3.55-3.1-6.05-5.1-7.49-6-1.44-.9-2.84-1.35-4.2-1.35-.97,0-2.23.27-3.78.81l.43,1.74c1.3-.35,2.31-.53,3.04-.53,1.16,0,2.4.4,3.72,1.19,1.32.8,3.42,2.44,6.29,4.94-5.39,2.75-10.43,4.12-15.1,4.12-2.87,0-4.31-1.44-4.31-4.31v-16.31l-1.89.37v16.21c0,4.03,2.07,6.04,6.2,6.04s8.43-1.12,13.27-3.35c.48,2.23,2.06,3.35,4.74,3.35Z"/>
      <polygon class="cls-1" points="383.46 83.1 381.66 81.33 379.87 83.1 381.69 84.86 383.46 83.1"/>
      <polygon class="cls-1" points="403.64 58.73 401.84 56.96 400.05 58.73 401.88 60.5 403.64 58.73"/>
      <polygon class="cls-1" points="397.07 56.96 395.3 58.73 397.1 60.5 398.87 58.73 397.07 56.96"/>
      <path class="cls-1" d="M448.21,55.94l-1.89.37v15.93c0,2.87-1.45,4.31-4.34,4.31h-3.75v-11.25l-1.43-1.3h-3.44c-1.96,0-3.47.52-4.51,1.57-1.04,1.04-1.57,2.48-1.57,4.29v6.11c0,2.71-.48,4.59-1.44,5.66-.96,1.06-2.67,1.6-5.13,1.6-2.09,0-3.71-.54-4.85-1.63-1.15-1.08-1.75-2.67-1.81-4.76,0-2.13.4-4.35,1.21-6.67l-1.55-.43c-.93,2.75-1.4,5.26-1.4,7.53,0,2.6.75,4.58,2.25,5.94,1.5,1.35,3.49,2.03,5.97,2.03,3.27,0,5.52-.76,6.77-2.29,1.25-1.53,1.88-3.81,1.88-6.85v-5.98c0-1.34.38-2.36,1.15-3.05.76-.69,1.84-1.04,3.22-1.04h2.79v12.56h5.64c4.15,0,6.23-2.02,6.23-6.04v-16.58Z"/>
      <path class="cls-1" d="M456.86,84.8h-4.06c-.37-.48-.56-1.01-.56-1.61,0-.46.15-.83.45-1.12.3-.29.7-.43,1.19-.43s1.17.16,2.01.47v-1.24c-.97-.37-1.73-.56-2.26-.56-.79,0-1.44.25-1.95.74s-.77,1.13-.77,1.89c0,.68.17,1.3.53,1.86h-1.83v1.33h6.88l.37-1.33Z"/>
      <polygon class="cls-1" points="453.88 78.57 455.77 78.57 455.77 55.94 453.88 56.31 453.88 78.57"/>
      <path class="cls-1" d="M490.05,70.32c0-1.38-.44-2.93-1.32-4.63-.88-1.71-2.09-3.33-3.64-4.88h-1.8c-4.61,4.75-6.91,9.75-6.91,15v.71c-.34.02-.87.03-1.58.03-2.87,0-4.31-1.44-4.31-4.31v-16.31l-1.89.37v16.21c0,4,2.04,6.01,6.12,6.04,0,0,0,0,.02,0,.02,0,.04,0,.06,0,0,0,0,0,0,0,0,0,0,0,0,0,.81,0,1.42-.01,1.8-.03.41,2.15,1.26,3.83,2.54,5.04,1.28,1.21,2.86,1.81,4.74,1.81,2.13,0,3.75-.52,4.87-1.55,1.12-1.03,1.67-2.52,1.67-4.46v-.81h1.39s0,0,.02,0c4.1-.03,6.15-2.04,6.15-6.04v-16.58l-1.89.37v15.93c0,2.87-1.45,4.31-4.34,4.31h-5.49c2.52-1.34,3.78-3.42,3.78-6.23ZM478.24,75.38c0-2.25.54-4.54,1.63-6.87,1.08-2.32,2.5-4.38,4.23-6.15,2.71,2.98,4.06,5.66,4.06,8.06,0,1.98-.79,3.44-2.37,4.37-1.58.93-4.09,1.49-7.52,1.67-.02-.23-.03-.59-.03-1.08ZM488.56,78.57h.12v.81c0,2.73-1.59,4.09-4.77,4.09-1.41,0-2.57-.43-3.49-1.29s-1.55-2.1-1.91-3.74c2.07-.17,3.82-.46,5.27-.9l.34,1.02h4.43Z"/>
      <path class="cls-1" d="M506.11,58.51c-.7,0-1.16-.55-1.36-1.64l-.25-1.52-1.18.19.28,1.67c.27,1.67,1.07,2.51,2.42,2.51,1.18,0,1.93-.61,2.26-1.83.45.72,1.08,1.08,1.89,1.08.68,0,1.24-.21,1.67-.64.43-.42.65-1.02.65-1.78,0-.66-.21-1.59-.62-2.79l-1.15.47c.37,1.03.56,1.77.56,2.2,0,.81-.38,1.24-1.15,1.3-.83.06-1.36-.53-1.61-1.77l-.28-1.3-1.15.25.25,1.36c.04.29.06.51.06.65,0,.5-.12.88-.36,1.16-.24.28-.55.42-.95.42Z"/>
      <polygon class="cls-1" points="542.29 56.9 540.49 58.67 542.32 60.44 544.08 58.67 542.29 56.9"/>
      <path class="cls-1" d="M543.31,72.8v-9.52l-1.89.34v8.83c0,2.73-1.45,4.09-4.34,4.09,0,0,0,0,0,0s0,0,0,0h-1.67c-1.92,0-3.1-.64-3.53-1.92.52-.25,1.31-.64,2.39-1.18l.19-1.83c-3.55-3.1-6.05-5.1-7.49-6s-2.84-1.35-4.2-1.35c-.97,0-2.23.27-3.78.81l.43,1.74c1.3-.35,2.31-.53,3.04-.53,1.16,0,2.4.4,3.72,1.19,1.32.8,3.42,2.44,6.29,4.94-5.39,2.75-10.43,4.12-15.1,4.12h-1.95v-5.95c0-1.98-.57-3.6-1.72-4.84-1.15-1.24-2.63-1.86-4.45-1.86-2.05,0-3.72.69-5.04,2.06-1.31,1.37-1.97,3.15-1.97,5.32s.66,4.03,1.97,5.33c1.31,1.3,3.06,1.95,5.25,1.95h4.03c-.19,1.72-1.07,2.97-2.65,3.75-1.58.79-3.86,1.18-6.83,1.18l.25,1.74c7.07,0,10.78-2.22,11.13-6.67h1.98c4.01,0,8.43-1.12,13.27-3.35.47,2.23,2.06,3.35,4.74,3.35h1.7s0,0,0,0,0,0,0,0c2.05,0,3.6-.5,4.65-1.5,1.05-1,1.58-2.42,1.58-4.26ZM513.55,76.55c-1.82.04-3.08.06-3.78.06-1.8,0-3.21-.46-4.23-1.4-1.02-.93-1.53-2.27-1.53-4.03,0-1.59.47-2.87,1.43-3.84.95-.97,2.14-1.46,3.56-1.46s2.46.46,3.3,1.36c.84.91,1.26,2.09,1.26,3.53v5.77Z"/>
      <path class="cls-1" d="M555.99,82.13c-1.59.91-3.99,1.36-7.19,1.36l.25,1.74c7.46,0,11.19-2.47,11.19-7.41v-7.22c0-1.98-.57-3.6-1.72-4.84-1.15-1.24-2.64-1.86-4.48-1.86-2.05,0-3.72.69-5.04,2.06-1.31,1.37-1.97,3.15-1.97,5.32s.66,4.03,1.97,5.33c1.31,1.3,3.05,1.95,5.22,1.95,1.41,0,2.78-.32,4.12-.96v.15c.02,2-.76,3.46-2.36,4.37ZM554.53,76.62c-1.78.04-3.18-.41-4.2-1.35s-1.53-2.3-1.53-4.08c0-1.59.47-2.87,1.43-3.84.95-.97,2.14-1.46,3.56-1.46s2.46.46,3.3,1.36c.84.91,1.26,2.09,1.26,3.53v5.08c-1.24.5-2.51.74-3.81.74Z"/>
      <path class="cls-1" d="M574.79,72.12l-1.33-.15c-1.14,2.19-1.8,4.3-1.98,6.32h1.92c.17-2.15.63-4.21,1.4-6.17Z"/>
      <polygon class="cls-1" points="592.62 57.37 590.82 59.13 592.65 60.93 594.42 59.13 592.62 57.37"/>
      <polygon class="cls-1" points="587.84 57.37 586.08 59.13 587.88 60.93 589.64 59.13 587.84 57.37"/>
      <path class="cls-1" d="M610.51,76.55h-13.98v-5.7c0-1.98-.57-3.58-1.71-4.79s-2.63-1.83-4.49-1.88c-2.03-.04-3.67.62-4.93,1.98-1.26,1.36-1.89,3.17-1.89,5.42,0,2.13.62,3.82,1.88,5.08,1.25,1.26,2.9,1.89,4.95,1.89h4.25c-.35,1.51-1.25,2.69-2.7,3.55-1.45.86-3.33,1.29-5.64,1.29-2.46,0-4.39-.56-5.8-1.69-1.41-1.13-2.14-2.75-2.2-4.88,0-2.13.4-4.35,1.21-6.67l-1.55-.43c-.93,2.75-1.39,5.26-1.39,7.53,0,2.56.85,4.53,2.56,5.91,1.71,1.37,3.9,2.06,6.59,2.06,3.18,0,5.69-.58,7.52-1.74,1.83-1.16,2.92-2.8,3.27-4.93h20.09c1.57,0,3.16-.5,4.77-1.49,1.34.99,3.03,1.49,5.05,1.49h7.53c2.19,0,4-.11,5.42-.34,1.43-.23,2.81-.64,4.15-1.24,2.19,1.05,5.2,1.58,9.02,1.58,0,0,0,0,.02,0,0,0,0,0,.02,0,2.05,0,3.6-.5,4.65-1.5,1.05-1,1.58-2.42,1.58-4.26v-9.52l-1.89.34v8.83c0,2.73-1.45,4.09-4.34,4.09,0,0,0,0-.02,0,0,0,0,0-.02,0-2.73,0-5.02-.22-6.88-.65,1.63-1.03,2.89-2.2,3.78-3.49s1.33-2.57,1.33-3.83c0-1.65-.68-3.03-2.05-4.12-1.36-1.1-3.06-1.64-5.08-1.64-2.31,0-4.94.75-7.87,2.26l-.77,1.8c1.09,2.03,2.06,3.66,2.9,4.91.84,1.25,1.88,2.6,3.12,4.05-2.32.48-4.67.71-7.07.71h-3.04c.87-2.21,1.3-4.16,1.3-5.86,0-1.8-.66-3.38-1.98-4.76s-2.92-2.06-4.8-2.06c-2,0-3.64.67-4.91,2-1.27,1.33-1.91,3.01-1.91,5.04s.48,3.57,1.43,4.81c-1.16.56-2.3.84-3.44.84h-6.01ZM594.67,76.55c-1.86.04-3.2.06-4.03.06-1.63,0-2.93-.44-3.89-1.33-.96-.89-1.44-2.15-1.44-3.78s.44-2.97,1.32-3.95c.88-.98,2.04-1.45,3.49-1.41,1.36.04,2.46.51,3.3,1.41s1.26,2.06,1.26,3.49v5.52ZM639.83,71.39c-.85-1.25-1.81-2.88-2.88-4.88,2.42-1.16,4.52-1.74,6.29-1.74,1.65,0,2.99.41,4,1.24,1.01.83,1.52,1.9,1.52,3.22,0,.99-.54,2.08-1.61,3.25-1.08,1.18-2.44,2.16-4.09,2.95-1.3-1.45-2.38-2.79-3.22-4.05ZM621.8,67.22c.92-.97,2.17-1.46,3.74-1.46,1.34,0,2.47.54,3.38,1.61.91,1.07,1.36,2.3,1.36,3.69s-.43,3.21-1.3,5.49h-2.91c-1.72,0-3.08-.5-4.11-1.5-1.02-1-1.54-2.33-1.54-3.98s.46-2.87,1.38-3.84Z"/>
      <polygon class="cls-1" points="653.9 83.19 655.73 84.96 657.5 83.19 655.7 81.42 653.9 83.19"/>
      <polygon class="cls-1" points="689.48 57.37 687.68 59.13 689.51 60.9 691.28 59.13 689.48 57.37"/>
      <path class="cls-1" d="M670.48,66.54c-.43,2.09-.65,3.89-.65,5.39,0,2.19.65,3.84,1.94,4.96,1.29,1.12,3.15,1.67,5.56,1.67h10.82c2.69,0,4.78-.69,6.29-2.06,1.51-1.37,2.26-3.28,2.26-5.72,0-1.98-.65-3.63-1.94-4.94-1.29-1.31-2.9-1.97-4.82-1.97s-3.65.67-5.01,2.01c-1.35,1.34-2.03,2.98-2.03,4.9,0,1.55.56,3.47,1.67,5.77h-6.82c-4.09,0-6.14-1.71-6.14-5.11,0-1.01.19-2.56.56-4.65l-1.71-.25ZM686.23,67.35c.97-1.03,2.15-1.55,3.53-1.55,1.47,0,2.68.49,3.63,1.46.95.97,1.43,2.21,1.43,3.72,0,1.76-.57,3.13-1.72,4.11-1.15.98-2.7,1.47-4.67,1.47h-1.86c-1.2-2.21-1.8-4.08-1.8-5.61,0-1.36.49-2.56,1.46-3.6Z"/>
      <polygon class="cls-1" points="700.74 78.57 702.63 78.57 702.63 55.94 700.74 56.31 700.74 78.57"/>
      <path class="cls-1" d="M719.4,74.94c.19-.62.28-1.33.28-2.14v-2.6c-.02-1.86-.66-3.39-1.92-4.59-1.26-1.2-2.84-1.8-4.74-1.8h-2.11v1.98h1.74c1.47,0,2.69.44,3.67,1.32.98.88,1.47,2.01,1.47,3.39v2.11c0,1.28-.37,2.26-1.12,2.93-.74.67-1.82,1.01-3.22,1.01h-7.81l.43,2.02h7.38c2.44,0,4.16-.7,5.18-2.11,1.65,1.41,3.37,2.11,5.15,2.11s3.44-.46,5.05-1.4c1.3.93,2.93,1.4,4.9,1.4h9.8l1.58-1.83c.45-1.8.77-3.22.96-4.28.19-1.05.28-2.22.28-3.5,0-3.27-1.3-5.9-3.91-7.91-2.6-2-6.13-3.01-10.57-3.01l-.22,1.86c4.09,0,7.25.9,9.49,2.7,2.23,1.8,3.35,4,3.35,6.6,0,2.17-.39,4.62-1.18,7.35h-5.05c.85-2.23,1.27-4.19,1.27-5.86,0-1.8-.66-3.38-1.98-4.76s-2.92-2.06-4.8-2.06c-1.98,0-3.62.67-4.9,2s-1.92,3.01-1.92,5.04.51,3.63,1.52,4.93c-1.08.48-2.29.71-3.66.71-1.45,0-2.9-.54-4.37-1.61ZM729.18,67.22c.92-.97,2.17-1.46,3.74-1.46,1.34,0,2.47.54,3.39,1.61.92,1.07,1.38,2.3,1.38,3.69s-.45,3.23-1.33,5.49h-2.91c-1.72,0-3.08-.5-4.11-1.5-1.02-1-1.54-2.33-1.54-3.98s.46-2.87,1.38-3.84Z"/>
      <path class="cls-1" d="M765.4,55.94l-1.86.37-.03,15.93c0,2.87-1.44,4.31-4.31,4.31h-1.02l-3.22-16.58-1.92.5,3.32,16.09h-8.03l.46,2.02h10.39c4.15,0,6.23-2.02,6.23-6.04v-16.58Z"/>
      <path class="cls-1" d="M751.45,56.65h-1.8v1.33h6.88l.34-1.33h-4.03c-.39-.45-.59-.99-.59-1.61,0-.45.15-.83.46-1.12.31-.29.7-.43,1.18-.43.58,0,1.25.16,2.01.47v-1.24c-.89-.37-1.64-.56-2.26-.56-.79,0-1.44.25-1.95.74s-.77,1.12-.77,1.86c0,.68.17,1.31.53,1.89Z"/>
      <polygon class="cls-1" points="771.07 56.31 771.07 78.57 772.96 78.57 772.96 55.94 771.07 56.31"/>
      <polygon class="cls-1" points="827.95 59.13 829.78 60.9 831.54 59.13 829.75 57.37 827.95 59.13"/>
      <path class="cls-1" d="M843.08,77.07c1.05-1,1.58-2.42,1.58-4.26v-9.52l-1.89.34v8.83c0,2.73-1.45,4.09-4.34,4.09-2.34,0-4.19-.09-5.55-.28,2.4-1.41,3.6-3.38,3.6-5.92,0-1.82-.64-3.35-1.91-4.6-1.27-1.25-2.87-1.88-4.79-1.88s-3.45.62-4.71,1.84c-1.26,1.23-1.89,2.79-1.89,4.67,0,2.58,1.19,4.56,3.56,5.92-1.47.17-3.39.25-5.77.25h-5.49c2.52-1.34,3.78-3.42,3.78-6.23,0-1.38-.44-2.93-1.32-4.63-.88-1.71-2.09-3.33-3.64-4.88h-1.8c-4.61,4.75-6.91,9.75-6.91,15v.71c-.35.02-.9.03-1.64.03h-3.04c.87-2.27,1.3-4.23,1.3-5.86,0-1.82-.65-3.41-1.95-4.77-1.3-1.36-2.89-2.05-4.77-2.05-1.98,0-3.62.67-4.9,2-1.28,1.33-1.92,3.01-1.92,5.04v.09c-2.96.35-4.43,2.09-4.43,5.21v10.73l1.89-.37v-9.95c0-2.13.92-3.34,2.76-3.63.39,1.78,1.26,3.15,2.6,4.12,1.34.97,3.01,1.46,4.99,1.46h7.53s0,0,0,0c.81,0,1.42-.01,1.8-.03.41,2.15,1.26,3.83,2.54,5.04,1.28,1.21,2.86,1.81,4.74,1.81,2.13,0,3.75-.52,4.87-1.55,1.12-1.03,1.67-2.52,1.67-4.46v-.81h1.39s0,0,0,0c3.63,0,6.57-.34,8.83-1.02,2.42.68,5.27,1.02,8.56,1.02,2.05,0,3.6-.5,4.65-1.5ZM799.15,76.55h-2.95c-1.71,0-3.08-.5-4.11-1.5-1.02-1-1.53-2.33-1.53-3.98s.46-2.87,1.38-3.84c.92-.97,2.16-1.46,3.74-1.46,1.34,0,2.48.54,3.41,1.61.93,1.07,1.39,2.3,1.39,3.69s-.44,3.23-1.33,5.49ZM807.46,75.38c0-2.25.54-4.54,1.63-6.87,1.08-2.32,2.5-4.38,4.23-6.15,2.71,2.98,4.06,5.66,4.06,8.06,0,1.98-.79,3.44-2.37,4.37-1.58.93-4.09,1.49-7.52,1.67-.02-.23-.03-.59-.03-1.08ZM817.91,79.38c0,2.73-1.59,4.09-4.77,4.09-1.41,0-2.57-.43-3.49-1.29s-1.55-2.1-1.91-3.74c2.07-.17,3.82-.46,5.27-.9l.34,1.02h4.56v.81ZM829.78,76c-1.47-.41-2.62-1.1-3.47-2.08-.85-.97-1.27-2.09-1.27-3.35,0-1.41.44-2.55,1.32-3.44.88-.89,2-1.33,3.36-1.33s2.57.44,3.49,1.33c.92.89,1.38,2.03,1.38,3.41,0,1.26-.42,2.37-1.27,3.32-.85.95-2.03,1.66-3.53,2.14Z"/>
      <polygon class="cls-1" points="841.84 58.67 843.67 60.44 845.43 58.67 843.64 56.9 841.84 58.67"/>
      <polygon class="cls-1" points="11.53 105.09 9.73 106.85 11.56 108.65 13.33 106.85 11.53 105.09"/>
      <path class="cls-1" d="M14.17,114.17c-1.3-1.49-2.97-2.23-4.99-2.23s-3.69.74-4.99,2.23c-1.3,1.49-1.95,3.28-1.95,5.36s.65,3.83,1.94,5.22c1.29,1.4,2.96,2.09,5.01,2.09s3.71-.7,5.01-2.09c1.29-1.4,1.94-3.14,1.94-5.22s-.65-3.88-1.95-5.36ZM12.82,123.31c-.94,1.01-2.15,1.52-3.64,1.52s-2.71-.51-3.66-1.52c-.95-1.01-1.43-2.28-1.43-3.81s.48-2.84,1.44-3.92c.96-1.09,2.17-1.63,3.64-1.63s2.68.54,3.63,1.63c.95,1.08,1.43,2.39,1.43,3.92s-.47,2.8-1.41,3.81Z"/>
      <polygon class="cls-1" points="6.76 105.09 4.99 106.85 6.79 108.65 8.56 106.85 6.76 105.09"/>
      <path class="cls-1" d="M18.26,126.57h13.55l.5-2.02h-8.49c-1.12-1.76-1.63-3.28-1.55-4.56.04-1.22.45-2.19,1.24-2.9.79-.71,1.82-1.07,3.1-1.07,1.01,0,2.36.28,4.03.84l.53-1.61c-1.92-.74-3.55-1.12-4.9-1.12-1.61,0-2.98.53-4.09,1.58-1.12,1.05-1.67,2.37-1.67,3.94s.53,3.14,1.58,4.9h-3.81v2.02Z"/>
      <path class="cls-1" d="M59.74,126.57h9.86c2.31,0,4.1-.71,5.36-2.14,1.65,1.43,3.37,2.14,5.15,2.14,2.05,0,3.6-.5,4.65-1.5,1.05-1,1.58-2.42,1.58-4.26v-9.52l-1.89.34v8.83c0,2.73-1.45,4.09-4.34,4.09-1.39,0-2.8-.51-4.25-1.52.39-.89.59-1.85.59-2.88,0-1.98-.67-3.55-2-4.7-1.33-1.15-3.12-1.72-5.35-1.72h-6.23l8.99-10.2-1.77-.9-9.49,11.04,1.12,1.92h7.6c1.61,0,2.89.41,3.83,1.22.94.82,1.41,1.93,1.41,3.33s-.47,2.46-1.41,3.24c-.94.78-2.23,1.16-3.86,1.16h-9.55c-2.34,0-4.19-.09-5.55-.28,2.4-1.41,3.6-3.38,3.6-5.92,0-1.82-.64-3.35-1.91-4.6-1.27-1.25-2.87-1.88-4.79-1.88s-3.45.62-4.71,1.84c-1.26,1.23-1.89,2.79-1.89,4.67,0,2.58,1.19,4.56,3.56,5.92-1.47.17-3.39.25-5.77.25-2.87,0-4.31-1.44-4.31-4.31v-16.31l-1.89.37v16.21c0,4.03,2.07,6.04,6.2,6.04,3.66,0,6.62-.34,8.9-1.02,2.42.68,5.27,1.02,8.56,1.02ZM47.62,121.92c-.85-.97-1.27-2.09-1.27-3.35,0-1.41.44-2.55,1.32-3.44.88-.89,2-1.33,3.36-1.33s2.57.44,3.49,1.33c.92.89,1.38,2.03,1.38,3.41,0,1.26-.42,2.37-1.27,3.32-.85.95-2.03,1.66-3.53,2.14-1.47-.41-2.62-1.1-3.47-2.08Z"/>
      <polygon class="cls-1" points="49.26 107.13 51.09 108.9 52.85 107.13 51.06 105.37 49.26 107.13"/>
      <polygon class="cls-1" points="81.5 131.19 83.33 132.96 85.1 131.19 83.3 129.42 81.5 131.19"/>
      <path class="cls-1" d="M113.57,131.93c-2.69.79-4.87,1.18-6.54,1.18-2.23,0-3.95-.47-5.15-1.41-1.2-.94-1.8-2.28-1.8-4.01,0-1.9.96-3.5,2.87-4.81,1.91-1.3,4.64-2.11,8.2-2.42v1.4c0,1.67.46,2.88,1.36,3.61.91.73,2.39,1.1,4.43,1.1h2.26c2.05,0,3.6-.51,4.65-1.52,1.05-1.01,1.58-2.43,1.58-4.25v-9.52l-1.89.34v8.83c0,2.73-1.45,4.09-4.34,4.09h-2.26c-1.76,0-2.96-.23-3.6-.7-.64-.47-.96-1.36-.96-2.68v-.81c.14,0,.38,0,.71-.02.33-.01.58-.02.74-.02l.84-2.14c-3.2-3.29-5.59-5.49-7.16-6.6-1.57-1.12-3.08-1.67-4.53-1.67-.99,0-2.26.27-3.81.81l.43,1.74c1.47-.35,2.49-.53,3.07-.53,1.26,0,2.58.47,3.97,1.41,1.38.94,3.33,2.71,5.83,5.32-4.86.33-8.45,1.32-10.79,2.96-2.34,1.64-3.5,3.69-3.5,6.15s.74,4.16,2.23,5.42,3.57,1.89,6.23,1.89c2.09,0,4.58-.51,7.47-1.52l-.56-1.64Z"/>
      <polygon class="cls-1" points="107.83 128.03 109.6 126.26 107.8 124.49 106 126.26 107.83 128.03"/>
      <path class="cls-1" d="M127.27,107.72h-4.25c-.46-.52-.68-1.06-.68-1.64,0-.52.17-.92.51-1.21.34-.29.8-.43,1.38-.43.41,0,1.12.15,2.11.46v-1.43c-.81-.39-1.59-.59-2.36-.59-.89,0-1.62.27-2.19.81-.57.54-.85,1.23-.85,2.08,0,.64.22,1.29.65,1.95h-1.98v1.55h7.16l.5-1.55Z"/>
      <path class="cls-1" d="M136.73,126.57c3,0,5.01-.74,6.04-2.23,1.67,1.49,3.51,2.23,5.52,2.23,2.36,0,4.06-.67,5.12-2.02,1.63,1.34,3.31,2.02,5.02,2.02,4.15,0,6.23-2.02,6.23-6.04v-16.58l-1.89.37v15.93c0,2.87-1.45,4.31-4.34,4.31-1.43,0-2.84-.5-4.25-1.49.23-.72.34-1.48.34-2.26v-6.17l-1.89.37v5.46c0,2.73-1.45,4.09-4.34,4.09-1.74,0-3.34-.58-4.81-1.74.14-.56.22-1.23.22-2.02v-6.17l-1.89.37v5.46c0,1.45-.4,2.49-1.19,3.13-.8.64-2.09.96-3.89.96-2.87,0-4.31-1.44-4.31-4.31v-16.31l-1.89.37v16.21c0,4.03,2.07,6.04,6.2,6.04Z"/>
      <polygon class="cls-1" points="146.77 110.29 144.97 108.53 143.17 110.29 145 112.09 146.77 110.29"/>
      <polygon class="cls-1" points="140.2 108.53 138.43 110.29 140.23 112.09 142 110.29 140.2 108.53"/>
      <polygon class="cls-1" points="155.26 110.29 153.47 108.53 151.67 110.29 153.5 112.06 155.26 110.29"/>
      <polygon class="cls-1" points="172.22 126.57 172.22 103.94 170.33 104.31 170.33 126.57 172.22 126.57"/>
      <polygon class="cls-1" points="195.92 108.93 197.69 107.13 195.89 105.37 194.12 107.13 195.92 108.93"/>
      <polygon class="cls-1" points="200.69 108.93 202.46 107.13 200.66 105.37 198.87 107.13 200.69 108.93"/>
      <polygon class="cls-1" points="212.72 131.19 214.55 132.99 216.32 131.19 214.52 129.42 212.72 131.19"/>
      <polygon class="cls-1" points="209.78 132.99 211.54 131.19 209.75 129.42 207.98 131.19 209.78 132.99"/>
      <path class="cls-1" d="M212.57,124.34c1.67,1.49,3.51,2.23,5.52,2.23,3.66,0,6.62-.34,8.9-1.02,2.42.68,5.27,1.02,8.56,1.02,4.01,0,8.43-1.12,13.27-3.35.48,2.23,2.06,3.35,4.74,3.35h3.97c2.05,0,3.6-.51,4.65-1.52,1.05-1.01,1.58-2.43,1.58-4.25v-9.52l-1.89.34v8.83c0,2.73-1.45,4.09-4.34,4.09h-3.94c-1.92,0-3.1-.64-3.53-1.92.52-.25,1.31-.64,2.39-1.18l.19-1.83c-3.55-3.1-6.05-5.1-7.49-6-1.44-.9-2.84-1.35-4.2-1.35-.97,0-2.23.27-3.78.81l.43,1.74c1.3-.35,2.31-.53,3.04-.53,1.16,0,2.4.4,3.72,1.19,1.32.8,3.42,2.44,6.29,4.94-5.39,2.75-10.43,4.12-15.1,4.12-2.34,0-4.19-.09-5.55-.28,2.4-1.41,3.6-3.38,3.6-5.92,0-1.82-.64-3.35-1.91-4.6-1.27-1.25-2.87-1.88-4.79-1.88s-3.45.62-4.71,1.84c-1.26,1.23-1.89,2.79-1.89,4.67,0,2.58,1.19,4.56,3.56,5.92-1.47.17-3.39.25-5.77.25-1.74,0-3.34-.58-4.81-1.74.14-.56.22-1.23.22-2.02v-6.17l-1.89.37v5.46c0,1.45-.4,2.49-1.19,3.13-.8.64-2.09.96-3.89.96h-1.95v-5.7c0-1.98-.57-3.58-1.71-4.79s-2.63-1.83-4.49-1.88c-2.03-.04-3.67.62-4.93,1.98-1.26,1.36-1.89,3.17-1.89,5.42,0,2.13.62,3.82,1.88,5.08,1.25,1.26,2.9,1.89,4.95,1.89h4.25c-.35,1.51-1.25,2.69-2.7,3.55-1.45.86-3.33,1.29-5.64,1.29-2.46,0-4.39-.56-5.8-1.69-1.41-1.13-2.14-2.75-2.2-4.88,0-2.13.4-4.35,1.21-6.67l-1.55-.43c-.93,2.75-1.39,5.26-1.39,7.53,0,2.56.85,4.53,2.56,5.91,1.71,1.37,3.9,2.06,6.59,2.06,3.18,0,5.69-.58,7.52-1.74,1.83-1.16,2.92-2.8,3.27-4.93h2.05c3,0,5.01-.74,6.04-2.23ZM223.42,121.92c-.85-.97-1.27-2.09-1.27-3.35,0-1.41.44-2.55,1.32-3.44.88-.89,2-1.33,3.36-1.33s2.57.44,3.49,1.33c.92.89,1.38,2.03,1.38,3.41,0,1.26-.42,2.37-1.27,3.32-.85.95-2.03,1.66-3.53,2.14-1.47-.41-2.62-1.1-3.47-2.08ZM202.71,124.55c-1.86.04-3.2.06-4.03.06-1.63,0-2.93-.44-3.89-1.33-.96-.89-1.44-2.15-1.44-3.78s.44-2.97,1.32-3.95c.88-.98,2.04-1.45,3.49-1.41,1.36.04,2.46.51,3.3,1.41s1.26,2.06,1.26,3.49v5.52Z"/>
      <polygon class="cls-1" points="224.63 108.96 226.39 107.16 224.6 105.4 222.83 107.16 224.63 108.96"/>
      <polygon class="cls-1" points="229.4 108.96 231.17 107.16 229.37 105.4 227.57 107.16 229.4 108.96"/>
      <polygon class="cls-1" points="260.15 108.5 261.92 106.73 260.12 104.96 258.35 106.73 260.15 108.5"/>
      <polygon class="cls-1" points="266.69 106.73 264.9 104.96 263.1 106.73 264.93 108.5 266.69 106.73"/>
      <path class="cls-1" d="M275,111.91c-2.05,0-3.73.69-5.04,2.06-1.31,1.37-1.97,3.15-1.97,5.32s.66,4.03,1.97,5.33c1.31,1.3,3.05,1.95,5.22,1.95,1.41,0,2.78-.32,4.12-.96v.15c.02,2-.76,3.46-2.36,4.37-1.59.91-3.99,1.36-7.19,1.36l.25,1.74c7.46,0,11.19-2.47,11.19-7.41v-7.22c0-1.98-.57-3.6-1.72-4.84-1.15-1.24-2.64-1.86-4.48-1.86ZM279.31,123.87c-1.24.5-2.51.74-3.81.74-1.78.04-3.18-.41-4.2-1.35-1.02-.94-1.53-2.3-1.53-4.08,0-1.59.48-2.87,1.43-3.84.95-.97,2.14-1.46,3.57-1.46s2.46.46,3.3,1.36c.84.91,1.25,2.09,1.25,3.53v5.08Z"/>
      <polygon class="cls-1" points="297.18 105.02 295.42 106.79 297.21 108.59 298.98 106.79 297.18 105.02"/>
      <polygon class="cls-1" points="301.96 105.02 300.16 106.79 301.99 108.59 303.75 106.79 301.96 105.02"/>
      <path class="cls-1" d="M325.02,118.35c0-1.82-.64-3.35-1.91-4.6-1.27-1.25-2.87-1.88-4.79-1.88s-3.45.62-4.71,1.84c-1.26,1.23-1.89,2.79-1.89,4.67,0,2.58,1.19,4.56,3.57,5.92-1.47.17-3.39.25-5.77.25-1.24,0-2.13-.3-2.67-.91-.54-.61-.81-1.63-.81-3.05v-10.08l-1.89.34v2.01c-1.69-.62-3.19-.93-4.5-.93-2.03,0-3.69.74-4.99,2.23-1.3,1.49-1.95,3.28-1.95,5.36s.65,3.83,1.94,5.22c1.29,1.4,2.96,2.09,5.01,2.09,1.67,0,3.61-.56,5.8-1.67.85.93,2.2,1.4,4.06,1.4,3.66,0,6.62-.34,8.9-1.02,2.42.68,5.27,1.02,8.56,1.02,3,0,5.01-.74,6.04-2.23,1.67,1.49,3.51,2.23,5.52,2.23,4.15,0,6.23-2.02,6.23-6.04v-16.58l-1.89.37v15.93c0,2.87-1.45,4.31-4.34,4.31-1.74,0-3.34-.58-4.8-1.74.14-.56.22-1.23.22-2.02v-6.17l-1.89.37v5.46c0,1.45-.4,2.49-1.19,3.13-.8.64-2.09.96-3.89.96-2.34,0-4.18-.09-5.55-.28,2.4-1.41,3.6-3.38,3.6-5.92ZM299.66,124.9c-1.51,0-2.74-.51-3.7-1.53s-1.44-2.31-1.44-3.86.49-2.88,1.47-3.98c.98-1.11,2.23-1.66,3.74-1.66,1.07,0,2.55.3,4.43.9l.03,5.89c0,1.22.13,2.23.4,3.04-1.74.81-3.38,1.21-4.93,1.21ZM318.33,124c-1.47-.41-2.62-1.1-3.47-2.08-.85-.97-1.27-2.09-1.27-3.35,0-1.41.44-2.55,1.32-3.44.88-.89,2-1.33,3.36-1.33s2.57.44,3.49,1.33c.92.89,1.38,2.03,1.38,3.41,0,1.26-.42,2.37-1.27,3.32-.85.95-2.03,1.66-3.53,2.14Z"/>
      <polygon class="cls-1" points="319.01 107.16 320.84 108.96 322.6 107.16 320.8 105.4 319.01 107.16"/>
      <polygon class="cls-1" points="316.03 105.4 314.26 107.16 316.06 108.96 317.83 107.16 316.03 105.4"/>
      <polygon class="cls-1" points="337.27 110.29 335.47 108.53 333.67 110.29 335.5 112.06 337.27 110.29"/>
      <polygon class="cls-1" points="330.29 112.06 332.09 110.29 330.29 108.53 328.52 110.29 330.29 112.06"/>
      <polygon class="cls-1" points="331.56 106.67 332.93 108.06 334.29 106.67 332.89 105.3 331.56 106.67"/>
      <polygon class="cls-1" points="350.44 126.57 352.33 126.57 352.33 103.94 350.44 104.31 350.44 126.57"/>
      <path class="cls-1" d="M364.13,126.57h13.55l.5-2.02h-8.49c-1.12-1.76-1.63-3.28-1.55-4.56.04-1.22.45-2.19,1.24-2.9.79-.71,1.82-1.07,3.1-1.07,1.01,0,2.36.28,4.03.84l.53-1.61c-1.92-.74-3.55-1.12-4.9-1.12-1.61,0-2.98.53-4.09,1.58-1.12,1.05-1.67,2.37-1.67,3.94s.53,3.14,1.58,4.9h-3.81v2.02Z"/>
      <polygon class="cls-1" points="391.53 110.29 393.36 112.06 395.13 110.29 393.33 108.53 391.53 110.29"/>
      <polygon class="cls-1" points="401.3 131.22 403.12 132.99 404.89 131.22 403.09 129.45 401.3 131.22"/>
      <path class="cls-1" d="M414.66,120.52v-16.58l-1.89.37v15.93c0,2.87-1.45,4.31-4.34,4.31-1.43,0-2.84-.5-4.25-1.49.23-.72.34-1.48.34-2.26v-6.17l-1.89.37v5.46c0,2.73-1.45,4.09-4.34,4.09-1.43,0-2.84-.5-4.25-1.49.23-.72.34-1.48.34-2.26v-6.17l-1.89.37v5.46c0,2.73-1.45,4.09-4.34,4.09s-4.31-1.44-4.31-4.31v-16.31l-1.89.37v16.21c0,4.03,2.07,6.04,6.2,6.04,2.36,0,4.06-.67,5.12-2.02,1.63,1.34,3.31,2.02,5.02,2.02,2.36,0,4.06-.67,5.12-2.02,1.63,1.34,3.31,2.02,5.02,2.02,4.15,0,6.23-2.02,6.23-6.04Z"/>
      <path class="cls-1" d="M428.47,117.73c-.93,2.75-1.4,5.26-1.4,7.53,0,2.6.75,4.58,2.25,5.94,1.5,1.35,3.49,2.03,5.97,2.03,3,0,5.19-.87,6.57-2.62,1.38-1.75,2.08-4.11,2.08-7.08v-12.25l-1.89.34v11.78c0,2.67-.54,4.63-1.63,5.91s-2.73,1.91-4.94,1.91c-2.09,0-3.71-.54-4.85-1.63-1.15-1.08-1.75-2.67-1.81-4.76,0-2.13.4-4.35,1.21-6.67l-1.55-.43Z"/>
      <polygon class="cls-1" points="437.46 111.81 435.66 110.05 433.86 111.81 435.69 113.58 437.46 111.81"/>
      <path class="cls-1" d="M454.82,111.91c-2.05,0-3.73.69-5.04,2.06-1.31,1.37-1.97,3.15-1.97,5.32s.66,4.03,1.97,5.33c1.31,1.3,3.05,1.95,5.22,1.95,1.41,0,2.78-.32,4.12-.96v.15c.02,2-.76,3.46-2.36,4.37-1.59.91-3.99,1.36-7.19,1.36l.25,1.74c7.46,0,11.19-2.47,11.19-7.41v-7.22c0-1.98-.57-3.6-1.72-4.84-1.15-1.24-2.64-1.86-4.48-1.86ZM459.13,123.87c-1.24.5-2.51.74-3.81.74-1.78.04-3.18-.41-4.2-1.35-1.02-.94-1.53-2.3-1.53-4.08,0-1.59.48-2.87,1.43-3.84.95-.97,2.14-1.46,3.57-1.46s2.46.46,3.3,1.36c.84.91,1.25,2.09,1.25,3.53v5.08Z"/>
      <path class="cls-1" d="M481.76,124.99c2.19,1.05,5.2,1.58,9.02,1.58,0,0,0,0,.02,0,0,0,0,0,.02,0h2.26c2.05,0,3.6-.51,4.65-1.52,1.05-1.01,1.58-2.43,1.58-4.25v-9.52l-1.89.34v8.83c0,2.73-1.45,4.09-4.34,4.09h-2.26s0,0-.02,0c0,0,0,0-.02,0-2.73,0-5.02-.22-6.88-.65,1.63-1.03,2.89-2.2,3.78-3.49s1.33-2.57,1.33-3.83c0-1.65-.68-3.03-2.05-4.12-1.36-1.1-3.06-1.64-5.08-1.64-2.31,0-4.94.75-7.87,2.26l-.77,1.8c1.09,2.03,2.06,3.66,2.9,4.91.84,1.25,1.88,2.6,3.12,4.05-2.32.48-4.67.71-7.07.71-2.87,0-4.31-1.44-4.31-4.31v-16.31l-1.89.37v16.21c0,4.03,2.07,6.04,6.2,6.04,2.19,0,4-.11,5.42-.34,1.43-.23,2.81-.64,4.15-1.24ZM478.13,119.39c-.85-1.25-1.81-2.88-2.88-4.88,2.42-1.16,4.52-1.74,6.29-1.74,1.65,0,2.99.41,4,1.24,1.01.83,1.52,1.9,1.52,3.22,0,.99-.54,2.08-1.61,3.25-1.08,1.18-2.44,2.16-4.09,2.95-1.3-1.45-2.38-2.79-3.22-4.05Z"/>
      <polygon class="cls-1" points="495.68 104.96 493.91 106.73 495.71 108.5 497.47 106.73 495.68 104.96"/>
      <polygon class="cls-1" points="502.25 106.73 500.45 104.96 498.65 106.73 500.48 108.5 502.25 106.73"/>
      <path class="cls-1" d="M512.51,130.13c-1.59.91-3.99,1.36-7.19,1.36l.25,1.74c7.46,0,11.19-2.47,11.19-7.41v-7.22c0-1.98-.57-3.6-1.72-4.84-1.15-1.24-2.64-1.86-4.48-1.86-2.05,0-3.72.69-5.04,2.06-1.31,1.37-1.97,3.15-1.97,5.32s.66,4.03,1.97,5.33c1.31,1.3,3.05,1.95,5.22,1.95,1.41,0,2.78-.32,4.12-.96v.15c.02,2-.76,3.46-2.36,4.37ZM511.05,124.62c-1.78.04-3.18-.41-4.2-1.35s-1.53-2.3-1.53-4.08c0-1.59.47-2.87,1.43-3.84.95-.97,2.14-1.46,3.56-1.46s2.46.46,3.3,1.36c.84.91,1.26,2.09,1.26,3.53v5.08c-1.24.5-2.51.74-3.81.74Z"/>
      <polygon class="cls-1" points="537.54 108.59 539.31 106.79 537.51 105.02 535.71 106.79 537.54 108.59"/>
      <polygon class="cls-1" points="532.77 108.59 534.54 106.79 532.74 105.02 530.97 106.79 532.77 108.59"/>
      <path class="cls-1" d="M545.08,126.57c3,0,5.01-.74,6.04-2.23,1.67,1.49,3.51,2.23,5.52,2.23h6.63c2.69,0,4.78-.69,6.29-2.06,1.51-1.37,2.26-3.28,2.26-5.72,0-1.98-.65-3.63-1.94-4.94-1.29-1.31-2.9-1.97-4.82-1.97s-3.65.67-5.01,2.01c-1.35,1.34-2.03,2.98-2.03,4.9,0,1.53.55,3.45,1.64,5.77h-3.04c-1.74,0-3.34-.58-4.8-1.74.14-.56.22-1.23.22-2.02v-6.17l-1.89.37v5.46c0,1.45-.4,2.49-1.19,3.13-.8.64-2.09.96-3.89.96-1.24,0-2.13-.3-2.67-.91-.54-.61-.81-1.63-.81-3.05v-10.08l-1.89.34v2.01c-1.7-.62-3.19-.93-4.5-.93-2.03,0-3.69.74-4.99,2.23-1.3,1.49-1.95,3.28-1.95,5.36s.65,3.83,1.94,5.22,2.96,2.09,5.01,2.09c1.67,0,3.61-.56,5.8-1.67.85.93,2.2,1.4,4.06,1.4ZM561.35,115.35c.97-1.03,2.15-1.55,3.53-1.55,1.47,0,2.68.49,3.63,1.46.95.97,1.43,2.21,1.43,3.72,0,1.76-.57,3.13-1.72,4.11-1.15.98-2.7,1.47-4.67,1.47h-1.86c-1.2-2.21-1.8-4.08-1.8-5.61,0-1.36.49-2.56,1.46-3.6ZM535.22,124.9c-1.51,0-2.74-.51-3.7-1.53-.96-1.02-1.44-2.31-1.44-3.86s.49-2.88,1.47-3.98,2.23-1.66,3.74-1.66c1.08,0,2.55.3,4.43.9l.03,5.89c0,1.22.13,2.23.4,3.04-1.74.81-3.38,1.21-4.93,1.21Z"/>
      <polygon class="cls-1" points="553.1 132.99 554.87 131.19 553.07 129.42 551.28 131.19 553.1 132.99"/>
      <polygon class="cls-1" points="548.33 132.99 550.1 131.19 548.3 129.42 546.53 131.19 548.33 132.99"/>
      <polygon class="cls-1" points="562.84 107.13 564.67 108.9 566.43 107.13 564.64 105.37 562.84 107.13"/>
      <polygon class="cls-1" points="591.11 108.9 592.88 107.13 591.08 105.37 589.28 107.13 591.11 108.9"/>
      <polygon class="cls-1" points="636.43 107.72 634.63 105.95 632.83 107.72 634.66 109.49 636.43 107.72"/>
      <polygon class="cls-1" points="627.69 107.72 629.46 109.49 631.25 107.72 629.46 105.95 627.69 107.72"/>
      <polygon class="cls-1" points="633.45 104.09 632.06 102.73 630.73 104.09 632.09 105.49 633.45 104.09"/>
      <polygon class="cls-1" points="649.98 129.42 648.18 131.19 650.01 132.96 651.78 131.19 649.98 129.42"/>
      <path class="cls-1" d="M651.43,125.07c1.05-1,1.58-2.42,1.58-4.26v-9.52l-1.89.34v8.83c0,2.73-1.45,4.09-4.34,4.09-1.38,0-2.77-.49-4.15-1.46.23-.72.34-1.5.34-2.32v-9.52l-1.89.34v8.83c0,1.34-.37,2.36-1.12,3.05-.74.69-1.81,1.04-3.19,1.04-1.3,0-2.66-.32-4.06-.96.37-.81.56-1.74.56-2.79v-6.17l-1.89.37v5.46c0,2.73-1.45,4.09-4.34,4.09-1.03,0-2.23-.29-3.6-.87.39-.89.59-1.84.59-2.85v-6.17l-1.89.37v5.46c0,2.73-1.45,4.09-4.34,4.09h-18.04c-2.34,0-4.18-.09-5.55-.28,2.4-1.41,3.6-3.38,3.6-5.92,0-1.82-.64-3.35-1.91-4.6-1.27-1.25-2.87-1.88-4.79-1.88s-3.45.62-4.71,1.84c-1.26,1.23-1.89,2.79-1.89,4.67,0,2.58,1.19,4.56,3.57,5.92-1.47.17-3.39.25-5.77.25-2.87,0-4.31-1.44-4.31-4.31v-16.31l-1.89.37v16.21c0,4.03,2.07,6.04,6.2,6.04,3.66,0,6.62-.34,8.9-1.02,2.42.68,5.27,1.02,8.56,1.02h18.04c2.03,0,3.58-.52,4.65-1.55,1.67,1.01,3.25,1.52,4.71,1.52,1.98,0,3.51-.54,4.59-1.61,1.82,1.07,3.54,1.61,5.18,1.61,2.23,0,3.86-.65,4.9-1.95,1.57,1.32,3.22,1.98,4.96,1.98,2.05,0,3.6-.5,4.65-1.5ZM591.11,124c-1.47-.41-2.62-1.1-3.47-2.08-.85-.97-1.27-2.09-1.27-3.35,0-1.41.44-2.55,1.32-3.44.88-.89,2-1.33,3.36-1.33s2.57.44,3.49,1.33c.92.89,1.38,2.03,1.38,3.41,0,1.26-.42,2.37-1.27,3.32-.85.95-2.03,1.66-3.53,2.14Z"/>
      <path class="cls-1" d="M726.41,125.07c1.05-1,1.58-2.42,1.58-4.26v-9.52l-1.89.34v8.83c0,2.73-1.45,4.09-4.34,4.09,0,0,0,0-.02,0,0,0,0,0-.02,0-2.73,0-5.02-.22-6.88-.65,1.63-1.03,2.89-2.2,3.78-3.49.89-1.29,1.33-2.57,1.33-3.83,0-1.65-.68-3.03-2.05-4.12-1.36-1.1-3.06-1.64-5.08-1.64-2.32,0-4.94.75-7.87,2.26l-.78,1.8c1.1,2.03,2.06,3.66,2.9,4.91.84,1.25,1.88,2.6,3.12,4.05-2.31.48-4.67.71-7.07.71,0,0,0,0,0,0s0,0,0,0h-3.04c.87-2.21,1.3-4.16,1.3-5.86,0-1.8-.66-3.38-1.98-4.76s-2.92-2.06-4.8-2.06c-2,0-3.64.67-4.91,2-1.27,1.33-1.91,3.01-1.91,5.04s.48,3.57,1.43,4.81c-1.16.56-2.3.84-3.44.84-1.03,0-1.95-.29-2.76-.88-.81-.59-1.21-1.46-1.21-2.62v-1.92h-.03v-15.25l-1.89.37v19.16c0,2.67-.54,4.63-1.63,5.91s-2.73,1.91-4.94,1.91c-2.09,0-3.71-.54-4.85-1.63-1.15-1.08-1.75-2.67-1.81-4.76,0-2.13.4-4.35,1.21-6.67l-1.55-.43c-.93,2.75-1.4,5.26-1.4,7.53,0,2.6.75,4.58,2.25,5.94,1.5,1.35,3.49,2.03,5.97,2.03,2.81,0,4.91-.77,6.29-2.31,1.38-1.54,2.16-3.64,2.33-6.31.83,1.3,2.17,1.95,4.03,1.95,1.57,0,3.16-.5,4.77-1.49,1.34.99,3.03,1.49,5.05,1.49h7.53s0,0,0,0,0,0,0,0c2.19,0,4-.11,5.42-.34s2.81-.64,4.15-1.24c2.19,1.05,5.2,1.58,9.02,1.58,0,0,0,0,.02,0,0,0,0,0,.02,0,2.05,0,3.6-.5,4.65-1.5ZM698.23,124.55h-2.91c-1.72,0-3.08-.5-4.11-1.5-1.02-1-1.54-2.33-1.54-3.98s.46-2.87,1.38-3.84c.92-.97,2.17-1.46,3.74-1.46,1.34,0,2.47.54,3.38,1.61.91,1.07,1.36,2.3,1.36,3.69s-.43,3.21-1.3,5.49ZM712.3,123.44c-1.3-1.45-2.38-2.79-3.22-4.05-.85-1.25-1.81-2.88-2.88-4.88,2.42-1.16,4.52-1.74,6.29-1.74,1.65,0,2.99.41,4,1.24,1.01.83,1.52,1.9,1.52,3.22,0,.99-.54,2.08-1.61,3.25-1.07,1.18-2.44,2.16-4.09,2.95Z"/>
      <polygon class="cls-1" points="727 108.44 728.76 106.67 726.97 104.9 725.17 106.67 727 108.44"/>
      <path class="cls-1" d="M742.14,119.97c-1.14,2.19-1.8,4.3-1.98,6.32h1.92c.17-2.15.63-4.21,1.4-6.17l-1.33-.15Z"/>
      <polygon class="cls-1" points="755.56 111.81 753.77 110.05 751.97 111.81 753.8 113.58 755.56 111.81"/>
      <path class="cls-1" d="M760.15,123.41c0,2.67-.54,4.63-1.63,5.91-1.08,1.27-2.73,1.91-4.94,1.91-2.09,0-3.7-.54-4.85-1.63-1.15-1.08-1.75-2.67-1.81-4.76,0-2.13.4-4.35,1.21-6.67l-1.55-.43c-.93,2.75-1.39,5.26-1.39,7.53,0,2.6.75,4.58,2.25,5.94s3.49,2.03,5.97,2.03c3,0,5.19-.87,6.57-2.62,1.38-1.75,2.08-4.11,2.08-7.08v-12.25l-1.89.34v11.78Z"/>
      <polygon class="cls-1" points="779.99 105.4 778.23 107.16 780.02 108.96 781.79 107.16 779.99 105.4"/>
      <polygon class="cls-1" points="782.97 107.16 784.8 108.96 786.56 107.16 784.77 105.4 782.97 107.16"/>
      <path class="cls-1" d="M788.98,118.35c0-1.82-.64-3.35-1.91-4.6-1.27-1.25-2.87-1.88-4.79-1.88s-3.45.62-4.71,1.84c-1.26,1.23-1.89,2.79-1.89,4.67,0,2.58,1.19,4.56,3.56,5.92-1.47.17-3.39.25-5.77.25-2.87,0-4.31-1.44-4.31-4.31v-16.31l-1.89.37v16.21c0,4.03,2.07,6.04,6.2,6.04,3.66,0,6.62-.34,8.9-1.02,2.42.68,5.27,1.02,8.56,1.02h2.26c2.05,0,3.6-.51,4.65-1.52,1.05-1.01,1.58-2.43,1.58-4.25v-9.52l-1.89.34v8.83c0,2.73-1.45,4.09-4.34,4.09h-2.26c-2.34,0-4.19-.09-5.55-.28,2.4-1.41,3.6-3.38,3.6-5.92ZM782.29,124c-1.47-.41-2.62-1.1-3.47-2.08-.85-.97-1.27-2.09-1.27-3.35,0-1.41.44-2.55,1.32-3.44.88-.89,2-1.33,3.36-1.33s2.57.44,3.49,1.33c.92.89,1.38,2.03,1.38,3.41,0,1.26-.42,2.37-1.27,3.32-.85.95-2.03,1.66-3.53,2.14Z"/>
      <polygon class="cls-1" points="802.37 106.73 800.58 104.96 798.78 106.73 800.61 108.5 802.37 106.73"/>
      <polygon class="cls-1" points="795.8 104.96 794.04 106.73 795.83 108.5 797.6 106.73 795.8 104.96"/>
      <path class="cls-1" d="M807.89,134.23h6.88l.37-1.33h-4.03c-.39-.46-.59-.99-.59-1.61,0-.45.15-.83.45-1.12.3-.29.7-.43,1.19-.43.58,0,1.25.15,2.01.46v-1.24c-.89-.37-1.64-.56-2.26-.56-.79,0-1.44.25-1.95.74-.52.5-.78,1.12-.78,1.86,0,.68.18,1.31.53,1.89h-1.83v1.33Z"/>
      <path class="cls-1" d="M803.24,126.57h10.39c4.15,0,6.23-2.02,6.23-6.04v-16.58l-1.86.37-.03,15.93c0,2.87-1.44,4.31-4.31,4.31h-1.02l-3.22-16.58-1.92.5,3.32,16.09h-8.03l.46,2.02Z"/>
      <polygon class="cls-1" points="827.42 103.94 825.53 104.31 825.53 126.57 827.42 126.57 827.42 103.94"/>
      <path class="cls-1" d="M840.54,130.13c-1.59.91-3.99,1.36-7.19,1.36l.25,1.74c7.46,0,11.19-2.47,11.19-7.41v-7.22c0-1.98-.57-3.6-1.72-4.84-1.15-1.24-2.64-1.86-4.48-1.86-2.05,0-3.72.69-5.04,2.06-1.31,1.37-1.97,3.15-1.97,5.32s.66,4.03,1.97,5.33c1.31,1.3,3.05,1.95,5.22,1.95,1.41,0,2.78-.32,4.12-.96v.15c.02,2-.76,3.46-2.36,4.37ZM839.08,124.62c-1.78.04-3.18-.41-4.2-1.35s-1.53-2.3-1.53-4.08c0-1.59.47-2.87,1.43-3.84.95-.97,2.14-1.46,3.56-1.46s2.46.46,3.3,1.36c.84.91,1.26,2.09,1.26,3.53v5.08c-1.24.5-2.51.74-3.81.74Z"/>
      <polygon class="cls-1" points="9.39 153.92 6.85 151.44 4.12 154.14 6.88 156.87 9.39 154.36 11.97 156.87 14.69 154.14 11.94 151.44 9.39 153.92"/>
      <path class="cls-1" d="M21.58,174.57c2.25,0,3.95-.53,5.1-1.58,1.15-1.05,1.72-2.57,1.72-4.56v-9.36l-3.35.46v7.84c0,2.42-1.15,3.63-3.44,3.63h-2.45s0,0-.02,0c0,0,0,0-.02,0-.91,0-1.57-.23-1.98-.68-.41-.45-.62-1.21-.62-2.26l-.03-10.2-3.35.46v1.83c-1.34-.5-2.62-.74-3.81-.74-2.09,0-3.82.77-5.19,2.31-1.38,1.54-2.06,3.39-2.06,5.56s.68,3.95,2.05,5.39c1.36,1.45,3.1,2.17,5.21,2.17,1.65,0,3.48-.52,5.49-1.55.93.85,2.37,1.27,4.31,1.27h2.45ZM9.33,171.47c-1.2-.02-2.18-.43-2.95-1.24-.76-.81-1.15-1.81-1.15-3.01,0-1.26.4-2.32,1.19-3.18.8-.86,1.81-1.29,3.05-1.29.93,0,2.16.27,3.69.81v4.87c0,.81.06,1.52.19,2.14-1.32.62-2.67.92-4.03.9Z"/>
      <polygon class="cls-1" points="23.75 179.06 21.2 176.58 18.48 179.28 21.24 182.01 23.75 179.5 26.32 182.01 29.05 179.28 26.29 176.58 23.75 179.06"/>
      <path class="cls-1" d="M34.66,173.64c0,3.18-1.73,4.77-5.18,4.77l.28,2.82c2.77,0,4.83-.59,6.18-1.78s2.03-3.08,2.03-5.69v-14.69l-3.35.46.03,14.1Z"/>
      <polygon class="cls-1" points="56.17 179.03 58.96 181.73 61.69 179.03 58.9 176.31 56.17 179.03"/>
      <polygon class="cls-1" points="74.83 157.52 72.29 155.04 69.56 157.74 72.32 160.46 74.83 157.95 77.41 160.46 80.13 157.74 77.38 155.04 74.83 157.52"/>
      <path class="cls-1" d="M84.13,167.25c0,2.5-1.15,3.75-3.44,3.75,0,0,0,0-.02,0,0,0,0,0-.01,0-1.47,0-2.83-.44-4.09-1.33.06-.41.09-.83.09-1.24v-6.11l-3.35.47v4.59c0,1.28-.36,2.21-1.07,2.77-.71.57-1.82.85-3.33.85,0,0,0,0-.02,0,0,0,0,0-.02,0h-1.08c-1.22,0-2.13-.25-2.73-.74.23-.1.57-.28,1.02-.53l.59-3.38c-3.56-2.79-6.1-4.61-7.63-5.47-1.53-.86-2.98-1.29-4.34-1.29-1.14,0-2.51.31-4.12.93l.65,3.01c1.41-.31,2.41-.46,3.01-.46,1.1,0,2.24.33,3.44.98,1.2.65,3.05,1.96,5.55,3.92-4.42,2.03-9.08,3.04-13.98,3.04-.01,0-.02,0-.03,0-.01,0-.02,0-.03,0-2.29,0-3.44-1.25-3.44-3.75v-15.31l-3.38.46.03,15.84c0,4.22,2.27,6.32,6.82,6.32,0,0,0,0,.01,0,0,0,0,0,.02,0,2.4,0,4.67-.26,6.82-.77s4.43-1.34,6.85-2.48c.66,2.17,2.27,3.25,4.84,3.25h1.12c3.18,0,5.38-.76,6.6-2.29,1.59,1.53,3.32,2.29,5.18,2.29,4.57,0,6.85-2.11,6.85-6.32v-16.31l-3.35.46-.03,14.85Z"/>
      <polygon class="cls-1" points="92.54 174.57 95.91 174.57 95.91 151.94 92.54 152.4 92.54 174.57"/>
      <polygon class="cls-1" points="114.1 153.92 111.56 151.44 108.83 154.14 111.59 156.87 114.1 154.36 116.67 156.87 119.4 154.14 116.64 151.44 114.1 153.92"/>
      <path class="cls-1" d="M132.33,159.22c-2.19,0-3.97.69-5.33,2.06-1.36,1.38-2.05,3.19-2.05,5.44,0,1.16.38,2.58,1.15,4.28h-2.26c-.91,0-1.57-.23-1.98-.68-.41-.45-.62-1.21-.62-2.26l-.03-10.2-3.35.46v1.83c-1.34-.5-2.61-.74-3.81-.74-2.09,0-3.82.77-5.19,2.31-1.38,1.54-2.06,3.39-2.06,5.56s.68,3.95,2.05,5.39c1.36,1.45,3.1,2.17,5.21,2.17,1.65,0,3.48-.52,5.49-1.55.93.85,2.37,1.27,4.31,1.27h6.97c2.71,0,4.84-.72,6.4-2.17,1.56-1.45,2.34-3.43,2.34-5.95,0-2.07-.69-3.79-2.06-5.16-1.38-1.37-3.09-2.06-5.16-2.06ZM114.04,171.47c-1.2-.02-2.18-.43-2.95-1.24-.76-.81-1.15-1.81-1.15-3.01,0-1.26.4-2.32,1.19-3.18.79-.86,1.81-1.29,3.05-1.29.93,0,2.16.27,3.69.81v4.87c0,.81.06,1.52.19,2.14-1.32.62-2.67.92-4.03.9ZM134.77,169.81c-.93.8-2.2,1.19-3.81,1.19h-1.43c-.87-1.53-1.3-3-1.3-4.4,0-1.12.39-2.08,1.16-2.88.77-.81,1.71-1.21,2.81-1.21s2.08.38,2.84,1.13c.75.75,1.13,1.71,1.13,2.87,0,1.41-.46,2.51-1.4,3.3Z"/>
      <path class="cls-1" d="M184.19,167.25c0,2.5-1.15,3.75-3.44,3.75-.03,0-.04.01-.06.02-.02,0-.03-.02-.06-.02-1.84,0-3.46-.11-4.87-.34,1.2-.93,2.09-1.97,2.67-3.12.58-1.15.87-2.27.87-3.36,0-1.72-.69-3.12-2.08-4.22-1.38-1.1-3.13-1.64-5.24-1.64-2.29,0-4.88.72-7.75,2.17l-1.27,3.01c1.38,2.65,2.95,5.01,4.68,7.1-1.82.27-3.66.4-5.52.4,0,0,0,0-.02,0,0,0,0,0-.02,0-2.29,0-3.44-1.25-3.44-3.75v-15.31l-3.38.46.03,15.84c0,.7.06,1.35.19,1.95-1.3.33-2.78.57-4.43.71l-2.67-14.91-3.32.84,2.85,14.17h-6.67l.59,3.56h7.29c1.14,0,2.48-.16,4.03-.48,1.55-.32,2.8-.71,3.75-1.16,1.16,1.1,2.89,1.64,5.21,1.64s4.19-.12,5.69-.36c1.5-.24,2.97-.69,4.42-1.35,2.25,1.14,5.05,1.71,8.4,1.71.02,0,.03-.01.05-.02.02,0,.03.02.05.02,4.57,0,6.85-2.11,6.85-6.32v-16.31l-3.35.46-.03,14.85ZM171.42,170.11c-1.8-1.98-3.43-4.39-4.9-7.22,1.88-.83,3.53-1.23,4.96-1.21,1.34,0,2.41.34,3.19,1.01.79.67,1.18,1.55,1.18,2.62,0,.81-.4,1.65-1.21,2.54-.81.89-1.88,1.64-3.22,2.26Z"/>
      <polygon class="cls-1" points="192.59 174.57 195.97 174.57 195.97 151.94 192.59 152.4 192.59 174.57"/>
      <path class="cls-1" d="M210.25,173.64c0,3.18-1.73,4.77-5.18,4.77l.28,2.82c2.77,0,4.83-.59,6.18-1.78s2.03-3.08,2.03-5.69v-14.69l-3.35.46.03,14.1Z"/>
      <polygon class="cls-1" points="245.43 156.56 248.16 153.83 245.37 151.13 242.64 153.83 245.43 156.56"/>
      <path class="cls-1" d="M266.6,159.6c-1.14,0-2.51.31-4.12.93l.65,3.01c1.41-.31,2.41-.46,3.01-.46,1.1,0,2.24.33,3.44.98,1.2.65,3.05,1.96,5.55,3.92-4.42,2.03-9.08,3.04-13.98,3.04,0,0,0,0-.02,0,0,0,0,0-.01,0-1.34,0-2.62-.41-3.81-1.24.08-.39.12-.84.12-1.33l.03-2.7c.02-2.03-.62-3.68-1.91-4.96-1.29-1.28-2.94-1.92-4.95-1.92-1.55,0-3.17.26-4.85.77-1.69.52-4.06,1.46-7.12,2.82v-3.38l-3.38.46.03,11.47h-4.59v-4.4c0-2.17-.62-3.92-1.88-5.24-1.25-1.32-2.87-1.98-4.85-1.98-2.11,0-3.86.72-5.24,2.17-1.38,1.45-2.08,3.29-2.08,5.52s.67,4.09,2,5.46c1.33,1.36,3.09,2.05,5.29,2.05h3.35c-.23,1.34-1.07,2.32-2.53,2.93-1.46.61-3.59.91-6.4.91l.37,2.82c7.58,0,11.56-2.22,11.93-6.67h19.87c2.56,0,4.43-.7,5.61-2.11,1.47,1.41,3.12,2.11,4.96,2.11,0,0,0,0,.01,0,0,0,0,0,.02,0,2.89,0,5.63-.38,8.2-1.13s5.45-1.99,8.63-3.7l.59-3.38c-3.56-2.79-6.1-4.61-7.63-5.47-1.53-.86-2.98-1.29-4.34-1.29ZM227.36,171.07c-.15,0-.6.02-1.38.05-.78.03-1.33.05-1.66.05-1.41,0-2.52-.36-3.35-1.08-.83-.72-1.24-1.77-1.24-3.13,0-1.22.38-2.21,1.13-2.98.75-.76,1.69-1.15,2.81-1.15s1.98.37,2.67,1.1c.68.73,1.02,1.71,1.02,2.93v4.22ZM254.08,167.72c0,1.05-.31,1.87-.92,2.43-.61.57-1.47.85-2.59.85h-11.94v-5.61c3.41-1.3,5.79-2.14,7.13-2.51,1.34-.37,2.71-.56,4.09-.56,1.24,0,2.25.35,3.04,1.05.79.7,1.18,1.62,1.18,2.76v1.58Z"/>
      <polygon class="cls-1" points="290.12 154.42 292.91 157.15 295.64 154.42 292.85 151.72 290.12 154.42"/>
      <path class="cls-1" d="M291.2,173.64c0,3.18-1.73,4.77-5.18,4.77l.28,2.82c2.77,0,4.83-.59,6.18-1.78,1.35-1.19,2.03-3.08,2.03-5.69v-14.69l-3.35.46.03,14.1Z"/>
      <polygon class="cls-1" points="302.49 157.15 305.22 154.42 302.43 151.72 299.7 154.42 302.49 157.15"/>
      <path class="cls-1" d="M326.1,174.55s.03.02.05.02h2.45c2.25,0,3.95-.53,5.1-1.58,1.15-1.05,1.72-2.57,1.72-4.56v-9.36l-3.35.46v7.84c0,2.42-1.15,3.63-3.44,3.63h-2.45s-.04.02-.06.02c-.02,0-.03-.02-.06-.02-1.84,0-3.46-.11-4.87-.34,1.2-.93,2.09-1.97,2.67-3.12.58-1.15.87-2.27.87-3.36,0-1.72-.69-3.12-2.08-4.22-1.38-1.1-3.13-1.64-5.24-1.64-2.29,0-4.88.72-7.75,2.17l-1.27,3.01c1.38,2.65,2.95,5.01,4.68,7.1-1.82.27-3.66.4-5.52.4,0,0,0,0-.02,0,0,0,0,0-.02,0-2.07,0-3.2-.9-3.41-2.7v-9.24l-3.35.46.03,14.1c0,3.18-1.73,4.77-5.18,4.77l.28,2.82c2.77,0,4.83-.59,6.18-1.78,1.35-1.19,2.03-3.08,2.03-5.69v-.68c.76.99,1.9,1.49,3.41,1.49,0,0,0,0,.02,0,0,0,0,0,.01,0,2.29,0,4.19-.12,5.69-.36,1.5-.24,2.97-.69,4.42-1.35,2.25,1.14,5.05,1.71,8.4,1.71.02,0,.03-.01.05-.02ZM316.84,170.11c-1.8-1.98-3.43-4.39-4.9-7.22,1.88-.83,3.53-1.23,4.96-1.21,1.34,0,2.41.34,3.19,1.01.79.67,1.18,1.55,1.18,2.62,0,.81-.4,1.65-1.21,2.54-.81.89-1.88,1.64-3.22,2.26Z"/>
      <polygon class="cls-1" points="330.76 179.06 328.22 176.58 325.49 179.28 328.25 182.01 330.76 179.5 333.33 182.01 336.06 179.28 333.3 176.58 330.76 179.06"/>
      <path class="cls-1" d="M345.83,159.38c-2.11,0-3.86.72-5.24,2.17-1.38,1.45-2.08,3.29-2.08,5.52s.66,4.12,1.98,5.47c1.32,1.35,3.06,2.03,5.21,2.03,1.09,0,2.26-.27,3.5-.81,0,1.63-.73,2.82-2.19,3.55-1.46.73-3.73,1.1-6.8,1.1l.37,2.82c7.98,0,11.97-2.46,11.97-7.38v-7.25c0-2.17-.62-3.92-1.88-5.24-1.25-1.32-2.87-1.98-4.85-1.98ZM349.21,170.66c-1.01.33-2.06.5-3.13.5-1.39.04-2.48-.3-3.29-1.04-.81-.73-1.21-1.79-1.21-3.18,0-1.22.38-2.21,1.13-2.98.75-.76,1.69-1.15,2.81-1.15s1.98.37,2.67,1.1c.68.73,1.02,1.71,1.02,2.93v3.81Z"/>
      <path class="cls-1" d="M442.16,167.25c0,2.5-1.15,3.75-3.44,3.75-.03,0-.04.01-.06.02-.02,0-.03-.02-.06-.02-1.84,0-3.46-.11-4.87-.34,1.2-.93,2.09-1.97,2.67-3.12.58-1.15.87-2.27.87-3.36,0-1.72-.69-3.12-2.08-4.22-1.38-1.1-3.13-1.64-5.24-1.64-2.29,0-4.88.72-7.75,2.17l-1.27,3.01c1.38,2.65,2.95,5.01,4.68,7.1-1.82.27-3.66.4-5.52.4h-2.2c.6-1.74.9-3.35.9-4.84,0-1.88-.7-3.51-2.11-4.88-1.41-1.37-3.09-2.06-5.05-2.06-2.11,0-3.84.69-5.21,2.06-1.36,1.38-2.05,3.12-2.05,5.22,0,1.43.28,2.75.84,3.97-.83.35-1.74.53-2.73.53h-18.04c-.99,0-1.85-.28-2.57-.84-.72-.56-1.08-1.33-1.08-2.33v-16.06l-3.38.47v18.94c0,2.21-.46,3.84-1.4,4.9-.93,1.05-2.35,1.58-4.25,1.58s-3.25-.46-4.25-1.38c-.99-.92-1.5-2.29-1.52-4.11,0-1.71.34-3.62,1.02-5.7l-2.73-.74c-.91,2.77-1.36,5.23-1.36,7.38,0,2.69.76,4.71,2.29,6.08,1.53,1.36,3.68,2.05,6.45,2.05s4.94-.73,6.45-2.2c1.51-1.47,2.37-3.51,2.57-6.14.87,1.12,2.12,1.67,3.75,1.67h18.04s0,0,0,0c1.67,0,3.32-.51,4.93-1.52,1.38,1.01,3.13,1.52,5.24,1.52h7.44c2.29,0,4.19-.12,5.69-.36,1.5-.24,2.97-.69,4.42-1.35,2.25,1.14,5.05,1.71,8.4,1.71.02,0,.03-.01.05-.02.02,0,.03.02.05.02,4.57,0,6.85-2.11,6.85-6.32v-16.31l-3.35.46-.03,14.85ZM414.69,171h-2.2c-1.47,0-2.62-.41-3.47-1.22-.85-.82-1.27-1.89-1.27-3.21,0-1.22.37-2.21,1.1-2.96.73-.75,1.7-1.13,2.9-1.13,1.07,0,1.97.42,2.7,1.26s1.08,1.81,1.08,2.93c0,1.2-.28,2.65-.84,4.34ZM429.39,170.11c-1.8-1.98-3.43-4.39-4.9-7.22,1.88-.83,3.53-1.23,4.96-1.21,1.34,0,2.41.34,3.19,1.01.79.67,1.18,1.55,1.18,2.62,0,.81-.4,1.65-1.21,2.54-.81.89-1.88,1.64-3.22,2.26Z"/>
      <polygon class="cls-1" points="450.56 174.57 453.94 174.57 453.94 151.94 450.56 152.4 450.56 174.57"/>
      <polygon class="cls-1" points="469.58 151.44 466.85 154.14 469.61 156.87 472.12 154.36 474.7 156.87 477.42 154.14 474.67 151.44 472.12 153.92 469.58 151.44"/>
      <polygon class="cls-1" points="505.29 179.06 502.75 176.58 500.02 179.28 502.78 182.01 505.29 179.5 507.87 182.01 510.59 179.28 507.83 176.58 505.29 179.06"/>
      <polygon class="cls-1" points="519.46 154.45 522.03 156.96 524.76 154.23 522 151.54 519.46 154.02 516.92 151.54 514.19 154.23 516.95 156.96 519.46 154.45"/>
      <path class="cls-1" d="M519.74,159.22c-2.19,0-3.97.69-5.33,2.06-1.36,1.38-2.05,3.19-2.05,5.44,0,1.16.38,2.58,1.15,4.28h-2.26c-1.47,0-2.83-.44-4.09-1.33.06-.41.09-.83.09-1.24v-6.11l-3.35.47v4.59c0,1.28-.36,2.21-1.07,2.77-.71.57-1.82.85-3.33.85,0,0,0,0-.02,0,0,0,0,0-.02,0h-2.2c.6-1.74.9-3.35.9-4.84,0-1.88-.7-3.51-2.11-4.88-1.41-1.37-3.09-2.06-5.05-2.06-2.11,0-3.84.69-5.21,2.06-1.36,1.38-2.05,3.12-2.05,5.22,0,1.43.28,2.75.84,3.97-.83.35-1.74.53-2.73.53-.91,0-1.57-.23-1.98-.68-.41-.45-.62-1.21-.62-2.26l-.03-10.2-3.35.46v1.83c-1.34-.5-2.61-.74-3.81-.74-2.09,0-3.82.77-5.19,2.31-1.38,1.54-2.06,3.39-2.06,5.56s.68,3.95,2.05,5.39c1.36,1.45,3.1,2.17,5.21,2.17,1.65,0,3.48-.52,5.49-1.55.93.85,2.37,1.27,4.31,1.27,1.67,0,3.32-.51,4.93-1.52,1.38,1.01,3.13,1.52,5.24,1.52h7.44c3.18,0,5.38-.76,6.6-2.29,1.59,1.53,3.32,2.29,5.18,2.29h6.98c2.71,0,4.84-.72,6.4-2.17,1.56-1.45,2.34-3.43,2.34-5.95,0-2.07-.69-3.79-2.06-5.16s-3.09-2.06-5.16-2.06ZM472.06,171.47c-1.2-.02-2.18-.43-2.95-1.24-.76-.81-1.15-1.81-1.15-3.01,0-1.26.4-2.32,1.19-3.18.79-.86,1.81-1.29,3.05-1.29.93,0,2.16.27,3.69.81v4.87c0,.81.06,1.52.19,2.14-1.32.62-2.67.92-4.03.9ZM494.07,171h-2.2c-1.47,0-2.62-.41-3.47-1.22-.85-.82-1.27-1.89-1.27-3.21,0-1.22.37-2.21,1.1-2.96.73-.75,1.7-1.13,2.9-1.13,1.07,0,1.97.42,2.7,1.26.72.84,1.08,1.81,1.08,2.93,0,1.2-.28,2.65-.84,4.34ZM522.19,169.81c-.93.8-2.2,1.19-3.81,1.19h-1.43c-.87-1.53-1.3-3-1.3-4.4,0-1.12.39-2.08,1.16-2.88.78-.81,1.71-1.21,2.81-1.21s2.08.38,2.84,1.13c.75.75,1.13,1.71,1.13,2.87,0,1.41-.46,2.51-1.39,3.3Z"/>
      <path class="cls-1" d="M616.62,174.55s.03.02.05.02h2.45c2.25,0,3.95-.53,5.1-1.58,1.15-1.05,1.72-2.57,1.72-4.56v-9.36l-3.35.46v7.84c0,2.42-1.15,3.63-3.44,3.63h-2.45s-.04.02-.06.02c-.02,0-.03-.02-.06-.02-1.84,0-3.46-.11-4.87-.34,1.2-.93,2.09-1.97,2.67-3.12.58-1.15.87-2.27.87-3.36,0-1.72-.69-3.12-2.08-4.22-1.38-1.1-3.13-1.64-5.24-1.64-2.29,0-4.88.72-7.75,2.17l-1.27,3.01c1.38,2.65,2.95,5.01,4.68,7.1-1.82.27-3.66.4-5.52.4-1.22,0-2.38-.34-3.47-1.02.19-.7.28-1.46.28-2.26,0-1.98-.69-3.56-2.08-4.74-1.38-1.18-3.22-1.77-5.52-1.77h-4.84l8.4-9.21-3.25-1.77-9.11,10.94,1.8,3.13h7.29c1.22,0,2.18.31,2.88.91.7.61,1.05,1.43,1.05,2.46s-.36,1.84-1.07,2.43c-.71.59-1.68.88-2.9.88h-9.64c-1.16,0-2.24-.3-3.25-.9.1-.58.16-1.14.16-1.67v-9.36l-3.35.46v7.84c0,1.18-.29,2.08-.88,2.7-.59.62-1.44.93-2.56.93s-2.13-.21-3.16-.62c.17-.62.25-1.27.25-1.95v-6.11l-3.38.47.03,4.59c0,2.42-1.16,3.63-3.47,3.63-1.16,0-2.37-.33-3.63-.99v-10.94l-3.35.46v11.66c0,2.21-.46,3.84-1.4,4.9-.93,1.05-2.35,1.58-4.25,1.58s-3.25-.46-4.25-1.38c-.99-.92-1.5-2.29-1.52-4.11,0-1.71.34-3.62,1.02-5.7l-2.73-.74c-.91,2.77-1.36,5.23-1.36,7.38,0,2.69.76,4.71,2.29,6.08,1.53,1.36,3.68,2.05,6.45,2.05s4.87-.7,6.37-2.11c1.5-1.41,2.37-3.36,2.62-5.86,1.38.87,2.73,1.3,4.03,1.3,2.02,0,3.63-.57,4.8-1.71,1.74,1.14,3.45,1.71,5.15,1.71,2.15,0,3.75-.58,4.81-1.74,1.38,1.16,2.9,1.74,4.56,1.74h9.8c2.36,0,4.18-.68,5.49-2.05,1.43,1.36,3.06,2.05,4.9,2.05,2.29,0,4.19-.12,5.69-.36,1.5-.24,2.97-.69,4.42-1.35,2.25,1.14,5.05,1.71,8.4,1.71.02,0,.03-.01.05-.02ZM607.36,170.11c-1.8-1.98-3.43-4.39-4.9-7.22,1.88-.83,3.53-1.23,4.96-1.21,1.34,0,2.41.34,3.19,1.01.79.67,1.18,1.55,1.18,2.62,0,.81-.4,1.65-1.21,2.54-.81.89-1.88,1.64-3.22,2.26Z"/>
      <polygon class="cls-1" points="621.28 179.06 618.74 176.58 616.01 179.28 618.77 182.01 621.28 179.5 623.85 182.01 626.58 179.28 623.82 176.58 621.28 179.06"/>
      <polygon class="cls-1" points="637.73 174.57 641.11 174.57 641.11 151.94 637.73 152.4 637.73 174.57"/>
      <polygon class="cls-1" points="645.36 152.9 653.29 151.23 652.95 149.65 645.01 151.35 645.36 152.9"/>
      <polygon class="cls-1" points="653.85 154.23 653.54 152.71 645.6 154.39 645.91 155.94 653.85 154.23"/>
      <polygon class="cls-1" points="667.92 157.95 670.5 160.46 673.22 157.74 670.46 155.04 667.92 157.52 665.38 155.04 662.65 157.74 665.41 160.46 667.92 157.95"/>
      <path class="cls-1" d="M699.85,159.22c-2.19,0-3.97.69-5.33,2.06-1.36,1.38-2.05,3.19-2.05,5.44,0,1.16.38,2.58,1.15,4.28h-4.46c.6-1.74.9-3.35.9-4.84,0-1.88-.7-3.51-2.11-4.88-1.41-1.37-3.09-2.06-5.05-2.06-2.11,0-3.84.69-5.21,2.06-1.36,1.38-2.05,3.12-2.05,5.22,0,1.43.28,2.75.84,3.97-.83.35-1.74.53-2.73.53-1.47,0-2.83-.44-4.09-1.33.06-.41.09-.83.09-1.24v-6.11l-3.35.47v4.59c0,1.28-.36,2.21-1.07,2.77-.71.57-1.82.85-3.33.85,0,0,0,0-.02,0,0,0,0,0-.02,0-1.28,0-2.49-.37-3.63-1.12.08-.41.12-.9.12-1.46l-.03-2.51c0-2.09-.64-3.75-1.92-4.99-1.28-1.24-2.93-1.86-4.96-1.86h-2.67v3.47h1.92c1.24,0,2.25.35,3.04,1.04.79.69,1.19,1.6,1.21,2.71l.03,1.55c0,.99-.3,1.77-.9,2.33-.6.56-1.46.84-2.57.84h-7.78l.59,3.56h7.16c2.58,0,4.43-.67,5.55-2.02,1.45,1.34,3.06,2.02,4.84,2.02,3.18,0,5.38-.76,6.6-2.29,1.59,1.53,3.32,2.29,5.18,2.29,1.67,0,3.32-.51,4.93-1.52,1.38,1.01,3.13,1.52,5.24,1.52h14.42c2.71,0,4.84-.72,6.4-2.17,1.56-1.45,2.34-3.43,2.34-5.95,0-2.07-.69-3.79-2.06-5.16-1.38-1.37-3.09-2.06-5.16-2.06ZM685.96,171h-2.2c-1.47,0-2.62-.41-3.47-1.22-.85-.82-1.27-1.89-1.27-3.21,0-1.22.37-2.21,1.1-2.96.73-.75,1.7-1.13,2.9-1.13,1.07,0,1.97.42,2.7,1.26s1.08,1.81,1.08,2.93c0,1.2-.28,2.65-.84,4.34ZM702.3,169.81c-.93.8-2.2,1.19-3.81,1.19h-1.43c-.87-1.53-1.3-3-1.3-4.4,0-1.12.39-2.08,1.16-2.88.77-.81,1.71-1.21,2.81-1.21s2.08.38,2.84,1.13c.75.75,1.13,1.71,1.13,2.87,0,1.41-.46,2.51-1.4,3.3Z"/>
      <polygon class="cls-1" points="718.25 174.57 721.63 174.57 721.63 151.94 718.25 152.4 718.25 174.57"/>
      <polygon class="cls-1" points="724.67 151.35 725.01 152.9 732.95 151.23 732.61 149.65 724.67 151.35"/>
      <polygon class="cls-1" points="733.51 154.23 733.2 152.71 725.26 154.39 725.57 155.94 733.51 154.23"/>
      <polygon class="cls-1" points="744.57 150.3 742.65 148.41 740.79 150.3 742.68 152.19 744.57 150.3"/>
      <path class="cls-1" d="M741.13,167.38c0,2.42-1.15,3.63-3.44,3.63h-2.45s-.02,0-.03,0c-.01,0-.02,0-.03,0-2.07,0-3.2-.9-3.41-2.7v-9.24l-3.35.46.03,14.1c0,3.18-1.73,4.77-5.18,4.77l.28,2.82c2.77,0,4.83-.59,6.18-1.78,1.35-1.19,2.03-3.08,2.03-5.69v-.68c.76.99,1.9,1.49,3.41,1.49,0,0,0,0,.02,0,0,0,0,0,.02,0h2.45c2.25,0,3.95-.53,5.1-1.58,1.15-1.05,1.72-2.57,1.72-4.56v-9.36l-3.35.46v7.84Z"/>
      <path class="cls-1" d="M750.9,150.76c0-.35.13-.64.4-.87s.61-.34,1.02-.34c.52,0,1.18.16,1.98.47v-1.8c-.95-.39-1.8-.59-2.54-.59-.83,0-1.51.26-2.06.77-.55.52-.82,1.17-.82,1.95,0,.64.14,1.21.43,1.71h-1.55v2.05l-2.57-2.51-2.54,2.48-2.54-2.48-2.73,2.7,2.76,2.73,2.51-2.51,2.57,2.51,2.73-2.73-.06-.06h7.01l.46-2.17h-4c-.31-.37-.46-.81-.46-1.3Z"/>
      <polygon class="cls-1" points="749.87 174.57 753.25 174.57 753.25 155.81 749.87 156.28 749.87 174.57"/>
      <polygon class="cls-1" points="787.21 160.34 789.94 157.61 787.15 154.92 784.43 157.61 787.21 160.34"/>
      <polygon class="cls-1" points="823.45 154.02 826.24 156.74 828.97 154.02 826.18 151.32 823.45 154.02"/>
      <path class="cls-1" d="M824.66,167.38c0,2.42-1.16,3.63-3.47,3.63,0,0,0,0-.02,0,0,0,0,0-.02,0-1.34,0-2.61-.41-3.81-1.24.08-.39.12-.84.12-1.33l.03-2.7c.02-2.03-.62-3.68-1.91-4.96-1.29-1.28-2.94-1.92-4.94-1.92-1.55,0-3.17.26-4.85.77s-4.06,1.46-7.11,2.82v-3.38l-3.38.46.03,11.47h-2.88c-1.32,0-2.55-.38-3.69-1.15.08-.41.12-.89.12-1.43v-6.11l-3.38.47.03,4.59c0,2.42-1.16,3.63-3.47,3.63,0,0,0,0-.02,0,0,0,0,0-.02,0-2.05,0-3.98-.31-5.8-.93,2.98-2.02,4.46-4.19,4.46-6.51,0-1.72-.69-3.12-2.08-4.22-1.38-1.1-3.13-1.64-5.24-1.64-2.29,0-4.88.72-7.75,2.17l-1.27,3.01c.91,1.74,1.75,3.16,2.53,4.28.78,1.12,1.74,2.34,2.9,3.66-1.74.95-3.04,1.88-3.91,2.77-.87.9-1.3,1.99-1.3,3.27,0,1.92.77,3.44,2.31,4.56,1.54,1.12,3.63,1.67,6.28,1.67,2.44,0,5.12-.55,8.03-1.64l-.93-2.88c-2.44.74-4.69,1.12-6.76,1.12-1.78,0-3.18-.29-4.22-.87-1.03-.58-1.55-1.36-1.55-2.36,0-.29.05-.56.14-.81s.28-.51.56-.77c.28-.27.52-.49.73-.67.21-.18.57-.42,1.1-.73.53-.31.94-.54,1.22-.7.29-.15.8-.43,1.52-.82,2.69,1.74,5.69,2.6,9.02,2.6,2.54,0,4.39-.67,5.55-2.02,1.47,1.34,3.09,2.02,4.87,2.02h18.13c2.56,0,4.43-.7,5.61-2.11,1.47,1.41,3.12,2.11,4.96,2.11,2.27,0,3.98-.53,5.13-1.58,1.15-1.05,1.72-2.57,1.72-4.56v-9.36l-3.38.46.03,7.84ZM772.68,169.3c-1.78-2-3.36-4.35-4.74-7.04,1.88-.83,3.53-1.23,4.96-1.21,1.34,0,2.41.34,3.19,1.01s1.18,1.54,1.18,2.62c0,.77-.38,1.51-1.13,2.23-.75.72-1.91,1.52-3.46,2.39ZM814.12,167.72c0,1.05-.3,1.87-.91,2.43-.61.57-1.47.85-2.59.85h-11.93v-5.61c3.41-1.3,5.79-2.14,7.13-2.51,1.34-.37,2.71-.56,4.09-.56,1.24,0,2.25.35,3.04,1.05s1.18,1.62,1.18,2.76v1.58Z"/>
      <path class="cls-1" d="M838.43,159.38c-2.11,0-3.86.72-5.24,2.17-1.38,1.45-2.08,3.29-2.08,5.52s.66,4.12,1.98,5.47c1.32,1.35,3.06,2.03,5.21,2.03,1.09,0,2.26-.27,3.5-.81,0,1.63-.73,2.82-2.19,3.55-1.46.73-3.73,1.1-6.8,1.1l.37,2.82c7.98,0,11.97-2.46,11.97-7.38v-7.25c0-2.17-.62-3.92-1.88-5.24-1.25-1.32-2.87-1.98-4.85-1.98ZM841.81,170.66c-1.01.33-2.06.5-3.13.5-1.39.04-2.48-.3-3.29-1.04-.81-.73-1.21-1.79-1.21-3.18,0-1.22.38-2.21,1.13-2.98.75-.76,1.69-1.15,2.81-1.15s1.98.37,2.67,1.1c.68.73,1.02,1.71,1.02,2.93v3.81Z"/>
    </g>
  </g>
</svg>