<?xml version="1.0" encoding="UTF-8"?>
<svg
  id="Layer_2"
  data-name="Layer 2"
  xmlns="http://www.w3.org/2000/svg"
  viewBox="0 0 287.97 119.28"
>
  <defs>
    <style>
      .cls-1 {
        fill: #4568cc;
      }

      .cls-2 {
        fill: #9edcd1;
      }

      .cls-3 {
        fill: #71c182;
      }

      .cls-4 {
        fill: #fbf5e9;
      }
    </style>
  </defs>
  <g
    id="Layer_1-2"
    data-name="Layer 1"
  >
    <g>
      <g>
        <g>
          <path
            class="cls-4"
            d="M1.89,59.78c-.85-6.19-.89-8.92-1.89-15.21h27.14c3.13,0,5.52-.77,7.19-2.31,1.66-1.54,2.5-3.72,2.5-6.53l-.08-1.97c-.05-3.13-1.17-5.66-3.34-7.61-2.18-1.95-4.96-2.92-8.34-2.92h-13.98v-6.77h15.36c4.92,0,8.94,1.51,12.07,4.54,3.13,3.02,4.71,7,4.77,11.92l.08,3.82c-.05,4.34-.1,5.2-.15,9.54-.09,7.49-6.18,13.51-13.67,13.51H1.89Z"
          />
          <path
            class="cls-4"
            d="M189.1,6.87l-4.15,4.15c-.39.39-.39,1.02,0,1.4l4.28,4.22c.39.38,1.01.38,1.39,0l4.21-4.2c.39-.39.39-1.03-.01-1.41l-4.34-4.16c-.39-.37-1-.37-1.38.01Z"
          />
          <path
            class="cls-4"
            d="M155.43.29l-4.15,4.15c-.39.39-.39,1.02,0,1.4l4.28,4.22c.39.38,1.01.38,1.39,0l4.21-4.2c.39-.39.39-1.03-.01-1.41l-4.34-4.16c-.39-.37-1-.37-1.38.01Z"
          />
          <path
            class="cls-4"
            d="M20.61.29l-4.15,4.15c-.39.39-.39,1.02,0,1.4l4.28,4.22c.39.38,1.01.38,1.39,0l4.21-4.2c.39-.39.39-1.03-.01-1.41L21.99.28c-.39-.37-1-.37-1.38.01Z"
          />
          <path
            class="cls-4"
            d="M186.86,22.79l.08,12.16c0,6.4-5.72,9.61-12.18,9.61,0,0-3.69,0-5.5-.01-1.27,0-2.53,0-3.8,0,1.46-1.1,4.28-3.55,5.93-7.68,1.14-2.85,1.24-5.32,1.24-6.37,0-4.56-1.58-8.41-4.76-11.57-3.18-3.15-7.24-4.72-12.15-4.72s-8.84,1.55-12.08,4.65c-3.23,3.1-4.34,6.99-4.34,11.65,0,1.74.07,4.9,1.93,8.38,1.6,2.99,3.76,4.78,5.01,5.67-3.1-.07-61.04.02-61.04.02v-12.84c0-5.17-1.49-9.34-4.46-12.49-2.97-3.15-7.34-4.73-12.1-4.73-5.12,0-9.36,1.74-12.73,5.23-.25.25-1.42,1.48-2.45,3.21-2.37,3.96-2.6,8.2-2.58,10.25.04,3.89.09,7.79.13,11.67.08,1.27.55,6.18,4.59,10.33,4.04,4.15,8.91,4.75,10.19,4.86,4.17.09,8.33.17,12.5.25-.87,2.06-2.7,6.25-6.37,9-4.21,3.16-8.6,3.7-11.14,4.02-2.8.35-5.17.21-6.84,0-.3.96-.66,1.97-1.08,3.02-.36.89-.72,1.73-1.09,2.51,1.9.34,4.7.67,8.08.46,2.87-.18,8.2-.57,13.72-3.96,4.35-2.67,6.69-5.88,7.17-6.56,2.18-3.06,3.15-6.74,3.62-8.62,4.48-.04,47.23-.07,51.73-.09,10.93-.05,39.09.01,42.41-.05,1.27-.12,6.15-.72,10.19-4.86,4.04-4.15,4.51-9.05,4.59-10.33.02-1.51.11-19.92.12-24.6-2.19.86-4.36,1.71-6.54,2.57ZM78.17,44.64c-4,.1-6.82.15-8.46.15-3.9,0-7-1.02-9.3-3.08-2.31-2.05-3.46-4.99-3.46-8.84,0-3.48,1.05-6.31,3.15-8.46,2.1-2.15,4.74-3.23,7.92-3.23s5.47,1.01,7.34,3.04c1.87,2.03,2.8,4.71,2.8,8.03v12.38ZM164.67,34.27c-.04.19-.74,3.52-2.28,5.48-3.06,3.89-10.2,3.36-13.25-.62-1.54-2.01-2.14-4.71-2.14-4.71-.22-.94-.32-1.92-.32-2.93,0-3.18.83-5.8,2.49-7.84,1.66-2.04,3.81-3.07,6.43-3.07s4.88,1.03,6.68,3.07c1.79,2.04,2.69,4.65,2.69,7.84,0,.31-.02,1.39-.3,2.78Z"
          />
        </g>
        <g>
          <path
            class="cls-4"
            d="M37.03,118.52h-7.03l-.1-.22c-.8-1.81-1.43-3.07-3.01-5.72l-18.75-29.66c-.34-.56-1.5-2.74-2.42-4.55.15,2.45.22,4.71.22,5.99v26.16c0,3.46.12,5.51.46,7.54l.07.47H.19l.08-.47c.33-1.94.46-4.06.46-7.54v-32.69c0-3-.12-4.86-.46-7.1l-.07-.46h6.81l.09.25c.53,1.48,1.34,2.95,2.94,5.69l18.45,29.67c.17.3.43.7.74,1.19.62.98,1.49,2.34,2.32,3.83l-.11-2.37c-.12-2.37-.17-3.55-.17-3.96v-26.55c0-3.2-.12-5.11-.46-7.29l-.07-.47h6.29l-.07.46c-.35,2.3-.46,4.07-.46,7.29v32.94c0,3.25.12,5.1.46,7.1l.08.47Z"
          />
          <g>
            <path
              class="cls-4"
              d="M59.49,86.55c-9.84,0-15.95,6.28-15.95,16.4s6.14,16.33,16.01,16.33,15.84-6.28,15.84-16.39-6.09-16.34-15.9-16.34ZM70.53,102.89c0,7.9-4.2,12.22-11.04,12.22s-11.09-4.32-11.09-12.28,4.26-12.23,11.21-12.23,10.93,4.38,10.93,12.29Z"
            />
            <path
              class="cls-4"
              d="M59.6,90.6c-6.95,0-11.21,4.33-11.21,12.23s4.26,12.28,11.09,12.28,11.04-4.32,11.04-12.22-4.2-12.29-10.93-12.29ZM59.49,114.75c-6.82,0-10.73-4.34-10.73-11.92s3.95-11.87,10.85-11.87,10.56,4.34,10.56,11.92-3.89,11.86-10.68,11.86ZM59.6,90.6c-6.95,0-11.21,4.33-11.21,12.23s4.26,12.28,11.09,12.28,11.04-4.32,11.04-12.22-4.2-12.29-10.93-12.29ZM59.49,114.75c-6.82,0-10.73-4.34-10.73-11.92s3.95-11.87,10.85-11.87,10.56,4.34,10.56,11.92-3.89,11.86-10.68,11.86ZM59.6,90.6c-6.95,0-11.21,4.33-11.21,12.23s4.26,12.28,11.09,12.28,11.04-4.32,11.04-12.22-4.2-12.29-10.93-12.29ZM59.49,114.75c-6.82,0-10.73-4.34-10.73-11.92s3.95-11.87,10.85-11.87,10.56,4.34,10.56,11.92-3.89,11.86-10.68,11.86Z"
            />
          </g>
          <path
            class="cls-4"
            d="M101.87,75.17l-1.46,4.68-.39-.23c-1.53-.91-2.92-1.3-4.67-1.3s-3,.48-3.68,1.43c-.6.88-.81,2.06-.81,4.7v2.86h2.56c2.42,0,3.96-.06,6.14-.35l.41-.06v5.28l-.41-.07c-2-.29-3.34-.35-6.14-.35h-2.56v19.82c0,2.61.1,4.25.41,6.5l.06.41h-6.09l.06-.41c.28-2.11.41-4.07.41-6.56v-19.76h-2.03c-2.15,0-3.61.14-5.27.35l-.41.06v-5.28l.42.07c1.44.21,2.82.35,5.26.35h2.03v-3.1c0-3.68.49-5.6,1.89-7.36,1.48-1.91,4.26-3.01,7.64-3.01,2.32,0,4.15.35,6.32,1.19l.31.12Z"
          />
          <path
            class="cls-4"
            d="M120.35,86.55c-9.84,0-15.95,6.28-15.95,16.4s6.14,16.33,16.01,16.33,15.84-6.28,15.84-16.39-6.09-16.34-15.9-16.34ZM131.02,102.89c0,7.54-3.89,11.86-10.67,11.86s-10.74-4.34-10.74-11.92,3.96-11.87,10.85-11.87,10.56,4.34,10.56,11.92Z"
          />
          <g>
            <path
              class="cls-4"
              d="M188.26,111.54v-13.28c0-4.67-2.19-6.95-6.71-6.95-3.14,0-5.74,1.35-7.95,4.13-1.6,2.06-2.33,3.08-2.84,5.43v10.67c0,2.5.11,4.23.41,6.57l.06.41h-6.03l.06-.41c.3-2.21.41-3.81.41-6.56v-30.19c0-3.02-.13-4.53-.41-6.56l-.06-.41h6.04l-.07.42c-.35,2.19-.46,3.73-.46,6.61v9.89c0,.54,0,.93-.03,1.44.76-1.14,1.41-1.88,2.47-2.77,2.6-2.24,5.38-3.24,8.99-3.24,7.06,0,11.28,4.2,11.28,11.24v13.62c0,2.58.11,4.28.41,6.5l.06.41h-6.09l.07-.41c.29-1.95.41-3.73.41-6.56Z"
            />
            <path
              class="cls-4"
              d="M159.68,112.75l1.53,4.86-.3.12c-2.42,1-4.24,1.37-6.74,1.37-2.66,0-4.72-.67-5.98-1.92-1.22-1.22-1.74-2.97-1.74-5.87v-19.53h-1.97c-1.98,0-3.31.12-5.22.35l-.41.05v-5.29l.43.08c1.64.29,2.79.35,5.2.35h1.97v-1.87c0-2.5-.13-4.67-.4-6.44l-.07-.42h6.1l-.07.42c-.27,1.77-.41,3.82-.41,6.44v1.87h2.44c2.61,0,3.83-.05,5.9-.35l.42-.07v5.29l-.42-.07c-1.9-.3-3.35-.35-5.9-.35h-2.44v18.94c0,1.53.2,2.39.65,2.84.58.59,1.48.89,2.6.89,1.5,0,2.62-.37,4.43-1.47l.39-.24Z"
            />
          </g>
        </g>
      </g>
      <g>
        <path
          class="cls-2"
          d="M282.86,35.33h0v31.33h-31.33c0-17.29,14.04-31.33,31.33-31.33Z"
        />
        <path
          class="cls-3"
          d="M239.1,16.45h0v37.75h-37.75c0-20.84,16.92-37.75,37.75-37.75Z"
          transform="translate(184.9 255.55) rotate(-90)"
        />
        <path
          class="cls-1"
          d="M200.95,66.66h51.27v51.27h0c-28.3,0-51.27-22.97-51.27-51.27h0Z"
        />
        <circle
          class="cls-4"
          cx="275.45"
          cy="104.82"
          r="12.52"
        />
        <circle
          class="cls-4"
          cx="257.64"
          cy="22.81"
          r="6.29"
        />
      </g>
    </g>
  </g>
</svg>