<?xml version="1.0" encoding="UTF-8"?>
<svg
  id="Layer_2"
  data-name="Layer 2"
  xmlns="http://www.w3.org/2000/svg"
  viewBox="0 0 345.13 210.97"
>
  <defs>
    <style>
      .cls-1 {
        fill: #fbf5e9;
      }
    </style>
  </defs>
  <g
    id="Layer_1-2"
    data-name="Layer 1"
  >
    <g>
      <g>
        <path
          class="cls-1"
          d="M3.35,105.73c-1.5-10.95-1.58-15.78-3.35-26.91h48.01c5.53,0,9.77-1.36,12.71-4.08,2.94-2.72,4.42-6.57,4.42-11.56l-.14-3.49c-.09-5.53-2.06-10.02-5.92-13.46-3.85-3.44-8.77-5.17-14.75-5.17h-24.72v-11.97h27.17c8.7,0,15.82,2.67,21.35,8.02,5.53,5.35,8.34,12.37,8.43,21.08l.14,6.76c-.09,7.68-.18,9.2-.26,16.88-.15,13.24-10.93,23.9-24.17,23.9H3.35Z"
        />
        <path
          class="cls-1"
          d="M334.46,12.15l-7.33,7.33c-.69.69-.68,1.8,0,2.48l7.57,7.47c.68.68,1.79.67,2.47,0l7.44-7.43c.69-.69.68-1.82-.03-2.5l-7.68-7.37c-.69-.66-1.78-.65-2.45.03Z"
        />
        <path
          class="cls-1"
          d="M274.91.51l-7.33,7.33c-.69.69-.68,1.8,0,2.48l7.57,7.47c.68.68,1.79.67,2.47,0l7.44-7.43c.69-.69.68-1.82-.03-2.5l-7.68-7.37c-.69-.66-1.78-.65-2.45.03Z"
        />
        <path
          class="cls-1"
          d="M36.45.51l-7.33,7.33c-.69.69-.68,1.8,0,2.48l7.57,7.47c.68.68,1.79.67,2.47,0l7.44-7.43c.69-.69.68-1.82-.03-2.5L38.89.49c-.69-.66-1.78-.65-2.45.03Z"
        />
        <path
          class="cls-1"
          d="M330.51,40.32l.14,21.51c0,11.33-10.11,16.99-21.54,16.99,0,0-6.53-.01-9.73-.03-2.24,0-4.48,0-6.72-.01,2.58-1.95,7.58-6.28,10.48-13.58,2.02-5.04,2.2-9.41,2.2-11.27,0-8.06-2.8-14.88-8.42-20.46-5.63-5.58-12.8-8.36-21.49-8.36s-15.64,2.74-21.36,8.22c-5.71,5.49-7.68,12.36-7.68,20.6,0,3.07.13,8.66,3.42,14.82,2.83,5.29,6.66,8.46,8.86,10.03-5.49-.12-107.96.04-107.96.04v-22.72c0-9.15-2.64-16.52-7.9-22.09-5.26-5.58-12.98-8.37-21.41-8.37-9.06,0-16.56,3.08-22.51,9.25-.43.45-2.51,2.62-4.33,5.67-4.2,7-4.61,14.5-4.57,18.12.08,6.88.15,13.77.23,20.64.14,2.25.97,10.93,8.11,18.26s15.77,8.4,18.02,8.6c7.37.15,14.73.31,22.1.45-1.54,3.64-4.78,11.05-11.27,15.91-7.45,5.58-15.22,6.55-19.7,7.1-4.95.61-9.14.36-12.09,0-.53,1.69-1.16,3.48-1.9,5.34-.63,1.58-1.28,3.06-1.93,4.44,3.35.6,8.31,1.19,14.3.81,5.08-.32,14.51-1.01,24.26-7,7.69-4.72,11.82-10.4,12.68-11.61,3.85-5.41,5.57-11.91,6.4-15.25,7.92-.06,83.53-.11,91.5-.15,19.34-.09,69.13.03,75.02-.09,2.25-.2,10.88-1.28,18.02-8.6,7.14-7.35,7.97-16.01,8.11-18.26.04-2.67.19-35.23.22-43.51-3.86,1.52-7.72,3.03-11.57,4.54ZM138.27,78.96c-7.07.18-12.06.27-14.96.27-6.89,0-12.37-1.81-16.45-5.44-4.08-3.62-6.12-8.83-6.12-15.64,0-6.16,1.85-11.15,5.57-14.96,3.72-3.81,8.38-5.71,14.01-5.71s9.68,1.79,12.99,5.37c3.3,3.59,4.96,8.32,4.96,14.21v21.89ZM291.26,60.61c-.08.33-1.31,6.22-4.03,9.69-5.41,6.89-18.04,5.95-23.43-1.09-2.73-3.56-3.79-8.33-3.79-8.33-.38-1.66-.56-3.39-.56-5.18,0-5.63,1.47-10.25,4.4-13.86,2.94-3.61,6.73-5.43,11.36-5.43s8.64,1.82,11.81,5.43c3.17,3.61,4.76,8.23,4.76,13.86,0,.55-.04,2.46-.52,4.91Z"
        />
      </g>
      <g>
        <path
          class="cls-1"
          d="M65.5,209.62h-12.43l-.18-.39c-1.41-3.2-2.52-5.43-5.32-10.12l-33.16-52.47c-.6-.99-2.66-4.85-4.29-8.04.27,4.34.4,8.32.4,10.59v46.27c0,6.13.22,9.75.82,13.33l.13.83H.33l.14-.83c.59-3.43.81-7.18.81-13.33v-57.81c0-5.3-.2-8.59-.81-12.56l-.13-.81h12.04l.15.45c.93,2.62,2.37,5.22,5.21,10.06l32.63,52.48c.31.53.77,1.25,1.31,2.1,1.1,1.73,2.64,4.14,4.11,6.77l-.19-4.2c-.2-4.18-.29-6.28-.29-7v-46.95c0-5.67-.22-9.04-.82-12.89l-.13-.83h11.12l-.13.81c-.61,4.07-.82,7.21-.82,12.9v58.26c0,5.75.22,9.02.82,12.55l.14.83Z"
        />
        <g>
          <path
            class="cls-1"
            d="M105.22,153.08c-17.4,0-28.22,11.11-28.22,29s10.85,28.88,28.32,28.88,28.01-11.11,28.01-28.99-10.78-28.9-28.12-28.9ZM124.75,181.98c0,13.97-7.44,21.62-19.53,21.62s-19.62-7.64-19.62-21.72,7.54-21.63,19.82-21.63,19.32,7.76,19.32,21.73Z"
          />
          <path
            class="cls-1"
            d="M105.42,160.25c-12.29,0-19.82,7.65-19.82,21.63s7.54,21.72,19.62,21.72,19.53-7.64,19.53-21.62-7.44-21.73-19.32-21.73ZM105.22,202.96c-12.07,0-18.98-7.68-18.98-21.08s6.99-20.99,19.18-20.99,18.68,7.68,18.68,21.09-6.89,20.98-18.89,20.98ZM105.42,160.25c-12.29,0-19.82,7.65-19.82,21.63s7.54,21.72,19.62,21.72,19.53-7.64,19.53-21.62-7.44-21.73-19.32-21.73ZM105.22,202.96c-12.07,0-18.98-7.68-18.98-21.08s6.99-20.99,19.18-20.99,18.68,7.68,18.68,21.09-6.89,20.98-18.89,20.98ZM105.42,160.25c-12.29,0-19.82,7.65-19.82,21.63s7.54,21.72,19.62,21.72,19.53-7.64,19.53-21.62-7.44-21.73-19.32-21.73ZM105.22,202.96c-12.07,0-18.98-7.68-18.98-21.08s6.99-20.99,19.18-20.99,18.68,7.68,18.68,21.09-6.89,20.98-18.89,20.98Z"
          />
        </g>
        <path
          class="cls-1"
          d="M180.18,132.95l-2.59,8.28-.69-.41c-2.71-1.61-5.17-2.29-8.25-2.29s-5.3.84-6.5,2.53c-1.06,1.55-1.43,3.65-1.43,8.32v5.05h4.53c4.27,0,7-.1,10.87-.61l.72-.1v9.34l-.73-.12c-3.53-.51-5.91-.61-10.85-.61h-4.53v35.05c0,4.62.18,7.52.72,11.51l.1.73h-10.76l.1-.73c.5-3.72.72-7.19.72-11.61v-34.95h-3.6c-3.8,0-6.39.24-9.32.61l-.73.1v-9.34l.74.12c2.55.37,4.99.61,9.3.61h3.6v-5.48c0-6.5.87-9.91,3.34-13.02,2.61-3.38,7.54-5.32,13.51-5.32,4.1,0,7.33.61,11.19,2.11l.55.22Z"
        />
        <path
          class="cls-1"
          d="M212.86,153.08c-17.4,0-28.22,11.11-28.22,29s10.85,28.88,28.32,28.88,28.01-11.11,28.01-28.99-10.78-28.9-28.12-28.9ZM231.73,181.98c0,13.34-6.87,20.98-18.88,20.98s-18.99-7.68-18.99-21.08,7-20.99,19.2-20.99,18.67,7.68,18.67,21.09Z"
        />
        <g>
          <path
            class="cls-1"
            d="M332.98,197.29v-23.48c0-8.27-3.88-12.29-11.86-12.29-5.55,0-10.15,2.39-14.06,7.31-2.83,3.65-4.12,5.45-5.03,9.6v18.86c0,4.43.19,7.47.72,11.62l.1.72h-10.66l.1-.73c.54-3.92.72-6.73.72-11.61v-53.39c0-5.35-.23-8.01-.72-11.61l-.1-.73h10.69l-.13.74c-.63,3.88-.82,6.6-.82,11.7v17.49c0,.96,0,1.64-.05,2.55,1.34-2.02,2.5-3.33,4.38-4.9,4.59-3.97,9.51-5.73,15.91-5.73,12.49,0,19.95,7.44,19.95,19.89v24.1c0,4.57.19,7.58.72,11.51l.1.73h-10.78l.12-.73c.51-3.46.72-6.6.72-11.61Z"
          />
          <path
            class="cls-1"
            d="M282.43,199.42l2.7,8.59-.54.22c-4.27,1.77-7.5,2.43-11.93,2.43-4.7,0-8.36-1.18-10.57-3.4-2.16-2.16-3.08-5.26-3.08-10.38v-34.54h-3.48c-3.51,0-5.86.2-9.23.61l-.72.09v-9.36l.76.14c2.91.51,4.93.61,9.19.61h3.48v-3.3c0-4.42-.23-8.25-.7-11.39l-.12-.74h10.79l-.12.74c-.49,3.14-.72,6.76-.72,11.39v3.3h4.31c4.62,0,6.77-.09,10.44-.61l.74-.12v9.36l-.74-.12c-3.35-.52-5.93-.61-10.44-.61h-4.31v33.5c0,2.71.35,4.22,1.15,5.03,1.02,1.04,2.62,1.57,4.61,1.57,2.66,0,4.63-.65,7.83-2.6l.69-.42Z"
          />
        </g>
      </g>
    </g>
  </g>
</svg>