<?xml version="1.0" encoding="UTF-8"?>
<svg id="Layer_2" data-name="Layer 2" xmlns="http://www.w3.org/2000/svg" viewBox="0 0 98.39 12.38">
  <defs>
    <style>
      .cls-1 {
        fill: #fbf5e9;
      }
    </style>
  </defs>
  <g id="Layer_1-2" data-name="Layer 1">
    <g>
      <path class="cls-1" d="M98.38.35c-.21,3.24.05,6.46-.02,9.73-.01.6.05,1.24.02,1.85,0,.07-.02.13-.12.13-.13-.02-.27-.03-.4,0-.04-.43-.03-.77-.06-1.14-.08-.81-.03-1.48-.04-2.36-.01-1.52-.13-3.06-.03-4.58.04-.54.04-1.42.01-1.96-.03-.55-.05-.96-.02-1.66.24-.03.46-.03.67,0"/>
      <path class="cls-1" d="M74.99,1.43c.24.02.34.09.36.36.03.39-.03.61.01,1,.14,1.29-.16,2.59-.03,3.88.07.68,0,1.29.03,1.98.04,1.02-.01,2.17-.04,3.36h-3.21c-.11-.16-.09-.95-.06-1.16.03-.18.03-.37.03-.55,0-.75.04-1.42.03-2.17,0-.44,0-.88-.08-1.32-.06-.38.04-1.06-.02-1.44-.07-.48-.11-3.37-.09-3.93,0,0,2.68-.05,3.06-.02"/>
      <path class="cls-1" d="M78.89,12.01c-.18-.02-.2-.09-.2-.27.02-.53-.02-1.68-.09-2.38-.06-.63-.04-1.28.05-1.9.06-.43-.02-.76-.03-1.29,0-.71.05-1.26.04-1.73,0-.29-.01-.59-.03-.88-.01-.27-.01-.88,0-.95.05-.02.24-.01.28,0,.17.02.25.03.38.09.07.28.05.87.05,1.2,0,.19-.02.99,0,1.19.02.32.01.64.01.96,0,.41.03.82.03,1.23,0,.52-.05,1.04-.06,1.56-.03.96.11,2.19.1,2.99,0,.16.02.24-.17.24,0,0-.18-.02-.36-.04"/>
      <path class="cls-1" d="M96.84,12.02c.04-.46-.06-1.17-.06-1.54,0-.22-.02-1.11-.01-1.33.02-.36,0-.72,0-1.08,0-.46.03-.92.02-1.37,0-.58-.06-1.16-.08-1.74-.04-1.21.13-2.82.06-3.67-.3-.07-.66-.08-1.06-.07-.1.67-.07,1.35-.06,2.17,0,.53-.04,1.15-.03,1.94,0,.6.16,1.32.1,1.81-.09.7-.1,1.43-.03,2.13.1,1.01.06,2.68.07,2.7l1.08.06Z"/>
      <path class="cls-1" d="M94.62.36c.02,2.03.04,4.29.13,6.12.03.61.01,1.38.04,2.08,0,.31-.04.93-.06,1.34-.02.33,0,.67,0,1,0,.36.02,1.1-.01,1.11-.19-.03-.38-.03-.59,0-.07-.27-.02-.53-.02-.81.04-2.44-.11-4.22-.08-6.47.01-.73,0-1.72-.06-2.45-.04-.63-.02-1.34.04-1.96.22,0,.42,0,.62.03"/>
      <path class="cls-1" d="M67.16.36c.02,2.03.04,4.29.13,6.12.03.61.01,1.38.04,2.08,0,.31-.04.93-.06,1.34-.02.33,0,.67,0,1,0,.36.02,1.1-.01,1.11-.19-.03-.38-.03-.59,0-.07-.27-.02-.53-.02-.81.04-2.44-.11-4.22-.08-6.47.01-.73,0-1.73-.06-2.45-.04-.63-.02-1.34.04-1.96.22,0,.42,0,.62.03"/>
      <path class="cls-1" d="M93.1.72c-.19,1.01-.4,1.66-.6,2.53-.17.76-.26,1.42-.51,2.28-.22.74-.34,1.51-.51,2.26-.17.73-.34,1.47-.51,2.2-.13.57-.24,1.08-.38,1.65-.02.09-.08.29-.11.39,0,0-.17-.08-.36-.11-.46-.06-.79-.21-.92-.26-.1-.05.48-2.01.53-2.19.2-.74.38-1.48.56-2.22.18-.75.32-1.56.49-2.32.17-.76.39-1.46.56-2.23.17-.77.31-1.42.48-2.19.03-.16.19-.21.4-.08.28.16.62.13.87.29"/>
      <path class="cls-1" d="M68.95,1.57c.22,0,.41.17.45.4.06.34.1.63.14.93.05.33.09.65.15,1,.26,1.45.55,2.83.73,4.34.15,1.28.48,2.51.66,3.68-.4.04-.87.08-1.25.12-.25-2.17-.65-4.2-1.05-6.45-.22-1.26-.17-2.28-.63-3.93.27-.07.54-.1.8-.11"/>
      <path class="cls-1" d="M64.42,12.02c-.04-.46.06-1.17.06-1.54,0-.22.02-1.11.01-1.33-.02-.36,0-.72,0-1.08,0-.46-.02-.92-.02-1.37,0-.58.06-1.16.08-1.74.04-1.21-.13-2.82-.06-3.67.3-.07.66-.08,1.06-.07.1.67.07,1.35.06,2.17,0,.53.04,1.15.03,1.94,0,.6-.16,1.32-.1,1.81.09.7.1,1.43.03,2.13-.1,1.01-.06,2.68-.07,2.7l-1.08.06Z"/>
      <path class="cls-1" d="M76.54.48c-.06,0-.1.06-.1.13-.03,1.33-.05,2.52-.13,3.89-.03.54-.06,1.35.02,1.98.09.84-.1,1.52-.05,2.37.07,1.11-.08,2.03-.02,3.14l1.25.03c.1,0,.2-.1.18-.37-.01-.27,0-1.41,0-2.28s-.1-1.66-.02-2.62c.04-.47-.06-.98-.03-1.45.04-.86.07-1.61.09-2.47,0-.51,0-1.29.01-1.79.01-.35-.06-.6-.23-.69-.2-.1-.74.1-.97.13"/>
      <path class="cls-1" d="M82.34,1.28c.01-.32.02-.43.02-.55,0-.08-.07-.09-.12-.13-.04-.02-.38-.1-.49-.13-.1-.02-.23-.04-.33-.04-.32,0-.65-.12-.97-.08-.01,0-.02,0-.03.01-.03.02-.12.06-.14.26-.04.3.04.56,0,1.11-.04.55,0,2.03,0,2.38-.02,2.7.12,2.74.06,4.82-.02.74,0,.98.07,1.75.02.2.1.72.06,1.07-.02.13.06.24.17.25.54.03,1.66-.06,1.66-.06.06-.27.07-.53.06-.9-.01-.25.03-.67.03-.93,0-.29.02-.57,0-.86-.03-.77-.05-1.54-.03-2.31.05-1.95-.1-3.08-.03-5l.02-.68Z"/>
      <path class="cls-1" d="M83.35,11.96c.05-1.33.04-2.14.06-3.29.01-.81-.11-1.84-.09-2.69.03-1.57.04-2.1-.07-3.56-.03-.33.02-.94,0-1.27,0-.22-.02-.5-.02-.72,0,0,.99.23,1.75.06,1.22-.28,3.24,0,3.24,0,.12.22.14.74.13.87-.02.96-.04.62-.01,1.58.03.91-.13,1.71-.13,2.98,0,.84.12,1.39.14,1.95.03.58-.06,1.06-.03,1.97.02.56,0,2.04.02,2.17,0,0-3.64.02-4.41-.08-.41-.05-.59.01-.59.01"/>
      <path class="cls-1" d="M2.6,1.83l-.4-.41.4-.41.4.41-.4.41ZM1.65,1.83l-.4-.41.4-.41.4.41-.4.41ZM4.03,1.98c.06.1.11.22.15.35.05.13.09.26.12.4.03.14.06.27.08.41.02.14.03.26.03.38,0,.36-.18.62-.54.79-.36.17-.91.26-1.67.26-.38,0-.71-.02-.99-.07-.28-.05-.51-.12-.69-.21-.18-.1-.31-.22-.4-.37-.09-.15-.13-.33-.13-.53,0-.18.03-.37.1-.58.06-.21.15-.41.26-.6l.34.17c-.07.15-.12.3-.16.43-.04.14-.05.26-.05.37,0,.14.03.26.09.37.06.1.16.18.3.25.14.06.32.11.53.14.22.03.48.05.79.05.24,0,.47-.01.68-.03.21-.02.4-.05.56-.09.16-.04.28-.08.37-.13.09-.05.14-.1.14-.16,0-.08,0-.18-.03-.28-.02-.11-.05-.22-.08-.34-.04-.12-.08-.24-.13-.36-.05-.12-.1-.23-.15-.34l.47-.26Z"/>
      <path class="cls-1" d="M6.2,4.53c-.69,0-1.04-.3-1.05-.9l-.03-3.17.51-.09-.03,3.07c0,.19.05.32.14.4.09.08.24.12.46.12l.1.06v.45l-.1.06Z"/>
      <polygon class="cls-1" points="6.1 4.46 6.1 4.01 6.2 3.95 6.72 3.95 6.82 4.01 6.82 4.46 6.72 4.53 6.2 4.53 6.1 4.46"/>
      <polygon class="cls-1" points="6.62 4.46 6.62 4.01 6.72 3.95 7.24 3.95 7.34 4.01 7.34 4.46 7.24 4.53 6.72 4.53 6.62 4.46"/>
      <polygon class="cls-1" points="7.13 4.46 7.13 4.01 7.24 3.95 7.75 3.95 7.86 4.01 7.86 4.46 7.75 4.53 7.24 4.53 7.13 4.46"/>
      <polygon class="cls-1" points="7.65 4.46 7.65 4.01 7.75 3.95 8.27 3.95 8.37 4.01 8.37 4.46 8.27 4.53 7.75 4.53 7.65 4.46"/>
      <polygon class="cls-1" points="8.17 4.46 8.17 4.01 8.27 3.95 8.79 3.95 8.89 4.01 8.89 4.46 8.79 4.53 8.27 4.53 8.17 4.46"/>
      <polygon class="cls-1" points="8.68 4.46 8.68 4.01 8.79 3.95 9.3 3.95 9.41 4.01 9.41 4.46 9.3 4.53 8.79 4.53 8.68 4.46"/>
      <polygon class="cls-1" points="9.2 4.46 9.2 4.01 9.3 3.95 9.82 3.95 9.92 4.01 9.92 4.46 9.82 4.53 9.3 4.53 9.2 4.46"/>
      <polygon class="cls-1" points="9.72 4.46 9.72 4.01 9.82 3.95 10.34 3.95 10.44 4.01 10.44 4.46 10.34 4.53 9.82 4.53 9.72 4.46"/>
      <polygon class="cls-1" points="10.23 4.46 10.23 4.01 10.34 3.95 10.85 3.95 10.96 4.01 10.96 4.46 10.85 4.53 10.34 4.53 10.23 4.46"/>
      <polygon class="cls-1" points="10.75 4.46 10.75 4.01 10.85 3.95 11.37 3.95 11.47 4.01 11.47 4.46 11.37 4.53 10.85 4.53 10.75 4.46"/>
      <polygon class="cls-1" points="11.27 4.46 11.27 4.01 11.37 3.95 11.89 3.95 11.99 4.01 11.99 4.46 11.89 4.53 11.37 4.53 11.27 4.46"/>
      <polygon class="cls-1" points="11.78 4.46 11.78 4.01 11.89 3.95 12.4 3.95 12.51 4.01 12.51 4.46 12.4 4.53 11.89 4.53 11.78 4.46"/>
      <polygon class="cls-1" points="12.3 4.46 12.3 4.01 12.4 3.95 12.92 3.95 13.02 4.01 13.02 4.46 12.92 4.53 12.4 4.53 12.3 4.46"/>
      <polygon class="cls-1" points="12.82 4.46 12.82 4.01 12.92 3.95 13.43 3.95 13.54 4.01 13.54 4.46 13.43 4.53 12.92 4.53 12.82 4.46"/>
      <polygon class="cls-1" points="13.33 4.46 13.33 4.01 13.43 3.95 13.95 3.95 14.05 4.01 14.05 4.46 13.95 4.53 13.43 4.53 13.33 4.46"/>
      <polygon class="cls-1" points="13.85 4.46 13.85 4.01 13.95 3.95 14.47 3.95 14.57 4.01 14.57 4.46 14.47 4.53 13.95 4.53 13.85 4.46"/>
      <polygon class="cls-1" points="14.36 4.46 14.36 4.01 14.47 3.95 14.98 3.95 15.09 4.01 15.09 4.46 14.98 4.53 14.47 4.53 14.36 4.46"/>
      <polygon class="cls-1" points="14.88 4.46 14.88 4.01 14.98 3.95 15.5 3.95 15.6 4.01 15.6 4.46 15.5 4.53 14.98 4.53 14.88 4.46"/>
      <polygon class="cls-1" points="15.4 4.46 15.4 4.01 15.5 3.95 16.02 3.95 16.12 4.01 16.12 4.46 16.02 4.53 15.5 4.53 15.4 4.46"/>
      <polygon class="cls-1" points="15.91 4.46 15.91 4.01 16.02 3.95 16.53 3.95 16.64 4.01 16.64 4.46 16.53 4.53 16.02 4.53 15.91 4.46"/>
      <polygon class="cls-1" points="16.43 4.46 16.43 4.01 16.53 3.95 17.05 3.95 17.15 4.01 17.15 4.46 17.05 4.53 16.53 4.53 16.43 4.46"/>
      <polygon class="cls-1" points="16.95 4.46 16.95 4.01 17.05 3.95 17.57 3.95 17.67 4.01 17.67 4.46 17.57 4.53 17.05 4.53 16.95 4.46"/>
      <polygon class="cls-1" points="17.46 4.46 17.46 4.01 17.57 3.95 18.08 3.95 18.19 4.01 18.19 4.46 18.08 4.53 17.57 4.53 17.46 4.46"/>
      <polygon class="cls-1" points="17.98 4.46 17.98 4.01 18.08 3.95 18.6 3.95 18.7 4.01 18.7 4.46 18.6 4.53 18.08 4.53 17.98 4.46"/>
      <polygon class="cls-1" points="18.5 4.46 18.5 4.01 18.6 3.95 19.12 3.95 19.22 4.01 19.22 4.46 19.12 4.53 18.6 4.53 18.5 4.46"/>
      <polygon class="cls-1" points="19.01 4.46 19.01 4.01 19.12 3.95 19.63 3.95 19.74 4.01 19.74 4.46 19.63 4.53 19.12 4.53 19.01 4.46"/>
      <polygon class="cls-1" points="19.53 4.46 19.53 4.01 19.63 3.95 20.15 3.95 20.25 4.01 20.25 4.46 20.15 4.53 19.63 4.53 19.53 4.46"/>
      <polygon class="cls-1" points="20.05 4.46 20.05 4.01 20.15 3.95 20.66 3.95 20.77 4.01 20.77 4.46 20.66 4.53 20.15 4.53 20.05 4.46"/>
      <polygon class="cls-1" points="20.56 4.46 20.56 4.01 20.66 3.95 21.18 3.95 21.28 4.01 21.28 4.46 21.18 4.53 20.66 4.53 20.56 4.46"/>
      <path class="cls-1" d="M22.31,5.86l-.4-.41.4-.41.4.41-.4.41ZM23.31,4.53c-.5,0-.84-.14-1.01-.43-.09.14-.23.24-.42.32-.2.08-.43.11-.7.11l-.1-.06v-.45l.1-.06c.28,0,.49-.03.62-.1.14-.06.22-.17.26-.32,0-.05.02-.11.03-.18.01-.07.03-.14.04-.22.01-.07.02-.15.03-.22,0-.07.02-.14.03-.19l.44.05c-.02.18-.04.35-.06.5-.02.15-.03.24-.03.28,0,.27.26.4.77.4l.1.06v.45l-.1.06Z"/>
      <path class="cls-1" d="M25.05,2.2l-.4-.41.4-.41.4.41-.4.41ZM24.11,2.2l-.4-.41.4-.41.4.41-.4.41ZM25.44,4.53c-.5,0-.84-.14-1.01-.43-.09.14-.23.24-.42.32s-.43.11-.7.11l-.1-.06v-.45l.1-.06c.28,0,.49-.03.62-.1.14-.06.22-.17.26-.32,0-.05.02-.11.03-.18.01-.07.03-.14.04-.22.01-.07.02-.15.03-.22,0-.07.02-.14.03-.19l.44.05c-.02.18-.04.35-.06.5-.02.15-.03.24-.03.28,0,.27.26.4.77.4l.1.06v.45l-.1.06Z"/>
      <path class="cls-1" d="M28.06,4.53c-.27,0-.49-.03-.67-.09-.18-.06-.34-.17-.48-.32-.28.27-.77.41-1.47.41l-.1-.06v-.45l.1-.06c.28,0,.51-.02.71-.06.2-.04.35-.1.47-.17l-.06-.1-.9-1.65.08-.53c.37-.21.74-.4,1.11-.58.37-.18.74-.35,1.11-.5l.1.5c-.16.06-.32.13-.47.19-.15.06-.3.13-.46.2-.15.07-.32.14-.48.23-.17.08-.35.17-.55.27l.87,1.6c.06.12.13.21.19.29.06.08.14.14.22.18.08.05.18.08.28.1.11.02.23.03.38.03l.1.06v.45l-.1.06Z"/>
      <path class="cls-1" d="M29.28,4.62s-.07-.03-.1-.05c-.03-.01-.07-.02-.1-.03-.04,0-.08-.01-.12-.01-.05,0-.1,0-.16,0h-.73l-.1-.06v-.45l.1-.06h.84c-.03-.08-.06-.16-.07-.26-.01-.1-.02-.22-.02-.36l-.02-2.87.51-.09-.03,3.05c0,.1,0,.18.02.26.02.07.04.13.09.19.04.06.1.11.18.16.08.05.17.1.29.16l.18.08-.3.59-.45-.24Z"/>
      <polygon class="cls-1" points="30.45 4.53 30.41 .45 30.92 .36 30.89 4.53 30.45 4.53"/>
      <path class="cls-1" d="M34.42.81l-.4-.41.4-.41.4.41-.4.41ZM33.87,3.39c.21,0,.39-.03.54-.09v-1.04c-.17.02-.33.05-.47.09-.15.04-.28.09-.39.15-.11.06-.2.13-.27.21-.07.08-.1.17-.1.26,0,.08.02.14.05.19.04.05.09.09.15.13.06.03.14.06.22.07.08.02.17.02.26.02M33.47.81l-.4-.41.4-.41.4.41-.4.41ZM35.47,4.53c-.62,0-.97-.24-1.04-.73-.18.1-.39.16-.64.16-.15,0-.28-.02-.41-.06-.13-.04-.24-.09-.33-.17-.09-.07-.17-.16-.23-.27-.06-.11-.08-.23-.08-.37,0-.33.15-.61.44-.85.29-.23.7-.4,1.22-.51v-.39l.51-.09-.03,2.19c0,.19.04.32.14.4.09.08.25.12.46.12l.1.06v.45l-.1.06Z"/>
      <polygon class="cls-1" points="35.37 4.46 35.37 4.01 35.47 3.95 35.99 3.95 36.09 4.01 36.09 4.46 35.99 4.53 35.47 4.53 35.37 4.46"/>
      <polygon class="cls-1" points="35.88 4.46 35.88 4.01 35.99 3.95 36.5 3.95 36.61 4.01 36.61 4.46 36.5 4.53 35.99 4.53 35.88 4.46"/>
      <polygon class="cls-1" points="36.4 4.46 36.4 4.01 36.5 3.95 37.02 3.95 37.12 4.01 37.12 4.46 37.02 4.53 36.5 4.53 36.4 4.46"/>
      <polygon class="cls-1" points="36.92 4.46 36.92 4.01 37.02 3.95 37.54 3.95 37.64 4.01 37.64 4.46 37.54 4.53 37.02 4.53 36.92 4.46"/>
      <polygon class="cls-1" points="37.43 4.46 37.43 4.01 37.53 3.95 38.05 3.95 38.15 4.01 38.15 4.46 38.05 4.53 37.53 4.53 37.43 4.46"/>
      <polygon class="cls-1" points="37.95 4.46 37.95 4.01 38.05 3.95 38.57 3.95 38.67 4.01 38.67 4.46 38.57 4.53 38.05 4.53 37.95 4.46"/>
      <polygon class="cls-1" points="38.46 4.46 38.46 4.01 38.57 3.95 39.08 3.95 39.19 4.01 39.19 4.46 39.08 4.53 38.57 4.53 38.46 4.46"/>
      <polygon class="cls-1" points="38.98 4.46 38.98 4.01 39.08 3.95 39.6 3.95 39.7 4.01 39.7 4.46 39.6 4.53 39.08 4.53 38.98 4.46"/>
      <polygon class="cls-1" points="39.5 4.46 39.5 4.01 39.6 3.95 40.12 3.95 40.22 4.01 40.22 4.46 40.12 4.53 39.6 4.53 39.5 4.46"/>
      <polygon class="cls-1" points="40.01 4.46 40.01 4.01 40.12 3.95 40.63 3.95 40.74 4.01 40.74 4.46 40.63 4.53 40.12 4.53 40.01 4.46"/>
      <polygon class="cls-1" points="40.53 4.46 40.53 4.01 40.63 3.95 41.15 3.95 41.25 4.01 41.25 4.46 41.15 4.53 40.63 4.53 40.53 4.46"/>
      <polygon class="cls-1" points="41.05 4.46 41.05 4.01 41.15 3.95 41.67 3.95 41.77 4.01 41.77 4.46 41.67 4.53 41.15 4.53 41.05 4.46"/>
      <polygon class="cls-1" points="41.56 4.46 41.56 4.01 41.67 3.95 42.18 3.95 42.29 4.01 42.29 4.46 42.18 4.53 41.67 4.53 41.56 4.46"/>
      <polygon class="cls-1" points="42.08 4.46 42.08 4.01 42.18 3.95 42.7 3.95 42.8 4.01 42.8 4.46 42.7 4.53 42.18 4.53 42.08 4.46"/>
      <polygon class="cls-1" points="42.6 4.46 42.6 4.01 42.7 3.95 43.22 3.95 43.32 4.01 43.32 4.46 43.22 4.53 42.7 4.53 42.6 4.46"/>
      <polygon class="cls-1" points="43.11 4.46 43.11 4.01 43.22 3.95 43.73 3.95 43.84 4.01 43.84 4.46 43.73 4.53 43.22 4.53 43.11 4.46"/>
      <polygon class="cls-1" points="43.63 4.46 43.63 4.01 43.73 3.95 44.25 3.95 44.35 4.01 44.35 4.46 44.25 4.53 43.73 4.53 43.63 4.46"/>
      <polygon class="cls-1" points="44.15 4.46 44.15 4.01 44.25 3.95 44.77 3.95 44.87 4.01 44.87 4.46 44.77 4.53 44.25 4.53 44.15 4.46"/>
      <polygon class="cls-1" points="44.66 4.46 44.66 4.01 44.77 3.95 45.28 3.95 45.38 4.01 45.38 4.46 45.28 4.53 44.77 4.53 44.66 4.46"/>
      <polygon class="cls-1" points="45.18 4.46 45.18 4.01 45.28 3.95 45.8 3.95 45.9 4.01 45.9 4.46 45.8 4.53 45.28 4.53 45.18 4.46"/>
      <polygon class="cls-1" points="45.69 4.46 45.69 4.01 45.8 3.95 46.31 3.95 46.42 4.01 46.42 4.46 46.31 4.53 45.8 4.53 45.69 4.46"/>
      <polygon class="cls-1" points="46.21 4.46 46.21 4.01 46.31 3.95 46.83 3.95 46.93 4.01 46.93 4.46 46.83 4.53 46.31 4.53 46.21 4.46"/>
      <polygon class="cls-1" points="46.73 4.46 46.73 4.01 46.83 3.95 47.35 3.95 47.45 4.01 47.45 4.46 47.35 4.53 46.83 4.53 46.73 4.46"/>
      <polygon class="cls-1" points="47.24 4.46 47.24 4.01 47.35 3.95 47.86 3.95 47.97 4.01 47.97 4.46 47.86 4.53 47.35 4.53 47.24 4.46"/>
      <polygon class="cls-1" points="47.76 4.46 47.76 4.01 47.86 3.95 48.38 3.95 48.48 4.01 48.48 4.46 48.38 4.53 47.86 4.53 47.76 4.46"/>
      <polygon class="cls-1" points="48.28 4.46 48.28 4.01 48.38 3.95 48.9 3.95 49 4.01 49 4.46 48.9 4.53 48.38 4.53 48.28 4.46"/>
      <polygon class="cls-1" points="48.79 4.46 48.79 4.01 48.9 3.95 49.41 3.95 49.52 4.01 49.52 4.46 49.41 4.53 48.9 4.53 48.79 4.46"/>
      <polygon class="cls-1" points="49.31 4.46 49.31 4.01 49.41 3.95 49.93 3.95 50.03 4.01 50.03 4.46 49.93 4.53 49.41 4.53 49.31 4.46"/>
      <polygon class="cls-1" points="49.83 4.46 49.83 4.01 49.93 3.95 50.45 3.95 50.55 4.01 50.55 4.46 50.45 4.53 49.93 4.53 49.83 4.46"/>
      <polygon class="cls-1" points="50.34 4.46 50.34 4.01 50.45 3.95 50.96 3.95 51.07 4.01 51.07 4.46 50.96 4.53 50.45 4.53 50.34 4.46"/>
      <polygon class="cls-1" points="50.86 4.46 50.86 4.01 50.96 3.95 51.48 3.95 51.58 4.01 51.58 4.46 51.48 4.53 50.96 4.53 50.86 4.46"/>
      <polygon class="cls-1" points="51.38 4.46 51.38 4.01 51.48 3.95 52 3.95 52.1 4.01 52.1 4.46 52 4.53 51.48 4.53 51.38 4.46"/>
      <polygon class="cls-1" points="51.89 4.46 51.89 4.01 52 3.95 52.51 3.95 52.62 4.01 52.62 4.46 52.51 4.53 52 4.53 51.89 4.46"/>
      <path class="cls-1" d="M54.31,2.07c-.34.03-.67.09-.99.19l-.09-.23c.06-.02.12-.04.17-.06.05-.02.1-.03.15-.05-.14-.08-.21-.2-.21-.36,0-.14.05-.26.15-.35.1-.1.22-.15.36-.15.15,0,.27.05.36.16l-.13.19c-.06-.04-.13-.06-.21-.06-.08,0-.14.02-.19.06-.05.04-.07.09-.07.15,0,.06.03.12.1.16s.16.07.27.08c.07-.01.14-.02.21-.03.06,0,.13-.02.19-.02l-.05.31Z"/>
      <path class="cls-1" d="M54.64,4.53c-.5,0-.84-.14-1.01-.43-.09.14-.23.24-.42.32-.2.08-.43.11-.7.11l-.1-.06v-.45l.1-.06c.28,0,.49-.03.62-.1.14-.06.22-.17.26-.32,0-.05.02-.11.03-.18.01-.07.03-.14.04-.22.01-.07.02-.15.03-.22,0-.07.02-.14.03-.19l.44.05c-.02.18-.04.35-.06.5-.02.15-.03.24-.03.28,0,.27.26.4.77.4l.1.06v.45l-.1.06Z"/>
      <path class="cls-1" d="M56.24,5.86l-.4-.41.4-.41.4.41-.4.41ZM55.3,5.86l-.4-.41.4-.41.4.41-.4.41ZM56.77,4.53c-.5,0-.84-.14-1.01-.43-.09.14-.23.24-.42.32-.2.08-.43.11-.7.11l-.1-.06v-.45l.1-.06c.28,0,.49-.03.62-.1.14-.06.22-.17.26-.32,0-.05.02-.11.03-.18.01-.07.03-.14.04-.22.01-.07.02-.15.03-.22,0-.07.02-.14.03-.19l.44.05c-.02.18-.04.35-.06.5-.02.15-.03.24-.03.28,0,.27.26.4.77.4l.1.06v.45l-.1.06Z"/>
      <path class="cls-1" d="M57.5,3.19c0,.12.05.24.14.34s.22.19.37.25c.35-.12.52-.32.52-.59,0-.15-.05-.27-.15-.37-.1-.1-.22-.15-.37-.15s-.27.05-.37.15c-.1.1-.15.22-.15.37M58.94,3.19c0,.3-.11.55-.32.75.05,0,.09,0,.14,0,.05,0,.1,0,.15,0,.22,0,.39-.03.53-.09.14-.06.21-.14.21-.24,0-.21-.04-.41-.11-.6-.08-.19-.18-.37-.32-.54s-.3-.32-.5-.45c-.2-.13-.41-.24-.65-.32l.22-.5c.28.1.52.23.75.39.22.16.41.34.57.54.16.2.28.42.36.65s.13.48.13.73c0,.32-.1.56-.3.74-.2.17-.49.26-.85.26-.15,0-.3-.02-.47-.06-.17-.04-.33-.1-.48-.16-.19.07-.4.12-.61.16-.22.04-.41.06-.59.06l-.1-.06v-.45l.1-.06c.11,0,.22,0,.32,0,.1,0,.2-.01.3-.02-.2-.2-.3-.45-.3-.73,0-.15.02-.28.07-.41.05-.12.11-.23.2-.33.08-.09.18-.17.29-.22.11-.05.23-.08.36-.08s.25.03.36.08c.11.05.21.13.29.22.08.09.15.21.2.33.05.13.07.26.07.4"/>
      <polygon class="cls-1" points=".21 7.97 .83 7.97 .83 11.73 3.07 11.73 3.07 12.27 .21 12.27 .21 7.97"/>
      <path class="cls-1" d="M3.68,9.27h.58v3h-.58v-3ZM3.64,8.08h.65v.65h-.65v-.65Z"/>
      <path class="cls-1" d="M5.66,11.78c.06.02.13.04.22.06.09.02.22.03.39.03s.32-.03.45-.08c.13-.05.25-.13.35-.23.1-.1.17-.21.22-.35.05-.14.08-.28.08-.44,0-.14-.02-.27-.05-.4-.03-.13-.08-.24-.15-.34-.07-.1-.16-.17-.27-.23-.11-.06-.24-.09-.39-.09-.14,0-.27.02-.37.07-.11.05-.19.11-.26.19-.07.08-.12.17-.16.28-.03.11-.05.21-.05.33v1.19ZM5.09,7.97h.58v1.63s.07-.08.13-.13c.05-.05.12-.09.2-.13.08-.04.17-.07.27-.1.1-.03.21-.04.34-.04.22,0,.42.04.59.12.17.08.31.19.43.33.12.14.2.3.26.49.06.19.09.39.09.61,0,.24-.04.45-.12.65-.08.2-.2.37-.35.51-.15.14-.33.25-.53.33-.21.08-.43.12-.68.12s-.47-.02-.68-.06c-.21-.04-.38-.08-.51-.14v-4.2Z"/>
      <path class="cls-1" d="M8.63,12.27v-2.82s0-.1,0-.19h.56l.02.48c.03-.05.08-.11.14-.17.06-.06.12-.12.2-.17.08-.05.17-.1.28-.13.11-.04.23-.05.37-.05.06,0,.12,0,.18.01.05,0,.1.02.15.04l-.13.54c-.08-.03-.18-.05-.3-.05s-.24.02-.35.07-.2.11-.27.2c-.08.08-.14.18-.18.29-.05.11-.07.23-.07.36v1.58h-.58Z"/>
      <path class="cls-1" d="M12.75,10.85s-.05,0-.1-.02c-.05,0-.11-.01-.17-.02-.06,0-.13,0-.21-.01-.07,0-.14,0-.21,0-.16,0-.3.02-.4.06-.1.04-.18.09-.24.15-.06.06-.1.12-.12.19-.02.07-.03.14-.03.2,0,.16.06.29.17.37.11.08.27.13.46.13.11,0,.22-.02.32-.06.1-.04.19-.09.27-.15.08-.06.14-.14.19-.23.05-.09.07-.17.07-.26v-.34ZM12.76,11.91c-.11.15-.26.26-.44.34s-.37.11-.56.11c-.12,0-.25-.02-.37-.05-.12-.03-.23-.09-.34-.16-.1-.08-.18-.17-.25-.29-.06-.12-.09-.26-.09-.44,0-.32.11-.58.34-.77.23-.19.55-.29.98-.29.07,0,.14,0,.22,0,.08,0,.15,0,.22.01.07,0,.13,0,.18.01.05,0,.09,0,.11.01v-.11c0-.22-.07-.38-.2-.48-.14-.1-.32-.15-.55-.15s-.41.03-.54.09c-.13.06-.25.13-.34.19l-.27-.39c.05-.04.11-.09.19-.13.07-.04.16-.08.26-.12.1-.04.21-.07.34-.09.12-.02.27-.04.43-.04.39,0,.69.09.91.28.22.19.33.45.33.8v1.86s0,.09,0,.15h-.54v-.36Z"/>
      <path class="cls-1" d="M14.1,12.27v-2.82s0-.1,0-.19h.56l.02.48c.03-.05.08-.11.14-.17.06-.06.12-.12.2-.17.08-.05.17-.1.28-.13.11-.04.23-.05.36-.05.06,0,.12,0,.18.01.05,0,.1.02.15.04l-.13.54c-.08-.03-.18-.05-.3-.05s-.24.02-.35.07-.2.11-.27.2c-.08.08-.14.18-.18.29-.05.11-.07.23-.07.36v1.58h-.58Z"/>
      <path class="cls-1" d="M16.48,9.27h.58v3h-.58v-3ZM16.44,8.08h.65v.65h-.65v-.65Z"/>
      <path class="cls-1" d="M20.1,10.51c-.02-.23-.1-.43-.25-.59-.15-.16-.35-.25-.62-.25-.14,0-.26.02-.37.07-.11.05-.2.11-.28.19-.08.08-.14.17-.18.27-.04.1-.07.21-.07.31h1.77ZM20.62,11.84s-.09.09-.15.15c-.07.06-.16.12-.27.17-.11.06-.24.1-.39.15-.15.04-.32.06-.51.06-.23,0-.45-.04-.64-.12-.19-.08-.36-.19-.5-.33-.14-.14-.24-.31-.32-.51-.08-.2-.11-.42-.11-.66,0-.22.04-.43.11-.62.07-.19.18-.36.31-.5.13-.14.29-.25.47-.33.18-.08.38-.12.6-.12.26,0,.48.05.66.15.19.1.34.23.46.39.12.16.21.35.26.56.06.21.08.43.08.66h-2.37c0,.13.03.26.09.37.05.11.13.21.22.29.09.08.19.15.31.19.12.05.24.07.37.07.25,0,.46-.04.63-.13.16-.09.28-.17.36-.25l.33.35Z"/>
      <path class="cls-1" d="M21.54,11.52c.11.11.24.19.39.26.15.06.32.1.52.1s.36-.03.48-.09c.13-.06.19-.16.19-.29,0-.07-.01-.13-.04-.18-.03-.05-.08-.09-.14-.13-.07-.04-.15-.07-.26-.11-.11-.03-.25-.07-.41-.11-.12-.03-.23-.06-.35-.1-.11-.04-.22-.1-.31-.17-.09-.07-.16-.16-.22-.26-.06-.1-.08-.22-.08-.36s.03-.27.1-.38c.07-.11.16-.2.27-.28.11-.08.24-.13.38-.17.14-.04.29-.06.44-.06.25,0,.47.03.66.1.18.07.34.16.48.28l-.32.4c-.09-.08-.2-.15-.34-.21-.14-.06-.29-.08-.47-.08s-.33.03-.45.09c-.11.06-.17.16-.17.3,0,.13.07.22.22.29.15.06.34.12.58.18.14.03.27.07.4.12.12.05.23.1.32.17.09.07.17.16.22.26.05.1.08.23.08.37s-.03.28-.1.4c-.07.11-.16.21-.28.29-.12.08-.25.14-.4.17-.15.04-.31.06-.47.06-.57,0-.99-.15-1.28-.46l.36-.39Z"/>
      <path class="cls-1" d="M29.31,11.52c-.05.08-.12.17-.22.26-.1.1-.22.19-.36.28-.14.09-.31.16-.49.22-.18.06-.39.09-.61.09-.32,0-.61-.06-.87-.17-.26-.11-.49-.27-.68-.47-.19-.2-.34-.44-.44-.71-.11-.27-.16-.57-.16-.89s.05-.61.16-.88c.11-.28.25-.52.44-.72.19-.21.42-.37.68-.49.26-.12.56-.18.88-.18.23,0,.43.03.61.08.18.06.34.13.47.21.14.08.25.18.35.27.1.1.18.19.24.28l-.44.37c-.05-.07-.11-.15-.18-.23-.07-.08-.16-.15-.25-.22-.1-.06-.21-.12-.34-.16-.13-.04-.28-.06-.45-.06-.24,0-.45.04-.64.14-.19.09-.35.21-.48.37-.13.15-.23.34-.3.54-.07.21-.1.43-.1.66s.04.45.11.66c.07.2.17.38.3.53.13.15.29.27.47.36s.39.13.62.13c.19,0,.36-.02.5-.07.14-.05.26-.11.36-.18.1-.07.18-.14.24-.21.06-.07.12-.13.16-.18l.43.36Z"/>
      <path class="cls-1" d="M31.26,11.86c.15,0,.29-.03.42-.09.12-.06.23-.14.32-.25.09-.1.15-.22.2-.35s.07-.27.07-.4-.02-.27-.07-.4c-.05-.13-.11-.25-.2-.35-.09-.1-.19-.19-.32-.25-.12-.06-.26-.09-.42-.09s-.29.03-.42.09c-.12.06-.23.14-.32.25-.09.1-.15.22-.2.35-.05.13-.07.27-.07.4s.02.27.07.4c.04.13.11.25.2.35.09.1.19.19.32.25.12.06.26.09.42.09M31.26,12.36c-.23,0-.45-.04-.64-.13-.19-.08-.36-.2-.5-.35-.14-.15-.25-.32-.33-.51-.08-.19-.12-.4-.12-.62s.04-.43.12-.62c.08-.19.19-.36.33-.51.14-.15.31-.26.5-.35.19-.08.41-.13.64-.13s.44.04.63.13c.19.08.36.2.5.35.14.15.25.32.33.51.08.19.12.4.12.62s-.04.43-.12.62c-.08.19-.19.36-.33.51-.14.15-.31.26-.5.35-.19.08-.4.13-.63.13"/>
      <path class="cls-1" d="M33.5,12.27v-2.81s0-.1,0-.19h.56l.02.45c.03-.05.08-.11.14-.17.06-.06.12-.12.2-.17.08-.05.17-.09.27-.13.11-.03.23-.05.36-.05.23,0,.42.05.58.14.15.09.27.23.36.4.12-.14.27-.27.44-.38.17-.11.39-.16.65-.16.39,0,.67.12.86.35.18.23.28.54.28.93v1.8h-.58v-1.76c0-.28-.05-.49-.16-.62-.11-.13-.27-.2-.48-.2-.12,0-.23.02-.33.07-.1.05-.19.12-.26.2-.08.08-.13.18-.17.29-.04.11-.06.23-.06.35v1.67h-.58v-1.76c0-.28-.05-.49-.16-.62-.11-.13-.27-.2-.47-.2-.16,0-.29.03-.4.1-.11.07-.19.16-.26.27-.07.11-.11.24-.14.38-.03.14-.04.28-.04.43v1.39h-.58Z"/>
      <path class="cls-1" d="M38.99,12.27v-2.81s0-.1,0-.19h.56l.02.45c.03-.05.08-.11.14-.17.06-.06.12-.12.2-.17.08-.05.17-.09.27-.13.11-.03.23-.05.36-.05.23,0,.42.05.58.14.15.09.27.23.36.4.12-.14.27-.27.44-.38.17-.11.39-.16.65-.16.39,0,.67.12.86.35.18.23.28.54.28.93v1.8h-.58v-1.76c0-.28-.05-.49-.16-.62-.11-.13-.27-.2-.48-.2-.12,0-.23.02-.33.07-.1.05-.19.12-.26.2-.08.08-.13.18-.17.29-.04.11-.06.23-.06.35v1.67h-.58v-1.76c0-.28-.06-.49-.16-.62-.11-.13-.27-.2-.47-.2-.16,0-.29.03-.4.1-.11.07-.19.16-.26.27-.07.11-.11.24-.14.38-.03.14-.04.28-.04.43v1.39h-.58Z"/>
      <path class="cls-1" d="M44.5,9.27h.58v3h-.58v-3ZM44.47,8.08h.65v.65h-.65v-.65Z"/>
      <path class="cls-1" d="M46.11,11.52c.11.11.24.19.39.26.15.06.32.1.52.1s.36-.03.48-.09c.13-.06.19-.16.19-.29,0-.07-.01-.13-.04-.18-.03-.05-.08-.09-.14-.13-.07-.04-.15-.07-.26-.11-.11-.03-.25-.07-.41-.11-.12-.03-.23-.06-.35-.1-.11-.04-.22-.1-.31-.17-.09-.07-.16-.16-.22-.26-.06-.1-.08-.22-.08-.36s.03-.27.1-.38c.07-.11.16-.2.27-.28.11-.08.24-.13.38-.17.14-.04.28-.06.44-.06.25,0,.47.03.66.1.18.07.34.16.48.28l-.32.4c-.09-.08-.2-.15-.34-.21-.14-.06-.29-.08-.47-.08s-.33.03-.45.09c-.11.06-.17.16-.17.3,0,.13.07.22.22.29.15.06.34.12.58.18.14.03.27.07.4.12s.23.1.32.17c.09.07.17.16.22.26.05.1.08.23.08.37s-.03.28-.1.4c-.07.11-.16.21-.28.29-.12.08-.25.14-.4.17-.15.04-.31.06-.47.06-.57,0-.99-.15-1.28-.46l.36-.39Z"/>
      <path class="cls-1" d="M49.15,11.52c.11.11.24.19.39.26.15.06.32.1.52.1s.36-.03.48-.09c.13-.06.19-.16.19-.29,0-.07-.01-.13-.04-.18-.03-.05-.08-.09-.14-.13-.07-.04-.15-.07-.26-.11-.11-.03-.25-.07-.41-.11-.12-.03-.23-.06-.35-.1-.11-.04-.22-.1-.31-.17-.09-.07-.16-.16-.22-.26-.06-.1-.08-.22-.08-.36s.03-.27.1-.38c.07-.11.16-.2.27-.28.11-.08.24-.13.38-.17s.29-.06.44-.06c.25,0,.47.03.66.1.18.07.34.16.48.28l-.32.4c-.09-.08-.2-.15-.34-.21s-.29-.08-.47-.08-.33.03-.45.09c-.11.06-.17.16-.17.3,0,.13.07.22.22.29.15.06.34.12.58.18.14.03.27.07.4.12.12.05.23.1.32.17.09.07.17.16.22.26.05.1.08.23.08.37s-.03.28-.1.4c-.07.11-.16.21-.28.29-.12.08-.25.14-.4.17-.15.04-.31.06-.47.06-.57,0-.99-.15-1.28-.46l.36-.39Z"/>
      <path class="cls-1" d="M52.03,9.27h.58v3h-.58v-3ZM51.99,8.08h.65v.65h-.65v-.65Z"/>
      <path class="cls-1" d="M54.89,11.86c.15,0,.29-.03.42-.09.13-.06.23-.14.32-.25.09-.1.15-.22.2-.35.04-.13.07-.27.07-.4s-.02-.27-.07-.4c-.05-.13-.11-.25-.2-.35-.09-.1-.19-.19-.32-.25-.12-.06-.26-.09-.42-.09s-.29.03-.42.09c-.12.06-.23.14-.32.25-.09.1-.15.22-.2.35-.05.13-.07.27-.07.4s.02.27.07.4c.05.13.11.25.2.35.09.1.19.19.32.25.12.06.26.09.42.09M54.89,12.36c-.23,0-.45-.04-.64-.13-.19-.08-.36-.2-.5-.35-.14-.15-.25-.32-.33-.51-.08-.19-.12-.4-.12-.62s.04-.43.12-.62c.08-.19.19-.36.33-.51.14-.15.31-.26.5-.35.19-.08.41-.13.64-.13s.44.04.63.13c.19.08.36.2.5.35.14.15.25.32.33.51.08.19.12.4.12.62s-.04.43-.12.62c-.08.19-.19.36-.33.51-.14.15-.31.26-.5.35-.19.08-.4.13-.63.13"/>
      <path class="cls-1" d="M57.13,12.27v-2.81s0-.1,0-.19h.56l.02.45c.04-.05.09-.11.14-.17.06-.06.12-.12.21-.17.08-.05.18-.09.29-.13.11-.03.23-.05.37-.05.39,0,.68.11.87.34.19.23.28.54.28.93v1.8h-.58v-1.76c0-.28-.06-.49-.18-.62-.12-.13-.29-.2-.51-.2-.17,0-.31.03-.42.1-.11.07-.2.16-.27.27-.07.11-.12.23-.15.37-.03.14-.05.28-.05.43v1.39h-.58Z"/>
    </g>
  </g>
</svg>