<?xml version="1.0" encoding="UTF-8"?>
<svg id="Layer_2" data-name="Layer 2" xmlns="http://www.w3.org/2000/svg" viewBox="0 0 67.91 16.18">
  <defs>
    <style>
      .cls-1 {
        fill: #fbf5e9;
      }
    </style>
  </defs>
  <g id="Layer_1-2" data-name="Layer 1">
    <g>
      <path class="cls-1" d="M63.31,4.96c-.95.15-1.68.98-1.68,1.97,0,.05,0,.1,0,.15.24-.79.95-1.37,1.81-1.42-.44.34-.73.88-.73,1.48,0,.06,0,.12,0,.17,0,.07.02.15.03.22.02.11.06.22.1.33,0-.11.01-.22.03-.33.02-.12.05-.24.1-.35.15-.42.43-.77.8-1.02.07-.04.14-.08.21-.12.03,1.21.04,2.77-.11,3.76.11.08.21.16.31.24.01.01.03.02.04.03.01-.01.03-.02.04-.03.1-.08.21-.16.31-.24-.14-.99-.13-2.54-.09-3.75.06.03.13.07.19.11.36.24.64.6.8,1.02.04.11.07.23.09.35.02.11.03.22.03.33.04-.1.08-.21.1-.33.01-.07.03-.14.03-.22,0-.06,0-.12,0-.17,0-.6-.29-1.14-.73-1.48.86.04,1.57.63,1.81,1.42,0-.05,0-.1,0-.15,0-1-.73-1.82-1.68-1.97.22-.09.46-.13.72-.13.48,0,.91.17,1.26.44-.33-.6-.97-1-1.71-1-.14,0-.28.01-.41.04.25-.31.6-.55,1-.66-.09-.01-.18-.02-.27-.02-.51,0-.97.2-1.32.52-.03-.22-.09-.43-.19-.63-.1.19-.18.41-.22.63-.35-.32-.81-.51-1.32-.51-.09,0-.18,0-.27.02.4.11.75.34,1,.66-.13-.03-.27-.04-.41-.04-.73,0-1.37.41-1.71,1,.34-.28.78-.44,1.26-.44.25,0,.49.05.72.13"/>
      <path class="cls-1" d="M67.01,11.57s-.05.04-.07.06c-.06.08-.16.09-.25.07-.28-.08-.52-.24-.77-.39-.31-.19-.61-.4-.93-.58-.1-.06-.21-.12-.31-.18.49-.31.98-.63,1.51-.87.53-.24,1.1-.4,1.71-.43-.29-.09-.61-.11-.92-.09-.31.02-.62.08-.92.18-.45.15-.86.39-1.27.62-.19.11-.37.21-.56.32-.19-.11-.37-.21-.56-.32-.41-.23-.82-.47-1.27-.62-.3-.1-.61-.16-.92-.18-.31-.02-.63,0-.92.09.61.02,1.18.18,1.71.43.53.24,1.02.56,1.51.87-.1.06-.21.12-.31.18-.31.19-.61.4-.93.58-.24.15-.49.31-.77.39-.09.03-.19,0-.25-.07-.02-.02-.03-.06-.07-.06-.07,0-.06.1-.06.15.01.17.17.28.32.33.22.06.46-.01.66-.11.44-.21.84-.49,1.25-.74.2-.12.4-.25.6-.37.2.12.4.25.6.37.41.25.82.53,1.25.74.2.1.44.17.66.11.15-.04.31-.16.32-.33,0-.05,0-.15-.06-.15"/>
      <path class="cls-1" d="M64.23,14.74c-3.71,0-6.72-3.01-6.72-6.72s3.01-6.72,6.72-6.72c.82,0,1.6.15,2.32.41-1.37-1.07-3.1-1.71-4.97-1.71-4.47,0-8.09,3.62-8.09,8.09s3.62,8.09,8.09,8.09c2.03,0,3.89-.75,5.31-1.98-.81.35-1.71.54-2.65.54"/>
      <path class="cls-1" d="M1.88,8.59s-.04-.04-.07-.05c-.03-.01-.06-.02-.09-.02s-.06,0-.09.02c-.03.01-.05.03-.07.05-.02.02-.04.04-.05.07-.01.03-.02.06-.02.09,0,.06.02.12.07.16.04.04.1.07.16.07.03,0,.06,0,.09-.02.03-.01.05-.03.07-.05.02-.02.04-.04.05-.07.01-.03.02-.06.02-.09s0-.06-.02-.09c-.01-.03-.03-.05-.05-.07"/>
      <path class="cls-1" d="M1.27,8.59s-.04-.04-.07-.05c-.03-.01-.06-.02-.09-.02s-.06,0-.09.02c-.03.01-.05.03-.07.05-.02.02-.04.04-.05.07-.01.03-.02.06-.02.09,0,.06.02.12.07.16.04.04.1.07.16.07.03,0,.06,0,.09-.02.03-.01.05-.03.07-.05.02-.02.04-.04.05-.07.01-.03.02-.06.02-.09s0-.06-.02-.09c-.01-.03-.03-.05-.05-.07"/>
      <path class="cls-1" d="M2.67,5.66c-.06,0-.12-.01-.19-.01-.09,0-.19.01-.28.04-.1.02-.19.06-.27.12-.08.05-.15.13-.2.21-.05.09-.08.19-.08.32,0,.09.02.16.05.23.03.07.08.13.13.18s.11.11.17.15c.06.05.12.09.17.14.05.04.09.09.13.14.04.05.05.1.05.15,0,.07-.02.14-.07.2-.05.06-.12.12-.2.17-.08.05-.18.08-.29.11-.11.03-.23.04-.36.04-.18,0-.34-.02-.47-.06-.13-.04-.24-.1-.33-.17-.09-.07-.15-.15-.19-.25-.04-.09-.06-.19-.06-.3s.02-.21.05-.31c.03-.11.08-.2.14-.28l-.33-.18c-.07.1-.13.22-.18.36-.05.14-.07.29-.07.45,0,.08,0,.16.03.25.02.09.05.17.1.25.05.08.11.16.18.24.07.08.16.14.27.2.11.06.23.11.37.14.14.03.3.05.49.05.14,0,.26-.01.38-.04.12-.03.23-.07.32-.11.1-.05.18-.11.26-.17.08-.07.14-.14.19-.21.05-.07.09-.15.12-.23.03-.08.04-.16.04-.23,0-.07-.02-.14-.05-.2-.04-.06-.08-.12-.13-.17s-.11-.1-.17-.15c-.06-.05-.12-.09-.17-.14-.05-.05-.1-.09-.13-.14-.04-.04-.05-.09-.05-.14,0-.05.01-.1.04-.14.03-.04.06-.07.11-.09.04-.02.09-.04.14-.05.05,0,.1-.01.14-.01.05,0,.1,0,.15.01.05,0,.09.02.13.03.04.01.08.03.12.05l.1-.38s-.09-.03-.14-.04c-.04-.01-.1-.02-.15-.03"/>
      <path class="cls-1" d="M4.67,5.98c-.07-.1-.15-.2-.24-.3s-.18-.19-.28-.27l-.29.28c.08.07.17.14.25.22.08.08.16.16.22.24.07.08.12.17.16.25.04.08.06.16.06.24,0,.04,0,.08-.02.11-.01.03-.04.06-.08.09-.04.02-.09.04-.15.05-.07.01-.15.02-.25.02h-.73v.39h.78c.14,0,.27-.02.37-.05.1-.03.18-.08.25-.14.06-.06.11-.13.14-.22.03-.08.05-.18.05-.28s-.02-.21-.07-.32c-.04-.11-.1-.21-.17-.32"/>
      <path class="cls-1" d="M9.12,6.52c-.05.05-.11.1-.18.14-.06-.04-.12-.09-.18-.14-.06-.06-.12-.12-.17-.18-.05-.06-.1-.12-.14-.18-.04-.06-.07-.11-.09-.14.11-.05.21-.09.31-.11.1-.02.18-.03.26-.03.07,0,.13,0,.19.02.06.01.1.03.14.05.04.02.07.05.09.08.02.03.03.06.03.09,0,.03-.01.07-.03.11-.02.05-.05.09-.09.14-.04.05-.08.1-.14.15M6.84,6.92h-.38c-.1,0-.19-.01-.26-.04-.07-.03-.13-.06-.18-.1-.05-.04-.08-.09-.1-.15-.02-.06-.03-.12-.03-.18,0-.07.01-.14.04-.2.02-.06.06-.12.1-.16.04-.04.09-.08.15-.1.06-.02.12-.04.18-.04.06,0,.12,0,.18.03.06.02.11.06.15.11.04.05.08.13.11.22.03.1.04.22.04.37v.24ZM14.92,6.92h-.6c-.13,0-.25-.01-.34-.04-.09-.03-.17-.07-.24-.12v-1.11h-.39v1.03c0,.08-.01.14-.04.18-.03.04-.06.06-.11.06h-.15c-.11,0-.22-.01-.31-.03-.1-.02-.18-.06-.25-.11v-.89h-.39v.8c0,.08-.01.14-.04.18-.03.04-.06.06-.11.06h-.15c-.1,0-.19,0-.28-.02-.09-.02-.17-.05-.25-.1v-.73h-.39v.61c0,.08-.01.14-.04.18-.03.04-.06.06-.11.06h-.81c-.07,0-.14,0-.21,0-.07,0-.13-.01-.19-.02-.06,0-.11-.02-.16-.03-.05-.01-.09-.03-.12-.04.11-.11.19-.21.26-.3.06-.09.11-.18.15-.25.03-.08.06-.15.07-.21.01-.06.02-.11.02-.16,0-.06-.02-.12-.06-.16-.04-.05-.09-.08-.16-.11-.06-.03-.14-.05-.21-.07-.08-.01-.16-.02-.23-.02-.1,0-.2,0-.29.02-.09.02-.18.03-.26.06-.08.02-.15.05-.21.07-.06.03-.12.05-.16.08-.01,0-.03.03-.04.05-.01.03-.03.06-.04.1s-.03.07-.04.11c-.01.04-.02.07-.03.1.03.03.06.07.1.13.04.06.09.12.14.19.05.07.11.14.17.2.06.07.12.12.18.17-.02.01-.04.03-.08.04-.04.01-.08.02-.13.03-.05,0-.11.02-.18.02-.07,0-.14,0-.22,0h-.76v-.37c0-.13-.01-.25-.04-.35-.02-.1-.06-.19-.1-.26-.04-.07-.09-.13-.14-.18-.05-.05-.11-.08-.17-.11-.06-.03-.12-.05-.18-.06-.06-.01-.12-.02-.18-.02-.14,0-.27.02-.38.07-.11.05-.21.11-.29.19-.08.08-.14.18-.18.28-.04.11-.06.22-.06.35,0,.1.02.2.05.3.03.1.09.19.16.27.07.08.17.14.29.19.12.05.27.07.44.07h.35c-.05.16-.16.28-.33.37-.18.09-.41.15-.7.17l.04.37c.17-.02.34-.05.49-.08.15-.04.29-.09.41-.17.12-.07.22-.16.3-.27.08-.11.14-.24.18-.4h.77c.09,0,.19,0,.27-.02.09-.01.17-.03.25-.05.08-.02.15-.05.22-.08.07-.03.13-.06.19-.09.03.02.08.04.14.07.06.03.13.06.21.08.08.03.17.05.27.07.1.02.21.03.32.03h1c.09,0,.16-.02.22-.06.06-.04.11-.08.14-.14.04.04.09.07.14.09.05.02.1.04.15.06s.11.03.16.03c.06,0,.11.01.16.01h.23c.09,0,.17-.02.23-.06.06-.04.11-.09.14-.15.09.08.19.13.3.16.11.03.22.05.34.05h.23c.1,0,.18-.02.24-.06.06-.04.11-.1.15-.16.07.07.16.12.26.16.1.04.23.06.39.06h.99v-3.08h-.39v2.69Z"/>
      <rect class="cls-1" x="16.04" y="4.22" width=".39" height="3.08"/>
      <path class="cls-1" d="M20.89,6.75s-.06.09-.11.11c-.05.03-.1.05-.17.06-.07.01-.14.02-.22.02-.06,0-.12,0-.18-.02-.06-.01-.12-.03-.18-.04s-.1-.04-.14-.06c-.04-.02-.07-.04-.08-.06.02-.1.04-.19.08-.29.04-.09.08-.18.13-.25.05-.07.11-.13.18-.17.07-.04.15-.07.23-.07.09,0,.16.02.23.06.06.04.11.09.16.15.04.06.07.12.09.19.02.07.03.13.03.18,0,.08-.01.14-.04.19M23.61,6.71c-.02-.06-.04-.14-.05-.22-.01-.08-.03-.17-.04-.26-.02-.1-.04-.19-.08-.28-.04-.08-.09-.16-.15-.22-.06-.06-.13-.11-.22-.14-.09-.03-.18-.05-.29-.05s-.21,0-.29.03c-.09.02-.17.04-.26.07v.35s.06-.02.09-.03c.04-.01.08-.02.12-.03.04,0,.08-.01.12-.02.04,0,.08,0,.11,0,.11,0,.2.02.27.06.07.04.12.09.16.16.04.07.07.14.09.22.02.08.03.17.04.25.01.09.03.16.05.21.02.05.04.09.07.12h-1.54c-.13,0-.24-.01-.33-.04-.09-.03-.17-.06-.24-.11.03-.09.04-.17.04-.25,0-.06,0-.13-.02-.19-.01-.07-.04-.14-.07-.2-.03-.07-.07-.13-.11-.19-.05-.06-.1-.12-.16-.16-.06-.05-.13-.08-.21-.11-.08-.03-.17-.04-.26-.04-.04,0-.09,0-.14.01-.05,0-.11.03-.16.05-.06.03-.12.06-.17.11-.06.05-.12.11-.17.19-.06.08-.11.17-.16.28-.05.11-.1.24-.14.4-.02.09-.07.15-.14.19-.07.04-.15.06-.24.06h-.6v-1.27h-.39v1.42c0,.11,0,.21-.02.29-.01.09-.04.16-.09.22-.05.06-.12.12-.21.16-.09.04-.21.07-.37.09l.04.37c.15-.02.29-.05.4-.09.12-.04.22-.09.3-.16.08-.07.15-.16.2-.26.05-.1.09-.23.11-.38h.69c.06,0,.11,0,.16-.02.05,0,.09-.03.13-.05.04-.02.08-.05.11-.09.03-.04.07-.08.1-.14.03.04.08.07.13.11.05.04.11.07.17.1.07.03.14.05.22.07.08.02.17.03.26.03.15,0,.28-.03.39-.08.11-.06.19-.13.26-.21.04.04.08.07.12.11.04.03.09.06.15.09.06.02.12.04.19.06.07.01.15.02.24.02h2.02v-.39c-.05,0-.1-.02-.13-.06-.03-.04-.06-.09-.08-.15"/>
      <polygon class="cls-1" points="26.41 6.92 25.69 6.92 25.69 5.06 25.3 5.06 25.3 6.92 24.35 6.92 24.35 7.3 26.8 7.3 26.8 4.22 26.41 4.22 26.41 6.92"/>
      <path class="cls-1" d="M25.82,4.6h-.06c-.05,0-.1,0-.14-.02-.04-.01-.07-.03-.1-.05-.03-.02-.05-.05-.06-.07-.01-.03-.02-.05-.02-.08,0-.06.02-.1.06-.12.04-.02.09-.04.15-.04.03,0,.05,0,.08,0,.02,0,.04,0,.05,0l.03-.18s-.06,0-.09-.01-.05,0-.08,0c-.06,0-.12,0-.17.02-.05.02-.09.04-.12.07-.03.03-.05.06-.07.09-.02.04-.02.07-.02.11s0,.07.02.1c0,.03.02.06.04.08.01.02.03.04.05.06.02.02.03.03.04.04h-.24v.18h.66v-.18Z"/>
      <rect class="cls-1" x="27.53" y="4.22" width=".39" height="3.08"/>
      <path class="cls-1" d="M31.33,6.92c0,.14-.02.27-.06.39-.04.11-.1.21-.17.29-.08.08-.17.14-.28.18-.11.04-.24.06-.38.06-.13,0-.25-.02-.35-.06-.1-.04-.19-.1-.26-.17-.07-.07-.12-.16-.16-.26-.04-.1-.05-.2-.05-.31,0-.05,0-.1.01-.16,0-.05.02-.11.03-.16.01-.05.03-.1.05-.15.02-.05.04-.09.06-.13l-.33-.18c-.03.05-.06.11-.09.17-.03.06-.05.13-.07.2-.02.07-.04.15-.05.22-.01.08-.02.15-.02.22,0,.15.02.29.07.43.05.14.12.26.22.36.1.1.22.19.37.25.15.06.33.09.53.09s.4-.03.56-.1c.16-.07.3-.16.41-.27.11-.12.19-.25.25-.41.06-.16.08-.33.08-.52v-2.7h-.39v2.7Z"/>
      <path class="cls-1" d="M37.15,6.64c-.02.06-.06.1-.1.14-.04.04-.1.07-.16.1-.06.02-.13.03-.2.03h-.36c0-.08.02-.16.05-.24.02-.08.05-.15.09-.22.03-.07.07-.13.11-.19.04-.06.08-.11.11-.15.04-.04.07-.07.11-.1.03-.02.06-.04.08-.04.04,0,.07.01.11.04.04.03.07.06.1.11.03.04.05.09.07.15.02.06.03.12.03.18,0,.07-.01.13-.04.18M37.13,7.96s-.03.09-.06.12c-.02.04-.05.06-.09.09-.03.02-.07.03-.11.03-.06,0-.13-.02-.2-.05-.07-.03-.13-.08-.19-.16-.06-.07-.11-.16-.15-.28-.04-.11-.06-.25-.06-.41h.4c.07,0,.14.01.2.04.06.03.11.07.15.11.04.05.07.1.09.16.02.06.03.12.03.19,0,.05,0,.1-.02.14M38.56,6.92h-1.24c.06-.08.11-.15.15-.24.04-.09.06-.19.06-.3,0-.1-.02-.19-.05-.28-.03-.09-.07-.18-.12-.25-.05-.07-.11-.13-.18-.18-.07-.05-.15-.07-.23-.07-.03,0-.07,0-.12.03-.05.02-.1.05-.16.09-.06.04-.12.1-.19.17-.07.07-.13.15-.19.25-.06.1-.12.21-.18.34-.05.13-.1.28-.14.44h-.54c-.14,0-.26-.02-.36-.05-.1-.03-.18-.08-.25-.14v-2.51h-.39v2.45c0,.08-.01.14-.04.18-.03.04-.06.06-.11.06h-.57v-1.86h-.39v1.86h-.95v.39h1.99c.1,0,.18-.02.25-.07.06-.05.11-.1.15-.17.04.03.07.07.12.1.04.03.09.05.14.08.05.02.11.04.18.05.07.01.14.02.22.02h.5c0,.17.01.32.04.45.03.13.07.24.12.33.05.09.11.17.17.24.06.06.13.11.2.15.07.04.14.06.2.08.07.02.13.02.19.02.07,0,.15-.02.22-.05.08-.03.15-.08.21-.14.06-.06.11-.14.15-.23.04-.09.06-.19.06-.31,0-.12-.02-.23-.06-.32-.04-.09-.1-.16-.16-.22h0s.71-.01.71-.01h.97v-3.08h-.39v2.69Z"/>
      <rect class="cls-1" x="39.67" y="4.22" width=".39" height="3.08"/>
      <path class="cls-1" d="M42.95,5s.06,0,.09-.02c.03-.01.05-.03.07-.05.02-.02.04-.04.05-.07.01-.03.02-.06.02-.09s0-.06-.02-.09c-.01-.03-.03-.05-.05-.07-.02-.02-.04-.04-.07-.05-.03-.01-.06-.02-.09-.02s-.06,0-.09.02c-.03.01-.05.03-.07.05-.02.02-.04.05-.05.07-.01.03-.02.06-.02.09,0,.06.02.12.07.16.04.04.1.07.16.07"/>
      <path class="cls-1" d="M42.34,5s.06,0,.09-.02c.03-.01.05-.03.07-.05.02-.02.04-.04.05-.07.01-.03.02-.06.02-.09s0-.06-.02-.09c-.01-.03-.03-.05-.05-.07-.02-.02-.04-.04-.07-.05-.03-.01-.06-.02-.09-.02s-.06,0-.09.02c-.03.01-.05.03-.07.05-.02.02-.04.05-.05.07-.01.03-.02.06-.02.09,0,.06.02.12.07.16.04.04.1.07.16.07"/>
      <path class="cls-1" d="M44.81,5.07h-.08c-.07,0-.13,0-.19-.03-.05-.02-.1-.04-.13-.07-.03-.03-.06-.06-.08-.1-.02-.04-.03-.07-.03-.11,0-.08.03-.13.08-.16.05-.03.12-.05.2-.05.04,0,.07,0,.1,0,.03,0,.05,0,.07.01l.04-.24s-.08-.01-.12-.01c-.04,0-.07,0-.11,0-.09,0-.16.01-.23.03-.06.02-.12.05-.16.09-.04.04-.07.08-.09.13-.02.05-.03.1-.03.15s0,.09.02.13c.01.04.03.08.05.11.02.03.04.06.06.08.02.02.04.04.06.05h-.33v.24h.89v-.24Z"/>
      <path class="cls-1" d="M46.37,7.78s-.04-.04-.07-.05c-.03-.01-.06-.02-.09-.02s-.06,0-.09.02c-.03.01-.05.03-.07.05-.02.02-.04.04-.05.07-.01.03-.02.06-.02.09,0,.06.02.12.07.16.04.04.1.07.16.07.03,0,.06,0,.09-.02.03-.01.05-.03.07-.05.02-.02.04-.04.05-.07.01-.03.02-.06.02-.09s0-.06-.02-.09c-.01-.03-.03-.05-.05-.07"/>
      <path class="cls-1" d="M45.76,7.78s-.04-.04-.07-.05c-.03-.01-.06-.02-.09-.02s-.06,0-.09.02c-.03.01-.05.03-.07.05-.02.02-.04.04-.05.07-.01.03-.02.06-.02.09,0,.06.02.12.07.16.04.04.1.07.16.07.03,0,.06,0,.09-.02.03-.01.05-.03.07-.05.02-.02.04-.04.05-.07.01-.03.02-.06.02-.09s0-.06-.02-.09c-.01-.03-.03-.05-.05-.07"/>
      <path class="cls-1" d="M48.98,6.79s0,.08-.01.13h-.49s.03-.06.04-.11c.01-.04.02-.08.03-.13,0-.05.02-.09.02-.14,0-.05,0-.1,0-.15,0-.08,0-.15-.02-.23-.02-.07-.04-.14-.08-.2.1.03.19.07.26.12.07.05.12.11.15.17.04.06.06.13.08.2.01.07.02.14.02.21,0,.04,0,.09,0,.13M48.27,6.51c0,.05-.02.1-.03.15s-.03.1-.05.14c-.02.05-.04.08-.05.11h-.37s-.06-.03-.09-.06c-.03-.03-.06-.07-.09-.11-.03-.05-.05-.1-.07-.16-.02-.06-.03-.13-.03-.21,0-.06,0-.12.03-.19.02-.06.04-.12.08-.18.04-.05.08-.1.13-.13.05-.04.11-.05.18-.05.04,0,.09,0,.13.03.04.02.08.05.12.1.04.04.07.1.09.17.02.07.03.16.03.26,0,.04,0,.09-.01.14M42.8,6.65c-.07.05-.15.08-.23.11-.09.03-.18.04-.28.04-.05,0-.11,0-.16-.02-.05-.01-.1-.03-.14-.06-.04-.03-.08-.06-.1-.1-.03-.04-.04-.1-.04-.16,0-.08.02-.15.07-.21.05-.06.11-.12.2-.17.08-.05.18-.09.3-.13.12-.04.25-.07.39-.1v.79ZM49.24,6.17c-.07-.15-.17-.27-.31-.38-.14-.11-.32-.2-.54-.28-.22-.08-.49-.15-.8-.21,0,.01-.02.03-.04.06-.02.02-.03.05-.05.08-.02.03-.03.06-.05.1-.02.03-.03.07-.04.1,0,0,.02,0,.04,0,.02,0,.04.01.07.02-.12.08-.21.19-.28.32-.06.13-.1.27-.1.42,0,.09.01.17.03.26.02.09.05.17.1.26h-.6s0,0,0,0c0,0,0,0,0,0h-.02c-.12,0-.23-.01-.31-.03-.09-.02-.16-.06-.23-.1v-1.14h-.39v1.03c0,.08-.01.14-.04.18-.03.04-.06.06-.11.06h-.43s0,0,0,0,0,0,0,0h-.02c-.12,0-.23-.01-.31-.03-.09-.02-.16-.06-.23-.1v-1.14h-.39v1.03c0,.08-.01.14-.04.18-.03.04-.06.06-.11.06h-.58c-.06,0-.11,0-.15-.01-.04-.01-.07-.03-.09-.05-.02-.02-.03-.05-.04-.09,0-.04,0-.09,0-.14v-1.33h-.39v.23c-.08.02-.16.05-.26.07-.09.03-.19.06-.29.1-.1.04-.19.08-.29.13-.09.05-.18.11-.25.18-.07.07-.13.14-.17.23-.04.08-.07.18-.07.29,0,.11.02.21.07.29.04.08.1.15.17.2.07.05.15.09.24.11.09.02.17.04.26.04.1,0,.2-.01.29-.04.1-.03.2-.07.3-.14.01.04.03.08.05.12.02.04.06.07.1.1.04.03.1.05.17.07.07.02.15.03.24.03h.76c.09,0,.17-.02.23-.06.06-.04.11-.09.14-.14.07.06.15.11.25.15s.22.06.37.06h.54c.09,0,.17-.02.23-.06.06-.04.11-.09.14-.14.07.06.15.11.25.15.1.04.22.06.37.06h2.66c0-.14.01-.25.01-.32,0-.08,0-.14,0-.18,0-.04,0-.06,0-.08v-.03c0-.2-.03-.38-.1-.52"/>
      <path class="cls-1" d="M1.25,10.55s-.07-.03-.11-.04c-.03-.01-.06-.02-.09-.03-.03,0-.06-.01-.09-.02-.03,0-.07,0-.11,0-.04,0-.09,0-.13.01-.04,0-.09.02-.12.05-.04.02-.07.05-.09.09-.02.04-.03.08-.03.14,0,.07.02.13.07.17.05.05.1.09.17.12.07.04.14.07.22.11.06.03.12.06.17.1.06.04.11.08.15.13.04.05.08.11.1.17.03.07.04.14.04.23,0,.11-.02.21-.06.29-.04.08-.1.15-.17.2-.07.05-.16.09-.25.11-.1.02-.2.04-.3.04-.08,0-.15,0-.22-.03-.07-.02-.15-.04-.22-.06l.03-.29s.06.02.09.03c.03.01.07.02.11.03.04.01.08.02.12.03.04,0,.08.01.12.01.04,0,.09,0,.14-.02s.1-.03.14-.06.08-.06.1-.11c.03-.04.04-.1.04-.16s-.01-.11-.04-.15c-.03-.04-.06-.08-.1-.11-.04-.03-.09-.06-.15-.09-.06-.03-.11-.05-.17-.08-.06-.03-.11-.06-.17-.09-.06-.03-.11-.07-.15-.12-.04-.04-.08-.1-.1-.16-.03-.06-.04-.13-.04-.22,0-.09.02-.18.05-.25.04-.07.08-.13.15-.18s.14-.09.22-.11c.08-.03.17-.04.27-.04.07,0,.15,0,.23.02.08.01.16.03.23.06l-.04.28Z"/>
      <path class="cls-1" d="M2.65,10.52l-.43,1.07h.86l-.43-1.07ZM2.5,10.23h.32l.91,2.15h-.34l-.22-.54h-1.05l-.22.54h-.32l.92-2.15Z"/>
      <path class="cls-1" d="M5.72,11.49c0,.15-.02.29-.06.4-.04.12-.09.21-.16.29-.07.08-.16.14-.26.18-.1.04-.22.06-.36.06-.27,0-.47-.08-.62-.24-.14-.16-.22-.39-.22-.69v-1.26h.31v1.22c0,.1,0,.2.03.28.02.09.05.16.09.22.04.06.1.11.16.14.07.03.15.05.25.05s.18-.02.25-.05c.07-.03.12-.08.16-.14.04-.06.07-.13.09-.22.02-.09.03-.18.03-.28v-1.22h.31v1.26Z"/>
      <path class="cls-1" d="M6.56,12.11h.32c.13,0,.25-.02.35-.05.1-.03.19-.08.26-.15.07-.07.12-.15.16-.25.04-.1.05-.22.05-.36,0-.13-.02-.24-.06-.34-.04-.1-.1-.18-.17-.25-.07-.07-.15-.12-.25-.16-.1-.04-.2-.05-.31-.05h-.36v1.61ZM6.25,10.23h.64c.16,0,.31.02.45.07.14.05.26.12.36.21.1.09.19.2.25.33.06.13.09.28.09.44,0,.18-.03.34-.08.48-.05.14-.13.25-.23.34-.1.09-.22.16-.36.21-.14.05-.3.07-.48.07h-.64v-2.15Z"/>
      <rect class="cls-1" x="8.5" y="10.23" width=".31" height="2.15"/>
      <path class="cls-1" d="M10.5,11.15h.26c.15,0,.26-.03.34-.09s.12-.14.12-.25-.04-.18-.11-.23c-.07-.06-.18-.08-.32-.08h-.29v.65ZM10.19,10.23h.53c.05,0,.11,0,.16,0,.05,0,.1,0,.15.02.05,0,.1.02.14.03.04.01.09.03.13.05.04.02.07.05.11.07.03.03.06.06.08.1s.04.08.05.14c.01.05.02.11.02.17s-.01.13-.03.18c-.02.06-.05.1-.09.15-.04.04-.09.08-.14.1-.05.03-.11.05-.17.06h0s.04.03.06.04c.02.01.04.03.05.04.03.03.06.08.1.14l.41.86h-.35l-.33-.75c-.02-.05-.05-.09-.07-.12-.02-.03-.05-.05-.08-.06-.03-.01-.06-.02-.09-.02-.03,0-.07,0-.11,0h-.19v.96h-.31v-2.15Z"/>
      <polygon class="cls-1" points="12.11 10.23 13.31 10.23 13.31 10.5 12.42 10.5 12.42 11.13 13.23 11.13 13.23 11.4 12.42 11.4 12.42 12.11 13.31 12.11 13.31 12.38 12.11 12.38 12.11 10.23"/>
      <path class="cls-1" d="M14.1,12.11h.32c.13,0,.25-.02.35-.05.1-.03.19-.08.26-.15.07-.07.12-.15.16-.25.04-.1.05-.22.05-.36,0-.13-.02-.24-.06-.34-.04-.1-.1-.18-.17-.25-.07-.07-.15-.12-.25-.16-.1-.04-.2-.05-.31-.05h-.36v1.61ZM13.79,10.23h.64c.16,0,.31.02.45.07.14.05.26.12.36.21.1.09.19.2.25.33.06.13.09.28.09.44,0,.18-.03.34-.08.48-.05.14-.13.25-.23.34-.1.09-.22.16-.36.21-.14.05-.3.07-.48.07h-.64v-2.15Z"/>
      <path class="cls-1" d="M18.38,10.58c-.14-.08-.28-.12-.44-.12-.12,0-.24.02-.34.06-.1.04-.19.1-.26.18-.07.07-.13.16-.17.27-.04.1-.06.22-.06.34s.02.24.06.35c.04.1.1.19.17.27.07.07.16.13.26.17.1.04.2.06.31.06.04,0,.08,0,.12,0,.04,0,.09-.01.13-.02.04,0,.08-.02.12-.03.04-.01.07-.03.1-.04l.02.3s-.08.03-.13.04c-.04.01-.09.02-.13.02-.09,0-.17.01-.23.01-.17,0-.33-.03-.47-.08-.14-.05-.26-.13-.36-.23-.1-.1-.18-.22-.23-.35-.05-.14-.08-.29-.08-.46s.03-.32.08-.45c.06-.14.14-.25.24-.35s.22-.17.36-.22c.14-.05.29-.08.46-.08.09,0,.17,0,.25.02.08.01.16.04.24.07l-.03.3Z"/>
      <path class="cls-1" d="M19.06,11.15h.26c.15,0,.26-.03.34-.09s.12-.14.12-.25-.04-.18-.11-.23c-.07-.06-.18-.08-.32-.08h-.29v.65ZM18.76,10.23h.53c.05,0,.11,0,.16,0,.05,0,.1,0,.15.02.05,0,.1.02.14.03.04.01.09.03.13.05.04.02.07.05.11.07.03.03.06.06.08.1s.04.08.05.14c.01.05.02.11.02.17s-.01.13-.03.18c-.02.06-.05.1-.09.15-.04.04-.09.08-.14.1-.05.03-.11.05-.17.06h0s.04.03.06.04c.02.01.04.03.05.04.03.03.06.08.1.14l.41.86h-.35l-.33-.75c-.02-.05-.05-.09-.07-.12-.02-.03-.05-.05-.08-.06-.03-.01-.06-.02-.09-.02-.03,0-.07,0-.11,0h-.19v.96h-.31v-2.15Z"/>
      <polygon class="cls-1" points="20.67 10.23 21.88 10.23 21.88 10.5 20.98 10.5 20.98 11.13 21.8 11.13 21.8 11.4 20.98 11.4 20.98 12.11 21.88 12.11 21.88 12.38 20.67 12.38 20.67 10.23"/>
      <path class="cls-1" d="M23.35,10.55s-.07-.03-.11-.04c-.03-.01-.06-.02-.09-.03-.03,0-.06-.01-.09-.02-.03,0-.07,0-.11,0-.04,0-.09,0-.13.01s-.09.02-.12.05c-.04.02-.07.05-.09.09-.02.04-.03.08-.03.14,0,.07.02.13.07.17.05.05.1.09.17.12.07.04.14.07.22.11.06.03.12.06.17.1.06.04.11.08.15.13.04.05.08.11.1.17.03.07.04.14.04.23,0,.11-.02.21-.06.29-.04.08-.1.15-.17.2-.07.05-.16.09-.25.11-.1.02-.2.04-.3.04-.08,0-.15,0-.22-.03-.07-.02-.15-.04-.22-.06l.03-.29s.06.02.09.03c.03.01.07.02.11.03.04.01.08.02.12.03.04,0,.08.01.12.01.04,0,.09,0,.14-.02s.1-.03.14-.06.08-.06.1-.11c.03-.04.04-.1.04-.16s-.01-.11-.04-.15c-.03-.04-.06-.08-.1-.11-.04-.03-.09-.06-.15-.09-.06-.03-.11-.05-.17-.08-.06-.03-.11-.06-.17-.09-.06-.03-.11-.07-.15-.12-.04-.04-.08-.1-.1-.16-.03-.06-.04-.13-.04-.22,0-.09.02-.18.05-.25.04-.07.08-.13.15-.18s.14-.09.22-.11c.08-.03.17-.04.27-.04.07,0,.15,0,.23.02.08.01.16.03.23.06l-.04.28Z"/>
      <path class="cls-1" d="M25.4,10.58c-.14-.08-.28-.12-.44-.12-.12,0-.24.02-.34.06-.1.04-.19.1-.26.18-.07.07-.13.16-.17.27-.04.1-.06.22-.06.34s.02.24.06.35c.04.1.1.19.17.27.07.07.16.13.26.17.1.04.2.06.31.06.04,0,.08,0,.12,0,.04,0,.09-.01.13-.02.04,0,.08-.02.12-.03.04-.01.07-.03.1-.04l.02.3s-.08.03-.13.04c-.04.01-.09.02-.13.02-.09,0-.17.01-.23.01-.17,0-.33-.03-.47-.08-.14-.05-.26-.13-.36-.23-.1-.1-.18-.22-.23-.35-.05-.14-.08-.29-.08-.46s.03-.32.08-.45c.06-.14.14-.25.24-.35s.22-.17.36-.22c.14-.05.29-.08.46-.08.09,0,.17,0,.25.02.08.01.16.04.24.07l-.03.3Z"/>
      <polygon class="cls-1" points="25.81 10.23 27.02 10.23 27.02 10.5 26.12 10.5 26.12 11.13 26.94 11.13 26.94 11.4 26.12 11.4 26.12 12.11 27.02 12.11 27.02 12.38 25.81 12.38 25.81 10.23"/>
      <polygon class="cls-1" points="27.51 10.23 27.93 10.23 28.88 11.96 28.89 11.96 28.89 10.23 29.19 10.23 29.19 12.38 28.8 12.38 27.82 10.61 27.82 10.61 27.82 12.38 27.51 12.38 27.51 10.23"/>
      <polygon class="cls-1" points="30.17 10.5 29.5 10.5 29.5 10.23 31.15 10.23 31.15 10.5 30.48 10.5 30.48 12.38 30.17 12.38 30.17 10.5"/>
      <path class="cls-1" d="M33.14,10.52l-.43,1.07h.86l-.43-1.07ZM32.99,10.23h.32l.91,2.15h-.34l-.22-.54h-1.05l-.22.54h-.32l.92-2.15Z"/>
      <path class="cls-1" d="M36.21,11.49c0,.15-.02.29-.06.4-.04.12-.09.21-.16.29-.07.08-.16.14-.26.18-.1.04-.22.06-.36.06-.27,0-.47-.08-.62-.24-.14-.16-.22-.39-.22-.69v-1.26h.31v1.22c0,.1,0,.2.03.28.02.09.05.16.09.22.04.06.1.11.16.14.07.03.15.05.25.05s.18-.02.25-.05c.07-.03.12-.08.16-.14.04-.06.07-.13.09-.22.02-.09.03-.18.03-.28v-1.22h.31v1.26Z"/>
      <polygon class="cls-1" points="37.19 10.5 36.52 10.5 36.52 10.23 38.17 10.23 38.17 10.5 37.5 10.5 37.5 12.38 37.19 12.38 37.19 10.5"/>
      <polygon class="cls-1" points="38.5 10.23 38.8 10.23 38.8 11.13 39.83 11.13 39.83 10.23 40.14 10.23 40.14 12.38 39.83 12.38 39.83 11.4 38.8 11.4 38.8 12.38 38.5 12.38 38.5 10.23"/>
      <path class="cls-1" d="M40.92,11.3c0,.11.01.21.04.31.03.1.07.19.13.27.06.08.13.14.22.19.09.05.2.07.32.07s.23-.02.32-.07c.09-.05.16-.11.22-.19.06-.08.1-.17.13-.27.03-.1.04-.21.04-.31,0-.11-.02-.21-.04-.32-.03-.1-.07-.19-.13-.27-.06-.08-.13-.14-.22-.19-.09-.05-.19-.07-.31-.07-.12,0-.22.02-.31.07-.09.05-.16.11-.22.19-.06.08-.1.17-.13.27-.03.1-.04.21-.04.32M40.6,11.3c0-.16.02-.31.07-.44.05-.14.11-.25.2-.35.09-.1.2-.18.32-.23.13-.06.27-.08.44-.08s.31.03.44.08c.13.06.24.13.33.23.09.1.16.22.2.35.05.14.07.28.07.44s-.02.31-.07.45c-.05.14-.11.25-.2.35-.09.1-.2.18-.33.23-.13.05-.28.08-.44.08s-.31-.03-.44-.08c-.13-.05-.24-.13-.33-.23-.09-.1-.16-.22-.2-.35-.05-.14-.07-.29-.07-.45"/>
      <path class="cls-1" d="M43.39,11.15h.26c.15,0,.26-.03.34-.09.08-.06.12-.14.12-.25s-.04-.18-.11-.23c-.07-.06-.18-.08-.32-.08h-.29v.65ZM43.09,10.23h.53c.05,0,.11,0,.16,0,.05,0,.1,0,.15.02.05,0,.1.02.14.03.04.01.09.03.13.05.04.02.07.05.11.07.03.03.06.06.08.1.02.04.04.08.05.14.01.05.02.11.02.17s-.01.13-.03.18-.05.1-.09.15c-.04.04-.09.08-.14.1-.05.03-.11.05-.17.06h0s.04.03.06.04c.02.01.04.03.05.04.03.03.06.08.1.14l.41.86h-.35l-.33-.75c-.02-.05-.05-.09-.07-.12-.02-.03-.05-.05-.08-.06-.03-.01-.06-.02-.09-.02s-.07,0-.11,0h-.19v.96h-.31v-2.15Z"/>
      <rect class="cls-1" x="44.99" y="10.23" width=".31" height="2.15"/>
      <polygon class="cls-1" points="46.27 10.5 45.6 10.5 45.6 10.23 47.25 10.23 47.25 10.5 46.58 10.5 46.58 12.38 46.27 12.38 46.27 10.5"/>
      <polygon class="cls-1" points="48.16 11.48 47.32 10.23 47.68 10.23 48.32 11.19 48.95 10.23 49.31 10.23 48.47 11.48 48.47 12.38 48.16 12.38 48.16 11.48"/>
    </g>
  </g>
</svg>