<?xml version="1.0" encoding="UTF-8"?>
<svg id="Layer_2" data-name="Layer 2" xmlns="http://www.w3.org/2000/svg" viewBox="0 0 33.52 22.43">
  <defs>
    <style>
      .cls-1 {
        fill: #fbf5e9;
      }
    </style>
  </defs>
  <g id="Layer_1-2" data-name="Layer 1">
    <g id="Layer_1-3" data-name="Layer 1">
      <path class="cls-1" d="M29.84,14.75h-.31c-.15,0-.23-.06-.23-.13s.1-.13.19-.13.17.05.19.08l.11-.19c-.05-.08-.17-.17-.31-.17-.24,0-.37.19-.37.37s.03.14.06.17h-.13v.24h.8v-.25h.01ZM31.09,16.09c.12,0,.21-.1.21-.22s-.1-.22-.21-.22-.22.1-.22.22.1.22.22.22ZM20.8,15.88c0,.12.1.22.22.22s.21-.1.21-.22-.1-.22-.21-.22-.22.1-.22.22ZM17.78,18v-3.05h-.37v3.05h.37ZM13.38,17.97c-.14,0-.24.1-.24.24s.1.24.24.24.24-.11.24-.24-.1-.24-.24-.24ZM20.23,15.88c0,.12.1.22.22.22s.21-.1.21-.22-.09-.22-.21-.22-.22.1-.22.22ZM33.36,14.95h-.37v3.05h.37v-3.05ZM3.19,17.58c.08.29.35.42.71.42h2.19v-.46h-.88c-.33,0-.67-.19-.67-.56s.24-.52.57-.52.51.17.6.28l.22-.31c-.08-.13-.33-.44-.78-.44s-.95.48-.95.96.09.45.24.58h-.51c-.35,0-.51-.06-.51-.47v-.6h-.15c-.11,0-.21.09-.21.21v.41c0,.4-.2.46-.51.46s-.5-.06-.5-.46v-1.51h-.35v.31c-1.04.19-1.41.6-1.41,1.11s.32.75.78.75.56-.16.66-.37c.06.41.29.63.8.64.35,0,.58-.16.67-.42h0ZM1.11,17.26c-.29,0-.51-.1-.51-.33s.27-.49,1.08-.64v.74c-.06.12-.25.24-.58.24h0ZM3.3,18.53c0,.12.1.22.22.22s.21-.1.21-.22-.1-.22-.21-.22-.22.1-.22.22ZM1.28,15.09c0,.12.1.22.22.22s.21-.1.21-.22-.1-.22-.21-.22-.22.1-.22.22ZM.93,14.88c-.12,0-.22.1-.22.22s.1.22.22.22.21-.1.21-.22-.09-.22-.21-.22ZM2.73,18.53c0,.12.1.22.22.22s.21-.1.21-.22-.09-.22-.21-.22-.22.1-.22.22ZM1.77,9.99c.56.32,1.19.48,1.9.48s.94-.09,1.37-.28c.42-.19.76-.44.99-.75v.74c0,.56-.18,1.01-.53,1.34-.35.33-.85.5-1.46.5s-.87-.09-1.17-.26c-.26-.15-.44-.36-.57-.62H.38c.1.46.29.86.58,1.19.32.37.74.66,1.26.85.52.2,1.1.3,1.75.3s1.47-.14,2.07-.41,1.06-.66,1.39-1.17.5-1.12.5-1.82V2.86h-1.17c-.4,0-.73.33-.73.73v.12c-.26-.3-.6-.53-1.01-.71-.42-.17-.87-.26-1.38-.26s-1.33.16-1.89.49-.99.78-1.29,1.37c-.31.58-.46,1.27-.46,2.05s.15,1.43.46,2,.75,1.02,1.3,1.33h0ZM2.16,5.45c.17-.34.42-.61.74-.8s.67-.28,1.08-.28.74.1,1.05.28.56.46.74.8c.17.34.26.73.26,1.16s-.08.8-.26,1.14c-.17.34-.42.61-.74.8s-.67.28-1.07.28-.76-.09-1.08-.28c-.31-.19-.56-.45-.74-.8s-.26-.74-.26-1.17.09-.8.26-1.14h0ZM11.28,15.88c0-.12-.1-.22-.21-.22s-.22.1-.22.22.1.22.22.22.21-.1.21-.22ZM25.5,2.23c.62,0,1.12-.5,1.12-1.12s-.5-1.12-1.12-1.12-1.12.5-1.12,1.12.5,1.12,1.12,1.12ZM24.54,4.08v6.7h1.9V2.87h-.69c-.67,0-1.21.54-1.21,1.21h0ZM21.09,18c1,0,1.35-.4,1.35-1.08s-.08-.66-.14-.91l-.35.09c.07.28.13.58.13.87s-.31.56-1.01.56h-.78c-.65,0-.96-.2-.96-.64s.05-.39.14-.62l-.31-.11c-.12.27-.19.58-.19.83,0,.67.37,1.01,1.3,1.01h.82ZM29.63,17.11v-1.87h-.37v2.01c0,.53.37.75.85.75h0c.35,0,.58-.16.67-.42.08.29.35.42.71.42s.88-.26.88-.92v-2.13h-.37v2.17c0,.35-.19.42-.49.42s-.51-.06-.51-.47v-.6h-.15c-.11,0-.21.09-.21.21v.41c0,.4-.2.46-.51.46s-.49-.06-.49-.42h0ZM30.53,16.09c.12,0,.21-.1.21-.22s-.09-.22-.21-.22-.22.1-.22.22.1.22.22.22ZM25.57,18.75c.12,0,.21-.1.21-.22s-.09-.22-.21-.22-.22.1-.22.22.1.22.22.22ZM24.47,16.09c.13,0,.24-.11.24-.24s-.1-.24-.24-.24-.24.1-.24.24.1.24.24.24ZM21.58,9.12c-.22.17-.52.25-.9.25s-.78-.1-1.03-.31-.4-.5-.42-.87h-1.85c.03.54.19,1.02.47,1.42.28.4.67.72,1.16.95s1.04.34,1.67.34,1.12-.1,1.59-.31c.46-.21.83-.5,1.09-.87.26-.37.39-.8.39-1.3s-.14-1.05-.41-1.39-.6-.58-.97-.72c-.37-.15-.85-.29-1.44-.42-.36-.08-.65-.15-.84-.22-.2-.07-.36-.16-.49-.27s-.19-.26-.19-.45.1-.4.28-.53.44-.21.76-.21.68.09.92.28.39.43.44.74h1.8c-.03-.51-.19-.94-.46-1.3s-.63-.65-1.1-.85c-.46-.2-1.01-.3-1.64-.3s-1.03.1-1.46.29c-.44.19-.76.46-.99.81s-.34.74-.34,1.17.13.96.39,1.27.56.54.92.68.81.27,1.39.41c.37.1.67.19.88.26s.4.17.53.3c.15.13.22.3.22.51s-.11.5-.33.67h-.02ZM28.02,16.24c-.48,0-.83.33-.98.97-.08.28-.3.32-.5.32-.35,0-.51-.06-.51-.47v-.6h-.15c-.11,0-.21.09-.21.21v.41c0,.4-.2.46-.51.46s-.51-.06-.51-.47v-.6h-.15c-.11,0-.21.09-.21.21v.41c0,.4-.19.46-.51.46s-.51-.06-.51-.42v-2.16h-.37v2.3c0,.52.35.74.84.74.35,0,.6-.16.69-.42.08.29.35.42.71.42s.58-.16.67-.42c.08.29.35.42.71.42s.53-.13.63-.37c.05.12.16.23.32.31.12.06.26.09.43.09.56,0,.92-.35.92-.85s-.33-.92-.8-.92h0v-.02ZM27.95,17.56c-.35,0-.54-.13-.62-.26.1-.37.33-.6.65-.6s.51.22.51.5-.19.35-.53.35h0ZM13.48,16.54c-.39-.22-.63-.41-1.05-.41s-.7.2-.8.34l.15.31c.12-.08.31-.19.6-.19s.56.14.93.31c.05.03.1.05.14.08-.44.25-.8.4-1.12.47-.33.08-.6.09-.86.09s-.51-.06-.51-.47v-.6h-.15c-.11,0-.21.09-.21.21v.46c-.02.35-.21.41-.51.41-.28,0-.41-.1-.5-.44-.15-.56-.44-.85-.86-.85s-.94.46-.94,1.01,0,.08,0,.1c-.09.12-.27.17-.49.17-.29,0-.5-.07-.5-.42v-2.16h-.37v2.3c0,.52.35.75.85.74.27,0,.51-.1.62-.3.14.2.38.31.71.31s.67-.19.78-.4c.11.25.35.38.65.37.31,0,.53-.12.63-.33.01-.03.03-.06.04-.1.08.29.35.42.71.42.72,0,1.29-.15,2.25-.82h.75l.03-.48h-.46c-.25,0-.33-.03-.56-.16h.03ZM8.69,17.56c-.35,0-.54-.14-.54-.35,0-.29.24-.51.55-.51s.51.24.6.59c-.08.12-.26.26-.6.26h0ZM26.13,18.32c-.12,0-.22.1-.22.22s.1.22.22.22.21-.1.21-.22-.1-.22-.21-.22ZM10.72,15.88c0-.12-.09-.22-.21-.22s-.22.1-.22.22.1.22.22.22.21-.1.21-.22ZM15,3.28c-.62-.35-1.34-.52-2.14-.52s-1.51.17-2.14.52-1.11.83-1.46,1.45-.53,1.32-.53,2.1.17,1.48.53,2.1c.35.62.84,1.1,1.46,1.45s1.34.52,2.14.52,1.51-.17,2.14-.52,1.11-.83,1.46-1.45.53-1.32.53-2.1-.17-1.48-.53-2.1c-.35-.62-.84-1.1-1.46-1.45ZM14.79,8.1c-.19.37-.45.65-.78.85-.33.2-.72.31-1.15.31s-.82-.1-1.15-.31c-.33-.2-.59-.49-.78-.85-.19-.37-.28-.79-.28-1.28s.1-.91.28-1.28c.19-.37.45-.65.78-.85s.72-.31,1.15-.31.82.1,1.15.31c.33.2.59.49.78.85.19.37.28.79.28,1.28s-.1.91-.28,1.28ZM16.5,16.63c.26-.24.31-.44.31-.82v-.86h-.37v1.05c-.01.17-.06.29-.19.43-.33-.25-.83-.6-1.44-1.03l-.21.35c.6.41,1.01.69,1.35.94l-1.1.87v.44h1.14c.55,0,.89-.23.89-.71s-.15-.46-.37-.66h0ZM16.02,17.54h-.69l.87-.66c.2.15.35.28.35.44s-.23.23-.53.23h0ZM7.76,19.28c-.15,0-.27.11-.27.27s.12.27.27.27.28-.12.28-.27-.12-.27-.28-.27ZM6.39,20.53c.27,0,.42.08.58.19l.12-.35c-.19-.15-.42-.21-.71-.21-.58,0-1.12.4-1.12,1.16s.52,1.11,1.1,1.11.55-.08.71-.19l-.09-.32c-.2.12-.37.16-.61.16-.37,0-.69-.28-.69-.77s.33-.78.7-.78h.01ZM3.7,20.16c-.58,0-1.15.4-1.15,1.14s.56,1.12,1.14,1.12,1.19-.4,1.19-1.14-.6-1.12-1.17-1.12h0ZM3.71,22.07c-.4,0-.72-.25-.72-.78s.36-.77.72-.77.73.26.73.78-.33.76-.74.76h0ZM10.37,20.6c-.19-.28-.45-.44-.8-.44-.59,0-1.06.41-1.06,1.14s.49,1.13,1.06,1.13.62-.16.8-.47v.42h.42v-2.17h-.42v.38h0ZM10.37,21.3c-.1.44-.36.76-.76.76s-.67-.28-.67-.77.28-.77.67-.77.68.31.76.76h0ZM7.56,22.39h.42v-2.17h-.42v2.17ZM11.46,22.39h.42v-2.91h-.42v2.91ZM.74,20.25c0-.24.17-.44.55-.44s.51.1.67.2l.13-.36c-.17-.13-.51-.22-.81-.22-.57,0-.98.35-.98.86,0,1.03,1.44.68,1.44,1.3s-.21.46-.61.46-.56-.1-.76-.22l-.1.39c.21.12.56.21.86.21.58,0,1.04-.33,1.04-.87,0-.96-1.43-.61-1.43-1.32h0ZM25.51,20.6c-.19-.28-.45-.44-.8-.44-.59,0-1.06.41-1.06,1.14s.49,1.13,1.06,1.13.62-.16.8-.47v.42h.42v-2.17h-.42v.38h0ZM25.51,21.3c-.1.44-.36.76-.76.76s-.67-.28-.67-.77.28-.77.67-.77.68.31.76.76h0ZM13.74,22.39h.43v-2.91h-.43v2.91ZM30.24,20.53c.27,0,.42.08.58.19l.12-.35c-.19-.15-.42-.21-.71-.21-.58,0-1.12.4-1.12,1.16s.52,1.11,1.1,1.11.55-.08.71-.19l-.09-.32c-.2.12-.37.16-.61.16-.37,0-.69-.28-.69-.77s.33-.78.7-.78h.01ZM33.36,21.3c0-.77-.46-1.14-1.04-1.14s-1.08.43-1.08,1.15.42,1.11,1.14,1.11.66-.08.87-.23l-.08-.31c-.26.15-.49.19-.74.19-.46,0-.71-.21-.76-.65h1.68s.01-.09.01-.14h-.01ZM31.68,21.14c.05-.42.29-.62.64-.62s.57.2.61.62h-1.25ZM27.85,20.16c-.35,0-.63.17-.85.52v-.46h-.42v2.17h.42v-1.17c.18-.46.41-.69.75-.69s.44.17.44.58v1.28h.42v-1.33c0-.69-.35-.9-.76-.9h0ZM16.1,20.16c-.35,0-.63.17-.85.52v-.46h-.42v2.17h.42v-1.17c.18-.46.41-.69.75-.69s.44.17.44.58v1.28h.42v-1.33c0-.69-.35-.9-.76-.9h0ZM17.8,20.8c0-.19.19-.29.44-.29s.42.07.61.18l.09-.35c-.19-.1-.46-.17-.71-.17-.54,0-.85.27-.85.67,0,.89,1.21.46,1.21.96s-.19.3-.48.3-.5-.08-.68-.19l-.09.35c.17.09.47.17.76.17.5,0,.9-.26.9-.67,0-.83-1.21-.4-1.21-.96h0ZM22.55,20.67v-.46h-.42v2.17h.42v-1.17c.15-.4.4-.68.69-.68s.12.01.18.03l.07-.36c-.07-.03-.15-.03-.22-.03-.31,0-.56.22-.73.5h0ZM21.06,21.39c-.17.46-.4.67-.72.67s-.43-.17-.43-.57v-1.28h-.42v1.31c0,.69.35.9.74.9s.62-.16.83-.49v.44h.42v-2.17h-.42v1.17h0Z"/>
      <path class="cls-1" d="M33.52,6.82l-3.61,3.61c-.19.22-.47.35-.76.35h-.79c0-1.71,1.67-3.19,3.07-3.96-1.4-.76-3.07-2.25-3.07-3.96h.79c.29,0,.57.12.76.35l3.61,3.61h0Z"/>
    </g>
  </g>
</svg>