<?xml version="1.0" encoding="UTF-8"?>
<svg id="Layer_2" data-name="Layer 2" xmlns="http://www.w3.org/2000/svg" viewBox="0 0 36.01 25.86">
  <defs>
    <style>
      .cls-1 {
        fill: #fbf5e9;
      }
    </style>
  </defs>
  <g id="Layer_1-2" data-name="Layer 1">
    <g>
      <circle class="cls-1" cx="21.37" cy="16.74" r=".73"/>
      <g>
        <path class="cls-1" d="M10.17,17.11h-1.64s1.56-1.92,1.56-1.92c-1.44-.12-2.58-1.21-2.59-2.65-.02-.8.33-1.54.94-2.05,1.14-.95,2.88-.88,3.94.16.85.83,1.01,2.19.39,3.22h5.82c.44,0,.8-.3.89-.72.12-.58-.2-1.14-.82-1.2h-4.13s0-1.07,0-1.07l2.21-2.71h1.54s-1.99,2.45-1.99,2.45h2.4c.73.03,1.4.36,1.85.93.5.66.59,1.53.25,2.31h1.36c.32,0,.6-.15.78-.4.14-.22.19-.47.2-.73v-2.11s1.46,0,1.46,0v2.59c-.11,1.39-1.26,1.98-2.53,1.98h-10.33s-1.56,1.92-1.56,1.92ZM11.49,13.2c.22-.44.21-.96,0-1.4s-.69-.71-1.18-.7-.93.27-1.15.72c-.2.42-.21.91-.01,1.34.21.46.66.74,1.14.75s.97-.24,1.2-.71Z"/>
        <g>
          <path class="cls-1" d="M36,13.15c-.07,1.42-1.22,2.04-2.51,2.04h-3.5s-1.56,1.92-1.56,1.92h-1.64s1.56-1.92,1.56-1.92c-1.47-.13-2.62-1.25-2.59-2.75,0-.67.26-1.29.73-1.77,1.1-1.13,3-1.15,4.13-.05.86.83,1.03,2.2.41,3.24h2.53c.31,0,.59-.14.77-.37.15-.2.2-.44.22-.7v-2.17s1.46,0,1.46,0v2.53ZM29.77,13.15c.19-.43.18-.92-.02-1.33-.23-.47-.71-.73-1.21-.71s-.94.3-1.14.76c-.18.41-.18.88,0,1.29.21.47.68.76,1.18.76s.97-.27,1.19-.76Z"/>
          <circle class="cls-1" cx="32.8" cy="10.08" r=".73"/>
        </g>
      </g>
      <g>
        <path class="cls-1" d="M2.94,5.01c0-.09.03-.13.07-.16.05-.04.12-.06.17-.03l.71.37c.08.04.11.11.1.2v2.32s2.09,1.21,2.09,1.21l2.08-1.21v-2.28s-1.27-.73-1.27-.73c-.06-.03-.09-.09-.1-.16v-.81c0-.07.03-.13.08-.16.06-.04.13-.04.2,0l2.06,1.2c.07.04.09.1.09.17v3.24c0,.07-.02.14-.09.17l-2.98,1.73c-.07.04-.14,0-.21-.04l-2.91-1.69c-.07-.04-.09-.1-.09-.18v-3.19Z"/>
        <path class="cls-1" d="M1.06,2.41v2.27s1.29.75,1.29.75c.05.03.07.08.08.14v.82c0,.06-.03.11-.07.14-.05.04-.12.06-.19.02L.09,5.34c-.05-.03-.09-.08-.09-.15V1.9c0-.07.03-.12.09-.16L3.06.02c.08-.05.16,0,.23.04l2.9,1.69c.06.04.09.09.09.16v3.2c0,.08-.02.13-.06.16-.05.04-.12.06-.18.03l-.71-.37c-.06-.03-.09-.09-.1-.16v-2.36s-2.09-1.21-2.09-1.21l-2.08,1.21Z"/>
        <path class="cls-1" d="M6.28,7.02c0,.14-.12.2-.24.17l-.71-.37c-.06-.03-.1-.09-.1-.17v-.85c0-.06.04-.11.08-.14.05-.03.12-.04.18,0l.69.36c.07.04.1.1.1.18v.83Z"/>
      </g>
      <g>
        <g>
          <path class="cls-1" d="M20.64,23.79v2.07s-1.43,0-1.43,0v-4.49c0-.53.14-1.21.45-1.65s.73-.73,1.23-.89c1.05-.34,2.3-.17,3.09.66.46.48.65,1.1.68,1.75.05,1.13-.55,2.16-1.59,2.62-.77.34-1.66.32-2.43-.07ZM23.1,21.99c.16-.43.15-.9-.05-1.3-.22-.45-.68-.73-1.17-.71s-.92.31-1.12.77c-.18.42-.18.9,0,1.32.21.48.68.77,1.2.75s.95-.33,1.13-.82Z"/>
          <g>
            <path class="cls-1" d="M10.94,20.5c-.25-.52-.88-.6-1.36-.45-.46.14-.63.59-.64,1.04v2.88s-1.44,0-1.44,0v-3.3c.09-1.4,1.23-1.99,2.51-1.99,1.28,0,2.4.59,2.49,1.99v3.3s-1.43,0-1.43,0v-2.91c-.01-.2-.04-.38-.13-.56Z"/>
            <path class="cls-1" d="M16.92,21.72v-2.9s1.44,0,1.44,0v3.27c-.03.8-.48,1.48-1.23,1.78s-1.69.31-2.48.02-1.27-.99-1.29-1.83v-3.25s1.43,0,1.43,0v2.84c0,.48.17.94.67,1.08.27.08.54.08.8,0,.46-.14.64-.55.66-1.02Z"/>
          </g>
        </g>
        <g>
          <path class="cls-1" d="M35.13,23.36c-1.14,1.02-2.94.99-4.04-.08-.49-.48-.77-1.12-.79-1.81-.05-1.64,1.3-2.82,2.88-2.8,1.54.02,2.83,1.15,2.82,2.73,0,.75-.31,1.45-.87,1.95ZM34.37,22.01c.17-.41.16-.86,0-1.26-.21-.48-.68-.77-1.19-.78s-.98.26-1.2.73c-.2.43-.2.94,0,1.37.23.48.71.75,1.22.73s.97-.31,1.18-.8Z"/>
          <path class="cls-1" d="M28.58,22.79c.35-.04.64-.14.95-.31l.62,1.08c-.35.23-.71.35-1.1.44-1.04.26-2.15-.02-2.92-.77-.5-.49-.76-1.13-.77-1.82-.01-1.62,1.39-2.73,2.92-2.73.34.01.64.05.96.15.33.08.63.21.92.4l-.62,1.08c-.31-.16-.62-.28-.96-.31-.65-.08-1.25.32-1.42.94-.09.32-.08.63.01.95.19.6.78.98,1.42.9Z"/>
        </g>
      </g>
    </g>
  </g>
</svg>