<?xml version="1.0" encoding="UTF-8"?>
<svg id="Layer_2" data-name="Layer 2" xmlns="http://www.w3.org/2000/svg" viewBox="0 0 24.89 31.63">
  <defs>
    <style>
      .cls-1 {
        fill: #fbf5e9;
      }
    </style>
  </defs>
  <g id="Layer_1-2" data-name="Layer 1">
    <g>
      <path class="cls-1" d="M24.77,23.44L18.25,1.31c-.22-.73-.62-1.19-1.14-1.29-.22-.04-.44,0-.66.08-.33.05-.67.21-.99.52L3.61,11.53c-1.03.96-.87,2.28.37,2.95l.46.25-.16.2c-.47.59-.63,1.25-.47,1.88.17.62.64,1.12,1.34,1.4l17.68,7.01c.32.13.62.19.88.19.32,0,.6-.1.81-.29.38-.34.47-.94.25-1.67ZM17.31,13.58c-.05-.07-.13-.1-.22-.1-.1,0-.18-.08-.18-.18,0-.11.09-.17.19-.18h.07c.25,0,.47.14.59.38l-.07,1.05.07-1.05h0c.14.31.11.74-.08,1.05-.14.23-.34.36-.57.37h-.01c-.12,0-.21-.1-.21-.21,0-.09.06-.18.15-.2h.05s.01-.01.01-.01l.06-.02c.12-.05.19-.17.23-.34.03-.17.03-.41-.08-.54ZM16.3,7.97c.13,0,.23.1.23.23s-.1.23-.23.23-.23-.1-.23-.23.1-.23.23-.23ZM15.56,10.49c.23,0,.45,0,.68,0,.2,0,.39,0,.59,0,.21,0,.37-.08.48-.24.11-.16.13-.37.06-.55-.06-.17-.18-.29-.35-.33-.08-.02-.16-.03-.24-.03h-.42s-.12-.01-.12-.01h-.02c-.09-.01-.15-.06-.17-.15-.03-.12,0-.2.07-.26.05-.03.11-.05.17-.05.15,0,.21,0,.24,0t.17,0h.14c.34.01.59.13.78.36.12.14.18.31.21.49.04.3,0,.53-.11.74-.17.31-.43.47-.8.49-.15,0-.3,0-.45,0-.07,0-.14,0-.2,0h-.05s-.15,0-.15,0c-.16,0-.31,0-.47,0-.09,0-.16-.04-.2-.1-.04-.07-.04-.15,0-.23.04-.08.09-.12.18-.12ZM16.69,12.48v2.18c0,.13-.1.23-.23.23s-.23-.1-.23-.23v-2.18c0-.13.1-.23.23-.23s.23.1.23.23ZM15.3,13.06c.28.07.5.28.59.57.03.08.04.18.05.3,0,.06,0,.11-.03.13-.03.03-.08.04-.15.04h-.69c-.07,0-.14-.06-.14-.13s.06-.14.14-.14h.43s0-.06,0-.06c0-.2-.18-.37-.39-.39-.2,0-.39.16-.42.38-.03.18-.02.35-.02.36,0,.22.2.35.33.38.2.04.39.01.57-.08h.02s.12-.06.12-.06c.08-.02.14,0,.18.06.05.07.05.13,0,.2-.06.11-.17.16-.27.2-.33.12-.61.13-.87.03-.3-.12-.48-.36-.53-.71-.05-.34.04-.62.27-.85.17-.17.39-.26.62-.26.07,0,.14,0,.2.02ZM13.52,13.78c0-.2-.19-.37-.39-.39-.2,0-.39.16-.42.38-.03.18-.02.35-.02.36,0,.22.2.35.33.38.2.04.39.01.57-.08h.02s.12-.06.12-.06c.08-.02.14,0,.18.06.04.07.05.13,0,.2-.06.11-.17.16-.27.2-.33.12-.61.13-.87.03-.31-.12-.48-.36-.53-.71-.05-.34.04-.62.27-.85.17-.17.39-.26.62-.26.07,0,.14,0,.2.02.28.07.5.28.59.57.03.08.04.18.05.3,0,.06,0,.11-.03.13-.03.03-.08.04-.15.04h-.69c-.07,0-.14-.06-.14-.13s.06-.14.14-.14h.43s0-.06,0-.06ZM13.22,11.62c0-.13.1-.23.23-.23s.23.1.23.23-.1.23-.23.23-.23-.1-.23-.23ZM13.94,11.62c0-.13.1-.23.23-.23s.23.1.23.23-.1.23-.23.23-.23-.1-.23-.23ZM13.07,10.32l.15.02.05.03c.24.13.5.16.8.08.19-.05.33-.19.4-.42.05-.15.04-.3.04-.45v-.12s0-.29,0-.29h0c0-.12.1-.21.22-.21.08,0,.15.04.19.11h0s.02.11.02.11v.03s0,.17,0,.17c0,.2,0,.4,0,.6-.02.38-.2.63-.59.83-.29.15-.59.18-.94.1-.15-.04-.28-.08-.39-.14l-.04-.03-.09-.14c0-.15.06-.24.18-.27ZM8.38,9.54h0c.04-.08.11-.12.19-.12.12,0,.22.09.22.21h0s0,.08,0,.08c0,.12,0,.24.05.36.08.19.23.33.4.38.11.03.21.05.31.05h1.94c.1,0,.2-.02.31-.05.19-.05.33-.19.4-.42.05-.15.04-.3.04-.45v-.12s0-.29,0-.29h0c0-.12.1-.21.22-.21.08,0,.15.04.19.11h0s.02.11.02.11v.03s0,.17,0,.17c0,.2,0,.4,0,.6-.02.38-.2.63-.59.83-.19.1-.39.14-.6.14h-.88s-1.06,0-1.06,0c-.21,0-.41-.04-.6-.14-.38-.19-.56-.45-.59-.83,0-.09,0-.13,0-.14v-.02s0-.05,0-.14v-.03s0-.02,0-.02l.02-.1ZM11.22,13.41c-.1,0-.18-.08-.18-.18,0-.11.1-.17.19-.18.23-.02.4.03.52.15.23.24.19.67.19.68v.79c0,.13-.1.23-.23.23s-.23-.1-.23-.23v-.79c0-.45-.24-.46-.26-.46ZM10.55,11.85c-.13,0-.23-.1-.23-.23s.1-.23.23-.23.23.1.23.23-.1.23-.23.23ZM10.78,12.48v2.18c0,.13-.1.23-.23.23s-.23-.1-.23-.23v-2.18c0-.13.1-.23.23-.23s.23.1.23.23ZM8.56,12.87c-.12,0-.21-.09-.21-.21s.09-.21.21-.21h1.29c.12,0,.21.09.21.21s-.09.21-.21.21h-1.29ZM9.44,13.24v1.42c0,.13-.1.23-.23.23s-.23-.1-.23-.23v-1.42c0-.13.1-.23.23-.23h0c.13,0,.23.1.23.23ZM22.99,24.81l-17.68-7.01c-.57-.22-.95-.62-1.08-1.11-.13-.49,0-1.02.39-1.5l.21-.26,18.25,9.84c.12.07.24.11.35.15-.14-.03-.28-.06-.43-.13Z"/>
      <path class="cls-1" d="M1.29,25.69l-.11-.04-.04-.11.04-.11.11-.04.11.04.04.11-.04.11M.84,25.69l-.11-.04-.05-.11.05-.11.11-.04.11.04.05.11-.05.11-.11.04M1.1,27.51c-.2,0-.36-.02-.5-.06-.14-.04-.25-.1-.34-.18-.09-.08-.15-.17-.19-.29C.02,26.87,0,26.74,0,26.58c0-.1.01-.2.03-.3.02-.1.05-.18.08-.24l.26-.05c-.04.08-.07.17-.09.27-.02.1-.04.2-.04.29,0,.13.01.24.04.33.03.09.08.17.14.24.07.06.16.11.27.14.11.03.26.05.43.05h.59s0-1.31,0-1.31h.24s0,1.51,0,1.51h-.86Z"/>
      <rect class="cls-1" x="2.58" y="25.25" width=".24" height="2.26"/>
      <path class="cls-1" d="M3.09,28.34c-.06,0-.13,0-.19-.01-.06-.01-.12-.02-.17-.04l.03-.21c.05.02.11.03.17.05.06.01.12.02.18.02.07,0,.13,0,.19-.03.06-.02.1-.05.14-.1.04-.05.07-.11.09-.18.02-.08.03-.17.03-.28v-1.55s.24,0,.24,0v1.52c0,.12-.01.23-.04.33-.02.1-.06.18-.12.26-.06.07-.13.13-.22.17-.09.04-.21.06-.34.06"/>
      <polyline class="cls-1" points="4.42 25.25 4.42 27.51 5.03 27.51 5.03 27.32 4.66 27.32 4.66 25.25"/>
      <path class="cls-1" d="M5.85,27.99l-.04.11-.11.04-.11-.04-.04-.11.04-.11.11-.04.11.04M5.41,27.99l-.04.11-.11.04-.11-.04-.04-.11.04-.11.11-.04.11.04.04.11M4.98,27.32h.48s0-1.31,0-1.31h.24s0,1.31,0,1.31h.52s0,.2,0,.2h-1.24s0-.2,0-.2Z"/>
      <path class="cls-1" d="M8.04,27.5c-.08,0-.14-.02-.2-.04l-.13-.08-.08-.13-.05.1-.09.09-.14.07c-.06.02-.12.03-.2.03-.11,0-.2-.03-.27-.08-.07-.05-.12-.12-.14-.21-.03.08-.08.14-.15.19-.07.05-.16.07-.29.07h-.13s0-.2,0-.2h.13c.12,0,.2-.03.26-.1.06-.07.09-.18.09-.35v-.67s.24,0,.24,0v.58c0,.09,0,.17,0,.23,0,.07.01.13.03.18l.09.11s.09.04.16.04l.14-.02.11-.09s.06-.1.08-.17c.02-.07.03-.16.03-.28v-.71s.24,0,.24,0v.83c0,.09,0,.17.03.22l.09.13s.09.05.16.06c.06,0,.14.01.23.01h.11c0-.07.02-.15.02-.24,0-.09,0-.17,0-.23,0-.18-.01-.35-.03-.5-.02-.15-.05-.28-.08-.4l.24-.05c.03.12.06.25.08.41.02.16.04.32.04.51,0,.08,0,.16,0,.24,0,.09-.01.17-.02.25h.38s0,.2,0,.2h-.7c-.11,0-.2,0-.28-.01"/>
      <polyline class="cls-1" points="8.97 27.32 9.44 27.32 9.44 25.25 9.68 25.25 9.68 27.51 8.97 27.51"/>
      <rect class="cls-1" x="10.32" y="25.25" width=".24" height="2.26"/>
      <path class="cls-1" d="M11.89,28.34c-.06,0-.13,0-.19-.01-.06-.01-.12-.02-.17-.04l.04-.21c.05.02.11.03.17.05.06.01.12.02.18.02.07,0,.13,0,.19-.03.06-.02.1-.05.14-.1.04-.05.07-.11.09-.18.02-.08.03-.17.03-.28v-1.55s.24,0,.24,0v1.31s.37,0,.37,0v.2s-.37,0-.37,0v.02c0,.12-.01.23-.04.33-.02.1-.07.18-.12.26-.06.07-.13.13-.22.17-.09.04-.21.06-.34.06"/>
      <path class="cls-1" d="M13.8,27.99l-.04.11-.11.04-.11-.04-.04-.11.04-.11.11-.04.11.04M13.35,27.99l-.04.11-.11.04-.11-.04-.04-.11.04-.11.11-.04.11.04.04.11M12.93,27.32h.48s0-1.31,0-1.31h.24s0,1.31,0,1.31h.52s0,.2,0,.2h-1.24s0-.2,0-.2Z"/>
      <path class="cls-1" d="M14.88,28.14l-.11-.04-.04-.11.04-.11.11-.05.11.04.05.11-.05.11M14.13,27.32h1.36c0-.06.01-.12.02-.19,0-.06,0-.12,0-.18,0-.13-.01-.24-.04-.34-.02-.1-.07-.18-.12-.24-.06-.06-.13-.11-.23-.14-.09-.03-.21-.05-.35-.05-.06,0-.12,0-.17,0-.05,0-.11,0-.17.02v-.19s.11-.01.17-.02c.06,0,.13,0,.2,0,.18,0,.32.02.45.06.12.04.22.1.3.18.07.08.13.18.16.29.03.12.05.25.05.4,0,.08,0,.16-.01.26,0,.1-.02.21-.04.32h-1.57s0-.2,0-.2Z"/>
      <path class="cls-1" d="M16.3,25.27h.24s0,2.05,0,2.05h.37s0,.2,0,.2h-.61M16,24.89h.13s.11.02.11.02l-.08-.07-.02-.09.02-.11.07-.1.12-.07s.11-.03.18-.03h.09s.08.01.08.01l-.03.16h-.07s-.09-.01-.09-.01c-.06,0-.11.01-.14.04l-.05.1.06.11s.11.04.2.04h.17s0,.16,0,.16h-.76s0-.16,0-.16Z"/>
      <path class="cls-1" d="M17.63,25.69l-.11-.04-.04-.11.04-.11.11-.04.11.04.04.11-.04.11M17.18,25.69l-.11-.04-.04-.11.04-.11.11-.04.11.04.04.11-.04.11-.11.04M16.86,27.31h.48s0-1.31,0-1.31h.24s0,1.31,0,1.31h.35s0,.2,0,.2h-1.07s0-.2,0-.2Z"/>
      <polyline class="cls-1" points="17.88 27.31 18.34 27.31 18.34 25.25 18.59 25.25 18.59 27.51 17.88 27.51"/>
      <path class="cls-1" d="M5.62,30.01c0-.14-.04-.24-.13-.3-.09-.06-.22-.09-.38-.09-.07,0-.14,0-.21.01v.78s.07,0,.07,0h.12c.17,0,.3-.04.39-.11.09-.08.14-.17.14-.3M5.7,31.6l-.76-1h-.04s0,1,0,1h-.24s0-2.16,0-2.16c.07,0,.14,0,.22,0,.08,0,.18,0,.29,0,.1,0,.2,0,.28.03.09.02.16.05.23.09.06.04.11.1.15.17.04.07.05.15.05.25s-.02.18-.05.26c-.04.07-.09.14-.15.19-.06.05-.14.09-.22.12-.08.03-.17.04-.26.05l.1.11.09.11.62.79h-.32Z"/>
      <path class="cls-1" d="M7.25,30.61c0-.14-.03-.25-.1-.33-.07-.08-.16-.12-.29-.12-.11,0-.21.04-.28.12-.08.08-.12.19-.14.33M7.5,30.62v.07s0,.09,0,.09h-1.06c0,.22.03.39.12.49.09.1.22.15.41.15.08,0,.15,0,.23-.02.08-.02.15-.04.22-.07l.04.2c-.08.03-.16.05-.25.07-.09.02-.19.03-.29.03-.24,0-.42-.07-.54-.2-.12-.13-.19-.34-.19-.62,0-.12.02-.23.05-.33.03-.1.08-.19.14-.26.06-.07.13-.13.22-.17.09-.04.19-.06.3-.06s.2.02.28.05c.08.03.14.08.19.14.05.06.09.13.11.21.02.08.03.16.03.25"/>
      <path class="cls-1" d="M8.98,31.6v-1.03c0-.13-.02-.22-.06-.29-.04-.07-.12-.1-.23-.1-.07,0-.14.02-.2.05-.06.03-.11.08-.15.14-.04.06-.08.13-.1.21-.02.08-.03.17-.03.26v.76s-.24,0-.24,0v-1.59s.24,0,.24,0c0,.05,0,.11,0,.18,0,.07-.01.13-.02.18h0c.05-.11.12-.21.21-.28.1-.07.22-.1.36-.1.09,0,.17.01.23.04.06.03.11.06.15.11.04.04.06.1.08.16.02.06.02.13.02.2v1.11"/>
      <path class="cls-1" d="M10.4,31.62c-.06,0-.11,0-.16,0-.08,0-.15,0-.2-.03l-.13-.08s-.06-.09-.07-.15c-.01-.06-.02-.13-.02-.21v-.96s-.35,0-.35,0v-.19s.35,0,.35,0v-.53s.24-.07.24-.07v.6s.47,0,.47,0v.19s-.47,0-.47,0v.86c0,.07,0,.13.01.18l.04.11.07.06.12.02c.08,0,.15,0,.21-.03l.03.2"/>
      <path class="cls-1" d="M12.49,30.84c-.14,0-.26,0-.35.03-.09.02-.17.04-.23.07l-.12.11-.03.12c0,.07.02.14.07.19.05.05.11.08.19.08.07,0,.13-.02.19-.05l.15-.13c.04-.05.07-.11.1-.18.02-.07.03-.13.03-.2M12.5,31.6c0-.06,0-.12,0-.18,0-.06,0-.11.01-.16h0s-.08.14-.08.14l-.12.12s-.1.06-.16.08c-.06.02-.12.03-.19.03-.13,0-.23-.04-.31-.11-.08-.08-.12-.18-.12-.31,0-.16.08-.3.25-.39.16-.1.41-.15.72-.15v-.08c0-.14-.03-.25-.08-.31-.05-.07-.14-.1-.28-.1-.07,0-.16.01-.24.03-.09.02-.16.05-.23.08l-.05-.2c.08-.03.16-.06.26-.08.1-.02.2-.03.3-.03s.2.01.27.04c.07.03.13.06.17.11.04.05.08.11.1.18.02.07.03.14.03.23v.59s0,.25,0,.25c0,.08,0,.16,0,.23h-.24Z"/>
      <path class="cls-1" d="M15.18,31.59c-.1.02-.21.03-.33.03-.17,0-.31-.03-.43-.08-.12-.05-.22-.12-.3-.21-.08-.09-.14-.2-.18-.33-.04-.13-.06-.27-.06-.43s.02-.31.06-.46c.04-.14.1-.26.19-.37.09-.1.19-.18.33-.24.13-.06.29-.09.47-.09.08,0,.17,0,.26.02.09.01.17.03.25.05l-.04.23c-.08-.03-.16-.05-.25-.07s-.17-.02-.26-.02c-.13,0-.24.02-.34.07-.09.05-.17.11-.23.2-.06.08-.11.18-.13.29-.03.11-.04.23-.04.35,0,.28.06.5.19.65.13.15.32.23.59.23.08,0,.17-.01.26-.03.09-.02.17-.05.24-.08l.05.21c-.08.04-.18.07-.28.09"/>
      <path class="cls-1" d="M16.71,30.84c-.14,0-.26,0-.35.03-.09.02-.17.04-.23.07l-.12.11-.03.12c0,.07.02.14.07.19.05.05.11.08.19.08.07,0,.13-.02.19-.05l.15-.13c.04-.05.07-.11.1-.18.02-.07.03-.13.03-.2M16.72,31.6c0-.06,0-.12,0-.18,0-.06,0-.11.01-.16h0s-.08.14-.08.14l-.12.12s-.1.06-.16.08c-.06.02-.12.03-.19.03-.13,0-.23-.04-.31-.11-.08-.08-.12-.18-.12-.31,0-.16.08-.3.25-.39.17-.1.41-.15.72-.15v-.08c0-.14-.03-.25-.08-.31-.05-.07-.15-.1-.28-.1-.07,0-.16.01-.24.03-.09.02-.17.05-.23.08l-.05-.2c.08-.03.16-.06.26-.08.1-.02.2-.03.3-.03s.2.01.27.04c.07.03.13.06.17.11.04.05.08.11.1.18.02.07.03.14.03.23v.59s0,.25,0,.25c0,.08,0,.16,0,.23h-.24Z"/>
      <path class="cls-1" d="M18.3,30.22c-.18-.03-.31.02-.39.15-.08.13-.13.33-.13.6v.64s-.24,0-.24,0v-1.59s.24,0,.24,0c0,.05,0,.12,0,.19,0,.07-.02.14-.03.21h0c.01-.05.04-.11.07-.17l.11-.15s.1-.07.16-.09c.06-.02.14-.03.22-.02"/>
    </g>
  </g>
</svg>