<?xml version="1.0" encoding="UTF-8"?>
<svg id="Layer_2" data-name="Layer 2" xmlns="http://www.w3.org/2000/svg" viewBox="0 0 54.45 18.88">
  <defs>
    <style>
      .cls-1 {
        fill: #fbf5e9;
      }
    </style>
  </defs>
  <g id="Layer_1-2" data-name="Layer 1">
    <g>
      <g id="surface1">
        <path class="cls-1" d="M22.5,16.95c-.06-.05-.14-.08-.22-.11-.08-.03-.16-.05-.25-.07-.09-.02-.17-.04-.25-.05-.08-.02-.15-.04-.22-.06-.06-.03-.12-.06-.15-.1-.04-.04-.06-.09-.06-.16,0-.07.01-.13.04-.17.03-.05.06-.08.11-.11.04-.03.1-.05.15-.06.06-.01.12-.02.17-.02.15,0,.27.03.36.1.09.07.15.18.16.33h.27c0-.12-.03-.22-.07-.3s-.1-.15-.17-.21c-.07-.06-.15-.1-.24-.12-.09-.03-.19-.04-.3-.04-.1,0-.19.01-.28.04-.09.02-.17.06-.25.11-.07.05-.13.11-.17.19-.04.08-.07.17-.07.28,0,.1.02.18.06.24.04.06.09.12.15.16.06.04.14.07.22.1.08.02.16.05.25.06.08.02.17.04.25.06.08.02.15.04.22.07.06.03.11.07.15.11.04.05.06.1.06.18,0,.08-.02.14-.05.19-.03.05-.07.09-.13.12-.05.03-.11.05-.17.06-.06.01-.13.02-.19.02-.08,0-.16,0-.23-.03-.07-.02-.14-.05-.2-.09-.06-.04-.1-.09-.14-.16-.03-.06-.05-.14-.05-.23h-.27c0,.13.02.24.07.33s.11.17.19.23c.08.06.17.11.28.14.11.03.22.04.34.04.1,0,.19-.01.29-.04.1-.02.19-.06.27-.11.08-.05.14-.12.19-.2.05-.08.08-.18.08-.29,0-.1-.02-.19-.06-.26-.04-.07-.09-.13-.15-.17"/>
        <path class="cls-1" d="M24.22,17.74s-.01-.07-.01-.13v-.79c0-.09-.02-.16-.05-.22-.03-.06-.08-.1-.13-.13-.06-.03-.12-.05-.19-.06-.07-.01-.14-.01-.21-.01-.08,0-.17,0-.24.03-.08.02-.15.05-.2.09-.06.04-.11.09-.14.16-.04.07-.06.15-.06.24h.25c0-.11.04-.19.12-.23s.16-.06.27-.06c.04,0,.08,0,.12,0s.08.02.11.04c.03.02.06.04.08.08.02.03.03.08.03.13,0,.05-.01.08-.04.11-.03.02-.07.04-.11.06-.05.01-.1.02-.16.03-.06,0-.13.02-.2.03-.07.01-.13.03-.19.05-.06.02-.12.05-.17.08-.05.03-.09.08-.12.13-.03.06-.04.13-.04.21,0,.08.01.14.04.2.03.05.06.1.11.13.05.03.1.06.16.08.06.02.13.02.2.02.11,0,.21-.02.3-.06.09-.04.17-.1.24-.18,0,.08.02.14.06.18.04.04.09.06.16.06.08,0,.14-.01.18-.04v-.2s-.05.01-.08.01c-.04,0-.06-.01-.07-.04M23.96,17.43s0,.07-.03.11c-.02.04-.05.08-.08.11-.04.03-.09.06-.15.09-.06.02-.13.03-.21.03-.04,0-.08,0-.11-.01s-.07-.02-.09-.04c-.03-.02-.05-.04-.07-.07-.02-.03-.03-.06-.03-.11,0-.05,0-.09.03-.12.02-.03.04-.06.07-.08.03-.02.06-.04.1-.05.04-.01.08-.02.12-.03s.08-.01.13-.02c.04,0,.09-.01.13-.02.04,0,.08-.02.11-.03.04,0,.07-.02.09-.04"/>
        <path class="cls-1" d="M25.62,17.3c0,.07,0,.13-.03.19-.02.06-.05.11-.08.15-.04.04-.08.08-.14.1-.06.02-.12.04-.2.04-.1,0-.17-.03-.23-.08-.06-.06-.08-.13-.08-.23v-1.04h-.25v1.01c0,.08,0,.16.03.23.02.07.05.13.09.18.04.05.1.09.16.12.07.03.15.04.25.04.11,0,.21-.02.29-.07.08-.05.15-.12.21-.21h0v.24h.24v-1.53h-.25"/>
        <path class="cls-1" d="M27.37,16.64h0s-.06-.08-.1-.11c-.04-.03-.08-.06-.13-.07-.05-.02-.09-.03-.14-.04-.05,0-.09-.01-.13-.01-.12,0-.22.02-.31.06-.09.04-.16.1-.22.17-.06.07-.1.16-.13.25-.03.1-.04.2-.04.31s.01.21.04.31c.03.1.07.18.13.26.06.07.13.13.22.18.09.04.19.07.31.07.11,0,.2-.02.29-.06.09-.04.15-.1.2-.19h0v.21h.25v-2.12h-.25v.79ZM27.36,17.41c-.02.07-.04.13-.08.19-.04.05-.09.1-.15.13-.06.03-.13.05-.22.05-.08,0-.15-.02-.21-.05-.06-.03-.11-.07-.15-.13-.04-.05-.07-.11-.09-.18-.02-.07-.03-.14-.03-.21,0-.08,0-.15.02-.22.02-.07.04-.13.08-.19.04-.06.08-.1.14-.13.06-.03.13-.05.22-.05s.16.02.22.05c.06.03.11.08.15.13.04.05.07.12.08.19.02.07.03.14.03.22s0,.14-.03.21"/>
        <path class="cls-1" d="M28.03,17.97h.25v-1.53h-.25v1.53Z"/>
        <path class="cls-1" d="M30.27,15.85h-.73v2.12h.73c.18,0,.33-.02.46-.07.13-.05.23-.12.32-.22.08-.09.14-.21.18-.35.04-.14.06-.29.06-.47,0-.34-.09-.59-.26-.76-.18-.17-.43-.25-.75-.25M30.96,17.23c-.03.09-.06.17-.1.23-.04.06-.09.11-.14.15-.05.04-.11.06-.16.08-.05.02-.1.03-.15.04-.05,0-.09,0-.12,0h-.47v-1.64h.48c.13,0,.24.02.33.06.09.04.16.09.22.16.06.07.1.15.12.25.02.1.04.21.04.34s-.01.24-.04.33"/>
        <path class="cls-1" d="M32.8,17.74s-.01-.07-.01-.13v-.79c0-.09-.02-.16-.05-.22-.03-.06-.08-.1-.13-.13-.06-.03-.12-.05-.19-.06-.07-.01-.14-.01-.21-.01-.08,0-.17,0-.24.03-.08.02-.15.05-.2.09-.06.04-.11.09-.14.16-.04.07-.06.15-.06.24h.25c0-.11.04-.19.12-.23s.16-.06.27-.06c.04,0,.08,0,.12,0,.04,0,.08.02.11.04.03.02.06.04.08.08.02.03.03.08.03.13,0,.05-.01.08-.04.11-.03.02-.07.04-.11.06-.05.01-.1.02-.16.03-.06,0-.13.02-.2.03-.07.01-.13.03-.19.05-.06.02-.12.05-.17.08-.05.03-.09.08-.12.13-.03.06-.04.13-.04.21,0,.08.01.14.04.2.03.05.06.1.11.13.05.03.1.06.16.08.06.02.13.02.2.02.11,0,.21-.02.3-.06.09-.04.17-.1.24-.18,0,.08.02.14.06.18.04.04.09.06.16.06.07,0,.14-.01.18-.04v-.2s-.05.01-.08.01c-.04,0-.06-.01-.07-.04M32.54,17.43s0,.07-.03.11c-.02.04-.05.08-.08.11-.04.03-.09.06-.15.09-.06.02-.13.03-.21.03-.04,0-.08,0-.11-.01s-.07-.02-.09-.04c-.03-.02-.05-.04-.07-.07-.02-.03-.03-.06-.03-.11,0-.05,0-.09.03-.12.02-.03.04-.06.07-.08.03-.02.06-.04.1-.05.04-.01.08-.02.12-.03.04,0,.08-.01.13-.02.04,0,.09-.01.13-.02.04,0,.08-.02.11-.03.04,0,.07-.02.09-.04"/>
        <path class="cls-1" d="M33.53,15.97h-.25v.46h-.26v.22h.26v.98c0,.07,0,.13.02.17.01.04.03.08.06.1.03.02.07.04.11.05.05,0,.1.01.17.01h.19v-.22h-.12s-.07,0-.1,0c-.02,0-.04,0-.06-.02-.01,0-.02-.02-.03-.04,0-.02,0-.04,0-.07v-.95h.31v-.22h-.31"/>
        <path class="cls-1" d="M35.33,17.74s-.01-.07-.01-.13v-.79c0-.09-.02-.16-.05-.22-.03-.06-.08-.1-.13-.13-.06-.03-.12-.05-.19-.06-.07-.01-.14-.01-.21-.01-.09,0-.17,0-.24.03-.08.02-.15.05-.2.09-.06.04-.11.09-.14.16-.04.07-.06.15-.06.24h.25c0-.11.04-.19.12-.23.07-.04.16-.06.27-.06.04,0,.08,0,.12,0s.08.02.11.04c.03.02.06.04.08.08.02.03.03.08.03.13,0,.05-.01.08-.04.11-.03.02-.07.04-.11.06-.05.01-.1.02-.16.03s-.13.02-.2.03c-.07.01-.13.03-.19.05-.06.02-.12.05-.17.08-.05.03-.09.08-.12.13-.03.06-.04.13-.04.21,0,.08.01.14.04.2.03.05.06.1.11.13.05.03.1.06.16.08.06.02.13.02.2.02.11,0,.21-.02.3-.06.09-.04.17-.1.24-.18,0,.08.02.14.06.18.04.04.09.06.16.06.08,0,.14-.01.18-.04v-.2s-.05.01-.08.01c-.04,0-.06-.01-.07-.04M35.06,17.43s0,.07-.03.11c-.02.04-.05.08-.08.11-.04.03-.09.06-.15.09-.06.02-.13.03-.21.03-.04,0-.08,0-.11-.01-.04,0-.07-.02-.09-.04-.03-.02-.05-.04-.07-.07-.02-.03-.03-.06-.03-.11,0-.05,0-.09.03-.12.02-.03.04-.06.07-.08.03-.02.06-.04.1-.05.04-.01.08-.02.12-.03s.08-.01.13-.02c.04,0,.09-.01.13-.02.04,0,.08-.02.11-.03.04,0,.07-.02.09-.04"/>
        <path class="cls-1" d="M37.9,17.36s.03-.07.04-.11c.01-.04.02-.08.03-.12,0-.04.01-.1.02-.16h-.24c0,.11-.03.22-.07.33l-.38-.47c.05-.03.1-.06.15-.1.05-.04.09-.08.13-.12.04-.05.07-.1.09-.15.02-.05.03-.11.03-.18,0-.07-.01-.13-.04-.19-.03-.05-.07-.1-.11-.14-.05-.04-.1-.06-.16-.08-.06-.02-.13-.03-.19-.03-.08,0-.15.01-.21.04-.06.02-.11.06-.15.1-.04.04-.07.09-.09.14-.02.05-.03.11-.03.16,0,.05,0,.1.02.15.01.04.03.08.05.12.02.04.05.08.08.11.03.04.06.08.09.12-.07.04-.13.07-.19.11-.06.04-.11.09-.16.14-.04.05-.08.11-.11.17-.03.06-.04.14-.04.22,0,.04,0,.1.02.16.01.07.05.13.09.19.05.06.11.11.2.16.09.04.2.07.34.07.06,0,.11,0,.17-.02.06-.01.11-.03.17-.06.05-.02.1-.06.14-.09.04-.04.08-.08.11-.13l.23.26h.33l-.41-.48s.04-.09.06-.13M37.03,16.13c.05-.04.11-.06.17-.06.08,0,.14.02.18.07.04.04.07.1.07.16,0,.05,0,.09-.03.12-.02.04-.04.07-.07.1-.03.03-.06.06-.09.08-.03.02-.07.05-.1.07-.02-.03-.05-.06-.07-.09-.02-.03-.05-.06-.07-.09-.02-.03-.04-.06-.05-.09-.01-.03-.02-.06-.02-.1,0-.08.03-.13.08-.17M37.37,17.71c-.08.05-.16.07-.26.07-.05,0-.1,0-.15-.03-.05-.02-.09-.04-.13-.07-.04-.03-.07-.07-.09-.11-.02-.04-.03-.09-.03-.15,0-.06,0-.12.03-.16.02-.05.05-.09.08-.13.03-.04.07-.07.12-.1.04-.03.09-.06.14-.09l.49.58c-.05.08-.11.14-.19.18"/>
        <path class="cls-1" d="M39.84,15.85l-.83,2.12h.29l.24-.64h.9l.23.64h.31l-.83-2.12h-.31ZM39.63,17.09l.36-.99h0l.35.99h-.72Z"/>
        <path class="cls-1" d="M41.2,17.97h.28v-2.12h-.28v2.12Z"/>
        <path class="cls-1" d="M43.36,15.85l-.83,2.12h.29l.24-.64h.9l.23.64h.31l-.83-2.12h-.31ZM43.15,17.09l.36-.99h0l.35.99h-.72Z"/>
        <path class="cls-1" d="M45.68,17.3c0,.07,0,.13-.03.19-.02.06-.05.11-.09.15-.04.04-.08.08-.14.1-.06.02-.12.04-.2.04-.1,0-.17-.03-.23-.08-.06-.06-.08-.13-.08-.23v-1.04h-.25v1.01c0,.08,0,.16.03.23.02.07.05.13.09.18.04.05.1.09.16.12.07.03.15.04.25.04.11,0,.21-.02.29-.07.08-.05.15-.12.21-.21h0v.24h.24v-1.53h-.25"/>
        <path class="cls-1" d="M46.66,15.97h-.25v.46h-.26v.22h.26v.98c0,.07,0,.13.02.17.01.04.03.08.06.1.03.02.07.04.11.05.05,0,.1.01.17.01h.19v-.22h-.12s-.07,0-.1,0c-.02,0-.04,0-.06-.02-.01,0-.02-.02-.03-.04,0-.02,0-.04,0-.07v-.95h.31v-.22h-.31"/>
        <path class="cls-1" d="M48.41,16.56s-.1-.09-.16-.12-.15-.04-.25-.04c-.05,0-.09,0-.14.01-.05,0-.09.03-.14.05-.04.02-.08.05-.12.08-.04.03-.06.07-.09.12h0v-.81h-.25v2.12h.25v-.87c0-.07,0-.13.03-.19.02-.06.05-.11.08-.15.04-.04.08-.08.14-.1.06-.02.12-.04.2-.04.1,0,.17.03.23.08.06.06.08.13.08.23v1.04h.25v-1.01c0-.08,0-.16-.03-.23-.02-.07-.05-.13-.09-.18"/>
        <path class="cls-1" d="M50.11,16.63c-.06-.07-.14-.13-.23-.17-.09-.04-.2-.06-.32-.06s-.23.02-.32.06c-.09.04-.17.1-.23.17s-.11.16-.14.26c-.03.1-.05.2-.05.32s.02.22.05.31c.03.1.08.18.14.25.06.07.14.13.23.17.09.04.2.06.32.06s.23-.02.32-.06c.09-.04.17-.1.23-.17.06-.07.11-.16.14-.25.03-.1.05-.2.05-.31s-.02-.22-.05-.32c-.03-.1-.08-.18-.14-.26M50,17.45c-.02.07-.06.13-.1.18-.04.05-.09.09-.15.11-.06.03-.12.04-.19.04s-.13-.01-.19-.04c-.06-.03-.11-.06-.15-.11-.04-.05-.08-.11-.1-.18-.02-.07-.04-.15-.04-.25s.01-.18.04-.25c.02-.07.06-.13.1-.18.04-.05.09-.09.15-.11.06-.03.12-.04.19-.04s.13.01.19.04c.06.03.11.06.15.11.04.05.08.11.1.18.02.07.04.15.04.25s-.01.18-.04.25"/>
        <path class="cls-1" d="M50.84,16.76h0v-.32h-.24v1.53h.25v-.68c0-.1,0-.18.03-.26.02-.08.05-.14.09-.2.04-.05.1-.09.17-.12.07-.03.16-.04.26-.04v-.27c-.14,0-.25.02-.34.08-.09.06-.16.15-.23.28"/>
        <path class="cls-1" d="M51.6,17.97h.25v-1.53h-.25v1.53Z"/>
        <path class="cls-1" d="M52.6,15.97h-.25v.46h-.26v.22h.26v.98c0,.07,0,.13.02.17.01.04.04.08.06.1.03.02.07.04.11.05.05,0,.1.01.17.01h.19v-.22h-.12s-.07,0-.1,0c-.02,0-.04,0-.06-.02-.01,0-.02-.02-.03-.04,0-.02,0-.04,0-.07v-.95h.31v-.22h-.31"/>
        <path class="cls-1" d="M54.18,16.43l-.43,1.26h0l-.45-1.26h-.28l.61,1.52-.1.26s-.05.08-.08.1c-.03.02-.07.04-.12.04-.03,0-.05,0-.08-.01-.03,0-.05-.02-.07-.02v.23s.06.02.09.02c.03,0,.06,0,.09,0,.06,0,.11,0,.15-.02.04-.01.08-.04.12-.07.03-.03.07-.07.09-.13.03-.05.06-.11.09-.19l.67-1.74"/>
        <path class="cls-1" d="M28.03,15.85v.31l.25-.15v-.16h-.25Z"/>
        <path class="cls-1" d="M51.6,15.85v.31l.25-.15v-.16h-.25Z"/>
        <path class="cls-1" d="M21.03,10.7s.11.06.18.08.17.02.29.02h1.8v-1.14h-.24v.9h-1.43c-.1,0-.17,0-.23,0-.06,0-.11-.02-.15-.04-.04-.02-.06-.05-.08-.08-.01-.04-.02-.09-.02-.15v-.37h-.24v.46c0,.08.01.15.03.2.02.05.05.1.1.13"/>
        <path class="cls-1" d="M23.83,10.71s.08.05.13.07c.05.01.11.02.17.02h1.22v-1.14h-.24v.9h-.94c-.09,0-.15-.02-.17-.05-.03-.03-.04-.09-.04-.18v-1.64h-.24v1.71c0,.08.01.15.03.2.02.05.05.09.09.13"/>
        <path class="cls-1" d="M25.88,10.71s.08.05.13.07c.05.01.11.02.17.02h.76c.11,0,.2-.01.28-.04s.13-.08.17-.16c.02.06.05.1.09.14.05.04.11.05.19.05h.24c.11,0,.2-.01.28-.04s.13-.08.17-.16c.02.06.05.1.09.14.05.04.11.05.19.05h.21c.12,0,.22-.01.3-.04.08-.02.13-.08.17-.16.02.06.05.1.09.14.05.04.11.05.19.05h.71v-2.12h-.24v1.87h-.46c-.09,0-.15-.03-.19-.09-.04-.06-.06-.14-.06-.24v-1.55h-.24v1.66s0,.09-.02.12c-.01.03-.03.05-.04.06-.02.01-.04.02-.07.03-.03,0-.06,0-.1,0h-.24c-.05,0-.09,0-.13-.02-.03-.02-.06-.04-.08-.07-.02-.03-.03-.06-.04-.1,0-.04-.01-.09-.01-.14v-.57h-.24v.68s0,.09-.02.12c-.01.03-.03.05-.05.06-.02.01-.05.02-.08.03-.03,0-.07,0-.12,0h-.2c-.05,0-.09,0-.13-.02-.03-.02-.06-.04-.08-.07-.02-.03-.03-.06-.04-.1,0-.04-.01-.09-.01-.14v-.57h-.24v.68s0,.09-.02.12c-.01.03-.03.05-.05.06-.02.01-.05.02-.08.03-.03,0-.07,0-.12,0h-.68c-.09,0-.15-.02-.17-.05-.03-.03-.04-.09-.04-.18v-1.64h-.24v1.71c0,.08.01.15.03.2.02.05.05.09.09.13"/>
        <path class="cls-1" d="M31.56,10.46c.06.04.12.06.18.08.06.01.12.02.16.02.05,0,.1,0,.16-.02.05,0,.1-.02.15-.04,0,.06.02.11.05.15.03.04.06.07.09.09.04.02.08.04.12.05.05,0,.1.01.15.01h1.25v-1.14h-.24v.9h-.97c-.09,0-.15-.02-.17-.06-.03-.03-.04-.09-.04-.18v-.85h-.47c-.07,0-.14.01-.22.03-.07.02-.14.05-.2.1-.06.05-.11.1-.15.18-.04.07-.06.16-.06.27s.02.19.06.26c.04.07.09.12.14.15M31.7,9.8c.07-.05.15-.07.24-.07h.26v.53s-.08.03-.13.04c-.05,0-.1.01-.14.01-.11,0-.2-.03-.25-.08-.05-.05-.08-.12-.08-.2,0-.1.03-.18.1-.23"/>
        <path class="cls-1" d="M35.16,10.71c.07-.06.1-.14.1-.23,0-.04,0-.09-.03-.14-.02-.05-.05-.1-.08-.17-.04-.07-.09-.14-.14-.24-.06-.09-.13-.21-.21-.34l-.23.14c.1.15.18.27.24.35.06.09.1.15.13.2.03.05.05.08.06.1,0,.02.01.04.01.06,0,.03,0,.05-.03.07-.02.02-.06.03-.13.03h-.69v.25h.71c.12,0,.22-.03.28-.09"/>
        <path class="cls-1" d="M41.43,10.55h-.47c-.05,0-.09,0-.13-.02-.03-.02-.06-.04-.08-.07-.02-.03-.03-.06-.04-.1,0-.04-.01-.09-.01-.14v-.57h-.24v.68s0,.09-.02.12c-.01.03-.03.05-.05.07-.02.01-.04.02-.07.03-.03,0-.06,0-.09,0-.06,0-.11,0-.14-.02-.04-.02-.06-.04-.09-.07-.02-.03-.03-.06-.04-.1,0-.04-.01-.09-.01-.14v-.42h-.24v.53s0,.09-.02.12c-.01.03-.03.05-.05.07-.02.01-.05.02-.08.03-.03,0-.07,0-.11,0-.07,0-.12,0-.16-.02-.04-.02-.07-.04-.09-.07-.02-.03-.04-.06-.04-.1,0-.04,0-.09,0-.14v-.42h-.24v.53s0,.09-.02.12c-.01.03-.03.05-.06.07-.03.01-.06.02-.11.03-.05,0-.1,0-.17,0h-.52c-.06,0-.11,0-.15-.01.1-.07.19-.16.25-.25.06-.09.09-.2.09-.31,0-.05-.01-.09-.03-.13-.02-.04-.05-.08-.1-.12-.04-.03-.1-.06-.16-.08-.06-.02-.14-.03-.23-.03-.1,0-.2.02-.29.06-.09.04-.17.09-.23.15-.01.01-.02.03-.03.05-.01.02-.02.04-.03.06-.01.02-.02.05-.03.07,0,.02-.02.05-.02.07l.37.42c-.07.02-.14.04-.21.05-.07.01-.15.01-.22.01h-.34v-.14c0-.12,0-.22-.03-.32-.02-.1-.05-.18-.1-.24-.04-.07-.1-.12-.17-.16-.07-.04-.16-.05-.26-.05-.09,0-.18.02-.25.05-.07.04-.13.08-.18.14-.05.06-.09.13-.12.2-.03.08-.04.16-.04.24,0,.1.01.18.04.24.03.07.07.12.12.16.05.04.11.07.18.09.07.02.14.03.22.03h.34c0,.08-.02.14-.05.19-.03.05-.08.09-.13.11-.06.03-.12.04-.2.05-.08,0-.16.01-.26.01h-.09v.25h.12c.12,0,.24-.01.34-.03.1-.02.19-.05.26-.1.07-.05.13-.11.17-.19.04-.08.07-.18.08-.3h.36c.11,0,.21-.01.31-.03.1-.02.2-.05.29-.09.06.05.11.08.16.1.05.01.11.02.16.02h.59c.09,0,.16,0,.22,0,.06,0,.11-.01.16-.03.04-.01.08-.03.1-.06s.05-.06.07-.1c.01.02.03.05.04.07.02.02.04.04.07.06.03.02.07.03.11.04.05.01.1.02.17.02.1,0,.19-.01.27-.04.07-.02.13-.08.16-.16,0,.02.02.04.04.07.02.02.04.04.07.06.03.02.07.03.11.05.04.01.1.02.16.02.02,0,.05,0,.09,0,.03,0,.07-.01.1-.03.04-.01.07-.03.1-.06.03-.02.06-.06.07-.1.02.06.05.1.09.14.05.04.11.05.19.05h.71v-2.12h-.24v1.87ZM36.42,10.55h-.32c-.11,0-.2-.02-.26-.07-.06-.05-.09-.12-.09-.22,0-.05,0-.09.02-.14.01-.05.03-.09.06-.12.03-.04.06-.07.1-.09.04-.02.09-.03.15-.03.12,0,.21.04.26.13.05.09.07.2.07.35v.2ZM37.67,10.4l-.36-.38c.04-.05.1-.09.17-.12.07-.03.14-.05.22-.05.1,0,.17.02.22.05.05.04.07.08.07.12,0,.07-.03.14-.09.21-.06.07-.14.12-.23.17"/>
        <path class="cls-1" d="M42.09,10.8h.24v-2.12h-.24v2.12Z"/>
        <path class="cls-1" d="M46.09,9.16h-.21c-.07,0-.12-.02-.15-.06-.03-.04-.05-.08-.05-.14,0-.04.01-.08.04-.12.03-.04.07-.06.14-.06.06,0,.11,0,.15.03v-.16s-.03,0-.06-.01c-.03,0-.07,0-.11,0s-.08,0-.12.02c-.04.01-.07.03-.1.06-.03.03-.05.06-.07.1-.02.04-.03.09-.03.14,0,.08.02.15.07.2h-.15v.16h.65"/>
        <path class="cls-1" d="M49.38,8.68h-.24v1.87h-.89c.06-.06.1-.12.15-.19.04-.07.06-.16.06-.27,0-.05,0-.1-.02-.15-.02-.06-.04-.11-.08-.15-.04-.05-.08-.09-.14-.12-.06-.03-.13-.05-.22-.05-.17,0-.31.07-.4.2-.1.13-.15.32-.15.56v.17h-.32c-.05,0-.09,0-.13-.02-.03-.02-.06-.04-.08-.06-.02-.03-.03-.06-.04-.1,0-.04-.01-.09-.01-.13v-.57h-.24v.68s0,.09-.02.12c-.01.03-.03.05-.05.07-.02.01-.05.02-.08.03-.03,0-.07,0-.12,0h-.2c-.05,0-.09,0-.13-.02-.03-.02-.06-.04-.08-.06-.02-.03-.03-.06-.04-.1,0-.04-.01-.09-.01-.13v-.57h-.24v.68s0,.09-.02.12c-.01.03-.03.05-.05.07-.02.01-.05.02-.08.03-.03,0-.07,0-.12,0h-.71c-.09,0-.15-.02-.17-.05-.03-.03-.04-.09-.04-.18v-.85h-.47c-.07,0-.14,0-.22.03-.07.02-.14.05-.2.1-.06.05-.11.1-.15.18-.04.07-.06.16-.06.27s.02.19.06.26c.04.07.09.12.14.15.06.04.12.06.18.08.06.01.12.02.16.02.05,0,.1,0,.16-.01.05-.01.1-.02.15-.04,0,.06.02.11.05.15.03.04.06.07.09.09.04.02.08.04.12.05.05,0,.1.01.15.01h.78c.11,0,.2-.01.28-.04.08-.02.13-.08.17-.16.02.05.05.1.1.14.05.04.11.05.19.05h.24c.11,0,.2-.01.28-.04.08-.02.13-.08.17-.16.02.05.05.1.09.14.05.04.11.05.19.05h.32v.03c0,.11,0,.2.03.29.02.09.05.16.09.22.04.06.1.11.17.14.07.03.16.05.26.05.08,0,.14-.01.2-.04.06-.02.11-.06.15-.09.04-.04.07-.09.09-.14.02-.05.03-.11.03-.17,0-.04,0-.08-.02-.13-.01-.05-.04-.1-.09-.15h0s1.04-.01,1.04-.01v-2.12ZM44.21,10.25s-.08.03-.13.04c-.05,0-.1.01-.14.01-.12,0-.2-.03-.25-.08-.05-.05-.08-.12-.08-.2,0-.1.03-.18.1-.23.07-.05.15-.07.24-.07h.26v.53ZM47.68,10.36c0-.16.03-.28.08-.37s.13-.13.22-.13c.06,0,.12.02.17.07.05.04.07.11.07.21,0,.04,0,.08-.02.13-.01.05-.04.09-.07.14-.03.04-.07.08-.13.11-.05.03-.12.04-.19.04h-.13v-.2ZM48.17,11.24s-.1.06-.19.06c-.06,0-.11-.01-.15-.03-.04-.02-.07-.05-.09-.09-.02-.04-.04-.09-.04-.14,0-.05-.01-.11-.01-.18v-.06h.22c.07,0,.13.01.17.03.04.02.08.04.1.07.02.03.04.06.04.09,0,.03,0,.06,0,.07,0,.07-.02.13-.06.17"/>
        <path class="cls-1" d="M49.79,10.8h.24v-2.12h-.24v2.12Z"/>
        <path class="cls-1" d="M22.8,14.38h1.51v-.25h-.43c-.13,0-.22-.03-.29-.1-.06-.06-.09-.15-.09-.25,0-.11.04-.19.11-.25.07-.06.17-.09.3-.09.06,0,.12,0,.16.01.04,0,.08.02.12.03v-.26s-.06-.02-.11-.03c-.05,0-.11-.01-.18-.01-.08,0-.15.01-.23.04-.08.02-.15.06-.21.11-.06.05-.11.11-.15.19-.04.08-.06.16-.06.27,0,.08.01.14.04.2.02.06.05.11.09.15h-.66c-.23,0-.46-.05-.72-.14v.24c.06.02.13.04.2.06.08.02.15.05.22.07.07.03.13.06.17.09.05.04.07.08.07.12,0,.04-.02.08-.06.11-.04.03-.09.06-.16.08-.07.02-.15.04-.24.05-.09.01-.19.02-.29.02-.27,0-.47-.04-.59-.12-.12-.08-.18-.21-.18-.39v-.41h-.24v.46c0,.1.01.19.04.28.03.09.08.16.16.22.08.06.18.11.31.15.13.04.29.05.49.05.18,0,.33-.01.46-.04.12-.03.22-.06.3-.11.08-.04.13-.1.17-.15.03-.06.05-.12.05-.17,0-.04,0-.08-.02-.12-.02-.04-.03-.08-.06-.1"/>
        <path class="cls-1" d="M30.85,13.2c-.14,0-.26.03-.38.08-.12.06-.22.13-.31.22-.09.09-.17.19-.24.3-.07.11-.12.22-.16.33-.05,0-.09,0-.11-.02-.03-.02-.05-.04-.06-.07-.01-.03-.02-.06-.03-.1,0-.04,0-.09,0-.13v-.42h-.24v.53s0,.09-.02.12c-.01.03-.03.05-.06.07-.03.01-.06.02-.11.03-.05,0-.1,0-.17,0h-.33v-.25c0-.21-.05-.38-.16-.5-.11-.12-.26-.18-.45-.18-.18,0-.34.04-.47.13-.14.09-.25.22-.35.38v-1.45h-.24v1.87h-.34c-.05,0-.09,0-.13-.02-.03-.02-.06-.04-.08-.07-.02-.03-.03-.06-.04-.1,0-.04-.01-.09-.01-.13v-.57h-.24v.68s0,.09-.02.12c-.01.03-.03.05-.05.07-.02.01-.05.02-.08.03-.03,0-.07,0-.12,0h-.68c-.09,0-.15-.02-.17-.05-.03-.03-.04-.09-.04-.18v-1.64h-.24v1.71c0,.08.01.15.03.2.02.05.05.09.09.13.04.03.08.05.13.07.05.01.11.02.17.02h.76c.11,0,.2-.01.28-.04.08-.02.13-.08.17-.16.02.06.05.1.09.14.05.04.11.05.19.05h2.34c.09,0,.16,0,.23,0,.06,0,.12-.01.16-.03.05-.01.08-.03.11-.06.03-.02.05-.06.07-.1.01.02.03.05.04.07.02.02.03.04.06.06.02.02.06.03.1.04.04.01.09.02.15.02h1.6v-.5c0-.22-.06-.39-.16-.5-.11-.12-.26-.18-.46-.18M28.38,14.14h-1.2c.03-.08.07-.16.12-.24.05-.08.11-.15.17-.22.07-.07.14-.12.22-.16.08-.04.17-.07.26-.07.08,0,.15.01.2.04.05.03.1.06.13.1.03.04.06.1.07.16.01.06.02.12.02.19v.2ZM31.23,14.14h-1.21c.03-.08.07-.16.12-.25.05-.08.11-.16.18-.22.07-.07.14-.12.23-.16.08-.04.17-.06.27-.06.08,0,.14.01.2.04.05.02.1.06.13.1.03.04.06.1.07.16.01.06.02.13.02.2"/>
        <path class="cls-1" d="M32.44,12.7v1.44h-.67v.25h1.69v-2.12h-.24v1.87h-.53v-1.44"/>
        <path class="cls-1" d="M33.87,14.38h.24v-2.12h-.24v2.12Z"/>
        <path class="cls-1" d="M35.62,14.09c-.05-.05-.07-.12-.07-.19,0-.03,0-.06.01-.09,0-.03.02-.05.04-.08.02-.02.05-.04.08-.06.03-.01.07-.02.11-.02.08,0,.15.01.21.04v-.23s-.04-.01-.09-.02c-.04,0-.09,0-.15,0s-.11,0-.16.03c-.05.02-.1.05-.14.08-.04.04-.07.08-.1.14-.02.06-.04.12-.04.2,0,.11.03.2.1.28h-.22v.21h.89v-.21h-.28c-.1,0-.17-.03-.22-.08"/>
        <path class="cls-1" d="M37.55,13s-.03.03-.04.06c-.01.02-.02.04-.03.07,0,.02-.02.05-.02.07.11.05.22.11.32.18.1.07.19.13.27.2.08.07.14.14.19.2.05.07.07.13.07.18,0,.07-.02.12-.07.15-.05.03-.11.04-.18.04h-1.2c-.09,0-.15-.02-.17-.05s-.04-.09-.04-.18v-1.64h-.24v1.71c0,.08.01.15.03.2.02.05.05.09.09.13.04.03.08.05.13.07.05.01.11.02.17.02h1.22c.1,0,.19-.01.25-.04.07-.03.12-.06.15-.1.04-.04.06-.09.07-.14.01-.05.02-.1.02-.14,0-.06-.01-.12-.04-.19-.03-.07-.07-.14-.13-.21-.06-.07-.14-.15-.24-.22-.1-.08-.21-.16-.35-.24l.87-.39v-.24l-1.09.48s-.02.02-.03.03"/>
        <path class="cls-1" d="M39.6,14.11s-.11.03-.19.03h-.53v.25h.45s.1,0,.14,0c.05,0,.09-.01.14-.03.04-.01.08-.04.12-.07.03-.03.06-.07.08-.13.06.09.11.15.17.18.06.03.12.05.2.05h.71v-2.12h-.24v1.87h-.46s-.05,0-.08-.02c-.02-.01-.05-.04-.08-.07-.03-.03-.06-.07-.08-.12-.03-.05-.06-.1-.1-.17l-.36-.59-.23.14.32.47s.05.08.07.12c.02.04.03.08.03.11,0,.04-.02.07-.07.09"/>
        <path class="cls-1" d="M41.29,14.38h.24v-2.12h-.24v2.12Z"/>
        <path class="cls-1" d="M42.95,14.64c.04-.09.06-.22.06-.36v-.28c0-.11,0-.22-.03-.31-.02-.09-.05-.18-.09-.24-.04-.07-.1-.12-.17-.16-.07-.04-.16-.06-.27-.06-.09,0-.18.02-.25.05-.07.04-.13.08-.18.14-.05.06-.09.13-.11.2-.03.08-.04.15-.04.23,0,.1.01.18.04.25.03.07.07.12.12.16.05.04.11.07.17.09.07.02.14.03.22.03.09,0,.16,0,.21-.03.06-.02.1-.04.14-.06v.06c0,.09-.02.16-.05.22-.03.05-.08.09-.13.12-.06.03-.12.05-.2.05-.08,0-.16.01-.26.01h-.09v.25h.13c.13,0,.25,0,.36-.03.11-.02.2-.06.27-.11.07-.05.13-.13.17-.22M42.76,14.05s-.07.05-.13.07c-.06.02-.12.03-.2.03-.1,0-.18-.02-.24-.07-.06-.05-.09-.13-.09-.24,0-.04,0-.08.02-.13.01-.04.03-.08.06-.12.03-.04.06-.07.1-.09.04-.02.09-.04.16-.04s.11.01.15.04c.04.02.08.06.1.1.03.04.04.09.06.15.01.06.02.12.02.19"/>
        <path class="cls-1" d="M46.8,11.09v.31l.25-.15v-.16h-.25Z"/>
        <path class="cls-1" d="M46.42,11.09v.31l.25-.15v-.16h-.25Z"/>
        <path class="cls-1" d="M44.09,8.87v.31l.25-.15v-.16h-.25Z"/>
        <path class="cls-1" d="M43.7,8.87v.31l.25-.15v-.16h-.25Z"/>
        <path class="cls-1" d="M32.08,8.87v.31l.25-.15v-.16h-.25Z"/>
        <path class="cls-1" d="M31.69,8.87v.31l.25-.15v-.16h-.25Z"/>
        <path class="cls-1" d="M33.7,11.09v.31l.25-.15v-.16h-.25Z"/>
        <path class="cls-1" d="M33.32,11.09v.31l.25-.15v-.16h-.25Z"/>
        <path class="cls-1" d="M27.36,11.09v.31l.25-.15v-.16h-.25Z"/>
        <path class="cls-1" d="M26.97,11.09v.31l.25-.15v-.16h-.25Z"/>
        <path class="cls-1" d="M28.09,11.09v.31l.25-.15v-.16h-.25Z"/>
        <path class="cls-1" d="M39.24,12.59v.31l.25-.15v-.16h-.25Z"/>
        <path class="cls-1" d="M26.11,12.59v.31l.25-.15v-.16h-.25Z"/>
        <path class="cls-1" d="M22.18,9.18v.31l.25-.15v-.16h-.25Z"/>
        <path class="cls-1" d="M21.8,9.18v.31l.25-.15v-.16h-.25Z"/>
        <path class="cls-1" d="M21.94,15.27v.31l.25-.15v-.16h-.25Z"/>
        <path class="cls-1" d="M21.55,15.27v.31l.25-.15v-.16h-.25Z"/>
        <path class="cls-1" d="M25.1,9v.31l.25-.15v-.16h-.25Z"/>
        <path class="cls-1" d="M30.64.23h-2.76v6.68h2.76c2.3,0,3.83-1.34,3.83-3.34s-1.53-3.34-3.83-3.34M30.64,5.4h-.8V1.74h.8c1.07,0,1.8.72,1.8,1.83s-.73,1.83-1.8,1.83"/>
        <path class="cls-1" d="M39.67.23h-2.95l-2.09,6.68h2.12l.38-1.31,1.86-1.07h-1.58l.78-2.59.79,2.59.65,2.38h2.12"/>
        <path class="cls-1" d="M50.3.23h-2.95l-2.09,6.68h2.12l.38-1.31,1.86-1.07h-1.58l.78-2.59.79,2.59.65,2.38h2.12"/>
        <path class="cls-1" d="M42.5,1.4v5.51h2.03V.23l-2.03,1.17Z"/>
        <path class="cls-1" d="M24.15,2.7c-.74-.08-1.3-.16-1.3-.64,0-.35.39-.62.96-.62.66,0,1.16.37,1.15.89l1.51-.87c-.41-.88-1.42-1.46-2.72-1.46-1.67,0-2.86.91-2.86,2.29,0,1.58,1.29,1.92,2.67,2.08.71.09,1.3.17,1.3.65,0,.4-.39.68-.98.68-.73,0-1.26-.42-1.27-.99h0s-1.75,0-1.75,0c0,.33.07.63.19.91.41.92,1.45,1.53,2.77,1.53,1.76,0,3.01-.97,3.01-2.39,0-1.58-1.33-1.92-2.67-2.06"/>
      </g>
      <g>
        <path class="cls-1" d="M9.09,12.67c-.16.11-.35.22-.53.12l-1.13-.65-1.05-.61c-.12-.07-.36-.16-.4-.33v-3.04c0-.11.09-.19.17-.24l.79-.45,1.2-.68.57-.33c.15.07.32.14.47.23l.99.58.68.37c.23.13.45.25.65.44v3.12c-.06.13-.24.21-.37.28l-.57.34-1.46.84Z"/>
        <path class="cls-1" d="M9.86,15.64l-.35.2-.43.23c-.05-.08-.11-.19-.11-.29v-1.84c0-.11.05-.25.1-.32.11.04.21.07.28.12l.58.34,1.03.59c.08.04.14.1.15.18,0,.12-.1.13-.19.19l-1.06.61Z"/>
        <path class="cls-1" d="M12.74,8.63l-.32-.18c-.36-.2-.38-.16-.59-.43l1.58-.9c.19-.11.32-.25.61-.27v2.35c-.08.08-.24.06-.33,0l-.6-.37-.34-.2Z"/>
        <path class="cls-1" d="M6.43,7.26l-.14.07s-.07-.1-.07-.13v-.43s-.02-.66-.02-.66v-.51c0-.13.02-.25,0-.37-.02-.14,0-.27.09-.36.3.12.54.28.8.43l1,.58c.12.07.27.14.25.31l-1.14.66-.39.23c-.12.07-.24.13-.39.2Z"/>
        <path class="cls-1" d="M12.41,11.65c-.41-.24-.54-.22-.48-.42.01-.06.09-.12.16-.16l.39-.23,1.35-.77s.09-.03.11-.04.07.09.07.14v2.17c0,.05-.04.17-.07.17s-.11-.03-.14-.04l-1.4-.81Z"/>
        <path class="cls-1" d="M9.11,5.72c-.18-.13-.12-.34-.11-.53l-.02-.57c-.01-.47-.03-.93.07-1.42l2.11,1.22c-.08.21-.3.28-.48.38l-1.57.91Z"/>
        <path class="cls-1" d="M13.23,6.92c-.23.14-.44.23-.72.4l-.63.37c-.05-.07-.11-.2-.11-.29v-1.95c0-.06.07-.21.13-.21.2.04.41.2.59.31l1.25.71c.08.04.22.21.13.27l-.63.39Z"/>
        <path class="cls-1" d="M5.33,11.49l-.73.41-.33.19-.38.22c-.15.09-.29.18-.46.12v-2.45c.53.27.93.51,1.38.76l.34.19c.11.07.29.17.38.23.1.13-.11.26-.2.31Z"/>
        <path class="cls-1" d="M5.65,8.02c-.16.16-.28.24-.45.33l-.56.32-.98.57s-.18.01-.21-.01-.02-.09-.02-.16v-2.24c.3.09.47.19.68.32l.96.56.31.17.27.15Z"/>
        <path class="cls-1" d="M11,14.41l-1.39-.8c-.19-.11-.35-.19-.54-.35.16-.16.28-.26.46-.36l1.36-.77c.08-.04.27-.18.34-.03v2.27s-.06.12-.08.11c-.03-.01-.09-.04-.15-.07Z"/>
        <path class="cls-1" d="M13.93,12.91l-1.98,1.16c-.08.05-.19-.07-.19-.16v-2.09c0-.06.11-.19.15-.17l.61.36.94.54c.18.1.35.15.47.36Z"/>
        <path class="cls-1" d="M6.83,14.19c-.18.11-.35.19-.56.29-.1-.24-.06-.48-.07-.74,0-.59.03-.82,0-1.43,0-.07-.01-.16,0-.21.02-.05.18-.07.23-.04l1.16.67c.28.16.52.3.79.53l-1.57.92Z"/>
        <path class="cls-1" d="M9.98,6.67l-.28-.16-.56-.34c-.06-.2.14-.25.27-.33l1.59-.92s.13-.03.17-.02c.04,0,.08.11.08.16v2.09s-.05.13-.09.19l-1.17-.67Z"/>
        <path class="cls-1" d="M13.17,10.16l-.24.13-.71.41-.36.21c-.03-.06-.1-.22-.1-.32v-2.02c0-.05.15-.14.19-.11l.18.11.99.58.38.22c.16.09.31.17.4.34l-.73.45Z"/>
        <path class="cls-1" d="M6.81,15.19c-.31-.18-.44-.2-.45-.35-.01-.12.1-.16.2-.21l.58-.34,1.23-.69s.08.14.08.19v1.77c0,.18.05.33-.11.5l-1.53-.87Z"/>
        <path class="cls-1" d="M6.74,4.79c-.18-.1-.31-.18-.44-.34.39-.29.36-.21.68-.41l.32-.2.3-.18.36-.21.31-.18s.07-.03.09-.03c.03,0,.08.08.08.12v2.18s-.06.14-.09.14-.08-.02-.12-.04l-1.51-.86Z"/>
        <path class="cls-1" d="M4.75,7.21l-1.01-.58c-.08-.05-.19-.1-.18-.19.01-.1.1-.15.18-.19.36-.19.71-.39,1.06-.6l.39-.23.3-.17s.15.06.17.1,0,.14,0,.21c-.02.31,0,.61,0,.91l-.02,1.07s-.04.14-.07.14-.1-.03-.13-.05l-.7-.42Z"/>
        <path class="cls-1" d="M5.59,14.12l-.53-.31-.33-.19-.72-.42c-.14-.08-.32-.18-.45-.29.08-.22.29-.27.46-.38l1.52-.88c.09.04.12.15.12.25v.62s.01.35.01.35c0,.24-.03.48,0,.72.03.19.02.31-.09.53Z"/>
        <path class="cls-1" d="M5.58,10.9l-2.05-1.18c.06-.2.24-.26.41-.36l1.13-.65.33-.2s.13-.05.17-.03.09.11.09.18v1.59c.04.21.06.41-.08.65Z"/>
        <path class="cls-1" d="M5.17,18.03l-.78-.46-.61-.37c.16-.16.31-.24.51-.36l.87-.51s.16-.03.2-.02.08.11.08.16v1.39c0,.05-.03.13-.05.15-.03.03-.18.04-.22.02Z"/>
        <path class="cls-1" d="M13.76,1.55c-.3.16-.56.3-.82.46-.18.11-.31.23-.56.21V.66c-.01-.06.02-.18.07-.21.06-.03.17.03.24.07l1.27.74c.08.1-.11.24-.2.29Z"/>
        <path class="cls-1" d="M1.57,5.87l-1.2-.71s-.11-.09-.11-.13.07-.11.1-.13l1.13-.65c.06-.04.14-.08.18-.1.05-.02.2.08.2.14v1.52c0,.09-.23.1-.3.06Z"/>
        <path class="cls-1" d="M16.5,6.56l-.57-.32c-.09-.05-.17-.11-.18-.19-.01-.14.12-.15.22-.2l.55-.32.59-.35s.21.02.21.08v1.67c-.17.04-.28-.03-.41-.11s-.27-.17-.42-.25Z"/>
        <path class="cls-1" d="M2.56,12.2l-1.27-.72c-.07-.04-.13-.07-.17-.11s-.03-.19.01-.22l1.31-.76s.11-.02.13-.02c.03,0,.08.08.08.13v1.4c0,.09-.04.21-.09.29Z"/>
        <path class="cls-1" d="M1.2,6.78l-.89.51c-.05.03-.26.05-.26-.02v-1.56s.03-.17.07-.17.12.03.17.06l.53.3.41.23c.17.1.34.23.44.38l-.47.27Z"/>
        <path class="cls-1" d="M17.01,13.74l-.81-.49c-.18-.11-.38-.2-.55-.35.03-.16.18-.21.31-.29l1.05-.59s.12-.03.15,0c.03.02.09.12.09.17v1.41s-.04.12-.06.15c-.02.03-.13.03-.17,0Z"/>
        <path class="cls-1" d="M17.17,10.35l-.89-.53c-.14-.08-.3-.12-.36-.31l1.23-.71c.11-.06.28-.22.4-.06v1.63c-.1.08-.26.05-.38-.02Z"/>
        <path class="cls-1" d="M7.45,16.81l-.73.42s-.12.03-.15,0c-.04-.02-.09-.11-.09-.16v-1.43c0-.06.11-.21.16-.18l.43.26.77.42c.1.06.21.17.2.3l-.6.35Z"/>
        <path class="cls-1" d="M2.45,8.88l-1.46-.87.47-.32.38-.22c.25-.15.46-.28.73-.39.04.09.08.19.08.24v1.44c0,.07-.14.15-.21.11Z"/>
        <path class="cls-1" d="M16.12,11.5l-.73.42c-.18.11-.32.19-.57.27v-1.78c.08-.06.2-.01.3.05l1.22.7c.1.14-.11.28-.22.34Z"/>
        <path class="cls-1" d="M9.76,18.69c-.13.08-.27.21-.43.12-.14-.09-.09-.28-.07-.43.03-.37.02-.71,0-1.09,0-.07.08-.19.14-.2.07,0,.15.06.22.1l1.26.74c-.09.18-.24.26-.4.36l-.71.41Z"/>
        <path class="cls-1" d="M7.62,18.65l-.78-.44c-.11-.06-.21-.14-.23-.29l1.14-.7c.1-.06.33-.23.42-.04v1.69c-.24.03-.38-.12-.56-.23Z"/>
        <path class="cls-1" d="M9.61,1.76l-.14.11s-.17-.03-.18-.07c-.01-.08-.03-.25-.03-.33v-.37s.02-.78.02-.78c0-.07.03-.18.08-.2s.16.01.21.04l.61.35.66.39c.03.11-.1.24-.2.29l-1.03.57Z"/>
        <path class="cls-1" d="M7.42,3.57l-.34.2c-.11.06-.24.14-.35.22-.05.04-.22-.03-.23-.1v-1.36c-.01-.1.06-.31.19-.28l1.02.59c.16.09.31.17.4.33l-.4.24-.3.17Z"/>
        <path class="cls-1" d="M15.99,8.36l-.59.35c-.19.11-.33.21-.59.22v-1.76c.16-.02.24.03.36.1l1.21.71c-.03.24-.22.28-.39.38Z"/>
        <path class="cls-1" d="M16.22,4.49l-1,.58c-.05-.07-.11-.18-.11-.27v-1.41s.06-.12.08-.13c.04,0,.1.01.15.04l1.32.78c0,.24-.11.22-.46.42Z"/>
        <path class="cls-1" d="M7.65,1.65l-.8-.45c-.11-.06-.27-.18-.21-.32l1.15-.67c.13-.08.23-.15.4-.1v1.75c-.26,0-.36-.11-.54-.21Z"/>
        <path class="cls-1" d="M16.59,15.24l-1.11.65s-.18-.05-.19-.1,0-.15,0-.23l.02-1.38c.03-.14.25-.01.33.04l1.21.7c.05.17-.11.24-.25.32Z"/>
        <path class="cls-1" d="M10.95,16.26c-.03.56.12.74-.11.84-.07.03-.18-.03-.27-.08l-1.23-.74c.19-.26.51-.36.83-.56l.51-.32s.13-.03.17-.01c.1.05.13.43.12.52l-.02.36Z"/>
        <path class="cls-1" d="M10.67,3.41c-.43-.29-.88-.47-1.35-.82.19-.17.34-.25.53-.35.31-.17.59-.34.9-.54.06-.04.22.1.21.19l-.03.6.04.71c0,.06-.04.18-.07.22-.05.04-.18.03-.24,0Z"/>
        <path class="cls-1" d="M13.83,17.31c-.4.21-.79.44-1.14.65-.03.02-.1.02-.12,0-.03-.03-.06-.12-.06-.17v-1.45c0-.06.1-.19.14-.16l.8.47c.18.11.43.21.57.33.15.13-.09.27-.19.32Z"/>
        <path class="cls-1" d="M1.29,13.31l-.63.38-.34.2s-.15-.08-.15-.15v-1.61c.01-.07.2-.02.25.02l.65.38c.12.07.89.4.6.56l-.39.22Z"/>
        <path class="cls-1" d="M1.59,9.7c-.15.22-.29.26-.47.37l-.46.26-.39.23s-.12.06-.16.07c-.05.01-.11-.12-.11-.18v-1.46s.02-.1.04-.12c.02-.02.13-.02.16,0l.82.48c.2.11.35.2.57.35Z"/>
        <path class="cls-1" d="M13.43,5.37l-.66-.4-.38-.22-.16-.09s-.03-.18,0-.23l1.24-.7c.06-.03.1-.08.13-.08.04,0,.12.11.12.16v1.48s-.04.15-.08.16c-.05.02-.13-.03-.2-.07Z"/>
        <path class="cls-1" d="M3.58,2.73c-.18-.09-.29-.14-.39-.33.5-.32.72-.41,1.24-.75.09-.06.28-.12.35-.02,0,.53.03,1.07-.02,1.57-.02.2-.29.04-.39-.02-.21-.14-.54-.33-.79-.46Z"/>
        <path class="cls-1" d="M13.6,15.7l-1.02-.61c-.17-.1-.32-.19-.48-.34l1.04-.63.3-.17s.11-.06.14-.06c.04,0,.12.1.12.15v1.44c0,.05-.06.16-.11.22Z"/>
        <path class="cls-1" d="M5.23,14.89l-1.34.78s-.14-.09-.14-.16v-1.5s.06-.12.08-.12.09,0,.12.03l1.26.74s.08.08.09.11-.04.11-.08.13Z"/>
        <path class="cls-1" d="M3.87,5.45s-.13-.11-.13-.17v-1.48s.08-.15.12-.15l1.24.71c.11.06.18.08.17.21,0,.1-.1.12-.2.18l-1.2.7Z"/>
        <path class="cls-1" d="M2.08,16.24l-1.11-.65c-.09-.05-.2-.06-.2-.18,0-.11.08-.14.19-.2l1.17-.68s.12-.01.14,0,.04.09.04.12v1.49s-.06.13-.09.14-.07-.02-.13-.05Z"/>
      </g>
    </g>
  </g>
</svg>