<?xml version="1.0" encoding="UTF-8"?>
<svg id="Layer_2" data-name="Layer 2" xmlns="http://www.w3.org/2000/svg" viewBox="0 0 54.52 17.65">
  <defs>
    <style>
      .cls-1 {
        fill: #fbf5e9;
      }
    </style>
  </defs>
  <g id="Layer_1-2" data-name="Layer 1">
    <g>
      <g>
        <path class="cls-1" d="M11.98,4.56l-.71.39c.07.05.14.09.21.11l.5-.5Z"/>
        <path class="cls-1" d="M10.42,3.96c.07.11.14.23.21.34.02.02.02.05.05.07l1.12-.6c-.11-.02-.25-.02-.37-.02-.34-.02-.69.05-1.01.21"/>
        <path class="cls-1" d="M13.15,3.39l.6-.6c.07-.07.14-.18.14-.27l-1.19.64c.16.09.32.16.46.23"/>
        <path class="cls-1" d="M12.53,4.01c-.16-.09-.32-.14-.5-.18l-1.26.69c.11.11.23.23.37.34l1.24-.69.16-.16Z"/>
        <path class="cls-1" d="M7.12,1.06c.34,0,.69-.07,1.01-.21-.05-.11-.11-.21-.18-.32l-.94.53h.11Z"/>
        <path class="cls-1" d="M9.16,1.88l1.53-.82c-.14-.09-.28-.16-.41-.21-.05-.02-.09-.02-.11-.05l-1.4.73c.11.14.25.25.39.34"/>
        <path class="cls-1" d="M9.39.69c-.34,0-.71.07-1.05.23.07.14.14.28.23.39.02.05.05.07.09.11l1.28-.66c-.18-.05-.37-.07-.55-.07"/>
        <path class="cls-1" d="M3.8,1.95l1.01-.66c-.07,0-.16-.02-.23-.02-.32.16-.62.34-.89.55l.02.02s.07.07.09.11"/>
        <path class="cls-1" d="M11.22,1.51c-.11-.14-.25-.25-.39-.37l-1.51.82c.18.11.37.18.55.25l1.35-.71Z"/>
        <path class="cls-1" d="M6.37.57c-.16.05-.32.09-.48.14.05.02.07.05.11.07l.37-.21Z"/>
        <path class="cls-1" d="M8.27.76c.18-.09.37-.14.55-.18.18-.05.37-.07.57-.07.82,0,1.63.39,2.13,1.1.09.14.23.39.23.41.34-.16.71-.23,1.08-.23.23,0,.46.02.66.09-1.4-1.01-3.12-1.58-4.95-1.58-.18,0-.37,0-.55.02.02.02.05.05.07.09.07.09.14.21.21.34"/>
        <path class="cls-1" d="M6.71,1.01l1.12-.62s-.05-.05-.07-.07c-.3.02-.57.07-.85.11l-.78.41c.21.09.39.14.57.16"/>
        <path class="cls-1" d="M11.84,2.18c.07.11.14.23.21.34.02.02.05.05.05.07l1.12-.62c-.14-.02-.25-.02-.39-.02-.32,0-.66.07-.98.23"/>
        <path class="cls-1" d="M11.61,2.09c-.07-.14-.14-.27-.23-.39-.02-.02-.02-.05-.05-.07l-1.24.64c.16.02.3.05.46.05.34.02.71-.07,1.05-.23"/>
        <path class="cls-1" d="M12.21,2.73c.11.11.23.23.37.34l1.33-.73s-.02-.11-.07-.16c-.11-.05-.25-.09-.37-.14l-1.26.69Z"/>
        <path class="cls-1" d="M13.79,2.09s.05.05.05.07c-.02-.02-.05-.05-.05-.07"/>
        <path class="cls-1" d="M13.7,2.02s.05.05.07.07c-.02-.02-.05-.05-.07-.07"/>
        <path class="cls-1" d="M4.01,2.38c.18-.02.37-.05.55-.07.16-.02.32-.02.48-.02.14,0,.25,0,.39.02.09,0,.16,0,.25.02.32.02.66.09.98.16.14.05.3.07.44.14.23.07.46.16.69.27.07.02.11.05.18.09.16.07.32.16.46.25l.02.02s.09.07.16.09c.16.11.32.21.46.32.05.05.09.07.14.11.11.09.23.18.32.27.05.05.09.09.16.14.32.32.62.69.87,1.08h-4.01c-.21,0-.39-.07-.53-.21l-2.47-2.47s-.05-.07-.07-.09c.16-.07.34-.09.53-.14M5.82,5.27c.18.18.44.3.71.3h4.03c.14,0,.25-.02.37-.07.11-.05.23-.11.34-.23l.09-.09c-.18-.09-.34-.21-.48-.34-.14-.14-.27-.27-.39-.44-.07-.09-.11-.16-.16-.25-.02-.05-.05-.07-.07-.11-.11.05-.21.09-.32.11l-.14-.14c.14-.05.25-.09.39-.14-.07-.14-.14-.28-.23-.39-.02-.02-.05-.05-.05-.07l-.48.25s-.09-.07-.14-.11l.5-.27c-.11-.14-.27-.28-.41-.37l-.55.3s-.09-.07-.14-.09l.55-.3c-.16-.09-.34-.18-.53-.23l-.5.25s-.11-.07-.18-.09l.46-.23c-.18-.05-.34-.07-.53-.07-.16,0-.32.02-.48.05-.09-.05-.18-.07-.3-.11.07-.02.14-.05.21-.05.18-.05.37-.07.57-.07.82,0,1.63.39,2.13,1.1.09.14.23.39.23.41.34-.16.71-.23,1.08-.23.44,0,.85.11,1.24.32l.37-.37c-.44-.18-.85-.48-1.12-.89-.09-.11-.16-.23-.23-.37-.02.02-.05.02-.09.05-.16.07-.34.11-.5.16-.18.05-.34.05-.53.05-.73,0-1.47-.32-1.95-.87l-.02-.02c-.05-.07-.11-.14-.16-.21-.09-.14-.18-.27-.23-.41,0,0-.69.23-1.08.23h-.11c-.48-.02-.94-.16-1.35-.44-.27.09-.53.21-.78.32.5.07.98.3,1.37.64.14.14.27.27.39.44.02.02.05.05.05.09-.09-.02-.16-.05-.25-.07-.07-.09-.14-.16-.21-.23l-.23.16c-.07,0-.16-.02-.23-.02l.34-.25c-.11-.11-.25-.21-.41-.27l-.73.48h-.3l.87-.57c-.16-.07-.32-.14-.5-.16l-1.12.76.07.07c-.07,0-.14.02-.21.05-.07-.09-.14-.16-.21-.25l-.02-.02s-.11.07-.16.11c-.09.07-.16.18-.18.3-.05.16,0,.34.14.48l2.5,2.45Z"/>
        <path class="cls-1" d="M10.65,17.11c.37-.09.71-.21,1.03-.34l-1.19-.27.16.62Z"/>
        <polygon class="cls-1" points="4.26 15.01 4.08 14.13 3.41 14.8 4.26 15.01"/>
        <polygon class="cls-1" points="5.89 13.4 5.68 12.53 4.99 13.2 5.89 13.4"/>
        <path class="cls-1" d="M13.56,15.05s.05.07.07.09c-.07.02-.14.05-.23.05-.39.09-.78.14-1.19.14h-.23c-.34,0-.66-.02-1.01-.09-.6-.09-1.19-.27-1.74-.55-.18-.09-.37-.18-.55-.3-.5-.3-.94-.66-1.35-1.08-.11-.11-.23-.23-.32-.37-.16-.18-.3-.39-.44-.6h3.99c.21,0,.39.07.53.21l.78.78.32.32,1.31,1.31.07.09ZM13.9,15.19s0-.05-.02-.07v-.05c-.02-.07-.07-.14-.11-.21l-1.15-1.15-.32-.32-1.01-1.01c-.18-.18-.44-.3-.71-.3h-4.05c-.14,0-.25.02-.37.07-.11.05-.23.11-.34.23.02-.02.05-.05.07-.07l.32,1.4-1.4-.32-.73.73.21-.21.32,1.4-1.35-.32c-.09.21-.05.48.16.62.3.23.62.44.94.62l1.51.37-.46-2.08,2.08.5-.34-1.56c.09.11.21.21.32.32l.34,1.56-2.08-.5.46,2.08-.85-.21c.6.25,1.24.41,1.9.53l-.25-1.12,2.08.5-.44-1.97c.14.09.3.16.46.25l-.16-.05.46,2.08-2.08-.5.18.82c.34.05.71.07,1.05.07.64,0,1.26-.07,1.88-.21l-.23-.98,1.88.44c.07-.02.11-.05.18-.09l-.21-.92h.25l.18.82c.44-.23.85-.48,1.24-.78.09-.07.16-.18.18-.3v-.14"/>
        <path class="cls-1" d="M16.29,7.22c0,.46-.05.89-.11,1.35.05-.02.09-.07.14-.09.21-.16.44-.37.64-.6.02-.05.07-.07.09-.11-.05-.39-.11-.78-.23-1.15-.07.09-.11.18-.18.25-.16.18-.27.3-.34.34"/>
        <path class="cls-1" d="M16.45,6.74c.09-.11.18-.25.27-.41-.16-.55-.39-1.08-.64-1.56.14.71.23,1.42.23,2.15.02-.05.09-.11.14-.18"/>
        <path class="cls-1" d="M13.95,13.4l-.18-.18.82.82c.23.23.57.21.78-.05.27-.34.5-.71.71-1.1-.39.16-.76.28-1.1.37-.46.07-.85.11-1.03.14"/>
        <path class="cls-1" d="M14.87,3.74c.05.18.07.34.11.53.05.23.07.46.07.69v.37c0,.37-.02.71-.09,1.08-.02.09-.02.18-.05.25-.09.46-.25.92-.44,1.35-.05.09-.07.16-.11.25-.07.16-.16.3-.25.44-.14.23-.3.46-.46.66-.05.07-.11.14-.16.21-.27.32-.6.64-.94.89-.07.05-.11.09-.18.14-.09.07-.21.14-.3.21v-4.01c0-.21.07-.39.21-.53l2.47-2.47s.07-.02.11-.05M13.79,13.17h0c.18-.18.34-.37.5-.57-.21-.14-.46-.32-.76-.57-.32-.27-.66-.62-.89-.96-.07-.09-.11-.18-.16-.25.07-.05.11-.09.18-.14.05.09.09.18.16.27.16.21.34.44.55.62.37.37.78.66,1.05.85.25-.34.48-.73.69-1.12-.09-.05-.23-.16-.41-.3-.27-.23-.6-.53-.87-.87-.07-.11-.14-.21-.21-.32.05-.07.11-.11.16-.18.07.11.14.23.21.34.16.21.34.41.53.6.27.25.55.46.69.55.21-.46.39-.94.53-1.44-.11-.07-.32-.23-.55-.46-.21-.21-.44-.44-.64-.71.05-.07.07-.16.11-.23.18.3.44.55.64.76.21.18.39.32.5.41.11-.44.18-.87.23-1.33-.07-.07-.27-.25-.5-.5-.14-.16-.3-.37-.41-.6.02-.11.05-.23.09-.34.11.28.3.55.48.76.14.16.3.32.39.41.02-.3.05-.62.05-.92v-.41s-.23-.25-.5-.64c-.09-.11-.16-.25-.25-.41v-.48c.14.27.27.53.41.73.14.18.25.34.34.46,0-.21-.02-.39-.05-.6-.05-.41-.11-.82-.21-1.24-.14-.23-.3-.48-.48-.69-.07-.09-.18-.16-.3-.18h-.25s-.05.02-.07.02-.05.02-.07.05c0,0-.02,0-.02.02-.02.02-.05.05-.07.07l-2.47,2.47c-.18.18-.3.44-.3.71v4.03c0,.14.02.25.07.37.05.11.11.23.23.34l1.67,1.67s-.02-.02-.02-.05"/>
        <path class="cls-1" d="M16.65,8.45c-.23.18-.44.34-.53.41-.09.5-.23,1.01-.39,1.51.11-.07.25-.16.39-.27.3-.23.66-.53.94-.87v-.41c0-.25-.02-.5-.02-.76-.11.16-.25.27-.39.39"/>
        <path class="cls-1" d="M15.6,10.7c-.18.44-.39.85-.62,1.24.16-.05.39-.14.62-.25.39-.18.87-.44,1.21-.78.11-.44.18-.89.23-1.35-.25.27-.55.5-.78.69-.3.25-.55.41-.66.46"/>
        <path class="cls-1" d="M14.8,12.23c-.23.32-.48.64-.76.94h.09c.21-.02.48-.07.8-.14.39-.09.87-.25,1.31-.48.18-.39.34-.8.48-1.24-.32.25-.69.46-1.03.6-.44.18-.82.3-.89.32"/>
        <path class="cls-1" d="M1.24,5.32s-.05.07-.05.11.02.07.05.11c.02.02.07.05.11.05s.07-.02.11-.05c.02-.02.05-.07.05-.11s-.02-.07-.05-.11c-.02-.02-.07-.05-.11-.05s-.09.02-.11.05"/>
        <path class="cls-1" d="M2.22,13.91c-.11-.5-.18-1.01-.18-1.53v-.32c.02-.76.21-1.51.48-2.2.09-.21.18-.41.3-.62.05-.09.09-.18.16-.27.21-.34.46-.66.73-.99.07-.07.14-.16.21-.23.34-.34.71-.64,1.1-.92v3.99c0,.21-.07.39-.21.53l-2.47,2.47c-.05.07-.07.09-.11.09M5.29,10.84v-4.01c0-.07,0-.11-.02-.18-.02-.07-.02-.14-.05-.18-.05-.11-.11-.23-.23-.34l-.98-.98-.41.41h-1.9s-.05.11-.09.16c-.07.07-.16.11-.25.11s-.18-.05-.25-.11c-.07-.07-.11-.16-.11-.25s.05-.18.11-.25c.07-.07.16-.11.25-.11s.18.05.25.11c.05.05.07.11.09.16h1.83l.34-.34-1.01-1.01-.27.27s.05.11.05.16c0,.09-.05.18-.11.25-.07.07-.16.11-.25.11s-.18-.05-.25-.11c-.07-.07-.11-.16-.11-.25s.05-.18.11-.25c.07-.07.16-.11.25-.11.05,0,.11.02.16.05l.27-.27-.18-.18c-.23-.23-.57-.21-.78.05-.66.87-1.15,1.86-1.44,2.93h1.79s.05-.09.09-.14c.07-.07.16-.11.25-.11s.18.05.25.11c.07.07.11.16.11.25s-.05.18-.11.25c-.07.07-.16.11-.25.11s-.18-.05-.25-.11c-.05-.05-.07-.09-.09-.14H.23c-.07.3-.14.62-.16.92h3.48c-.07.07-.14.16-.21.23H.05c-.02.27-.05.55-.05.85,0,.39.02.78.07,1.15l.94-.94s-.05-.11-.05-.18c0-.09.05-.18.11-.25.07-.07.16-.11.25-.11s.18.05.25.11c.07.07.11.16.11.25s-.05.18-.11.25c-.07.07-.16.11-.25.11-.07,0-.11-.02-.18-.05L.09,10.26c.07.46.18.92.34,1.35l1.81-1.81c-.07.16-.14.34-.18.5l-1.53,1.53c.16.41.34.8.55,1.17l.69-.69v.32l-.57.57c.16.27.34.53.53.78.07.09.18.16.3.18h.25s.05-.02.07-.02.05-.02.07-.05c0,0,.02,0,.02-.02l.07-.07,2.47-2.47c.21-.18.32-.44.32-.71"/>
        <path class="cls-1" d="M10.49,10.17s.05,0,0-.02c-.64-.39-1.4,0-1.95.39-.55-.37-1.31-.76-1.95-.39-.05.02-.02.02,0,.02h.14c.34,0,.98.25,1.47.6-.27.21-.55.41-.87.57h.53c.09,0,.18-.02.25-.07.14-.09.27-.18.41-.27.14.09.28.21.41.27.07.05.16.07.25.07h.53c-.3-.16-.57-.37-.87-.57.48-.32,1.15-.6,1.47-.6h.18Z"/>
        <path class="cls-1" d="M7.72,8.16c-.25.25-.44.55-.5.87l.69-.55c-.09.32-.07.64.02.94l.37-.92c.02.76.09,1.15.25,1.65.16-.5.23-.89.25-1.65l.37.92c.09-.3.11-.62.02-.94l.69.55c-.09-.32-.25-.62-.5-.87l.92.21c-.23-.23-.53-.44-.87-.55l.85-.16c-.32-.11-.66-.16-1.03-.14l.71-.5c-.34.02-.66.11-.96.25l.44-.69c-.25.11-.5.27-.69.46-.05-.25-.09-.5-.18-.76-.09.25-.16.5-.18.76-.21-.21-.44-.37-.69-.46l.44.69c-.3-.16-.62-.23-.96-.25l.71.5c-.37-.02-.71.02-1.03.14l.85.16c-.34.11-.64.32-.87.55l.92-.21Z"/>
      </g>
      <g>
        <polygon class="cls-1" points="21.82 3.26 24.58 .28 26.44 .28 23.21 3.74 26.58 7.27 24.7 7.27 21.82 4.25 21.82 7.27 20.36 7.27 20.36 .28 21.82 .28 21.82 3.26"/>
        <path class="cls-1" d="M29.82,4.78h2.29l-1.15-2.04-1.14,2.04ZM28.42,7.27h-1.6L30.98,0l4.16,7.27h-1.62l-.75-1.34h-3.59l-.76,1.34Z"/>
        <path class="cls-1" d="M37.75,1.8c-.34.21-.61.49-.81.84-.2.35-.3.73-.3,1.14s.1.78.3,1.14c.2.35.47.63.81.84.34.21.71.31,1.12.31.71,0,1.37-.24,1.99-.73v1.58c-.52.34-1.18.52-1.99.52-.67,0-1.3-.16-1.87-.49-.57-.33-1.02-.77-1.35-1.33-.34-.56-.5-1.16-.5-1.83s.16-1.27.5-1.83c.34-.56.78-1,1.35-1.33.57-.33,1.19-.49,1.87-.49.77,0,1.45.19,2.02.57l-.03,1.53c-.63-.49-1.3-.73-2-.73-.4-.02-.78.09-1.12.3"/>
        <path class="cls-1" d="M43.86,1.63c-.2.15-.29.34-.29.59,0,.17.06.31.19.41.13.1.29.18.49.24.2.06.47.12.83.18.54.1.99.22,1.34.34.35.12.65.33.9.62.26.29.38.7.38,1.21,0,.71-.27,1.27-.8,1.64-.53.37-1.25.56-2.14.56-.64,0-1.21-.09-1.72-.29s-.9-.43-1.18-.7l.64-1.17c.29.25.65.46,1.04.62.4.16.81.24,1.24.24.48,0,.83-.08,1.06-.24.22-.15.34-.37.34-.64,0-.17-.06-.31-.19-.41-.13-.1-.29-.18-.48-.24-.19-.06-.46-.12-.83-.19-.53-.1-.98-.22-1.33-.34-.34-.12-.65-.33-.9-.62-.25-.28-.38-.68-.38-1.19,0-.44.11-.82.34-1.14.22-.33.54-.57.95-.74.4-.17.88-.26,1.41-.26.58,0,1.09.1,1.54.31.46.21.84.46,1.14.73l-.62,1.11c-.7-.58-1.39-.87-2.07-.87-.39.03-.69.1-.89.25"/>
        <polygon class="cls-1" points="52.26 7.27 50.8 7.27 50.8 1.58 48.55 1.58 48.55 .28 54.52 .28 54.52 1.58 52.26 1.58 52.26 7.27"/>
        <path class="cls-1" d="M20.75,13.07c.09-.03.18-.08.25-.14.07-.05.12-.12.16-.21.04-.08.07-.17.09-.28h3.01v-1.39h-.45v1.02h-2.54v-1.02h-.45v1.17c0,.08,0,.15-.02.21,0,.06-.03.11-.07.15-.03.04-.09.08-.15.11-.06.03-.15.05-.24.08l.06.38c.12-.02.23-.04.33-.08"/>
        <path class="cls-1" d="M20.9,10.56s.04.03.07.04c.03,0,.05.02.09.02s.06,0,.09-.02c.03,0,.05-.03.07-.04.02-.02.03-.04.05-.07,0-.03.02-.05.02-.09s0-.06-.02-.09c0-.03-.03-.05-.05-.07-.02-.02-.04-.03-.07-.04-.03,0-.05-.02-.09-.02s-.06,0-.09.02c-.03,0-.05.03-.07.04-.02.02-.03.04-.05.07,0,.03-.02.05-.02.09s0,.06.02.09c0,.03.03.05.05.07"/>
        <path class="cls-1" d="M23.81,12.73s-.05-.02-.09-.02-.06,0-.09.02c-.03,0-.05.03-.07.04-.02.02-.03.04-.05.07,0,.03-.02.05-.02.09s0,.06.02.09c0,.03.03.05.05.07.02.02.04.03.07.04s.05.02.09.02.06,0,.09-.02c.03,0,.05-.03.07-.04.02-.02.03-.04.05-.07,0-.03.02-.05.02-.09s0-.06-.02-.09c0-.03-.03-.05-.05-.07-.02-.02-.04-.03-.07-.04"/>
        <path class="cls-1" d="M24.15,12.73s-.05.03-.07.04c-.02.02-.03.04-.05.07,0,.03-.02.05-.02.09s0,.06.02.09c0,.03.03.05.05.07.02.02.04.03.07.04.03,0,.05.02.09.02s.06,0,.09-.02.05-.03.07-.04.03-.04.05-.07c0-.03.02-.05.02-.09s0-.06-.02-.09c0-.03-.03-.05-.05-.07-.02-.02-.04-.03-.07-.04-.03,0-.05-.02-.09-.02s-.06,0-.09.02"/>
        <path class="cls-1" d="M26.42,11.5s-.06-.08-.08-.11c.03-.02.07-.03.1-.04.03,0,.08-.03.11-.03.03,0,.08-.02.11-.02.03,0,.07,0,.09,0,.04,0,.09,0,.13.02.03,0,.07.03.09.03.03.02.05.03.06.06.02.03.03.04.03.07,0,.02,0,.04-.02.08,0,.03-.03.06-.05.09s-.05.08-.09.11-.09.08-.15.12c-.03-.03-.08-.06-.12-.1-.04-.04-.09-.09-.12-.14-.03-.04-.07-.09-.1-.13M24.89,13.07c.09-.03.18-.08.25-.14.07-.05.12-.12.16-.21.04-.08.07-.17.09-.28h.59c.08,0,.15,0,.22-.02.07,0,.14-.03.21-.04.06-.02.13-.03.18-.06.06-.03.11-.04.15-.07.03.02.08.03.13.06.05.03.11.04.17.06.07.02.14.03.22.04.08,0,.16.02.25.02h1.11v-2.44h-.45v2.07h-.59s-.09,0-.14,0c-.04,0-.09,0-.13,0-.04,0-.08,0-.12-.02-.03,0-.07-.02-.09-.03.08-.08.15-.15.2-.22.05-.07.09-.14.12-.19.03-.06.05-.11.06-.15,0-.04.02-.09.02-.12,0-.07-.02-.12-.06-.16-.03-.04-.09-.09-.15-.11-.06-.03-.12-.05-.2-.06-.07-.02-.15-.02-.22-.02-.09,0-.17,0-.25.02-.08,0-.16.03-.22.04-.07.02-.13.04-.18.06-.05.03-.1.04-.14.06-.02,0-.03.03-.05.05-.02.03-.03.05-.04.09-.02.03-.03.06-.03.09,0,.03-.02.06-.03.09,0,0,.03.03.04.05.02.03.04.06.08.1.02.03.04.06.07.09.03.03.06.07.09.1.03.03.06.07.09.11.03.03.07.07.1.09-.04.02-.09.03-.17.04-.08,0-.16.02-.25.02h-.59v-1.02h-.45v1.17c0,.08,0,.15-.02.21,0,.06-.03.11-.07.15-.03.04-.09.08-.15.11-.06.03-.15.05-.24.08l.06.38c.13-.02.24-.04.34-.08"/>
        <path class="cls-1" d="M25.02,10.56s.04.03.07.04c.03,0,.05.02.09.02s.06,0,.09-.02c.03,0,.05-.03.07-.04.02-.02.03-.04.05-.07,0-.03.02-.05.02-.09s0-.06-.02-.09c0-.03-.03-.05-.05-.07-.02-.02-.04-.03-.07-.04-.03,0-.05-.02-.09-.02s-.06,0-.09.02c-.03,0-.05.03-.07.04-.02.02-.03.04-.05.07,0,.03-.02.05-.02.09s0,.06.02.09c.02.03.03.05.05.07"/>
        <rect class="cls-1" x="29.06" y="10" width=".45" height="2.44"/>
        <path class="cls-1" d="M30.81,12.4c.09-.03.18-.08.24-.13.06.05.14.09.23.13.09.03.18.04.3.05h.4c.09,0,.16,0,.22-.03.06-.03.11-.06.15-.1.06.04.13.08.22.1.09.03.18.03.29.03h1.63v-.37h-.49c-.06,0-.11,0-.16-.03-.05-.02-.09-.05-.13-.09-.03-.03-.06-.08-.08-.13-.02-.05-.03-.1-.03-.15,0-.06,0-.12.03-.16.02-.04.05-.08.08-.1.03-.03.07-.04.11-.05.04,0,.08-.02.11-.02s.07,0,.1,0,.07,0,.1.02c.03,0,.06.02.09.02.03,0,.05.02.07.02l.04-.39s-.05-.02-.09-.03c-.03,0-.07-.02-.11-.02-.04,0-.08,0-.11,0s-.07,0-.09,0c-.11,0-.22.02-.31.06s-.17.09-.24.16c-.07.07-.12.15-.15.24-.03.09-.06.19-.06.28,0,.03,0,.05,0,.08,0,.03,0,.06.02.09,0,.03.02.06.03.09,0,.03.02.06.03.09h-.39c-.07,0-.14,0-.21-.02-.07,0-.13-.03-.18-.05,0-.02,0-.04,0-.06v-.89h-.45v.77c0,.05,0,.09,0,.12,0,.03-.02.06-.03.08-.02.02-.03.03-.07.04-.03,0-.06,0-.09,0h-.22c-.08,0-.15,0-.22-.02-.07,0-.13-.03-.19-.06,0-.05.02-.11.02-.16,0-.15-.06-.32-.17-.49-.12-.17-.28-.35-.52-.53l-.33.31c.07.05.14.11.21.18.07.06.13.13.18.2.05.07.09.13.13.19.03.06.05.12.05.18,0,.03,0,.06,0,.09,0,.03-.03.05-.04.07-.03.02-.06.03-.1.04-.04,0-.1.02-.17.02h-.66v.37h.65c.16,0,.28-.03.37-.06"/>
        <path class="cls-1" d="M32.25,13.15s.06,0,.09-.02c.03,0,.05-.03.07-.04s.03-.04.05-.07c.02-.03.02-.05.02-.09s0-.06-.02-.09c0-.03-.03-.05-.05-.07-.02-.02-.04-.03-.07-.04-.03,0-.05-.02-.09-.02s-.06,0-.09.02c-.03,0-.05.03-.07.04s-.03.04-.05.07c0,.03-.02.05-.02.09s0,.06.02.09c0,.03.03.05.05.07.02.02.04.03.07.04.03,0,.05.02.09.02"/>
        <path class="cls-1" d="M37.11,11.3h-.12s-.06,0-.09-.02c-.03,0-.04-.02-.06-.03-.02-.02-.03-.03-.03-.05,0-.03,0-.03,0-.05,0-.03,0-.06.03-.08.02-.02.05-.03.09-.03.02,0,.04,0,.07,0,.03,0,.05,0,.08.02l.03-.22c-.05,0-.09-.02-.12-.02h-.09c-.06,0-.12,0-.16.02-.04.02-.09.03-.11.06-.03.03-.05.05-.07.09-.02.03-.03.07-.03.1s0,.07.02.1c0,.03.03.06.05.09h-.16v.21h.68v-.2h0Z"/>
        <path class="cls-1" d="M41.52,11.92s-.04.08-.08.1c-.03.03-.07.04-.12.06-.04,0-.09.02-.15.02-.03,0-.08,0-.12,0-.04,0-.09-.02-.12-.03-.04-.02-.08-.03-.1-.04-.03-.02-.05-.03-.07-.04.02-.08.03-.15.06-.22.03-.07.06-.13.09-.19.03-.05.08-.09.12-.13.04-.03.09-.05.16-.05s.11.02.15.04c.04.03.08.06.11.1.03.04.05.09.07.13.02.04.03.09.03.13s0,.09-.03.13M41.79,12.24s.07.06.1.08c.03.03.08.04.13.06.05.02.1.03.16.04.05,0,.1,0,.15.02h.9v-2.44h-.45v2.07h-.41c-.09,0-.16,0-.24-.03-.08-.02-.15-.04-.21-.07,0-.03.02-.06.02-.09,0-.03,0-.07,0-.09,0-.05,0-.11-.02-.17-.02-.06-.03-.12-.06-.17-.03-.06-.06-.11-.1-.15-.04-.05-.09-.09-.15-.13-.05-.03-.12-.07-.19-.09s-.15-.03-.23-.03c-.06,0-.13,0-.2.03-.08.02-.15.06-.22.12-.08.06-.15.15-.22.27-.07.11-.14.27-.19.45-.02.06-.05.11-.09.14-.04.03-.09.04-.15.04h-.34c-.07,0-.14,0-.21-.02-.07,0-.13-.03-.18-.05,0-.02,0-.04,0-.06v-1.95h-.45v1.82c0,.05,0,.09,0,.12,0,.03-.02.06-.03.08s-.03.03-.07.04c-.03,0-.06,0-.09,0h-.2c-.07,0-.14,0-.21-.02-.07,0-.13-.03-.18-.05,0-.02,0-.04,0-.06v-1.95h-.45v1.82c0,.05,0,.09,0,.12,0,.03-.02.06-.03.08s-.03.03-.07.04c-.03,0-.06,0-.09,0h-1.09c-.15,0-.27,0-.35-.02-.09-.02-.16-.03-.22-.06-.05-.03-.09-.07-.1-.11-.02-.04-.03-.1-.03-.17,0-.04,0-.09,0-.13,0-.04.02-.09.03-.13l-.4-.03s0,.06-.02.09c0,.03,0,.07-.02.1,0,.03,0,.07,0,.09v.08c0,.06,0,.12.02.17,0,.05.03.11.06.16.03.05.06.09.11.14.04.04.1.08.18.1.07.03.16.05.26.07.1.02.22.03.36.03h1.37c.09,0,.16,0,.22-.03.06-.03.11-.06.16-.1.06.04.14.08.22.1.08.03.18.03.29.03h.35c.09,0,.16,0,.22-.03.06-.03.11-.06.15-.1.06.04.13.08.22.1.09.03.18.03.29.03h.4c.2,0,.34-.07.45-.22.03.03.07.05.1.09.03.03.09.05.14.08.05.03.11.04.17.05.06.02.14.02.22.02.12,0,.22-.02.31-.06.09-.05.16-.1.22-.17"/>
        <rect class="cls-1" x="43.69" y="10" width=".45" height="2.44"/>
        <path class="cls-1" d="M45.55,11.59s.08-.09.13-.12c.06-.03.13-.07.21-.09.08-.03.17-.05.27-.07v.58s-.1.05-.16.07c-.06.02-.12.03-.19.03-.03,0-.07,0-.1,0-.03,0-.07-.02-.09-.04-.03-.02-.05-.04-.07-.08-.02-.03-.03-.07-.03-.11,0-.05,0-.1.04-.15M45.29,12.2c.06.04.14.08.22.09.08.02.16.03.23.03s.15,0,.22-.03c.07-.02.15-.04.22-.08.02.03.03.06.06.09.03.03.06.05.09.07.04.02.09.03.15.05.06,0,.12.02.2.02h1.98c.09,0,.16,0,.22-.03.06-.03.11-.06.15-.1.06.04.13.08.22.1.09.03.18.03.29.03h.9v-1.39h-.45v1.02h-.44c-.07,0-.14,0-.21-.02-.07,0-.13-.03-.18-.05,0-.02,0-.04,0-.06v-.9h-.45v.77c0,.05,0,.09,0,.12,0,.03-.02.06-.03.08s-.03.03-.07.04c-.03,0-.06,0-.09,0h-1.75s-.06,0-.09,0c-.02,0-.03-.02-.05-.03,0-.02-.02-.03-.03-.07,0-.03,0-.06,0-.1v-1.1h-.45v.19c-.07.02-.14.03-.22.06-.08.03-.15.05-.24.09-.08.03-.16.07-.23.11-.08.04-.14.09-.2.15-.06.05-.1.12-.14.19-.03.07-.05.15-.05.23,0,.09.02.18.06.25.05.07.1.13.17.17"/>
        <path class="cls-1" d="M45.67,10.48s.04.03.07.04c.03,0,.05.02.09.02s.06,0,.09-.02c.03,0,.05-.03.07-.04.02-.02.03-.04.05-.07,0-.03.02-.05.02-.09s0-.06-.02-.09c0-.03-.03-.05-.05-.07-.02-.02-.04-.03-.07-.04-.03,0-.05-.02-.09-.02s-.06,0-.09.02c-.03,0-.05.03-.07.04-.02.02-.03.04-.05.07,0,.03-.02.05-.02.09s0,.06.02.09c.02.03.03.04.05.07"/>
        <path class="cls-1" d="M46.18,10.48s.04.03.07.04c.03,0,.05.02.09.02s.06,0,.09-.02c.03,0,.05-.03.07-.04.02-.02.03-.04.05-.07,0-.03.02-.05.02-.09s0-.06-.02-.09c0-.03-.03-.05-.05-.07-.02-.02-.04-.03-.07-.04-.03,0-.05-.02-.09-.02s-.06,0-.09.02c-.03,0-.05.03-.07.04-.02.02-.03.04-.05.07,0,.03-.02.05-.02.09s0,.06.02.09c.02.03.03.04.05.07"/>
        <path class="cls-1" d="M48.77,10.56s.04.03.07.04c.03,0,.05.02.09.02s.06,0,.09-.02c.03,0,.05-.03.07-.04.02-.02.03-.04.05-.07,0-.03.02-.05.02-.09s0-.06-.02-.09c0-.03-.03-.05-.05-.07-.02-.02-.04-.03-.07-.04-.03,0-.05-.02-.09-.02s-.06,0-.09.02c-.03,0-.05.03-.07.04-.02.02-.03.04-.05.07,0,.03-.02.05-.02.09s0,.06.02.09c.02.03.03.05.05.07"/>
        <path class="cls-1" d="M50.31,12.73s-.05.03-.07.04c-.02.02-.03.04-.05.07,0,.03-.02.05-.02.09s0,.06.02.09c0,.03.03.05.05.07.02.02.04.03.07.04.03,0,.05.02.09.02s.06,0,.09-.02.05-.03.07-.04c.02-.02.03-.04.05-.07,0-.03.02-.05.02-.09s0-.06-.02-.09c0-.03-.03-.05-.05-.07-.02-.02-.04-.03-.07-.04-.03,0-.05-.02-.09-.02s-.06,0-.09.02"/>
        <path class="cls-1" d="M49.96,12.73s-.05-.02-.09-.02-.06,0-.09.02c-.03,0-.05.03-.07.04-.02.02-.03.04-.05.07,0,.03-.02.05-.02.09s0,.06.02.09c0,.03.03.05.05.07.02.02.04.03.07.04s.05.02.09.02.06,0,.09-.02c.03,0,.05-.03.07-.04.02-.02.03-.04.05-.07,0-.03.02-.05.02-.09s0-.06-.02-.09c0-.03-.03-.05-.05-.07-.02-.02-.04-.03-.07-.04"/>
        <path class="cls-1" d="M54.01,11.92s-.04.08-.08.1c-.03.03-.07.04-.12.06-.04,0-.09.02-.16.02-.03,0-.08,0-.12,0-.04,0-.09-.02-.12-.03-.04-.02-.08-.03-.1-.04s-.05-.03-.07-.04c.02-.08.03-.15.06-.22.03-.07.06-.13.09-.19.03-.05.08-.09.12-.13.04-.03.09-.05.15-.05s.11.02.16.04.08.06.11.1c.03.04.05.09.07.13.02.04.03.09.03.13s0,.09-.03.13M54.44,11.6c-.02-.06-.03-.12-.06-.17-.03-.06-.06-.11-.1-.16-.04-.05-.09-.09-.15-.13-.05-.03-.12-.07-.19-.09s-.15-.03-.23-.03c-.06,0-.13,0-.2.03-.08.02-.15.06-.22.12-.08.06-.16.15-.22.27-.07.11-.14.27-.19.45-.02.06-.05.11-.09.14-.04.03-.09.04-.15.04h-.09c-.08,0-.15,0-.22-.02-.07,0-.13-.03-.19-.06,0-.05.02-.11.02-.16,0-.15-.06-.32-.17-.49-.12-.17-.28-.35-.52-.53l-.33.31c.07.05.14.11.21.18.07.06.13.13.18.2s.09.13.13.19c.03.06.05.12.05.18,0,.03,0,.06,0,.09,0,.03-.03.05-.04.07-.03.02-.06.03-.1.04-.04,0-.1.02-.17.02h-.66v.37h.65c.14,0,.26-.02.35-.05.09-.03.18-.08.24-.13.06.05.14.09.23.13.09.03.18.04.3.05h.18c.2,0,.34-.07.45-.22.03.03.07.05.1.09.03.03.09.05.14.08.05.03.11.04.17.05.06.02.14.02.22.02.11,0,.22-.02.3-.06.09-.03.16-.09.22-.16.06-.06.1-.14.14-.22.03-.08.04-.16.04-.26,0-.06-.02-.12-.03-.18"/>
        <path class="cls-1" d="M21.26,14.31s-.05-.02-.09-.02-.06,0-.09.02c-.03,0-.05.03-.07.04-.02.02-.03.04-.05.07,0,.03-.02.05-.02.09s0,.06.02.09c0,.03.03.05.05.07.02.02.04.03.07.04s.05.02.09.02.06,0,.09-.02c.03,0,.05-.03.07-.04.02-.02.03-.04.05-.07,0-.03.02-.05.02-.09s0-.06-.02-.09c0-.03-.03-.05-.05-.07-.02-.02-.04-.03-.07-.04"/>
        <path class="cls-1" d="M21.78,14.31s-.05-.02-.09-.02-.06,0-.09.02c-.03,0-.05.03-.07.04-.02.02-.03.04-.05.07,0,.03-.02.05-.02.09s0,.06.02.09c0,.03.03.05.05.07.02.02.04.03.07.04s.05.02.09.02.06,0,.09-.02c.03,0,.05-.03.07-.04.02-.02.03-.04.05-.07,0-.03.02-.05.02-.09s0-.06-.02-.09c0-.03-.03-.05-.05-.07-.02-.02-.04-.03-.07-.04"/>
        <path class="cls-1" d="M28.6,16.97s-.04-.03-.07-.04c-.03,0-.05-.02-.09-.02s-.06,0-.09.02c-.03,0-.05.03-.07.04-.02.02-.03.04-.05.07,0,.03-.02.05-.02.09s0,.06.02.09c0,.03.03.05.05.07.02.02.04.03.07.04.03,0,.05.02.09.02s.06,0,.09-.02c.03,0,.05-.03.07-.04.02-.02.03-.04.05-.07,0-.03.02-.05.02-.09s0-.06-.02-.09c-.02-.03-.03-.05-.05-.07"/>
        <path class="cls-1" d="M29.12,16.97s-.04-.03-.07-.04c-.03,0-.05-.02-.09-.02s-.06,0-.09.02c-.03,0-.05.03-.07.04-.02.02-.03.04-.05.07,0,.03-.02.05-.02.09s0,.06.02.09c0,.03.03.05.05.07.02.02.04.03.07.04.03,0,.05.02.09.02s.06,0,.09-.02c.03,0,.05-.03.07-.04.02-.02.03-.04.05-.07,0-.03.02-.05.02-.09s0-.06-.02-.09c0-.03-.03-.05-.05-.07"/>
        <path class="cls-1" d="M29.8,14.75s.04.03.07.04c.03,0,.05.02.09.02s.06,0,.09-.02c.03,0,.05-.03.07-.04.02-.02.03-.04.05-.07,0-.03.02-.05.02-.09s0-.06-.02-.09c0-.03-.03-.05-.05-.07-.02-.02-.04-.03-.07-.04-.03,0-.05-.02-.09-.02s-.06,0-.09.02c-.03,0-.05.03-.07.04-.02.02-.03.04-.05.07,0,.03-.02.05-.02.09s0,.06.02.09c.02.03.03.05.05.07"/>
        <path class="cls-1" d="M31.45,14.39s-.05-.02-.09-.02-.06,0-.09.02c-.03,0-.05.03-.07.04s-.03.04-.05.07c0,.03-.02.05-.02.09s0,.06.02.09c0,.03.03.05.05.07.02.02.04.03.07.04s.05.02.09.02.06,0,.09-.02c.03,0,.05-.03.07-.04.02-.02.03-.04.05-.07,0-.03.02-.05.02-.09s0-.06-.02-.09c0-.03-.03-.05-.05-.07-.02-.02-.04-.03-.07-.04"/>
        <path class="cls-1" d="M32.03,14.44s-.04-.03-.07-.04c-.03,0-.05-.02-.09-.02s-.06,0-.09.02c-.03,0-.05.03-.07.04-.02.02-.03.04-.05.07,0,.03-.02.05-.02.09s0,.06.02.09c0,.03.03.05.05.07.02.02.04.03.07.04.03,0,.05.02.09.02s.06,0,.09-.02c.03,0,.05-.03.07-.04.02-.02.03-.04.05-.07,0-.03.02-.05.02-.09s0-.06-.02-.09c-.02-.03-.03-.04-.05-.07"/>
        <path class="cls-1" d="M33.82,14.39s-.05-.02-.09-.02-.06,0-.09.02c-.03,0-.05.03-.07.04-.02.02-.03.04-.05.07,0,.03-.02.05-.02.09s0,.06.02.09c0,.03.03.05.05.07.02.02.04.03.07.04s.05.02.09.02.06,0,.09-.02c.03,0,.05-.03.07-.04.02-.02.03-.04.05-.07,0-.03.02-.05.02-.09s0-.06-.02-.09c0-.03-.03-.05-.05-.07-.03-.02-.04-.03-.07-.04"/>
        <path class="cls-1" d="M33.3,14.39s-.05-.02-.09-.02-.06,0-.09.02c-.03,0-.05.03-.07.04-.02.02-.03.04-.05.07,0,.03-.02.05-.02.09s0,.06.02.09c0,.03.03.05.05.07.02.02.04.03.07.04s.05.02.09.02.06,0,.09-.02c.03,0,.05-.03.07-.04.02-.02.03-.04.05-.07.02-.03.02-.05.02-.09s0-.06-.02-.09c0-.03-.03-.05-.05-.07-.02-.02-.03-.03-.07-.04"/>
        <path class="cls-1" d="M31.91,15.98s-.02.08-.03.1c0,.03-.03.07-.03.09-.02.03-.03.05-.03.08h-.07c-.06,0-.12,0-.17-.03s-.1-.05-.15-.09c-.04-.03-.07-.08-.09-.13-.03-.05-.03-.11-.03-.17s0-.1.03-.15.04-.08.08-.1c.03-.03.07-.04.1-.06.04-.02.08-.02.12-.02.03,0,.08,0,.11.03.03.02.07.03.09.07.03.03.05.07.07.11.02.04.03.09.03.15,0,.03,0,.07-.02.1M21.44,16.06s-.1.05-.16.07-.12.03-.19.03c-.03,0-.07,0-.1,0-.03,0-.07-.02-.09-.04-.03-.02-.05-.04-.07-.08-.02-.03-.03-.07-.03-.11,0-.05.02-.1.04-.15.03-.04.08-.09.13-.12.06-.03.13-.07.21-.09.08-.03.17-.05.27-.07v.58ZM34.67,16.25h-.59c-.07,0-.14,0-.21-.02-.07,0-.13-.03-.18-.05,0-.02,0-.04,0-.06v-.9h-.45v.77c0,.05,0,.09,0,.12,0,.03-.02.06-.03.08-.02.02-.03.03-.07.04-.03,0-.06,0-.09,0h-.78s.03-.06.03-.09c0-.03.03-.08.03-.11,0-.04.02-.08.03-.12,0-.04,0-.08,0-.12,0-.09-.02-.17-.04-.25-.03-.08-.08-.15-.14-.21-.06-.06-.13-.1-.22-.14-.09-.03-.19-.05-.3-.05-.13,0-.24.02-.34.06-.1.03-.19.09-.26.15s-.13.14-.16.22c-.03.09-.06.17-.06.28,0,.03,0,.05,0,.09,0,.03.02.06.03.09s.03.07.04.1.03.07.06.09h-.45c-.07,0-.14,0-.21-.02-.07,0-.13-.03-.18-.05,0-.02,0-.04,0-.06v-.9h-.45v.77c0,.05,0,.09,0,.12,0,.03-.02.06-.03.08s-.03.03-.07.04c-.03,0-.06,0-.09,0h-.19c-.07,0-.14,0-.21-.02-.07,0-.13-.03-.18-.05,0-.02,0-.04,0-.06v-.9h-.45v.77c0,.05,0,.09,0,.12,0,.03-.02.06-.03.08s-.03.03-.07.04c-.03,0-.06,0-.09,0h-6.22s-.06,0-.09,0c-.02,0-.03-.02-.05-.03,0-.02-.02-.03-.03-.07,0-.03,0-.06,0-.1v-1.1h-.45v.19c-.07.02-.14.03-.22.06-.08.03-.16.05-.24.09-.08.03-.16.07-.23.11-.08.04-.14.09-.2.15-.06.05-.1.12-.14.19-.03.07-.05.15-.05.23,0,.09.02.18.06.25.04.07.09.13.15.17.07.04.14.08.22.09.08.02.16.03.23.03s.15,0,.22-.03c.07-.02.15-.04.22-.08.02.03.03.06.06.09.03.03.06.05.09.07.04.02.09.03.15.05.06,0,.12.02.21.02h6.46c.09,0,.16,0,.22-.03.06-.03.11-.06.15-.1.06.04.14.08.22.1.08.03.18.03.29.03h.35c.09,0,.16,0,.22-.03.06-.03.11-.06.15-.1.06.04.14.08.22.1.08.03.18.03.29.03h.5c.09,0,.17,0,.25,0,.09,0,.16,0,.24-.02.08,0,.15-.02.22-.03.09.02.2.03.32.04.12,0,.24.02.38.02h.76c.09,0,.16,0,.22-.03.06-.03.11-.06.15-.1.06.04.14.08.22.1.08.03.18.03.29.03h1.04v-2.44h-.45v2.07h-.02Z"/>
        <rect class="cls-1" x="35.57" y="14.19" width=".45" height="2.44"/>
        <path class="cls-1" d="M37.53,16.24s-.03,0-.05.02c-.02,0-.04,0-.06,0s-.04,0-.07,0h-.07c-.07,0-.14,0-.19-.03-.05-.02-.09-.04-.13-.08-.03-.03-.06-.07-.08-.12-.02-.04-.03-.09-.03-.15,0-.05,0-.1.03-.16.02-.04.04-.09.08-.12.03-.03.07-.06.1-.08.04-.02.09-.03.13-.03s.08,0,.12.03.08.04.1.09c.03.04.05.09.08.17.02.08.03.17.03.28v.16h0ZM37.86,15.48c-.03-.06-.08-.11-.13-.15s-.09-.07-.16-.09c-.06-.03-.1-.04-.16-.05-.05,0-.11-.02-.15-.02-.11,0-.22.02-.32.06-.09.04-.18.09-.26.16-.08.07-.13.15-.17.24-.04.09-.06.2-.06.31,0,.08.02.15.04.24.03.08.08.16.14.22.06.07.15.12.25.16.1.04.22.06.37.06.03,0,.08,0,.12,0,.05,0,.09,0,.14-.02-.03.05-.06.09-.11.14-.05.04-.11.09-.18.12-.07.03-.15.06-.23.09-.09.03-.18.04-.28.05h-.04l.04.36c.19-.02.36-.05.52-.09.15-.04.29-.1.4-.19.11-.09.2-.19.27-.32.06-.13.09-.29.09-.48v-.29c0-.11,0-.21-.03-.29-.03-.09-.04-.14-.09-.21"/>
        <path class="cls-1" d="M40.54,16.12s-.04.07-.08.09c-.03.03-.07.03-.12.04-.04,0-.09,0-.16,0-.03,0-.08,0-.12,0-.04,0-.09-.02-.12-.03-.04-.02-.08-.03-.1-.04-.03-.02-.06-.03-.07-.04.02-.08.03-.15.07-.22.03-.07.06-.13.09-.19.04-.05.09-.09.13-.13.05-.03.1-.05.16-.05s.1,0,.16.04c.05.03.08.06.11.1.03.04.05.09.07.13.02.04.02.09.02.13-.02.08-.03.13-.04.16M40.96,15.79c0-.05-.03-.11-.06-.16-.03-.05-.06-.11-.09-.16-.04-.05-.09-.09-.15-.13-.05-.04-.12-.07-.19-.09s-.15-.03-.24-.03c-.04,0-.09,0-.13.02-.04,0-.09.03-.15.05-.05.03-.1.05-.15.09-.05.04-.1.09-.16.15-.05.07-.09.14-.14.23-.04.09-.09.2-.12.32-.03.02-.08.03-.12.06-.04.03-.09.05-.13.08-.04.03-.09.07-.13.11s-.08.09-.11.15c-.03.06-.05.12-.08.2-.03.08-.03.15-.03.25,0,.06,0,.13.02.22.02.09.03.17.05.27.02.08.03.16.06.24l.4-.16c-.02-.06-.03-.12-.04-.17-.02-.08-.03-.15-.03-.22,0-.07-.02-.14-.02-.19,0-.09,0-.15.03-.22.03-.06.05-.1.09-.14.03-.03.08-.06.12-.09.04-.02.09-.03.13-.04.03.03.07.05.11.08.04.03.09.05.15.07s.11.03.17.05c.06,0,.13.02.2.02.13,0,.24-.02.34-.06.09-.04.17-.09.23-.16.06-.07.1-.14.13-.22s.04-.17.04-.26c0-.04,0-.09,0-.15"/>
        <path class="cls-1" d="M51.65,15.73s-.03.06-.05.09-.05.08-.09.11c-.04.04-.09.08-.15.12-.03-.03-.08-.06-.12-.1-.04-.04-.09-.09-.12-.14-.04-.04-.08-.09-.1-.14-.03-.04-.06-.08-.08-.11.03-.02.07-.03.1-.04.03,0,.08-.03.11-.03.03,0,.08-.02.11-.02.03,0,.07,0,.09,0,.04,0,.09,0,.13.02.03,0,.07.03.09.03.03,0,.05.03.06.06.02.03.03.04.03.07s0,.05-.02.09M42.43,16.25h-.25c-.15,0-.25-.03-.32-.09-.07-.06-.1-.15-.1-.26,0-.05,0-.1.03-.15.02-.04.04-.09.08-.12.03-.03.07-.06.11-.08s.09-.03.13-.03.08,0,.12.03c.04.02.08.04.1.09.03.04.05.09.08.17.02.08.03.17.03.28v.16ZM54,16.25h-.41c-.07,0-.14,0-.21-.02-.07,0-.13-.03-.18-.05,0-.02,0-.04,0-.06v-1.95h-.45v1.83c0,.05,0,.09,0,.12,0,.03-.02.06-.03.08s-.04.03-.07.04-.06,0-.09,0h-.36s-.09,0-.14,0c-.04,0-.09,0-.13,0-.04,0-.09,0-.12-.02s-.07-.02-.09-.03c.08-.08.15-.15.2-.22.05-.07.09-.14.12-.19.03-.06.05-.11.06-.15,0-.04.02-.09.02-.12,0-.07-.02-.12-.06-.16-.03-.04-.09-.09-.15-.11-.06-.03-.12-.05-.2-.06-.07-.02-.15-.02-.22-.02-.09,0-.17,0-.25.02-.08,0-.15.03-.22.04s-.13.04-.18.06c-.05.03-.1.04-.14.06-.02,0-.03.03-.05.05-.02.03-.03.05-.04.09-.02.03-.03.06-.03.09,0,.03-.02.06-.03.09,0,0,.03.03.04.05.02.03.04.06.08.1.02.03.04.06.07.09.03.03.06.07.09.1.03.03.07.07.09.11.03.03.07.07.1.09-.04.02-.09.03-.17.04-.08,0-.16.02-.26.02h-.25c-.07,0-.14,0-.21-.02s-.13-.03-.18-.05c0-.02,0-.04,0-.06v-1.95h-.45v1.83c0,.05,0,.09,0,.12,0,.03-.02.06-.03.08s-.04.03-.07.04c-.03,0-.06,0-.09,0h-6.41v-.27c0-.11,0-.21-.03-.29-.02-.09-.05-.15-.09-.22-.03-.06-.08-.11-.13-.15-.05-.04-.09-.07-.15-.09-.05-.03-.1-.04-.16-.05-.05,0-.11-.02-.16-.02-.13,0-.24.02-.34.06-.1.04-.19.09-.26.17-.07.07-.13.16-.16.25-.04.09-.06.19-.06.29,0,.08.02.16.04.23s.08.15.15.22c.07.07.15.12.26.16.1.04.24.06.4.06h.21c-.03.05-.07.09-.12.14-.05.04-.11.08-.18.11s-.15.06-.24.09c-.09.03-.19.03-.29.04l.04.36c.15-.02.29-.04.42-.08.14-.03.26-.09.36-.15.11-.06.21-.14.28-.22.08-.09.14-.18.18-.29h6.59c.09,0,.16,0,.22-.03.06-.03.11-.06.16-.1.06.04.14.08.22.1.08.03.18.03.29.03h.23c.08,0,.15,0,.22-.02.07,0,.14-.03.21-.04.07-.02.13-.03.18-.06.06-.03.11-.04.15-.07.03.02.08.03.13.06.05.03.11.04.17.06.07.02.14.03.22.04.08,0,.16.02.25.02h.6c.09,0,.16,0,.22-.03.06-.03.11-.06.15-.1.06.04.14.08.22.1.08.03.18.03.29.03h.87v-2.44h-.45v2.09Z"/>
      </g>
    </g>
  </g>
</svg>