<?xml version="1.0" encoding="UTF-8"?>
<svg id="Layer_2" data-name="Layer 2" xmlns="http://www.w3.org/2000/svg" viewBox="0 0 32.15 22.42">
  <defs>
    <style>
      .cls-1 {
        fill: #fbf5e9;
      }
    </style>
  </defs>
  <g id="Layer_1-2" data-name="Layer 1">
    <g>
      <path class="cls-1" d="M19.43,5.57l2.15.77c-.57,1.79-1.92,3.19-3.69,3.79s-3.79.2-5.22-1.03c-1.12-.96-1.76-2.33-1.78-3.81C10.85,2.47,12.9.19,15.73,0c2.34-.05,4.35,1.65,5.18,3.73l-6.49,3.6c1.44,1.24,3.33.61,4.44-.71.25-.33.43-.66.57-1.05ZM13.34,5.48l4.28-2.37c-.55-.65-1.39-.89-2.19-.7-1.38.33-2.29,1.62-2.09,3.07Z"/>
      <path class="cls-1" d="M7.24,10.03h-2s0-2.06,0-2.06h4.66s0,4.56,0,4.56c-1.72,1.41-4.01,1.89-6.14,1.32C1.26,13.12-.18,10.98.02,8.4c.14-1.92,1.3-3.57,3.06-4.34.89-.39,1.83-.54,2.81-.47,1.37.06,2.65.55,3.67,1.47l-1.65,1.98c-.62-.52-1.3-.88-2.1-.94-1.13-.14-2.14.44-2.63,1.46-.4.87-.39,1.87.05,2.73.76,1.46,2.69,1.75,4.01.97v-1.22Z"/>
      <path class="cls-1" d="M28.3,12.09h-3.89s-.73,1.8-.73,1.8h-2.95s4.3-10.18,4.3-10.18h2.71s4.3,10.18,4.3,10.18h-3.01s-.73-1.79-.73-1.79ZM27.48,9.89l-1.11-2.83-1.13,2.83h2.24Z"/>
      <rect class="cls-1" x="11.9" y="11.47" width="8.22" height="2.42"/>
      <path class="cls-1" d="M26.03,17.5c0-.05.18-.06.21-.02v.99s1.34,0,1.34,0l.02-.98c0-.05.21-.03.21.02v.97s1.34,0,1.34,0v-1.14c.24-.05.47-.07.7,0,.27.07.47.3.48.58v.56s.71,0,.71,0v-2.04c.02-.05.2-.05.22,0v2.27s-.91,0-.91,0l-.02.35c-.02.3-.24.46-.53.46-.19,0-.4-.05-.51-.18-.13-.15-.15-.35-.13-.62h-5.86c-.34,0-.51-.38-.52-.65-.02-.37.18-.66.54-.74.21-.04.42-.03.65.02v1.14s2.06,0,2.06,0v-.97ZM23.74,18.46v-.94c-.22-.02-.44-.02-.6.12-.23.2-.21.66.08.8.14.06.34.03.51.02ZM30.1,18.47c0-.23.04-.48-.04-.69-.11-.27-.47-.31-.7-.24v.93s.74,0,.74,0ZM30.05,19.17c.08-.12.06-.32.05-.47h-.73c-.01.17-.02.35.09.47.13.15.47.18.6,0Z"/>
      <path class="cls-1" d="M3.92,18.47h.7c-.15-.34-.18-.73.09-.99s.65-.23.98-.14v1.36s-4.69,0-4.69,0c-.34,0-.54-.32-.56-.61-.03-.38.16-.7.53-.77.21-.04.42-.03.65.02v1.14s2.07,0,2.07,0v-1s.17,0,.22,0v1ZM1.41,18.46v-.94c-.22-.02-.44-.02-.6.12-.23.2-.21.67.08.8.14.06.34.03.51.02ZM5.48,18.45v-.93c-.21-.03-.45-.03-.61.13-.21.2-.2.66.09.79.15.07.38.04.52.01Z"/>
      <path class="cls-1" d="M19.51,18.47h.88s0-2.06,0-2.06l.23-.02v2.31s-3.61,0-3.61,0v-2.29s.14-.02.22-.02v2.08s1.52,0,1.52,0l-.41-.92c.33-.33.92-.43,1.28-.11.32.28.19.77-.12,1.03ZM19.57,17.96c.05-.21-.05-.39-.23-.45-.24-.08-.49-.05-.73.1l.4.86c.26-.06.49-.23.56-.51Z"/>
      <path class="cls-1" d="M6.01,19.25c.19.01.34-.08.34-.29v-1.49c.06-.01.18-.01.22,0v.99s1.35,0,1.35,0v-.96c0-.06.22-.07.23-.02v.98s.72,0,.72,0v-2.08s.22,0,.22,0v2.08s.71,0,.71,0v-2.06s.22-.01.22-.01v2.31s-3.44,0-3.44,0v.3c-.02.31-.28.49-.57.47-.05,0-.14-.03-.18-.04-.03-.01,0-.12.02-.15.02-.04.08-.04.15-.03Z"/>
      <path class="cls-1" d="M16.29,17.46c.19.21.17.51.14.75-.04.3-.26.49-.57.49h-3.99c-.34,0-.54-.35-.55-.65s.11-.58.4-.69c.25-.1.53-.09.79-.02v1.13s2.83,0,2.83,0c-.1-.32-.16-.67.04-.97.19-.28.68-.3.92-.04ZM12.29,18.45v-.93c-.21-.03-.45-.03-.61.12-.21.2-.19.66.09.79.15.07.38.04.52.01ZM16.13,18.35c.13-.22.13-.51,0-.72-.1-.17-.44-.18-.56-.02-.15.21-.15.56,0,.76.12.15.45.14.56-.03Z"/>
      <path class="cls-1" d="M18.35,22.06l-.2.02v-.8c0-.11-.11-.22-.2-.24-.09-.01-.26.09-.26.22v.78c-.01.06-.21.06-.21,0v-1.14c.08-.02.19,0,.24.05.18-.16.43-.11.6.06.11-.11.28-.18.43-.15.11.02.29.15.29.3v.92s-.19,0-.19,0v-.81c0-.11-.12-.22-.23-.22-.08,0-.24.1-.24.2l-.02.82Z"/>
      <path class="cls-1" d="M1.49,21.41l-.35-.02s-.03-.18,0-.18h.56s0,.7,0,.7c-.29.24-.71.28-1,.03-.38-.33-.35-1.2.17-1.42.27-.11.57-.08.79.12l-.12.16c-.17-.1-.29-.16-.47-.13-.32.04-.5.53-.34.93.05.12.18.24.28.27.14.04.33.02.46-.07v-.4Z"/>
      <path class="cls-1" d="M9.47,21.36h-.66s0,.51,0,.51h.74c.06.01.06.21,0,.21h-.97s0-1.6,0-1.6h.95c.06,0,.06.2.02.2h-.74s0,.49,0,.49h.65c.05,0,.06.18.02.19Z"/>
      <path class="cls-1" d="M24.03,21.69h-.66s-.16.37-.16.37c-.02.04-.18.03-.22,0l.58-1.54c.02-.06.22-.05.24.01l.58,1.53c-.07,0-.19,0-.23,0l-.14-.38ZM23.95,21.47l-.25-.68-.26.68h.51Z"/>
      <path class="cls-1" d="M27.33,22.08v-.78c0-.13-.13-.24-.24-.25-.09,0-.26.1-.26.21v.83s-.23-.02-.23-.02v-1.6s.19-.04.21,0l.02.49c.15-.09.32-.13.47-.07.15.06.24.23.23.42v.74s-.13.05-.2.04Z"/>
      <path class="cls-1" d="M14.72,21.36c.15-.05.32-.04.49-.03,0-.08-.04-.21-.11-.23-.2-.07-.23,0-.48.01-.03,0-.04-.14-.02-.16.11-.07.37-.11.52-.07.17.05.29.2.29.37v.85s-.25-.06-.25-.06c-.19.09-.46.13-.6-.08-.12-.16-.11-.5.16-.59ZM15.2,21.55c-.13-.11-.46-.08-.49.12,0,.05.04.18.08.21.09.06.28.03.35-.04.06-.05.12-.24.06-.29Z"/>
      <path class="cls-1" d="M19.48,21.58c.04.14.1.26.17.3.22.11.32-.03.48-.07.04-.01.09.12.06.16-.09.1-.34.19-.52.14-.41-.11-.5-.65-.32-.99.06-.12.22-.22.32-.24.15-.03.33.02.43.14.13.16.16.36.15.57h-.77ZM20.04,21.39c0-.19-.11-.34-.27-.34-.18,0-.28.17-.28.34h.55Z"/>
      <path class="cls-1" d="M4.53,21.58c.02.11.08.24.16.29.27.17.41-.13.52-.05.03.02.05.13.03.15-.13.11-.36.18-.54.12-.39-.12-.47-.64-.3-.97.07-.15.24-.25.37-.26.17-.01.34.06.43.21s.11.32.1.5h-.77ZM5.07,21.39c0-.1-.04-.23-.11-.29s-.24-.06-.3,0c-.07.07-.1.17-.12.29h.54Z"/>
      <path class="cls-1" d="M2.16,21.57c.02.11.08.25.16.29.22.13.35-.04.49-.07.04,0,.09.12.06.15-.18.18-.62.24-.81-.04-.16-.25-.18-.56-.03-.82.09-.16.26-.24.44-.23.33.02.47.37.45.71h-.77ZM2.7,21.39c0-.11-.04-.23-.12-.3-.07-.06-.24-.06-.3,0-.07.06-.11.17-.13.29h.54Z"/>
      <path class="cls-1" d="M11.97,21.58c.04.14.1.26.17.3.22.11.32-.02.48-.08.03-.01.09.13.07.16-.1.11-.34.19-.52.14-.4-.11-.49-.62-.33-.97.06-.13.22-.25.33-.27.15-.03.33.02.43.14.13.16.16.36.15.57h-.77ZM12.52,21.39c-.01-.25-.14-.36-.31-.34-.12.01-.25.19-.23.33h.54Z"/>
      <path class="cls-1" d="M6.45,21.35c.15-.05.32-.03.48-.03,0-.08-.04-.2-.1-.23-.08-.04-.24-.04-.32-.02l-.16.04s-.07-.13-.05-.16c.12-.07.35-.12.51-.08.18.04.31.19.31.38v.8c0,.06-.21.01-.24-.03-.19.11-.47.14-.62-.08-.11-.16-.11-.5.17-.59ZM6.94,21.51l-.34-.02c-.07,0-.18.12-.18.18s.05.21.12.23c.12.03.27,0,.33-.08.05-.07.06-.18.07-.31Z"/>
      <path class="cls-1" d="M28.83,21.49c0,.24-.12.45-.27.54-.19.12-.44.11-.61-.05-.28-.26-.28-.76.01-1.01.17-.15.41-.15.58-.05s.28.31.28.57ZM28.49,21.13c-.06-.06-.22-.1-.32-.05-.15.08-.21.26-.2.41,0,.14.07.32.22.4.09.05.25,0,.31-.06.17-.19.16-.51,0-.7Z"/>
      <path class="cls-1" d="M10.06,21.26l-.02.81h-.2s0-1.18,0-1.18c.06-.02.18,0,.24.04.13-.06.31-.11.45-.06s.24.24.24.41v.79s-.22,0-.22,0v-.74c0-.14-.08-.26-.21-.28-.09-.01-.28.08-.28.22Z"/>
      <path class="cls-1" d="M3.88,21.35c0-.16-.08-.29-.21-.3-.12-.01-.28.09-.29.24v.78s-.22.01-.22.01v-1.2s.27.03.27.03c.13-.04.29-.08.43-.03.12.04.23.21.23.36v.84s-.21-.01-.21-.01v-.72Z"/>
      <path class="cls-1" d="M32.15,20.9l-.45,1.3c-.03.08-.14.19-.21.22-.09.03-.27,0-.33-.06-.01-.02,0-.12.02-.13.22-.05.12.05.29-.04.04-.02.06-.12.05-.16l-.42-1.11c.05-.02.18-.05.2-.02s.05.09.07.15l.27.7.28-.82s.14-.03.23-.02Z"/>
      <path class="cls-1" d="M20.71,21.27l-.02.81-.2-.02v-1.19c.11,0,.18.03.25.07.12-.08.3-.13.45-.07s.24.24.24.41v.79s-.21,0-.21,0v-.79c0-.13-.12-.24-.24-.25-.09,0-.27.1-.27.22Z"/>
      <path class="cls-1" d="M16.47,21.27l-.02.78c0,.05-.2.05-.2-.01v-1.14c.07-.01.19.02.24.04.12-.06.29-.11.43-.07s.26.21.26.37v.84s-.2-.01-.2-.01v-.74c0-.14-.1-.27-.22-.28-.09-.01-.29.06-.29.22Z"/>
      <path class="cls-1" d="M25.31,21.05c0-.07.01-.13.02-.16.01-.04.18,0,.18.06v1.13c-.1-.01-.19-.04-.25-.05-.13.05-.31.11-.47.04-.11-.05-.21-.22-.21-.38v-.79s.21,0,.21,0v.76c0,.12.1.24.2.26s.29-.07.3-.2l.02-.66Z"/>
      <rect class="cls-1" x="31.85" y="16.38" width=".22" height="2.32"/>
      <path class="cls-1" d="M21.97,21.84c0,.06.21.07.27.05l.02.13c.01.08-.28.14-.43.01-.05-.04-.08-.17-.08-.25v-.69s-.13-.06-.13-.06c-.02-.01,0-.1.03-.11.25-.18-.04-.39.22-.39.05,0,.1.07.1.14v.2c.02.06.28-.06.31.1.04.18-.31.03-.32.16l.02.72Z"/>
      <path class="cls-1" d="M30.68,21.84c.01.06.21.07.26.05l.02.13s-.11.08-.16.08c-.17.01-.34-.08-.34-.25v-.76s-.14-.06-.14-.06c-.02-.01,0-.1.02-.11.22-.16.05-.33.14-.37.04-.01.15-.04.16,0s.02.12.03.17v.14s.09.01.13.02l.15.02s.02.13,0,.15l-.28.03.02.76Z"/>
      <path class="cls-1" d="M26.08,21.83c0,.07.2.08.27.06l.02.14s-.13.08-.18.08c-.19.01-.33-.09-.33-.29v-.74c-.08-.02-.18-.09-.16-.12s.08-.07.14-.12l.02-.26s.15-.08.16-.04.03.11.04.17v.13s.12.01.16.02l.14.04s0,.14-.04.14l-.26.03v.75Z"/>
      <rect class="cls-1" x="21.25" y="16.38" width=".22" height="2.32"/>
      <path class="cls-1" d="M14.05,21.83c0,.07.19.08.27.06l.03.13c.02.07-.28.14-.43.01-.06-.05-.09-.2-.09-.3v-.64s-.15-.1-.15-.1c-.04-.03.08-.12.13-.15l.03-.3s.13-.04.15-.01c.03.03.04.12.04.18v.13s.11.02.15.03h.12s.03.11.03.17l-.31.03v.75Z"/>
      <path class="cls-1" d="M11.32,21.81c0,.08.19.1.26.08l.03.13c.02.08-.28.13-.42.01-.06-.05-.09-.2-.09-.3v-.64s-.15-.1-.15-.1c-.04-.03.08-.12.13-.15l.04-.29s.14-.05.15-.02c.01.04.03.12.04.18v.13s.11.01.15.02l.14.04s0,.13-.02.13l-.27.03v.73Z"/>
      <rect class="cls-1" x="7.44" y="20.43" width=".21" height="1.66"/>
      <path class="cls-1" d="M13.18,22.04s-.15.05-.2.02v-1.11s.12-.11.14-.08l.09.13c.09-.07.21-.13.36-.16.15.38-.38.15-.38.59v.61Z"/>
      <path class="cls-1" d="M5.74,22.07h-.21s0-1.16,0-1.16c.05-.06.2,0,.24.06l.33-.12c.04.05.03.21-.02.23-.15.03-.35.15-.35.35v.64Z"/>
      <path class="cls-1" d="M29.27,22.04c0,.05-.2.06-.2,0v-1.09s.11-.11.13-.09l.1.14c.06-.06.23-.16.35-.14.05.01.02.21-.03.22-.16.02-.33.14-.33.31l-.02.64Z"/>
      <rect class="cls-1" x="29.88" y="20.88" width=".22" height="1.21"/>
      <rect class="cls-1" x="15.72" y="20.88" width=".21" height="1.21"/>
      <path class="cls-1" d="M25.99,16.74c-.03.22.49.15.35.31h-.49s-.05-.07-.04-.08l.07-.07c-.01-.09-.03-.24.02-.31s.2-.11.27-.1h.11s.04.1.01.11l-.12.02c-.06.01-.18.06-.19.12Z"/>
      <circle class="cls-1" cx="27.43" cy="19.18" r=".16"/>
      <circle class="cls-1" cx="4.08" cy="19.18" r=".16"/>
      <circle class="cls-1" cx="23.14" cy="16.77" r=".16"/>
      <circle class="cls-1" cx="23.66" cy="16.77" r=".16"/>
      <circle class="cls-1" cx="7.78" cy="16.88" r=".16"/>
      <circle class="cls-1" cx="8.31" cy="16.88" r=".16"/>
      <circle class="cls-1" cx="27.95" cy="19.18" r=".16"/>
      <circle class="cls-1" cx="12.22" cy="16.77" r=".16"/>
      <circle class="cls-1" cx="3.55" cy="19.18" r=".16"/>
      <circle class="cls-1" cx="11.69" cy="16.77" r=".16"/>
      <circle class="cls-1" cx="5.13" cy="16.77" r=".16"/>
      <rect class="cls-1" x="29.88" y="20.45" width=".22" height=".24"/>
      <rect class="cls-1" x="15.71" y="20.45" width=".23" height=".24"/>
    </g>
  </g>
</svg>