<?xml version="1.0" encoding="UTF-8"?>
<svg id="Layer_2" data-name="Layer 2" xmlns="http://www.w3.org/2000/svg" viewBox="0 0 42.93 13.73">
  <defs>
    <style>
      .cls-1 {
        fill: #fbf5e9;
      }
    </style>
  </defs>
  <g id="Layer_1-2" data-name="Layer 1">
    <g>
      <g>
        <path class="cls-1" d="M40.77,8.13c0,.14-.08.21-.2.21h-5.95c-.12,0-.19.08-.19.19v2.25c0,.07.05.23.15.23h8.15c.12,0,.19.08.19.19v2.2c-.04.08,0,.29-.15.29h-11.01s0-13.61,0-13.61h11.07c.1.15.07.33.09.52v1.97c0,.11-.08.19-.2.19h-8.1c-.09,0-.19.06-.19.15v2.65c0,.08.22.1.29.1h5.6c.14,0,.34-.05.43.06v2.4Z"/>
        <g>
          <path class="cls-1" d="M29.32,11.23l-.38.31c-.44.35-.82.79-1.3,1.08l-.61.38c-.09.06-.78.38-.91.36-.14-.02-.24.11-.36.12-.37.03-.72.16-1.1.16l-5.82.03c-.54,0-1.04.05-1.59.01-.08,0-.14-.14-.14-.24V.33c0-.09.06-.25.16-.25l7.29.02c.42,0,.8.16,1.22.2.17.02.79.27,1,.36l.42.19c.26.12.69.42.93.57.42.25.72.57,1.04.94.93,1.06,1.53,2.38,1.67,3.8.16,1.68-.47,4.23-1.52,5.08ZM27.97,8.19c.09-.28.18-.53.17-.79-.03-.94.12-1.14-.26-2.08-.42-1.01-1.18-1.83-2.18-2.25-.28-.12-.98-.32-1.23-.32h-4.49c-.11,0-.19.07-.19.18v7.83c0,.13.06.24.2.24h4.32c.17-.01,1.02-.18,1.19-.25.39-.17.74-.33,1.09-.61.62-.5,1.13-1.18,1.38-1.97Z"/>
          <rect class="cls-1" x="13.51" y="3.42" width="2.74" height="10.31"/>
        </g>
      </g>
      <path class="cls-1" d="M.4.06c1.94-.11,3.88,0,5.95-.04,1.41,0,2.15-.08,3.33.42,2.45,1.06,3.54,4.11,2.39,6.49-.55,1.21-1.63,2.15-2.89,2.55-.24.13-.91.06-.93.38.26.5.85.8,1.25,1.2.55.47,1.06.9,1.62,1.38.2.23,1.42,1.04,1.2,1.23-.86.11-2.2,0-3.08.04-.41-.01-.68.06-1-.17-1.22-1.03-2.47-2.08-3.69-3.13-.46-.4-1.11-1.01-1.7-.55-.15.18-.05.51-.07.75-.02.84.05,2.07-.03,2.85-.07.26-.39.23-.61.25-.41,0-1.05,0-1.46,0-.45.03-.7-.14-.69-.61C0,11.61.04,3.75.04.41.03.2.18.1.4.06h0ZM9.77,5.72c.31-.8.12-1.75-.46-2.38-.52-.55-1.2-.66-1.91-.63-1.14,0-3.2,0-4.07-.01-.23.02-.59-.07-.64.23-.03.11-.02.29-.02.52,0,.33,0,.66,0,1.04,0,.55,0,1.42,0,1.83,0,.25,0,.64.25.74.16.06.34.02.52.03.62,0,1.28,0,1.92,0,.89,0,1.84,0,2.65-.01.73-.08,1.52-.61,1.77-1.33h0Z"/>
      <path class="cls-1" d="M16.25,2.63h-2.73c-.02-.66-.02-1.27,0-1.91,0-.13.17-.25.18-.38C13.97.09,14.28,0,14.65,0l1.6.02c.08,0,.13.16.13.24v2.06c0,.09-.03.31-.12.31Z"/>
    </g>
  </g>
</svg>