<?xml version="1.0" encoding="UTF-8"?>
<svg id="Layer_2" data-name="Layer 2" xmlns="http://www.w3.org/2000/svg" viewBox="0 0 29 17.61">
  <defs>
    <style>
      .cls-1 {
        fill: #fbf5e9;
      }
    </style>
  </defs>
  <g id="Layer_1-2" data-name="Layer 1">
    <g>
      <path class="cls-1" d="M6.93,6.31s-.75-.07-.61-.14c-.48,0-.49-.08-.87-.08-.45,0-.29-.1-.85-.07l-.1-.11h-.56s0,5.18,0,5.18h.51s.13-.05.13-.05l.57-.03c.12-.18.44-.02.71-.14l.22-.09.4-.1.41-.1c-.11.03.65-.29.61-.26.1-.07.17-.1.27-.16l.45-.24c.13-.07.28-.21.53-.35.09-.05.36-.27.46-.37l.18-.17.25-.24.17-.18.23-.23c.25-.25.28-.2.43-.52.01-.03.13-.02.13.03v3.5c0,.06-.12.11-.18.11H.21c-.07-.02-.16-.06-.21-.11V0S10.04,0,10.04,0c.11,0,.17.07.17.18v3.47s-.12.03-.13,0l-.07-.1-.13-.19-.24-.23-.4-.41-.34-.36c-.07-.07-.14-.15-.22-.2l-.2-.15-.28-.22-.23-.16-.3-.2-.43-.21c-.19-.09-.39-.15-.56-.24-.13-.07-.31-.14-.47-.16-.06,0-.17-.09-.24-.1l-.32-.07c-.13-.03-.25-.05-.39-.05-.05,0-.13-.08-.18-.09l-.65-.05c-.16-.01-.29-.05-.45-.02v4.81c.46.05.62-.07.92-.06.09,0,.16-.04.22-.1l.61-.03.39-.05c.55-.06.36-.08.98-.08.03,0,.1-.1.13-.1h.5s0,1.49,0,1.49c0,.04-.03.12-.05.11-.02-.02-.08-.06-.11-.08l-.6-.04Z"/>
      <path class="cls-1" d="M28.61,5.01c.09.05.11.12.11.2v.29s-5.5,0-5.5,0c-.12.16-.12.41.01.52h5.46c.04.17.05.33-.04.49h-5.51s-.01.32-.01.32c0,.09.08.17.18.17h5.39c.05.18.03.35-.05.53h-5.51s0,3.96,0,3.96c-.2.03-.38.03-.6,0V0s6.44,0,6.44,0l.02.6h-5.65c-.09,0-.22.03-.21.13v.3s5.84,0,5.84,0c.02.19.02.35,0,.55h-5.83s-.01.42-.01.42h5.84c.02.21.02.39,0,.6h-5.84s0,2.42,0,2.42h5.47Z"/>
      <path class="cls-1" d="M14.18,9.04c.07.12.12.26.17.39.12-.08.12-.33.02-.43-.05-.05-.18-.15-.1-.21.09-.06.16-.11.24-.18.04-.03.42-.29.4-.28.03,0,.08.06.11.08l.36.27s.13.08.16.11c.09.09-.32.44-.03.63.07.04-.02-.18.12-.33.04-.04.11-.09.15-.09.05,0,.12.06.17.09l.21.15c.22.16.6.18.83,0,.08-.07.13-.21.26-.11-.04.04-.08.11-.08.14v2.24s-4.34,0-4.34,0c-.05,0-.17-.06-.17-.1v-2.23s0-.36,0-.36v-1.79s.12.03.15.05c.15.08.33.12.47.2l.27.16.42.24.36.23.22.14s.07.06.08.08-.05.07-.08.09l-.19.16c-.11.09-.28.16-.35.3l-.17-.22c-.05-.07-.06-.21-.19-.22-.04.05-.04.18,0,.23l.12.17s.04.11.03.14-.08.05-.12.07l-.27.15-.08.07s-.1-.03-.12-.06l-.3-.32c-.1.03-.19.15-.2.22-.01.1.02.23.1.3.22.16.55.16.79.03l.22-.13s.1-.1.13-.13.2,0,.22.04Z"/>
      <path class="cls-1" d="M15.08,2.5l-.1-.33c-.1,0-.15.13-.15.23l-.15.2c-.13-.14-.81-.3-.87-.05-.02.1.43-.05.49.21-.25.02-.49-.02-.69.03l-.37.08-.26.21c.28.03.49-.11.93-.05l-.11.15c-.28,0-.77.28-.93.48l-.19.2V0s4.51,0,4.51,0v3.14c.05.09.04.16,0,.25v.37s.07.03.07.04c0,.02-.02.06-.01.04,0-.01-.11,0-.12-.02-.08-.13-.27-.32-.42-.43-.46-.33-.66-.15-.7-.25l-.06-.13c.22,0,.39-.01.58.02.14.02.29.1.44.01l-.24-.13c-.13-.07-.33-.14-.47-.15l-.7-.03c.09-.23.56-.13.56-.18v-.07s-.49-.21-.83.03l-.1.07s-.08-.07-.09-.1Z"/>
      <path class="cls-1" d="M15.78,5.68c.08.06-.03-.24.14-.36.07-.69-.06-.46-.09-.69-.02-.13-.04-.23-.06-.37.05.04.13.1.17.14.36.4.06.03.36.46.05.07.09.2.14.28l.14.25c.07-.3.03-.62-.11-.88-.19-.34-.16-.16-.35-.57.17-.03.75.56.88.74.1-.17-.05-.31-.12-.45-.13-.23-.35-.49-.6-.58l-.17-.19c.17.03.34.07.47.17.08.06.24.1.3.16l.3.25.03.59c0,.1,0,.17,0,.26l-.02,1.86c-.2.01-.34.11-.49.16s-.28.12-.42.18l-.43.2c-.08.07-.17.19-.25.24-.23.13-.41.25-.63.4-.15-.04-.29-.16-.42-.26-.09-.06-.17-.11-.26-.17l-.19-.13-.23-.16c-.08-.06-.22-.07-.3-.12l-.35-.18c-.06-.03-.15-.08-.21-.1l-.32-.08v-2.67c.03-.1.18-.17.26-.22l.23-.16c.14-.1.31-.16.48-.21l.1-.03s.01.08,0,.09l-.2.12c-.32.19-.53.5-.65.83-.02.02-.06.07-.07.1s.05.1.07.09l.19-.17.05-.13c.28-.07.4-.51.63-.43.06.07-.06.16-.11.2-.21.21-.33.45-.31.73l-.11.11v.48s.09.03.1.01c.04-.24.15-.45.26-.63l.14-.22c.09-.14.18-.26.33-.34.04.09-.03.19-.04.27-.02.29-.07,1.12.12,1.33.1-.25.01-.47.08-.68.18-.6.17-.36.24-.59.04-.12.09-.21.19-.3l.08.44c.05.3-.15.27-.02.59s-.13.34-.01.62c.06.14.05.27,0,.41-.08.21.13.39.03.69-.03.03-.07.08-.09.11h.6s.07-.06.06-.04c-.01.01-.11-.05-.11-.1v-2.61c0-.06.07-.1.09-.09.14.09.28.5.36.69.02.06.08.13.08.21,0,.26-.03.33.1.43Z"/>
      <rect class="cls-1" x="19.01" width=".7" height="11.51"/>
      <rect class="cls-1" x="20.2" y="0" width=".65" height="11.51"/>
      <rect class="cls-1" x="21.35" y="0" width=".6" height="11.51"/>
      <path class="cls-1" d="M7.87,15.88h.23s.01.79.01.79c.11.11.41,0,.41-.17v-.62s.28-.01.28-.01v.55c0,.13.05.26.16.28.09.02.29-.01.31-.15.05-.25.01-.55.03-.84.06-.02.16-.02.23,0v.81c0,.09-.04.24-.11.28l-.18.11c-.07.04-.26.04-.32,0s-.18-.13-.25-.14-.2.08-.26.16h-3.67c-.24,0-.05.26-.68.16-.13-.11-.26-.17-.43-.17h-.73s-.14-.15-.14-.15v-1.36c0-.09.04-.17.1-.22.05-.04.22.02.24.09v1.4s.62,0,.62,0c-.01-.36.01-.86.44-.84l.43.02.18.22c.08.1-.06.45.12.61h.74s0-.87,0-.87c0-.04.08-.14.09-.15l.15.11v.91s.91,0,.91,0v-.91s.16-.12.16-.12l.09.15v.88s.75,0,.75,0c.04-.04.1-.15.1-.2v-.63ZM4.53,16.75c.04-.2.02-.44,0-.63l-.27-.09-.26.1v.69c.16.02.42.1.52-.07Z"/>
      <path class="cls-1" d="M19.18,16.7l.02-.73.29-.2h.64s0,.67,0,.67c0,.08.03.23.1.27h.58s0-1.38,0-1.38c0-.05.1-.11.14-.11.05-.01.14.07.14.13v1.4c0,.06-.06.16-.1.21h-4.37c-.09-.07-.1-.18-.1-.28v-1.4c.06-.03.16-.06.2-.06s.09.11.09.16v1.34s.78,0,.78,0c.05-.09,0-.2-.07-.28-.15-.26-.02-.21-.17-.45,0-.03.12-.09.17-.12.51-.35,1.04.02,1.05.07,0,.03-.02.12-.03.16l-.14.49-.06.03s-.01.1.01.1h.81ZM18.12,16.58l.07-.24c.08-.08.16-.21.05-.3-.07-.06-.16-.12-.23-.11-.08,0-.37.15-.34.19l.08.1c.03.08.1.57.3.5.03-.01.06-.08.08-.13ZM19.43,16.57l.2.11s.14.02.22.02v-.77c-.12.16-.41.08-.42.21-.01.14,0,.34,0,.43Z"/>
      <path class="cls-1" d="M16.15,8.23c-.12.31-.17.19-.37.46-.03-.11-.1-.18-.19-.24l-.25-.17-.19-.12c.04-.07.42-.27.53-.35l.24-.16c.12-.08.24-.13.36-.2l.28-.17c.22-.08.4-.15.61-.27v1.76s-.04.09-.05.08l-.06-.07s-.2-.06-.23,0c-.06.12-.15.25-.25.3-.1-.05-.21-.09-.3-.12-.07-.03-.19-.11-.26-.12-.03,0-.07-.08-.05-.1l.09-.08c.11-.1.14-.29.06-.43Z"/>
      <path class="cls-1" d="M25.49,15.76h.37s.18.21.18.21v.73s.72,0,.72,0v-.92c.07-.03.22-.04.29,0v.92s.68,0,.68,0v-.96s.13-.12.13-.12c.34.23.49.08.83.15.08.07.15.12.3.11v1.07s-3.74,0-3.74,0c-.06-.06-.09-.15-.1-.23h.65s0-.67,0-.67c-.09,0-.2-.01-.24-.05-.04-.05-.07-.16-.06-.23ZM28.69,16.7v-.66s-.28-.03-.28-.03c-.05-.1-.19-.1-.27-.08-.06.01-.17.1-.17.17v.6s.72,0,.72,0Z"/>
      <path class="cls-1" d="M15.89,16.69c.11,0,.1-.25.1-.34v-1.15c.11.02.23.05.24.1v1.46c0,.05-.07.15-.1.18h-2.2s-.09-.15-.09-.21v-1.43c0-.06.13-.09.23-.11v1.36s.14.15.14.15h.7s0-.91,0-.91l.15-.12.09.12v.9s.74-.01.74-.01Z"/>
      <path class="cls-1" d="M18.09,14.66c-.04.05-.17.05-.23.03l-.02-1.03c-.15.52-.12.19-.22.69-.02.11-.03.19-.08.26-.05.07-.15.14-.24.08-.1-.06-.08-.26-.13-.35s-.07-.16-.1-.26l-.1-.43-.03,1.03c-.08,0-.17.01-.27.01v-1.59c.11,0,.22-.02.31,0,.08.02.09.22.13.29.13.22.09.26.18.55l.12.36.08-.39c.02-.11.06-.2.1-.31.06-.16.03-.39.23-.5.06-.03.18-.02.28,0v1.55Z"/>
      <path class="cls-1" d="M22.58,16.36c.03.15.03.31,0,.43-.02.09.07.3.19.32.27.03.51.02.8.02v-.28s-.46-.02-.46-.02l-.24-.18v-.68s.32-.19.32-.19c.17-.04.4-.03.62-.02v1.61s-1.15,0-1.15,0c-.06-.06-.13-.11-.23-.15-.03-.05-.11-.2-.11-.27v-.52s.05-.11.08-.12c.04-.02.16.02.17.07ZM23.15,16.57c.14.13.3.2.42.1v-.7s-.09-.03-.1,0l-.05.07c-.08,0-.2.03-.27.06-.01.16-.02.36,0,.48Z"/>
      <path class="cls-1" d="M10.81,14.67c-.08.04-.24.05-.32.03-.05-.11-.1-.22-.15-.32l-.19-.37-.23-.43-.02,1.11c-.07,0-.17,0-.27,0v-1.58c.09-.02.25-.03.32,0,.06.11.12.2.17.28l.19.37c.08.16.1.31.25.46l.02-1.1s.15-.03.23,0v1.55Z"/>
      <path class="cls-1" d="M27.41,14.68c-.09.03-.25.04-.32.02l-.2-.37-.15-.34c-.06-.14-.15-.24-.18-.4,0-.04-.02-.08-.04-.08s-.05.05-.05.08v1.11c-.09,0-.17,0-.24-.01v-1.56c.09-.02.25-.03.32,0l.16.27.2.46.21.37.02-1.11h.27s0,1.57,0,1.57Z"/>
      <path class="cls-1" d="M5.27,14.66c-.07.05-.25.06-.32.02-.06-.11-.11-.25-.17-.35-.25-.41-.1-.39-.4-.74v1.1s-.25,0-.25,0v-1.57c.16-.08.32-.02.39.13l.2.43c.09.19.14.35.29.54l.02-1.1s.18-.04.23,0v1.53Z"/>
      <path class="cls-1" d="M20.93,14.67c-.06.05-.23.06-.28.01l-.1-.19-.22-.48-.2-.35c-.08.33.16,1.07-.29,1.06v-1.62s.31,0,.31,0c.06.14.1.24.17.36l.23.47c.03.05.07.11.13.21l.02-1.03h.24s0,1.56,0,1.56Z"/>
      <path class="cls-1" d="M.46,17.19c-.21,0-.36-.22-.45-.34v-.71c.06,0,.15-.01.23-.02v.62s.21.2.21.2h.5s.01-.99.01-.99c.06-.05.11-.11.16-.18h.73s0,1.14,0,1.14c-.06.03-.16.03-.23.01v-.97c-.08-.05-.18.01-.24.05l-.19.11v1.07s-.73,0-.73,0Z"/>
      <path class="cls-1" d="M29,14.38c-.73.36-.15.33-1.16.32v-1.6c1.04-.03.39-.01,1.16.26v1.02ZM28.52,13.34h-.44s0,1.09,0,1.09c.15,0,.31,0,.44-.02.33-.07.3-.93,0-1.07Z"/>
      <path class="cls-1" d="M10.81,15.21c.1,0,.23.04.23.09v1.37c0,.08-.04.25-.11.27h-.97s-.17-.15-.17-.15v-1.49s.15-.12.15-.12c.01.01.09.11.09.16v1.2s.14.15.14.15h.54c.06-.06.09-.19.09-.28v-1.22Z"/>
      <path class="cls-1" d="M25.79,13.11v1.18c0,.13-.09.22-.18.3l-.1.12c-.16,0-.36,0-.51-.01l-.23-.16c-.16-.22-.11-.99-.1-1.31,0-.06.08-.15.13-.14.3.04.03,1.09.17,1.34h.48s.12-.09.12-.13v-1.16c.05-.03.15-.03.23-.02Z"/>
      <path class="cls-1" d="M24.1,17.14l.58-.02s.05-.19.02-.16c-.1.02-.52-.19-.56-.23-.12-.1-.13-.7.04-.84.28-.23.34-.12.79-.14v1.4s-.24.21-.24.21h-.43c-.06-.05-.09-.08-.19-.22ZM24.3,16.57c.24.06.14.22.43.11v-.74c-.14.15-.42.08-.43.21-.01.14,0,.34,0,.43Z"/>
      <path class="cls-1" d="M3.68,13.93h-.68s0,.49,0,.49h.75s0,.28,0,.28h-1s0-1.6,0-1.6h.94s.07.11.05.14-.09.09-.12.09h-.63s0,.43,0,.43h.7s-.02.17-.02.17Z"/>
      <path class="cls-1" d="M.9,13.76c.05,0,.05.16,0,.16l-.66.02v.48s.71,0,.71,0c.06.04.06.19.02.27H0s0-1.61,0-1.61h.89s.13.16.13.16c-.1.06-.21.08-.33.08H.24s0,.42,0,.42h.66Z"/>
      <path class="cls-1" d="M13.52,13.76s.07.1.06.12-.07.05-.1.05h-.56s0,.49,0,.49h.7c.02.09.02.19,0,.28h-.94s0-1.61,0-1.61h.85s.12.15.12.15c-.02.01-.12.08-.16.08h-.58s0,.43,0,.43h.61Z"/>
      <path class="cls-1" d="M19.35,13.93h-.6s0,.49,0,.49h.67s0,.29,0,.29h-.9s0-1.61,0-1.61h.9c0,.09-.01.17-.02.23h-.64s0,.43,0,.43h.59s0,.18,0,.18Z"/>
      <path class="cls-1" d="M7.75,14.69c-.36.01-.52.1-.71-.14-.03-.03.01-.14.03-.16.14.05.8.09.75-.13-.02-.09-.21-.27-.35-.31-.17-.05-.36-.13-.42-.3l-.06-.18s.06-.14.09-.17l.17-.2h.71s.03.21.03.21c-.15.04-.3,0-.45-.05l-.24.08s-.03.16-.03.21c.02.08.2.12.45.27.14.08.25.12.29.27.04.14.05.29-.06.4l-.2.19Z"/>
      <path class="cls-1" d="M2.43,13.13c.05.46-.03.06-.15.63l-.07.32c-.05.23-.13.23-.21.62h-.31s-.11-.47-.11-.47l-.09-.21-.12-.5c-.07-.29-.17-.24-.11-.39.01-.03.1-.03.15-.03.04,0,.06.07.1.13.2.32-.04.17.23.7.06.12,0,.27.15.39l.04-.32c.05-.06.1-.13.11-.21l.07-.36c.02-.08.1-.18.11-.28,0-.04.18-.06.2,0Z"/>
      <path class="cls-1" d="M12.32,13.12c.01.24-.05.43-.14.61-.13.27-.04.31-.17.59-.05.11-.08.24-.13.39h-.31s-.15-.59-.15-.59c-.07-.26-.27-.67-.26-1.01h.22s.08.32.08.32l.07.28c.03.12.03.21.11.29l.04.31c.11-.09.16-.18.18-.3l.06-.3c.02-.09.05-.22.08-.29l.1-.26s.14-.04.21-.02Z"/>
      <path class="cls-1" d="M14.61,14.68c-.1.06-.38.04-.49,0,.07.02-.25-.12-.23-.17.01-.02.05-.07.07-.09l.07-.06s.07.06.1.06h.52c.05-.06.05-.23.02-.3-.12-.24-.34-.06-.66-.4-.07-.07-.14-.19-.08-.32.02-.05.09-.14.13-.17l.19-.13c.23,0,.69-.12.67.2-.15.14-.45-.17-.63.03-.05.06-.14.21-.06.29s.24.1.33.16l.22.13c.08.05.14.15.18.23.01.03.1.09.08.12l-.08.11s-.07.15-.11.17l-.22.13Z"/>
      <path class="cls-1" d="M12.28,15.98c0-.07.24-.07.27,0v.59c.4.23.26.13.79.14v-.9s.09-.12.09-.12l.15.12v1.15c-.86,0-.52.08-1.14-.13-.22-.08-.18-.59-.16-.83Z"/>
      <path class="cls-1" d="M24.22,13.76v.17s-.59,0-.59,0v.75s-.24,0-.24,0v-1.6s.88,0,.88,0c.03.05.02.18-.01.23h-.63s0,.43,0,.43h.59Z"/>
      <path class="cls-1" d="M22.05,14.68c-.08.02-.18.03-.28.03v-1.36s-.35-.01-.35-.01c-.03,0-.1-.04-.12-.06-.03-.03,0-.14.03-.16h1.07c.03.06.03.15.01.22l-.36.02v1.34Z"/>
      <path class="cls-1" d="M15.92,14.69h-.24s0-1.36,0-1.36c-.25,0-.36.04-.52-.08-.03-.02,0-.15.05-.15h1.11s.03.16.01.22l-.4.02v1.35Z"/>
      <path class="cls-1" d="M6.29,14.66c-.03.05-.16.05-.23.02v-1.35s-.41,0-.41,0l-.02-.23h1.03s.13.15.13.15c-.14.09-.28.09-.5.08v1.34Z"/>
      <path class="cls-1" d="M21.56,16.99l-.2-.21v-1.42s.09-.12.14-.14c.05-.02.15.02.19.07v1.42c0,.1-.05.18-.13.29Z"/>
      <path class="cls-1" d="M11.48,16.95l-.17-.16v-1.36c0-.09.05-.18.1-.21.06-.04.21.02.25.08v1.49s-.18.15-.18.15Z"/>
      <path class="cls-1" d="M2.27,17.36c-.33.02-.27.06-.43-.15.08-.05.19-.08.3-.08.06,0,.13-.14.13-.21v-1.11s.08-.13.12-.13.12.09.12.13v1.34s-.24.2-.24.2Z"/>
      <path class="cls-1" d="M9.2,14.66c-.04.06-.19.05-.24,0v-1.54c.07-.02.15-.02.24-.02v1.55Z"/>
      <path class="cls-1" d="M5.94,15.6c-.05.11-.23-.3-.19-.32-.01,0-.05.02-.05.03.01.08-.03.3-.14.27-.06-.02-.12-.14-.11-.19,0-.08.08-.11.16-.15l.11-.23.15.12c.02.13.08.21.19.28l-.08.12s-.03.06-.03.07Z"/>
      <path class="cls-1" d="M10.16,17.16c.04.1.05.17.04.26-.17.03-.27.01-.41-.08,0-.09.02-.17.06-.22.1-.12.22-.14.34-.06l-.04.11Z"/>
      <path class="cls-1" d="M23.62,15.25l.2.19c-.15.14-.3.05-.41.02-.05.03-.16.06-.21.04-.05-.01-.05-.11-.04-.18,0-.05.16-.08.19-.03.03.04.09.12.12.1s.06-.05.15-.14Z"/>
      <path class="cls-1" d="M14.98,17.15s.06.14.04.16l-.12.12s-.1-.06-.14-.08c-.04-.03-.03-.19.01-.2.04-.01.16-.01.2,0Z"/>
      <path class="cls-1" d="M19.81,15.51l-.24-.09.17-.13s.14-.02.17,0,.03.09.04.14c0,.04-.1.11-.14.09Z"/>
      <path class="cls-1" d="M15.3,17.16c.07.09,0,.29-.11.27-.08-.01-.13-.19-.09-.27.03-.04.17-.05.2,0Z"/>
      <path class="cls-1" d="M6.85,15.48c-.07.06-.25.01-.3-.04-.02-.02.04-.19.22-.17.06,0,.07.09.08.21Z"/>
      <path class="cls-1" d="M27.05,15.44c-.07.06-.18.09-.25.06-.05-.02-.06-.15-.02-.2.02-.04.16-.04.19,0s.07.11.08.15Z"/>
      <path class="cls-1" d="M13.16,15.67s-.12-.04-.15-.07c-.04-.04-.03-.19.02-.2.06-.02.15,0,.18.05.03.04,0,.15-.04.23Z"/>
      <path class="cls-1" d="M6.98,15.3s.16-.04.19,0c.03.04.04.15.01.19-.02.04-.13.03-.18.03-.05,0-.05-.16-.02-.21Z"/>
      <path class="cls-1" d="M.44,17.41s.15-.05.18-.02c.04.03.05.16.02.2-.03.03-.13.02-.18.02s-.06-.15-.02-.19Z"/>
      <path class="cls-1" d="M12.95,15.52l-.17.17c-.1-.08-.15-.22-.06-.3.06-.02.18.06.23.13Z"/>
      <path class="cls-1" d="M.82,17.61c-.05,0-.06-.13-.01-.18.04-.05.19-.06.19,0v.17s-.09.02-.18.02Z"/>
    </g>
  </g>
</svg>