<?xml version="1.0" encoding="UTF-8"?>
<svg id="Layer_2" data-name="Layer 2" xmlns="http://www.w3.org/2000/svg" viewBox="0 0 43.58 18.78">
  <defs>
    <style>
      .cls-1 {
        fill: #fbf5e9;
      }
    </style>
  </defs>
  <g id="Layer_1-2" data-name="Layer 1">
    <g>
      <path class="cls-1" d="M1.76,18.22c-.12,0-.22.1-.22.22,0,.12.1.22.22.22.06,0,.11-.02.15-.07.04-.04.06-.1.06-.15,0-.06-.02-.11-.06-.16-.04-.04-.1-.06-.15-.06"/>
      <path class="cls-1" d="M2.36,18.22c-.06,0-.11.02-.15.06-.04.04-.06.1-.06.16,0,.12.1.22.22.22.06,0,.11-.02.15-.07.08-.09.08-.23-.01-.32-.04-.04-.09-.06-.15-.06"/>
      <path class="cls-1" d="M21.31,15.33v2.17s-3.78,0-3.78,0l.56-.53v-.1c0-.19-.05-.37-.14-.53-.09-.16-.23-.3-.39-.39-.33-.19-.74-.19-1.07,0-.16.09-.3.23-.39.39-.09.16-.14.35-.14.53v.11l.55.51h-4.41v-1.72h-.7c-.24,0-.48.04-.7.15-.17.08-.31.22-.4.39-.16.29-.18.63-.06.94.03.1.08.19.15.27h-3.51v-2.2s-.38.01-.38.01v2.54h10.25c.06,0,.11,0,.17-.03.04-.02.08-.06.09-.1.03.04.07.08.11.1.05.02.11.03.17.03h4.4v-2.55h-.38ZM11.4,17.5c-.24.02-.47-.04-.66-.19-.13-.12-.2-.3-.2-.48,0-.18.07-.35.2-.48.18-.15.42-.21.65-.19h.33s0,1.32,0,1.32l-.32.02ZM17.03,17.48l-.7-.64c.01-.12.05-.23.11-.33.06-.1.15-.18.25-.24.21-.11.46-.11.67,0,.1.06.19.14.25.24.06.1.1.2.11.32l-.69.65Z"/>
      <path class="cls-1" d="M10.84,15.56c.06,0,.12-.02.15-.07.04-.04.06-.1.06-.15,0-.06-.02-.11-.06-.15-.04-.04-.1-.07-.15-.06-.06,0-.11.02-.15.06-.08.09-.08.22,0,.3,0,0,0,0,0,0,.04.04.1.07.15.07"/>
      <path class="cls-1" d="M11.44,15.56c.06,0,.12-.02.15-.07.04-.04.06-.1.06-.15,0-.06-.02-.11-.06-.15-.04-.04-.1-.07-.15-.06-.06,0-.11.02-.15.06-.09.08-.09.22,0,.3,0,0,0,0,0,0,.04.04.1.07.15.07"/>
      <polygon class="cls-1" points="22.2 15.33 22.21 17.87 22.58 17.87 22.56 15.32 22.2 15.33"/>
      <path class="cls-1" d="M30.69,18.12c-.06,0-.11.02-.15.06-.04.04-.07.1-.07.16,0,.06.02.12.07.16.04.04.1.06.15.06.06,0,.11-.02.15-.06.04-.04.06-.1.06-.15,0-.12-.1-.22-.22-.22"/>
      <path class="cls-1" d="M42.16,15.33v2.17s-3.86,0-3.86,0v-1.72h-.37v1.69h-.39c-.14,0-.27-.04-.36-.14-.09-.12-.14-.28-.13-.43v-1.02h-.37v1.01c.01.15-.03.31-.11.44-.07.09-.19.15-.3.14h-.45v-1.6s-.38.01-.38.01v1.58h-3.64s-.1,0-.14-.03c-.03-.03-.05-.07-.06-.11-.03-.1-.05-.21-.07-.31-.03-.22-.1-.43-.19-.63-.08-.14-.2-.26-.34-.36-.12-.08-.26-.14-.4-.18-.15-.04-.3-.06-.45-.06-.15,0-.3.02-.45.05l-.04.02.08.36h.04c.12-.03.24-.05.36-.05.12,0,.23.01.34.04.11.02.21.07.3.13.1.07.18.16.24.27.07.16.12.32.15.49,0,.04,0,.08.02.12.01.09.04.18.07.27h-4.89v-2.2h-.37v2.19c0,.63-.27.93-.83.93-.22,0-.43-.06-.6-.18-.17-.16-.25-.38-.24-.61,0-.23.04-.46.11-.68v-.06h-.37v.02c-.07.23-.11.48-.11.72-.03.33.1.66.35.89.25.18.55.28.86.27.29.01.57-.07.8-.24.21-.17.35-.42.38-.69h9.93c.14,0,.28-.03.4-.1.1-.06.17-.14.22-.24.06.1.14.18.24.24.13.07.27.1.42.1h5v-2.54h-.39Z"/>
      <polygon class="cls-1" points="43.04 15.33 43.05 17.87 43.42 17.87 43.4 15.32 43.04 15.33"/>
      <path class="cls-1" d="M3.92,15.83c-.34-.05-.66.19-.71.53,0,.06,0,.12,0,.18v.97H.78c-.11,0-.22-.02-.3-.09-.07-.08-.1-.18-.09-.29v-.95H0v.96c-.05.34.19.66.53.71.06,0,.11,0,.17,0h2.9v-1.3c0-.11.03-.21.1-.29.09-.07.2-.11.32-.09h.47v1.44h.38v-1.77s-.94-.03-.94-.03Z"/>
      <rect class="cls-1" x="5.55" y="16.05" width=".37" height="2.61"/>
      <polygon class="cls-1" points="10.46 7.94 7.96 7.94 7.96 10.43 9.05 10.43 9.05 9.02 10.46 9.02 10.46 7.94"/>
      <rect class="cls-1" x="9.93" y="9.89" width=".88" height=".88"/>
      <rect class="cls-1" x="9.49" y="11.76" width=".63" height=".63"/>
      <rect class="cls-1" x="6.28" y="12.08" width=".63" height="1.1"/>
      <rect class="cls-1" x="3.15" y="11.73" width=".63" height=".63"/>
      <rect class="cls-1" x=".82" y="9.39" width=".63" height=".63"/>
      <rect class="cls-1" x="0" y="6.27" width="1" height=".63"/>
      <rect class="cls-1" x=".87" y="3.14" width=".63" height=".63"/>
      <rect class="cls-1" x="3.17" y=".84" width=".63" height=".63"/>
      <rect class="cls-1" x="6.32" width=".63" height="1.1"/>
      <rect class="cls-1" x="9.45" y=".82" width=".63" height=".63"/>
      <rect class="cls-1" x="11.76" y="3.13" width=".63" height=".63"/>
      <rect class="cls-1" x="12.13" y="6.28" width="1.1" height=".63"/>
      <rect class="cls-1" x="11.76" y="9.42" width=".63" height=".63"/>
      <rect class="cls-1" x="7.5" y="11.22" width=".88" height="1.07"/>
      <rect class="cls-1" x="11.29" y="7.52" width="1.07" height=".88"/>
      <rect class="cls-1" x="11.29" y="4.78" width="1.07" height=".88"/>
      <rect class="cls-1" x="4.85" y="11.22" width=".88" height="1.07"/>
      <rect class="cls-1" x="2.43" y="9.9" width=".88" height=".88"/>
      <rect class="cls-1" x="9.93" y="2.4" width=".88" height=".88"/>
      <rect class="cls-1" x="7.59" y=".89" width=".88" height="1.07"/>
      <rect class="cls-1" x=".92" y="7.56" width="1.07" height=".88"/>
      <rect class="cls-1" x=".92" y="4.78" width="1.07" height=".88"/>
      <rect class="cls-1" x="4.85" y=".89" width=".88" height="1.07"/>
      <rect class="cls-1" x="2.43" y="2.4" width=".88" height=".88"/>
      <polygon class="cls-1" points="2.77 5.24 5.27 5.24 5.27 2.74 4.18 2.74 4.18 4.15 2.77 4.15 2.77 5.24"/>
      <rect class="cls-1" x="6.07" y="9.18" width="1.09" height="1.78"/>
      <rect class="cls-1" x="2.24" y="6.04" width="1.78" height="1.09"/>
      <rect class="cls-1" x="9.21" y="6.04" width="1.78" height="1.09"/>
      <rect class="cls-1" x="6.07" y="2.21" width="1.09" height="1.78"/>
      <polygon class="cls-1" points="7.96 2.74 7.96 4.07 7.96 4.15 7.96 5.24 10.46 5.24 10.46 4.15 9.05 4.15 9.05 2.74 7.96 2.74"/>
      <polygon class="cls-1" points="5.24 10.46 5.24 7.96 2.74 7.96 2.74 9.04 4.16 9.04 4.16 10.46 5.24 10.46"/>
      <path class="cls-1" d="M23.62,8.05l.14-.05c.29-.11.56-.25.8-.44.44-.34.75-.81.89-1.35.07-.28.11-.57.11-.86,0-.41-.07-.82-.22-1.2-.14-.34-.37-.65-.66-.88-.34-.26-.72-.45-1.14-.56-.54-.14-1.09-.21-1.65-.2h-4.16v8.19h1.47v-2.41h2.81l1.58,2.4h1.8l-1.79-2.64ZM23.48,6.58c-.19.15-.41.27-.65.34-.29.08-.58.12-.88.12h-2.74v-3.3h2.74c.54-.04,1.08.11,1.53.41.36.29.56.73.54,1.18,0,.24-.04.48-.13.7-.09.21-.22.39-.4.53"/>
      <polygon class="cls-1" points="34.03 9.42 28.46 9.42 28.46 6.84 33.29 6.84 33.29 5.67 28.46 5.67 28.46 3.76 33.92 3.76 33.92 2.5 26.99 2.5 26.99 10.68 34.03 10.68 34.03 9.42"/>
      <path class="cls-1" d="M43.36,4.14c-.14-.35-.37-.65-.66-.88-.34-.26-.72-.45-1.14-.56-.54-.14-1.09-.21-1.65-.2h-4.16v8.19h1.47v-2.4h2.81l1.58,2.4h1.8l-1.79-2.63.14-.05c.29-.11.56-.26.8-.44.22-.17.41-.38.57-.61.15-.23.26-.48.33-.74.07-.28.11-.57.11-.86,0-.41-.07-.82-.22-1.2M41.88,6.04c-.09.21-.22.39-.4.53-.19.15-.41.27-.65.34-.29.08-.59.12-.88.12h-2.73v-3.29h2.73c.54-.04,1.08.11,1.53.41.36.29.56.73.53,1.18,0,.24-.04.48-.13.7"/>
    </g>
  </g>
</svg>