<?xml version="1.0" encoding="UTF-8"?>
<svg id="Layer_2" data-name="Layer 2" xmlns="http://www.w3.org/2000/svg" xmlns:xlink="http://www.w3.org/1999/xlink" viewBox="0 0 26.9 31.14">
  <defs>
    <style>
      .cls-1 {
        fill: none;
      }

      .cls-2 {
        fill: #fbf5e9;
      }

      .cls-3 {
        clip-path: url(#clippath);
      }
    </style>
    <clipPath id="clippath">
      <rect class="cls-1" width="26.9" height="31.14"/>
    </clipPath>
  </defs>
  <g id="Layer_1-2" data-name="Layer 1">
    <g class="cls-3">
      <path class="cls-2" d="M3.18,27.88h0c.09-.18.11-.28.11-.51v-1.51h-.31c-.12.02-.33.34-.47.54h-.02s.11-.59.11-.59h1.71l.11.58h-.02c-.15-.2-.35-.51-.47-.52h-.31s0,1.5,0,1.5c0,.23.02.33.11.51h0s-.55,0-.55,0h0Z"/>
      <path class="cls-2" d="M4.58,27.87c.05-.16.06-.29.06-.54v-1.13c0-.18-.06-.29-.13-.37h0s.41-.15.41-.15v1.07c.12-.15.25-.26.45-.26.26,0,.4.16.4.41v.43c0,.25,0,.39.06.54h0s-.41,0-.41,0h0c.05-.16.06-.31.06-.55v-.37c0-.16-.08-.3-.26-.3-.12,0-.22.05-.31.14v.53c0,.24,0,.39.06.54h0s-.41,0-.41,0h0Z"/>
      <path class="cls-2" d="M6.65,27.92c-.37,0-.63-.3-.63-.69,0-.45.34-.74.65-.74.33,0,.55.3.54.55h-.9v.05c0,.4.2.59.49.59.17,0,.3-.07.4-.19h.02c-.08.25-.26.43-.56.43M6.31,26.99h.61v-.05c0-.28-.08-.41-.26-.41-.21,0-.33.2-.35.46"/>
      <path class="cls-2" d="M7.98,27.37v-1.05c0-.23-.02-.33-.11-.51h0s.72,0,.72,0c.51,0,.71.2.71.49,0,.24-.13.43-.41.52l.33.66c.12.24.18.3.33.37v.02h-.49l-.5-1h-.24v.49c0,.23.02.33.11.51h0s-.55,0-.55,0h0c.09-.18.11-.28.11-.51M8.44,25.86s-.08,0-.13,0v.96h.22c.35,0,.44-.24.44-.52,0-.26-.1-.44-.44-.44h-.08Z"/>
      <path class="cls-2" d="M9.6,27.2c0-.38.33-.72.72-.72s.72.34.72.72-.33.72-.72.72-.72-.33-.72-.72M10.74,27.2c0-.34-.13-.66-.41-.66s-.41.32-.41.66.12.66.41.66.41-.32.41-.66"/>
      <path class="cls-2" d="M11.68,27.94h0s-.4-1.08-.4-1.08c-.07-.18-.11-.26-.17-.33h0s.47,0,.47,0h0c-.03.06-.06.19.01.37l.24.64.24-.64c.06-.16,0-.29-.04-.36h0s.32,0,.32,0h0c-.1.11-.15.19-.21.35l-.43,1.13c-.15.39-.3.48-.49.5v-.27c.09,0,.36-.01.47-.3"/>
      <path class="cls-2" d="M13.13,27.73c-.09.1-.22.19-.4.19-.17,0-.3-.08-.3-.24,0-.29.4-.43.7-.47v-.31c0-.15-.06-.24-.26-.24-.11,0-.25.03-.37.13v-.02c.1-.17.3-.28.54-.28.28,0,.37.16.37.34v.81c0,.07.03.12.11.12.04,0,.08-.01.14-.05h0c-.04.1-.12.21-.29.21-.14,0-.21-.08-.23-.18M13.13,27.68v-.43c-.22.05-.43.14-.43.33,0,.11.07.18.2.18.1,0,.18-.04.23-.08"/>
      <path class="cls-2" d="M13.86,27.48v-1.29c0-.18-.06-.29-.13-.36h0s.41-.16.41-.16v1.8c0,.21.02.31.06.39h0s-.41,0-.41,0h0c.04-.08.06-.18.06-.39"/>
      <path class="cls-2" d="M15.04,27.37v-1.05c0-.23-.02-.33-.11-.51h0s.55,0,.55,0h0c-.09.18-.11.28-.11.51v1.05c0,.23.02.33.11.51h0s-.55,0-.55,0h0c.09-.18.11-.28.11-.51"/>
      <path class="cls-2" d="M15.74,27.88h0c.05-.16.06-.3.06-.55v-.33c0-.19-.06-.29-.13-.37h0s.4-.16.4-.16v.27h.01c.12-.14.25-.26.45-.26.26,0,.4.16.4.41v.43c0,.26,0,.39.06.55h0s-.41,0-.41,0h0c.05-.16.06-.31.06-.55v-.37c0-.16-.07-.3-.26-.3-.12,0-.23.05-.31.14v.53c0,.25,0,.39.06.55h0s-.41,0-.41,0h0Z"/>
      <path class="cls-2" d="M18.07,26.86c-.14-.25-.3-.32-.43-.32-.15,0-.23.09-.23.21,0,.16.18.23.36.31.19.08.4.19.4.46s-.23.41-.52.41c-.15,0-.29-.03-.41-.07l-.03-.36h.02c.14.27.28.38.46.38s.26-.13.26-.24c0-.15-.11-.21-.3-.3-.19-.08-.42-.17-.42-.46s.24-.38.49-.38c.13,0,.27.03.35.06l.03.31h-.02Z"/>
      <path class="cls-2" d="M18.42,27.58v-1h-.15v-.02l.41-.35h.03v.32h.36v.05h-.36v.99c0,.14.06.21.2.21.1,0,.17-.04.19-.05h0c-.08.12-.2.19-.36.19-.17,0-.31-.08-.31-.34"/>
      <path class="cls-2" d="M19.33,27.33v-.32c0-.18-.06-.29-.13-.36v-.02l.41-.15v.85c0,.24,0,.39.06.55h0s-.41,0-.41,0h0c.04-.16.06-.3.06-.55M19.46,26.19c-.09,0-.17-.08-.17-.17s.08-.17.17-.17.17.08.17.17-.08.17-.17.17"/>
      <path class="cls-2" d="M19.99,27.58v-1h-.15v-.02l.41-.35h.03v.32h.36v.05h-.36v.99c0,.14.06.21.2.21.1,0,.17-.04.19-.05h0c-.08.12-.2.19-.36.19-.17,0-.31-.08-.31-.34"/>
      <path class="cls-2" d="M21.22,27.92c-.24,0-.36-.19-.36-.48v-.6c0-.14-.05-.24-.12-.3h0s.4,0,.4,0v.87c0,.2.09.3.25.3.13,0,.22-.08.27-.18v-.68c0-.14-.04-.24-.12-.3h0s.4,0,.4,0v.87c0,.3.04.35.13.42h0s-.39.1-.39.1v-.35c-.1.18-.22.36-.45.36"/>
      <path class="cls-2" d="M22.36,27.58v-1h-.15v-.02l.41-.35h.03v.32h.36v.05h-.36v.99c0,.14.06.21.2.21.1,0,.17-.04.19-.05h0c-.08.12-.2.19-.36.19-.17,0-.31-.08-.31-.34"/>
      <path class="cls-2" d="M23.76,27.92c-.37,0-.63-.3-.63-.69,0-.45.34-.74.65-.74.33,0,.55.3.54.55h-.9v.05c0,.4.2.59.49.59.17,0,.3-.07.4-.19h.02c-.08.25-.26.43-.56.43M23.42,26.99h.61v-.05c0-.28-.08-.41-.26-.41-.21,0-.33.2-.35.46"/>
      <path class="cls-2" d="M2.8,30.42c0-.38.33-.72.72-.72s.72.34.72.72-.33.72-.72.72-.72-.33-.72-.72M3.93,30.42c0-.34-.13-.66-.41-.66s-.41.32-.41.66.12.66.41.66.41-.32.41-.66"/>
      <path class="cls-2" d="M4.57,30.7v-.9h-.18v-.05h.18v-.19c0-.42.26-.66.56-.66.09,0,.17.02.22.04l.03.3h-.02c-.06-.09-.17-.29-.3-.29-.11,0-.21.17-.21.49v.31h.33v.05h-.33v.9c0,.21.02.31.06.39h0s-.41,0-.41,0h0c.05-.08.07-.18.07-.39"/>
      <path class="cls-2" d="M6.44,31.09h0c.09-.18.11-.28.11-.51v-1.51h-.31c-.12.02-.33.34-.47.54h-.02s.11-.59.11-.59h1.71l.11.58h-.02c-.15-.2-.35-.51-.47-.52h-.31s0,1.5,0,1.5c0,.23.02.33.11.51h0s-.55,0-.55,0Z"/>
      <path class="cls-2" d="M7.76,31.09c.05-.16.06-.29.06-.54v-.33c0-.19-.06-.29-.13-.37h0s.4-.16.4-.16v.34h.01c.11-.14.26-.33.45-.33v.34h-.02c-.05-.05-.19-.08-.25-.08-.04,0-.12.04-.18.13v.45c0,.25,0,.39.06.55h0s-.41,0-.41,0h0s0,0,0,0Z"/>
      <path class="cls-2" d="M9.42,30.95c-.09.1-.22.19-.4.19-.17,0-.3-.08-.3-.24,0-.29.4-.43.7-.47v-.31c0-.15-.06-.24-.26-.24-.11,0-.25.03-.37.13v-.02c.1-.17.3-.28.54-.28.28,0,.37.16.37.34v.81c0,.07.03.12.11.12.04,0,.08-.01.14-.05h0c-.04.1-.12.21-.29.21-.14,0-.21-.08-.23-.18M9.42,30.9v-.43c-.22.05-.43.14-.43.33,0,.11.07.18.2.18.1,0,.18-.04.23-.08"/>
      <path class="cls-2" d="M10.57,31.14c-.33,0-.54-.28-.54-.66,0-.41.25-.78.73-.78.11,0,.2.02.28.05v-.34c0-.19-.06-.29-.13-.37h0s.41-.16.41-.16v1.6c0,.38.03.46.13.54h0s-.4.1-.4.1v-.28h0c-.08.15-.25.29-.48.29M11.04,30.79v-.73c-.05-.24-.19-.31-.32-.31-.25,0-.4.26-.4.63,0,.34.13.56.39.56.15,0,.26-.06.33-.15"/>
      <path class="cls-2" d="M11.76,30.55v-.32c0-.18-.06-.29-.13-.36v-.02l.41-.15v.85c0,.24,0,.39.06.55h0s-.41,0-.41,0h0c.04-.16.06-.3.06-.55M11.89,29.4c-.09,0-.17-.08-.17-.17s.08-.17.17-.17.17.08.17.17-.08.17-.17.17"/>
      <path class="cls-2" d="M12.43,30.79v-1h-.15v-.02l.41-.35h.03v.32h.36v.05h-.36v.99c0,.14.06.21.2.21.1,0,.17-.04.19-.05h0c-.08.12-.2.19-.36.19-.17,0-.31-.08-.31-.34"/>
      <path class="cls-2" d="M13.37,30.55v-.32c0-.18-.06-.29-.13-.36v-.02l.41-.15v.85c0,.24,0,.39.06.55h0s-.41,0-.41,0h0c.04-.16.06-.3.06-.55M13.49,29.4c-.09,0-.17-.08-.17-.17s.08-.17.17-.17.17.08.17.17-.08.17-.17.17"/>
      <path class="cls-2" d="M13.93,30.42c0-.38.33-.72.72-.72s.72.34.72.72-.33.72-.72.72-.72-.33-.72-.72M15.06,30.42c0-.34-.13-.66-.41-.66s-.41.32-.41.66.12.66.41.66.41-.32.41-.66"/>
      <path class="cls-2" d="M15.6,31.09h0c.05-.16.06-.3.06-.55v-.33c0-.19-.06-.29-.13-.37h0s.4-.16.4-.16v.27h.01c.12-.14.25-.26.45-.26.26,0,.4.16.4.41v.43c0,.26,0,.39.06.55h0s-.41,0-.41,0h0c.05-.16.06-.31.06-.55v-.37c0-.16-.07-.3-.26-.3-.12,0-.23.05-.31.14v.53c0,.25,0,.39.06.55h0s-.41,0-.41,0h0Z"/>
      <path class="cls-2" d="M17.79,30.95c-.09.1-.22.19-.4.19-.17,0-.3-.08-.3-.24,0-.29.4-.43.7-.47v-.31c0-.15-.06-.24-.26-.24-.11,0-.25.03-.37.13v-.02c.1-.17.3-.28.54-.28.28,0,.37.16.37.34v.81c0,.07.03.12.11.12.04,0,.08-.01.14-.05h0c-.04.1-.12.21-.29.21-.14,0-.21-.08-.23-.18M17.78,30.9v-.43c-.22.05-.43.14-.43.33,0,.11.07.18.2.18.1,0,.18-.04.23-.08"/>
      <path class="cls-2" d="M18.5,30.7v-1.29c0-.18-.06-.29-.13-.36h0s.41-.16.41-.16v1.8c0,.21.02.31.06.39h0s-.41,0-.41,0h0c.04-.08.06-.18.06-.39"/>
      <path class="cls-2" d="M19.49,31.09h0c.13-.15.19-.27.27-.49l.6-1.6h.06l.61,1.63c.09.25.16.36.26.46h0s-.56,0-.56,0h0c.05-.09.05-.26-.03-.47l-.12-.31h-.66l-.06.16c-.13.33-.05.53,0,.62h0s-.38,0-.38,0h0ZM19.94,30.26h.61l-.31-.82-.31.82Z"/>
      <path class="cls-2" d="M21.44,31.09c.05-.16.06-.29.06-.54v-.33c0-.19-.06-.29-.13-.37h0s.4-.16.4-.16v.34h.01c.11-.14.26-.33.45-.33v.34h-.02c-.05-.05-.19-.08-.25-.08-.04,0-.12.04-.18.13v.45c0,.25,0,.39.06.55h0s-.41,0-.41,0h0s0,0,0,0Z"/>
      <path class="cls-2" d="M22.52,30.79v-1h-.15v-.02l.41-.35h.03v.32h.36v.05h-.36v.99c0,.14.06.21.2.21.1,0,.17-.04.19-.05h0c-.08.12-.2.19-.36.19-.17,0-.31-.08-.31-.34"/>
      <path class="cls-2" d="M24.2,30.07c-.14-.25-.3-.32-.43-.32-.15,0-.23.09-.23.21,0,.16.18.23.36.31.19.08.4.19.4.46s-.23.41-.52.41c-.15,0-.29-.03-.41-.07l-.03-.36h.02c.14.27.28.38.46.38s.26-.13.26-.24c0-.15-.11-.21-.3-.3-.19-.08-.42-.17-.42-.46s.24-.38.49-.38c.13,0,.27.03.35.06l.03.31h-.02Z"/>
      <path class="cls-2" d="M11.98,19.9c.19,0,.32-.11.38-.29,0,0,0,0,0,0,.07-.3.05-.45.04-1.87l.14.14h.02s-.24-.71-.24-.71h-.01l-.21.19s.05.09.05.15c.02.3.06,1.34.08,1.95-.02.09-.15.08-.27.08h-.11c-.15,0-.31-.08-.33-.28-.01-.17-.08-.49-.38-.49-.27,0-.45.24-.65.57-.11.18-.26.2-.47.2-.01,0-.02,0-.03,0h-3.2c-.19,0-.29-.1-.29-.29v-2.08h-.01l-.24.18.09,1.96c0,.14-.08.22-.35.22-.2,0-.37-.15-.54-.33-.39-.41-.85-.74-1.36-1.07l1.73-.59.16-.35h0s-1.82.72-1.82.72c-.03.01-.17.36-.15.38.51.38.91.76.92.96,0,.19-.64.25-1.21.22h0c.11.14.27.29.59.33-.15.3-.47.46-.88.46-.76,0-1-.64-.67-1.44h-.02c-.31.64-.36,1.81.66,1.81.47,0,.91-.27.95-.82.44.01.67-.28.61-.73.32.27.65.79,1.09.8.18,0,.28-.09.33-.25.06.14.2.25.4.25h3.19s.04,0,.07,0h0c.25-.02.37-.14.46-.32.05.19.27.41.57.41.16,0,.34-.02.45-.26.06.09.18.2.38.2h.11ZM13.01,19.96h0l.11-.3c.04-.11.06-.22.06-.33v-1.57s.14.14.14.14h.02s-.25-.72-.25-.72h-.01l-.18.19s.03.13.04.18c.02.36.08,1.93.08,2.41M11.09,19.06c.21,0,.38.17.38.33,0,.19-.17.25-.38.25-.16,0-.38-.03-.56-.22.22-.33.42-.35.56-.35"/>
      <path class="cls-2" d="M15.26,22.13h-.01l-.21.33c.16.15.45.47.45.77s-.29.64-.83.66c-.79.03-1.04-.61-.7-1.42h-.02c-.33.66-.42,1.8.66,1.77.56-.01.9-.45.94-1.01,0-.42-.05-.72-.27-1.11"/>
      <rect class="cls-2" x="20.3" y="21.76" width=".3" height=".3" transform="translate(-9.5 20.88) rotate(-45)"/>
      <rect class="cls-2" x="14.38" y="21.97" width=".3" height=".3" transform="translate(-11.39 16.75) rotate(-45)"/>
      <rect class="cls-2" x="22.04" y="21.65" width=".3" height=".3" transform="translate(-8.92 22.08) rotate(-45)"/>
      <polygon class="cls-2" points="5.14 20.61 5.36 20.39 5.14 20.18 4.93 20.39 4.71 20.18 4.5 20.39 4.71 20.61 4.93 20.39 5.14 20.61"/>
      <path class="cls-2" d="M23.06,19.9c.19,0,.32-.11.38-.29,0,0,0,0,0,0,.07-.3.05-.45.04-1.87l.14.14h.02s-.24-.71-.24-.71h-.01l-.21.19s.05.09.05.15c.02.3.06,1.34.08,1.95-.02.09-.15.08-.27.08h-.11c-.15,0-.31-.08-.33-.28-.01-.17-.08-.49-.38-.49-.27,0-.45.24-.65.57-.11.18-.26.2-.47.2-.01,0,.13,0,.12,0h-.23s0,0,0,0c-.17,0-.36-.02-.54-.05.15-.13.25-.3.25-.52,0-.33-.25-.47-.54-.47-.31,0-.66.17-.8.48h0s.08-.05.13-.08c.09.22.25.41.44.57-.22.05-.46.08-.7.08h-2.73c-.08,0-.14,0-.2.02.08-.09.13-.19.13-.3,0-.3-.22-.49-.42-.69l.06-.1h-.01c-.27.43-.45.81-.52,1.09-.24,0-.46-.06-.58-.24-.02-.03-.03-.06-.04-.08l-.44-1.12h-.01l-.18.22c.16.31.32.66.48.99-.14.07-.39.15-.69.15-.21,0-.42-.12-.32-.39h-.01c-.22.53.03.76.35.76.2,0,.43-.02.67-.17l.04-.21c.12.3.46.4.7.39.04.42.3.65.56.65.2,0,.44-.12.44-.44,0-.08-.01-.15-.03-.21.05,0,.09,0,.14,0h2.31c.48,0,.94-.07,1.27-.22.25.14.53.22.77.22,0,0,.01,0,.02,0h0s.2,0,.2,0c.02,0-.11,0-.09,0h0c.25-.02.37-.14.46-.32.05.19.27.41.56.41.16,0,.34-.02.45-.26.06.09.18.2.38.2h.11ZM24.08,19.96h0l.11-.3c.04-.11.06-.22.06-.33v-1.57s.14.14.14.14h.02s-.25-.72-.25-.72h-.01l-.18.19s.03.13.04.18c.02.36.08,1.93.08,2.41M22.17,19.06c.21,0,.38.17.38.33,0,.19-.17.25-.38.25-.16,0-.38-.03-.56-.22.22-.33.42-.35.56-.35M19.54,18.88c.19-.1.43-.13.62-.13.31,0,.49.11.49.23,0,.17-.2.32-.5.43-.25-.1-.47-.27-.61-.53M15.91,18.77c.15.11.48.35.48.5,0,.11-.42.29-.82.29.06-.24.19-.54.34-.79M15.93,19.79c.12.03.23.05.35.06.12.07.19.13.2.22,0,.09-.23.15-.41.15-.23,0-.48-.1-.53-.36.13,0,.27-.03.39-.08"/>
      <path class="cls-2" d="M24.16,20.99l-.21.19s.05.09.05.15c.02.3.06,1.35.08,1.96-.02.09-.13.08-.25.08h0s-.09,0-.13,0c-.19,0-.29-.1-.29-.29v-2.07h-.01l-.24.18.09,1.96c0,.14-.08.22-.35.22-.14,0-.27,0-.41-.02.27-.27.21-1.01-.28-1.01-.42,0-.73.58-.44,1.03-.27,0-.67,0-.78-.12l.05-.56h-.02l-.15.63c-.13.04-.23.05-.49.06h-3.51c-.04-.36-.22-.8-.5-.8s-.48.41-.48.62c0,.2.04.5.54.5h.39c-.15.5-.94.58-1.4.43h0c.21.16.48.34.67.33.43-.03.72-.4.79-.77h3.47c.28,0,.48.01.6-.23.18.34.87.31,1.2.1.15.1.38.16.6.16.29,0,.47-.09.55-.26.05.16.2.29.41.29.05,0,.16,0,.24-.02.05,0,.1-.04.14-.08.1-.1.15-.26.16-.4.03-.24.02-.56,0-1.7l.14.14h.02s-.24-.71-.24-.71h-.01ZM16.33,23.37c-.36,0-.41-.1-.41-.17,0-.05.1-.32.39-.32s.45.26.49.49h-.48ZM21.7,22.97c.01-.19.26-.35.48-.35s.43.17.41.37c0,.17-.19.28-.45.33-.3-.06-.46-.18-.45-.35"/>
      <path class="cls-2" d="M4.42,22.37l-.21.33c.09.08.37.37.41.55-.17.07-.38.1-.54.1-.44,0-.41-.34-.44-.87,0-.08-.02-.38-.02-.43h-.01l-.22.16c0,.07.02.14.03.2-.3.11-.73.3-.79.58-.12.58.74.47.83.44l.07-.15c.06.44.59.52,1.08.27.14-.46.04-.8-.18-1.19h-.01ZM2.66,22.99c.03-.13.5-.24.78-.29.03.19.05.32.06.42-.31.03-.88.05-.84-.13"/>
      <polygon class="cls-2" points="3.06 21.7 3.27 21.92 3.49 21.7 3.27 21.49 3.06 21.7 2.84 21.49 2.63 21.7 2.84 21.92 3.06 21.7"/>
      <polygon class="cls-2" points="4.03 24.19 3.82 23.97 3.6 24.19 3.82 24.41 4.03 24.19 4.25 24.41 4.46 24.19 4.25 23.97 4.03 24.19"/>
      <polygon class="cls-2" points="6.61 24.19 6.4 23.97 6.18 24.19 6.4 24.41 6.61 24.19 6.83 24.41 7.04 24.19 6.83 23.97 6.61 24.19"/>
      <polygon class="cls-2" points="10.35 21.7 10.13 21.49 9.91 21.7 10.13 21.92 10.35 21.7 10.56 21.92 10.78 21.7 10.56 21.49 10.35 21.7"/>
      <polygon class="cls-2" points="11.44 21.5 11.22 21.71 11.44 21.93 11.22 22.14 11.44 22.36 11.65 22.14 11.44 21.93 11.65 21.71 11.44 21.5"/>
      <path class="cls-2" d="M13.03,20.99l-.18.19s.03.13.04.18c.02.36.08,1.93.08,2.41h0l.11-.3c.04-.11.06-.22.06-.33v-1.57s.14.14.14.14h.02s-.25-.72-.25-.72h-.01Z"/>
      <path class="cls-2" d="M8.67,23.72c.18,0,.36-.09.47-.32.15.37.79.38,1.17.14.15.11.38.18.6.18s.44-.01.56-.27c.08.15.25.24.45.25,0,0,.01,0,.02,0,.01,0,.03,0,.04,0,0,0,0,0,0,0,.08,0,.15-.04.2-.09.05-.05.09-.11.12-.2,0,0,0,0,0,0,.07-.3.05-.45.04-1.87l.14.14h.02s-.24-.71-.24-.71h-.01l-.21.19s.05.09.05.15c.02.3.06,1.35.08,1.96-.02.07-.1.08-.19.08h0s-.07,0-.1,0c-.09,0-.25-.01-.34-.1l.05-.56h-.02l-.15.61c-.09.03-.18.04-.32.05-.14,0-.28,0-.43-.02.27-.27.21-1.01-.28-1.01-.42,0-.73.58-.44,1.03-.35,0-.67.07-.68-.28v-2.08h-.01l-.24.18.09,1.93c0,.2-.21.25-.44.24h-1.19c-.18,0-.37-.06-.42-.12l.05-.56h-.02l-.15.59c-.22.09-.64.14-.78-.12l-.45-1.16h-.02l-.18.22c.16.31.34.65.5.98-.14.07-.41.16-.7.16-.21,0-.42-.12-.32-.39h-.01c-.22.53.03.76.35.76.2,0,.43-.02.67-.17l.04-.23c.17.47.59.45.81.32.05-.03.09-.11.13-.17.1.14.3.25.49.25h1.19ZM9.89,22.97c.01-.19.26-.35.48-.35s.44.17.41.37c0,.17-.19.28-.45.33-.3-.06-.46-.18-.45-.35"/>
      <path class="cls-2" d="M19.14,7.37c0-.12,0-1.94,0-1.94,0-1.61-.42-2.75-1.29-3.5-.19-.16-.39-.3-.62-.43-.01-.27-.15-.49-.52-.59-.3-.08-.51-.02-.65.13-.44-.12-.94-.2-1.49-.24-.26-.39-.65-.61-1.12-.61s-.86.22-1.12.61c-.55.04-1.05.13-1.49.24-.15-.15-.35-.21-.65-.13-.37.1-.51.31-.52.59-.23.13-.44.27-.62.43-.87.75-1.29,1.89-1.29,3.5,0,0,0,1.86,0,1.94h0v1.95c0,1.61.42,2.75,1.29,3.5.51.44,1.19.76,2.05.95.56.12,1.19.2,1.9.22.15,0,.3,0,.45,0,2.05,0,3.49-.38,4.4-1.17.87-.75,1.29-1.89,1.29-3.5v-1.95s0,0,0,0M17.09,2.12c.4.23.73.51,1,.84.38.48.61,1.05.74,1.65,0,0,.02.08.02.08-.04-.02-.08-.07-.1-.09.01,0,.06-.07.05-.08,0-.01-.09-.03-.1-.05,0,0,0,0,0,0,.01-.01.06-.07.06-.09,0-.01-.09-.03-.11-.05,0,0,0,0,0,0,.02-.01.07-.08.06-.1,0-.01-.09-.02-.12-.04.02-.02.07-.09.06-.1,0-.01-.09-.02-.13-.03.02-.02.07-.09.06-.11,0-.01-.09-.01-.13-.03.02-.03.07-.1.06-.11,0-.01-.09,0-.13-.02.03-.03.07-.1.06-.12,0-.01-.09,0-.14-.01.03-.04.07-.11.06-.12,0-.01-.09,0-.14,0,.03-.04.07-.11.06-.13,0-.01-.09,0-.14,0,.03-.04.07-.12.05-.13-.01-.01-.09,0-.15.01.03-.05.06-.12.05-.13-.01-.01-.09.01-.15.02.03-.05.06-.13.04-.14-.01-.01-.09.02-.15.03.03-.05.06-.13.04-.15-.01-.01-.09.02-.15.04.02-.06.05-.14.03-.15-.01,0-.09.03-.16.05.02-.06.05-.14.03-.16-.01,0-.09.03-.16.06.02-.06.05-.15.02-.16-.01,0-.09.04-.16.07.02-.07.04-.16.02-.17-.02,0-.1.05-.17.08.02-.07.04-.16.01-.18-.02,0-.07.04-.15.08.02-.06.05-.15.02-.16-.02,0-.09.06-.17.09.09-.06.15-.15.21-.26M18.57,9.74s.03.02.04.04c.01.02,0,.04-.01.06-.04.05-.1.12-.14.16-.02.02-.03.04-.02.06.01.02.03.02.04.04.01.02,0,.04-.02.06-.04.04-.11.11-.15.15-.02.02-.04.03-.06.02-.02-.01-.02-.03-.04-.04-.02-.01-.04,0-.06.01-.04.04-.11.1-.15.14-.02.02-.04.03-.06.01-.02-.01-.02-.03-.04-.04-.02-.01-.04,0-.06.01-.04.04-.11.1-.15.13-.02.02-.04.02-.06,0-.02-.02-.03-.03-.04-.05-.01-.02,0-.04.02-.06.36-.32.7-.68,1.01-1.04.02-.02.04-.03.06-.02.02.01.03.02.05.04.02.02,0,.04,0,.06-.04.05-.09.11-.14.16-.02.02-.03.04-.01.06M18.16,10.72s.02.02.03.04c.01.02,0,.04-.02.06-.05.04-.13.1-.17.13-.03.02-.04.04-.03.06.01.02.01.02.02.04.01.02,0,.04-.03.06-.04.03-.1.07-.14.1-.02.02-.05.02-.06,0-.02-.01-.01-.02-.03-.04-.02-.01-.04,0-.06,0-.05.04-.12.09-.18.12-.02.01-.05.02-.06,0-.01-.02-.01-.02-.03-.04-.01-.02-.04-.01-.06,0-.05.03-.12.08-.18.11-.02.01-.05.02-.06,0-.01-.02-.02-.02-.02-.04,0-.02,0-.04.03-.05.41-.25.8-.53,1.16-.86.02-.02.04-.03.06-.01.02.01.02.02.03.03.01.02,0,.04-.02.06-.04.04-.12.1-.16.14-.02.02-.04.04-.02.06M17,11.21s.02.03.03.05c.01.02,0,.04-.03.05-.05.03-.13.07-.18.1-.03.02-.05.02-.06,0-.01-.02-.02-.03-.03-.05-.01-.02-.03-.02-.06,0-.05.03-.13.07-.18.09-.03.01-.05.02-.06,0-.01-.02-.02-.03-.03-.05-.01-.02-.03-.02-.06,0-.05.02-.13.06-.18.08-.03.01-.05.01-.06,0-.01-.02-.02-.03-.02-.06,0-.02,0-.04.03-.05.42-.2.84-.42,1.23-.67.02-.01.04-.02.06,0,.02.02.02.03.03.05.01.02,0,.04-.02.05-.05.04-.12.08-.17.11-.02.01-.04.03-.03.05,0,.02.02.03.03.05,0,.02,0,.04-.03.05-.05.03-.12.07-.18.11-.02.01-.04.03-.03.05M16.57,11.75s.01.02.02.04c0,.02,0,.04-.04.05-.05.02-.14.06-.19.09-.03.01-.04.03-.04.05,0,.02,0,.02.02.04,0,.02,0,.04-.04.05-.03.01-.12.05-.15.06-.03.01-.05.01-.06,0-.01-.02-.01-.02-.02-.04,0-.02-.04-.02-.06,0-.06.03-.14.05-.2.07-.02,0-.05,0-.06-.01,0-.02-.01-.02-.02-.04,0-.02-.03-.02-.06-.01-.06.02-.14.04-.2.06-.02,0-.05,0-.06-.02,0-.02-.01-.02-.01-.05,0-.02.01-.04.04-.05.45-.14.88-.33,1.3-.54.02-.01.05-.01.06,0,.01.02.02.02.02.04,0,.02,0,.04-.03.05-.05.03-.13.07-.19.1-.03.01-.04.03-.03.05M17.43,10.03c-.7.62-1.95,1.36-3.98,1.36-.12,0-.23,0-.35,0-.5-.02-.95-.09-1.36-.19-1.06-.26-1.8-.74-2.28-1.17-.83-.74-1.33-1.73-1.33-2.65h0,0c0-.62.18-1.22.48-1.76.38-.68.93-1.18,1.58-1.54.13.05.28.06.48,0,.29-.08.44-.23.49-.42.44-.14.89-.23,1.35-.28.09.09.19.17.29.23-1.6.13-2.77.77-3.51,1.57l.03.03c.1-.11.21-.21.32-.31.6-.52,1.62-1.13,3.22-1.25.17.08.36.13.56.13s.39-.05.56-.13c1.6.12,2.63.73,3.22,1.25.03.03.06.05.09.08l.03-.03c-.74-.68-1.83-1.21-3.27-1.33.11-.06.2-.14.29-.23.46.05.91.14,1.35.28.06.19.21.34.49.42.19.05.35.04.48,0,.65.36,1.2.86,1.58,1.54.3.54.48,1.14.48,1.76,0,.92-.5,1.91-1.33,2.65M9.81,2.12c.05.11.12.2.21.26-.08-.03-.15-.1-.17-.09-.02.01,0,.1.02.16-.07-.04-.13-.09-.15-.08-.02.01,0,.11.01.18-.07-.03-.15-.09-.17-.08-.02.01,0,.1.02.17-.07-.03-.15-.08-.16-.07-.02.01,0,.1.02.16-.07-.02-.15-.07-.16-.06-.02.01,0,.1.03.16-.07-.02-.14-.06-.16-.05-.02.01.01.09.03.15-.07-.01-.14-.05-.15-.04-.02.01.01.09.04.15-.06-.01-.14-.04-.15-.03-.02.01.02.09.04.14-.06,0-.14-.03-.15-.02-.02.02.02.09.05.13-.06,0-.14-.02-.15-.01-.01.02.02.09.05.13-.06,0-.13-.02-.14,0-.01.02.03.09.06.13-.05,0-.13,0-.14,0-.01.02.03.09.06.12-.05,0-.13,0-.14.01-.01.02.03.09.06.12-.05.01-.13,0-.13.02-.01.02.04.09.06.11-.04.01-.12.01-.13.03-.01.02.04.09.06.11-.04.02-.12.02-.13.03,0,.02.04.09.06.1-.03.02-.11.03-.12.04,0,.02.04.08.06.1,0,0,0,0,0,0-.02.02-.11.03-.11.05,0,.02.04.08.06.09,0,0,0,0,0,0-.01.02-.1.04-.1.05,0,.02.04.08.05.08-.02.02-.06.07-.1.09,0,0,.02-.08.02-.08.13-.6.36-1.17.74-1.65.27-.34.6-.62,1-.84M9.79,1.67s.05-.08.08-.12c.08-.09.18-.15.29-.18-.04.03-.08.06-.12.09-.02.02-.05.04-.07.05-.06.04-.13.1-.19.15M9.93,3.14s-.04.04-.06.06c0,0,0-.02,0-.03.04-.11.15-.2.26-.24-.07.08-.14.14-.21.21M10.09,3.14c-.05.06-.1.1-.15.16,0,0-.01.01-.02.02,0,0,0-.01,0-.02.01-.08.09-.15.17-.16M9.89,3.01s-.03.03-.04.05c0-.01,0-.02.01-.03.07-.15.23-.27.39-.3-.13.08-.25.17-.36.28M9.86,3.7c.04.09.09.18.15.24-.07-.03-.14-.08-.16-.07-.02.01,0,.1.03.18-.07-.02-.16-.08-.18-.07-.02.01,0,.1.03.17-.07-.01-.16-.07-.18-.06-.02.01,0,.09.03.16-.07-.01-.16-.06-.17-.05-.02.01,0,.09.04.15-.07,0-.15-.05-.17-.04-.02.01,0,.09.04.15-.06,0-.15-.04-.16-.03-.02.01,0,.09.04.14-.06,0-.14-.03-.16-.02-.02.01,0,.08.04.13-.06,0-.14-.03-.15-.01-.01.02.01.08.05.13-.06,0-.13-.02-.14,0-.01.01.01.08.05.13-.05,0-.13-.01-.14,0,0,0,0,0,0,.01,0,.02.02.07.05.11-.05,0-.12,0-.13,0,0,0,0,0,0,.01,0,.02.02.07.05.1-.05,0-.12,0-.13.01-.01.01.02.07.05.11-.05,0-.11,0-.12.02,0,.01.02.07.05.1-.04,0-.1,0-.11.02,0,.01.02.06.04.09-.04.01-.1.01-.1.02,0,.01.02.06.04.09-.04.01-.09.02-.1.03,0,.01.01.04.03.07-.03.05-.07.09-.1.1,0-.01.03-.08.03-.09.19-.56.48-1.05.88-1.46.21-.21.44-.4.69-.56M9.66,3.65c-.06-.02-.14-.08-.16-.07-.02.01,0,.11.03.16-.06-.02-.14-.07-.16-.06-.01,0,0,.1.03.15-.06-.02-.14-.06-.15-.05-.01.01,0,.1.03.15-.06-.01-.14-.05-.15-.04-.01.01.01.1.04.14-.06,0-.13-.04-.15-.03-.01.01.02.1.04.14-.05,0-.13-.03-.15-.02-.01.01.02.1.04.13-.05,0-.13-.03-.14-.01-.01.01.02.1.05.13-.05,0-.13-.02-.14,0-.01.01.03.1.05.12-.04,0-.13-.01-.14,0-.01.01.03.1.05.12-.04.01-.12,0-.13.01,0,.01.04.1.06.11h0s-.12,0-.13.02c0,.01.03.09.05.1,0,0,0,0,0,0-.03.01-.11.01-.12.03,0,.01.03.08.05.09,0,0,0,.01,0,.01-.02.02-.1.02-.1.03,0,.01.03.07.04.09,0,0,0,.02-.01.02-.02.02-.08.02-.09.03,0,.01.02.06.04.08-.03.04-.07.09-.11.1,0,0,.02-.07.03-.08.2-.59.5-1.1.9-1.51.18-.19.38-.35.61-.5,0,.08.02.17.05.26,0,.01,0,.02,0,.03,0,0,0,.01,0,.02-.07-.03-.16-.09-.18-.08-.02,0,0,.11.02.16M11.94,1.83s0,0,0,0c-.09-.08-.17-.22-.19-.22-.04,0-.06.15-.06.26-.08-.07-.16-.2-.19-.2-.04,0-.05.15-.05.24-.08-.07-.16-.19-.18-.18-.03,0-.03.11-.03.2-.08-.06-.15-.16-.17-.16-.03,0-.03.1-.03.19-.09-.11-.09-.29.03-.33.31-.08.64-.14,1-.18-.01.05-.02.1-.03.15-.02-.02-.03-.03-.04-.03-.04,0-.06.16-.07.27,0,0,0,0,0,0M12.06,2.44c.02.09.04.18.07.27,0,0,0,.02,0,.03-.09-.08-.16-.19-.2-.19-.03,0-.05.16-.03.26-.1-.07-.19-.2-.23-.2-.03,0-.05.16-.03.25-.1-.07-.19-.19-.22-.18-.02,0-.03.09-.03.17,0,.03,0,.05,0,.07-.09-.06-.19-.18-.22-.17-.03,0-.04.15-.01.23-.09-.06-.19-.17-.22-.16-.03,0-.03.13-.01.22-.12-.09-.11-.29,0-.33.35-.11.72-.2,1.13-.26M12.18,3.25c-.1-.05-.19-.22-.22-.21-.03,0-.06.13-.05.25-.09-.05-.18-.2-.21-.2-.03,0-.05.13-.04.24-.09-.05-.18-.19-.21-.18-.03,0-.05.13-.03.24,0,0,0,0,0,0,0,0,0,0,0,0-.11-.04-.21-.17-.23-.17-.02,0-.04.13,0,.23,0,0,0,0,0,0h0c-.19,0-.25-.26-.07-.33.33-.1.68-.17,1.06-.22.01.03.02.05.04.08-.04,0-.06.14-.05.26M15.84,1.78s-.09.1-.17.16c0-.09,0-.2-.03-.2-.02,0-.1.11-.18.18,0-.1-.02-.24-.05-.24-.02,0-.1.13-.19.2,0-.1-.02-.25-.06-.26-.02,0-.11.14-.19.22,0,0,0,0,0,0,0,0,0,0,0,0,0-.1-.03-.26-.07-.27,0,0-.02.01-.04.03,0-.05-.02-.1-.03-.15.36.04.69.1,1,.18.12.04.12.22.03.33,0-.09,0-.18-.03-.19M14.85,2.44c.41.06.78.14,1.13.26.11.04.12.24,0,.33.02-.08.02-.21-.01-.22-.03,0-.13.1-.22.16.02-.09.01-.23-.01-.23-.04,0-.13.11-.22.17,0-.02,0-.05,0-.07,0-.08,0-.16-.03-.17-.04,0-.13.12-.22.18.02-.09,0-.24-.03-.25-.04,0-.13.13-.23.2.02-.09,0-.25-.03-.26-.04,0-.11.11-.2.19,0,0,0-.02,0-.03.03-.08.05-.17.07-.27M15.77,3.13c.18.06.12.32-.07.33h0s0,0,0,0c.05-.1.03-.23,0-.23-.02,0-.11.13-.23.17,0,0,0,0,0,0,0,0,0,0,0,0,.01-.11,0-.23-.03-.24-.03,0-.12.13-.21.18.01-.11,0-.24-.04-.24-.03,0-.12.15-.21.2,0-.12-.01-.25-.05-.25-.03,0-.12.16-.22.21,0-.12-.02-.25-.05-.26.01-.03.02-.05.04-.08.38.05.73.12,1.06.22M16.36,2.84c.13-.02.28,0,.4.05-.1,0-.21-.01-.31-.01-.09,0-.18,0-.27.02.06-.03.12-.05.18-.06M16.21,2.79s.01,0,.02,0c.06-.04.13-.06.2-.07.1-.01.21,0,.3.05-.07,0-.14,0-.2,0-.1,0-.19.01-.29.03,0,0-.02,0-.03,0M16.55,3.01c-.07,0-.14,0-.2,0-.03,0-.05,0-.08,0-.03,0-.07,0-.1,0-.02,0-.03,0-.05,0,.02-.01.03-.02.05-.03.12-.05.26-.05.38,0M18.6,5.16s-.07-.01-.09-.03c0,0,0-.01-.01-.02.02-.02.05-.07.04-.09,0-.01-.08,0-.1-.03,0,0,0,0,0-.01.02-.01.05-.08.05-.09,0-.01-.09-.01-.12-.03,0,0,0,0,0,0,.02-.01.06-.09.05-.1,0-.01-.1,0-.13-.02h0s.07-.1.06-.11c-.01-.01-.1,0-.13-.01.02-.02.07-.1.05-.12-.01-.01-.1,0-.14,0,.02-.02.06-.11.05-.12-.01-.01-.09,0-.14,0,.03-.03.06-.11.05-.13-.01-.01-.09.01-.14.01.03-.03.06-.12.04-.13-.01-.01-.09.02-.15.02.03-.04.05-.13.04-.14-.01-.01-.09.02-.15.03.03-.04.05-.13.04-.14-.01-.01-.09.03-.15.04.03-.05.05-.14.03-.15-.02-.01-.09.03-.15.05.03-.05.05-.14.03-.15-.02-.01-.09.04-.16.06.02-.05.04-.15.03-.16-.02-.01-.09.04-.16.07.02-.06.04-.15.02-.16-.02-.01-.12.05-.18.08,0,0,0-.01,0-.02,0-.01,0-.02,0-.03.02-.09.04-.18.05-.26.22.15.43.32.61.5.4.41.7.92.9,1.51,0,0,.02.07.03.08-.04-.01-.08-.06-.11-.1.02-.02.04-.06.04-.08M17.73,4.26c.4.41.7.9.88,1.46,0,.01.03.08.03.09-.04-.01-.08-.05-.1-.1.02-.02.03-.06.03-.07,0-.01-.06-.02-.1-.03.02-.03.05-.07.04-.09,0-.01-.06-.01-.1-.02.03-.03.05-.08.04-.09,0-.01-.07-.01-.11-.02.03-.03.05-.09.05-.1,0-.01-.07,0-.12-.02.03-.04.06-.09.05-.11,0-.01-.08,0-.13-.01.03-.03.05-.08.05-.1,0,0,0,0,0-.01,0-.01-.08,0-.13,0,.03-.03.05-.08.05-.11,0,0,0,0,0-.01-.01-.01-.08,0-.14,0,.03-.04.06-.11.05-.13-.01-.01-.09,0-.14,0,.03-.05.06-.12.05-.13-.01-.01-.09.01-.15.01.03-.05.06-.12.04-.13-.01-.01-.09.02-.16.02.03-.05.06-.13.04-.14-.01-.01-.1.02-.16.03.03-.06.06-.13.04-.15-.01-.01-.1.03-.17.04.03-.06.05-.14.04-.15-.02-.01-.1.04-.17.05.03-.07.05-.15.03-.16-.02-.01-.11.04-.18.06.03-.07.05-.16.03-.17-.02-.01-.11.05-.18.07.03-.07.05-.16.03-.18-.02,0-.09.04-.16.07.06-.07.11-.15.15-.24.26.16.49.35.69.56M16.25,1.1c.14-.06.31-.05.44.01-.13-.01-.26-.01-.39,0-.04,0-.08.01-.12.02.02-.01.05-.03.07-.04M16.23,1.23c.1-.04.21-.03.3.02-.08,0-.15,0-.23,0-.04,0-.09,0-.14.01.02-.01.04-.02.06-.03M16.44,1.35c-.1.03-.19.03-.3.04.08-.07.2-.07.3-.04M16.3,2.44c.15.04.27.04.38.02.47.22.86.51,1.18.87.38.42.66.94.84,1.58-.06-.03-.1-.12-.11-.14,0,0,0,0,0,0h0c-.19-.42-.44-.78-.75-1.1-.21-.21-.44-.4-.71-.57-.03-.24-.18-.43-.52-.52-.22-.06-.39-.04-.52.03-.38-.13-.79-.23-1.24-.29.01-.1.02-.21.02-.32,0-.01,0-.02,0-.03.35.05.68.11.99.2.08.13.22.22.43.28M15.97,1.16c.1.03.1.26-.07.35h0c0-.08-.03-.2-.06-.22-.02-.02-.09.1-.17.17,0-.08-.02-.2-.05-.22-.02-.02-.09.11-.17.18,0,0,0,0,0,0,0,0,0,0,0,0,0-.08-.03-.21-.06-.23-.03-.02-.09.12-.18.19,0-.09-.03-.22-.07-.24-.03-.02-.1.13-.18.2,0-.09-.04-.23-.07-.25-.02-.01-.06.06-.11.13-.03-.09-.07-.18-.11-.26.48.04.92.11,1.32.21M12.41.93s.07-.1.1-.14c.23-.29.56-.46.94-.46s.71.18.94.46c.04.04.07.09.1.14.03.04.05.09.08.14.06.11.1.24.13.37.02.1.04.2.05.31,0,.04,0,.08,0,.12,0,.02,0,.05,0,.07,0,.12-.02.24-.04.35-.01.04-.02.09-.03.13-.03.1-.07.19-.11.28-.03.06-.07.12-.11.18-.02.02-.03.05-.05.07-.04.05-.09.1-.13.15-.04.03-.07.07-.11.09-.1.07-.2.13-.32.17-.12.04-.25.06-.38.06s-.26-.02-.38-.06c-.11-.04-.22-.1-.32-.17-.04-.03-.08-.06-.11-.09-.05-.04-.09-.09-.13-.14-.02-.02-.03-.05-.05-.07-.04-.06-.08-.12-.11-.18-.04-.09-.08-.18-.11-.28-.01-.04-.02-.09-.03-.13-.02-.11-.04-.23-.04-.35,0-.02,0-.05,0-.07,0-.04,0-.08,0-.12,0-.11.02-.21.05-.31.03-.13.07-.25.13-.37.02-.05.05-.09.08-.14M10.93,1.16c.4-.1.84-.17,1.32-.21-.04.08-.08.17-.11.26-.05-.07-.09-.14-.11-.13-.04.02-.08.16-.07.25-.09-.07-.15-.22-.18-.2-.04.02-.08.15-.07.24-.08-.07-.15-.21-.18-.19-.03.02-.07.15-.06.23,0,0,0,0,0,0,0,0,0,0,0,0-.08-.07-.15-.19-.17-.18-.03.02-.06.14-.05.22-.08-.06-.15-.18-.17-.17-.03.02-.07.14-.06.22h0c-.17-.09-.17-.32-.07-.35M10.6,2.44c.21-.06.35-.16.43-.28.3-.09.63-.15.99-.2,0,.01,0,.02,0,.03,0,.11,0,.22.02.32-.45.06-.86.16-1.24.29-.13-.07-.3-.09-.52-.03-.34.09-.49.28-.52.52-.26.17-.5.36-.71.57-.31.31-.56.68-.75,1.1h0s0,0,0,0c0,.02-.05.11-.11.14.19-.64.47-1.16.84-1.58.32-.36.71-.65,1.18-.87.11.02.23.02.38-.02M10.23,1.05c-.16.08-.3.18-.43.3.08-.17.26-.29.43-.3M9.88,1.4c.12-.13.29-.22.46-.25-.11.06-.21.12-.31.18-.08.06-.16.12-.24.19.03-.04.06-.08.09-.12M8.04,3.98c.24-1.06.77-1.82,1.64-2.33,0,.07.02.14.04.21.01.04.02.07.03.11-.07-.03-.15-.09-.16-.08-.02.02,0,.1,0,.16-.07-.03-.14-.08-.16-.07-.02.02,0,.1.01.15-.07-.02-.14-.07-.15-.06-.01.02,0,.1.02.15-.07-.02-.14-.06-.15-.05-.01.02,0,.09.02.14-.06-.01-.14-.05-.15-.04-.01.02,0,.09.03.14-.06,0-.13-.04-.14-.03-.01.02.01.09.03.13-.06,0-.13-.03-.14-.02-.01.02.01.09.04.13-.06,0-.13-.03-.14-.01-.01.02.02.1.05.13-.06,0-.13-.02-.14,0-.01.02.02.1.05.13-.05,0-.13-.01-.14,0,0,.02.03.1.05.12-.05.01-.13,0-.14.01,0,.02.03.09.05.12-.04.01-.12,0-.13.02,0,.02.03.08.05.1,0,0,0,0,0,.01-.03.03-.11,0-.12.03,0,.02.02.09.04.12-.03.03-.1.01-.1.03,0,.02.02.09.04.11,0,0,0,0,0,0-.03.02-.09.02-.09.03,0,.02.02.09.03.11,0,.01-.09.03-.09.04,0,.02.02.08.03.11,0,.02-.08.03-.09.05,0,.01.02.05.03.07-.02.04-.05.08-.1.11,0-.02.02-.08.02-.1M7.92,9.91s.11.02.13,0l.08-.05c.06-.04.12-.02.16.03.04.06.08.12.13.18.06.08.12.05.15.02l.11-.09c.06-.05.11-.03.15.01l.09.1s.04.1-.01.15l-.11.1s-.07.08,0,.15c.05.05.1.1.15.15.04.04.06.1,0,.15l-.06.07s-.06.09.02.15c.06.05.11.1.17.14.05.04.07.1.03.16l-.06.08s-.05.1.04.16l.05.04s.1.06.15.1c.09.06.14,0,.16-.03l.05-.09c.04-.07.1-.07.16-.04.06.04.13.07.2.1.09.04.13-.01.15-.05l.04-.09c.03-.07.09-.08.14-.06.07.03.13.05.2.08.09.03.12-.02.14-.06l.05-.14c.02-.07.08-.09.13-.07l.13.04c.06.01.09.06.07.13l-.04.14s-.01.1.08.13c-.17.22-.29.48-.32.77-.54-.16-1.06-.39-1.53-.69-.24-.14-.45-.32-.65-.5-.13-.12-.25-.24-.36-.37-.08-.31-.13-.65-.16-1.02M10.72,13.27c-.08-.12-.17-.27-.27-.43-.02-.03-.05-.04-.09-.02-.15.08-.3.16-.46.23-.03.01-.07,0-.09-.03-.07-.14-.13-.28-.21-.47-.01-.03-.05-.04-.08-.04-.12.02-.27.04-.44.04-.04,0-.07-.01-.08-.05-.07-.14-.13-.25-.19-.4-.02-.04-.04-.06-.07-.05-.06,0-.12.02-.17.03-.2-.29-.35-.63-.46-1,.09.1.18.19.28.28.2.19.42.36.65.52.27.18.56.33.87.44.23.09.47.15.7.21,0,.02,0,.04,0,.06-.02.25.03.5.13.71-.01,0-.02-.01-.03-.02M11.85,13.76c.12-.08.22-.15.3-.23.07.09.16.19.28.29-.2-.01-.4-.03-.58-.06M13.4,13.52c-.09.13-.21.24-.34.33-.2,0-.39-.01-.58-.03-.08-.1-.21-.28-.31-.51,0,0,0,0,0,0,0,0,0,0,0,0-.12.2-.27.36-.37.44-.23-.03-.45-.07-.66-.12-.11-.12-.19-.25-.26-.4,0-.02-.02-.04-.02-.05,0-.02-.02-.05-.03-.08-.04-.12-.07-.26-.07-.39,0-.06,0-.11,0-.17,0,0,0,0,0,0,.02-.26.11-.51.25-.72,0,0,0,0,0-.01.01-.02.03-.04.04-.05.15-.2.36-.36.59-.45.3.08.64.14,1,.18-.15.09-.27.17-.36.27-.09-.12-.22-.25-.4-.38,0,0,0,0,0,0,0,0,0,0,0,0,0,0,.24.23.39.59,0,0,0,0,0,0,0,0,0,0,0,0,.15-.24.32-.41.41-.48.15.01.3.02.45.03.1.08.19.18.27.29.16.22.26.49.27.78,0,.03,0,.05,0,.08v.02s0,.01,0,.02c0,.02,0,.05,0,.07-.02.27-.12.53-.28.74M16.15,13.13c-.68.21-1.6.39-2.63.39.15-.21.25-.47.27-.74.55,0,1.08-.06,1.59-.19l.11.43s.03.03.06.02l.24-.06s.05,0,.06.02l.02.06s.03.02.06.02l.19-.06s.05,0,.06.02l.02.06s-.01.04-.04.05M15.9,12.59s.02-.04.04-.05c.07-.02.15-.05.21-.08.03-.01.05-.03.04-.05,0-.02-.01-.02-.02-.05,0-.02,0-.03.02-.04,0,0,.01,0,.02,0,.04-.02.12-.05.16-.07,0,0,.01,0,.02,0,.02,0,.04,0,.05.01.01.02.01.02.02.04.01.02.04.02.07,0,.06-.03.15-.07.2-.09.03-.01.05-.01.07,0,.01.02.01.02.02.04.01.02.04.02.07,0,.05-.03.14-.08.2-.11.03-.02.05-.02.07,0,.01.02.02.02.02.04,0,.02,0,.04-.03.06-.46.25-.95.46-1.46.62-.03,0-.05,0-.06-.01-.01-.02-.01-.02-.01-.05s.02-.04.05-.05c.07-.02.15-.05.22-.07.03,0,.05-.03.04-.05,0-.02-.01-.02-.01-.05M18.13,12.01c-.37.34-.75.6-1.2.82-.03.01-.05.01-.06,0-.01-.02-.02-.03-.03-.05,0-.02,0-.04.03-.05.06-.03.13-.06.18-.09.02-.01.04-.03.03-.05,0-.02-.02-.03-.03-.05,0-.02,0-.04.03-.05.05-.03.12-.07.17-.09.03-.01.03-.03.03-.05,0-.02-.02-.03-.03-.05,0-.02,0-.04.03-.05.05-.03.11-.07.16-.1.02-.02.04-.02.06,0,.02.02.02.03.03.05.02.02.04.01.06,0,.05-.03.11-.08.15-.12.02-.02.04-.03.05-.01.02.01.02.03.04.04.02.01.04,0,.06-.02.05-.04.1-.09.15-.13.02-.02.04-.02.06,0,.02.01.03.02.04.04.01.02,0,.03-.02.05M18.74,11c-.36.39-.78.69-1.21,1.01-.03.02-.05.02-.07,0-.02-.02-.02-.02-.03-.04,0-.02,0-.04.03-.06.06-.04.13-.09.18-.13.02-.02.04-.04.03-.06,0-.02-.02-.02-.02-.04,0-.02,0-.04.03-.06.06-.04.13-.1.18-.14.02-.02.04-.04.03-.06,0-.02-.02-.02-.02-.04,0-.02,0-.04.03-.06.04-.03.1-.07.14-.11.02-.02.05-.03.06-.01.01.02.01.02.03.03.02.02.04,0,.06-.01.04-.04.12-.11.16-.15.02-.02.04-.03.06-.02.02.01.02.02.03.03.02.01.04,0,.06-.02.05-.05.12-.12.16-.17.02-.02.04-.03.06-.01.01.01.02.01.03.03.01.02,0,.04-.02.06M18.14,11.09c-.84.71-1.77,1.17-2.78,1.41-.51.12-1.03.19-1.57.2,0,0,0-.02,0-.02,0,0,0-.01,0-.02,0-.31-.09-.61-.26-.85,1.17.01,1.77-.18,2.09-.28.02,0,.04,0,.05.02l.02.06s0,.04-.03.04l-.16.05s-.03.03-.03.04l.02.06s0,.04-.03.04l-.21.05s-.04.02-.03.04v.06s.13.45.13.45c1.28-.31,2.44-.97,3.5-2.03-.23.25-.47.47-.71.68M18.79,3.97s.04-.05.03-.07c0-.01-.08-.03-.09-.05.02-.02.04-.09.03-.11,0-.01-.08-.03-.09-.04.02-.02.04-.09.03-.11,0-.01-.06,0-.09-.03,0,0,0,0,0,0,.02-.02.04-.09.04-.11,0-.01-.07,0-.1-.03.02-.02.04-.1.04-.12,0-.02-.08,0-.12-.02,0,0,0,0,0-.01.02-.02.06-.08.05-.1,0-.02-.08,0-.13-.02.02-.02.06-.09.05-.12,0-.02-.09,0-.14-.01.03-.02.06-.1.05-.12,0-.02-.09,0-.14,0,.03-.03.06-.1.05-.12,0-.02-.08,0-.14,0,.03-.03.06-.11.05-.13,0-.02-.08,0-.14.01.02-.04.05-.11.04-.13,0-.02-.08.01-.14.02.02-.04.05-.11.03-.13,0-.02-.08.02-.14.03.02-.05.04-.12.03-.14-.01-.02-.08.02-.15.04.02-.05.04-.12.02-.14-.01-.01-.08.03-.15.05.02-.05.03-.13.02-.15-.01-.01-.08.04-.15.06.02-.05.03-.14.01-.15-.01-.02-.09.04-.16.07.02-.06.03-.14,0-.16-.01-.02-.09.05-.16.08.01-.04.02-.07.03-.11.02-.07.03-.14.04-.21.87.5,1.4,1.27,1.64,2.33,0,.02.02.08.02.1-.05-.03-.08-.07-.1-.11"/>
      <polygon class="cls-2" points="11.42 3.39 11.42 3.39 11.42 3.39 11.42 3.39"/>
      <path class="cls-2" d="M16.24,9.75l.05.2s.84-.68,1.12-1.07l-.06-.17h-.02c-.3.37-.72.73-1.09,1.04"/>
      <path class="cls-2" d="M12.02,6.5l-.03-.03c-.3.27-.45.61-.45.91,0,.13.03.26.08.4.02,0,.03,0,.05-.01-.05-.13-.08-.26-.08-.38,0-.3.16-.62.43-.88"/>
      <path class="cls-2" d="M10.8,8.61s-.04,0-.06,0c.29.36.72.68,1.27.89.02,0,.04-.02.07-.02-.44-.15-.76-.37-.99-.57-.11-.09-.21-.2-.29-.3"/>
      <path class="cls-2" d="M14.03,7.58s-.06.02-.08.04c-.09.1-.24.18-.45.19-.03.01-.07.03-.1.05.02,0,.04,0,.05,0,.29,0,.49-.13.58-.28"/>
      <path class="cls-2" d="M14.38,6.78s.04,0,.06-.01c-.21-.2-.54-.34-.98-.34-.85,0-1.28.54-1.28.95,0,.07.01.15.04.23.01,0,.03,0,.04-.01-.03-.07-.04-.15-.04-.22,0-.2.11-.42.31-.6.18-.15.48-.31.92-.31s.74.15.92.31c0,0,0,0,0,0"/>
      <path class="cls-2" d="M15.29,7.76c.05-.13.08-.26.08-.38,0-.61-.64-1.42-1.91-1.42-.43,0-.78.09-1.07.24,0,.01.01.03.01.04.26-.13.6-.24,1.05-.24.69,0,1.14.24,1.4.47.3.26.47.6.47.91,0,.14-.04.29-.11.44.03-.02.05-.04.08-.06"/>
      <path class="cls-2" d="M12.75,8.17c.19.09.42.15.7.15.25,0,.46-.05.64-.12,0-.02,0-.04.01-.06-.17.08-.38.13-.65.13-.29,0-.51-.06-.68-.15,0,.01-.01.03-.02.04"/>
      <path class="cls-2" d="M12.16,8.43c.31.22.74.37,1.29.37.03,0,.07,0,.1,0,0-.02,0-.03.01-.05-.04,0-.07,0-.11,0-.57,0-.97-.16-1.24-.34-.01,0-.03.02-.05.02"/>
      <path class="cls-2" d="M13.45,6.95c.12,0,.22.02.3.06.02,0,.04-.02.06-.02-.1-.05-.21-.08-.36-.08-.43,0-.64.27-.64.48,0,0,0,.01,0,.02.02,0,.03-.01.04-.02,0,0,0,0,0,0,0-.17.19-.43.6-.43"/>
      <path class="cls-2" d="M17.49,8.65l.04.02c.13-.23.23-.46.29-.69h-.03s-.01,0-.01,0c-.06.23-.16.45-.29.67"/>
      <path class="cls-2" d="M17.21,7.85c.04-.16.06-.32.06-.47,0-.07,0-.14-.01-.21-.02,0-.03,0-.05,0,0,.07.01.14.01.21,0,.15-.02.31-.06.47h.05Z"/>
      <path class="cls-2" d="M10.68,6.23c-.27.37-.41.78-.41,1.14,0,.16.03.33.08.5.02,0,.03,0,.05,0-.05-.17-.08-.34-.08-.5,0-.37.14-.76.4-1.11-.01-.01-.02-.02-.03-.04"/>
      <path class="cls-2" d="M16.38,6.57h.02s.02-.02.02-.02c-.41-.8-1.4-1.53-2.97-1.53-.07,0-.14,0-.21,0v.05c.07,0,.14,0,.21,0,1.19,0,1.93.42,2.35.79.25.21.44.46.57.72"/>
      <path class="cls-2" d="M16.69,5.89c-.36-.44-.88-.83-1.57-1.08v.04c.51.19.89.44,1.17.68.14.12.27.25.38.39.01-.01.02-.02.03-.04"/>
      <path class="cls-2" d="M15.8,8.04s-.04.04-.06.07c-.1.17-.24.34-.41.49-.16.14-.38.29-.66.4.02,0,.04.02.06.03.53-.23.9-.59,1.1-.97,0,0-.02,0-.03-.01"/>
      <path class="cls-2" d="M11.47,8.5s-.04,0-.05.01c.31.32.76.58,1.35.69.03-.01.05-.02.08-.03-.6-.1-1.01-.35-1.27-.58-.04-.03-.07-.06-.1-.09"/>
      <path class="cls-2" d="M16.05,10.08l-.02-.04c-.61.33-1.45.6-2.57.6-.17,0-.34,0-.49-.02v.05c.16.01.32.02.49.02,1.05,0,1.92-.24,2.6-.61"/>
      <path class="cls-2" d="M15.26,9.89l-.02-.04c-.47.19-1.06.32-1.79.32-.64,0-1.17-.1-1.6-.25v.02s-.02.02-.02.02c.47.16,1.01.26,1.62.26.7,0,1.3-.12,1.81-.32"/>
      <path class="cls-2" d="M9.2,8.22s-.02.02-.04.03c.42,1.07,1.58,2.15,3.48,2.39v-.05c-1.22-.15-2.02-.64-2.5-1.06-.43-.38-.76-.84-.94-1.31"/>
      <path class="cls-2" d="M17.54,5.21c.6.64.95,1.43.95,2.17,0,.86-.47,1.78-1.26,2.47-.66.58-1.86,1.27-3.79,1.27s-3.12-.69-3.79-1.27c-.28-.24-.52-.51-.71-.8l-.04.03c.75,1.13,2.27,2.09,4.53,2.09,3.38,0,5.09-2.15,5.09-3.78,0-.71-.32-1.52-.97-2.2l-.03.03Z"/>
      <path class="cls-2" d="M10.14,5.22c.16-.14.36-.29.6-.43l-.02-.04c-.6.35-1.04.81-1.33,1.29.01,0,.03.01.04.02.18-.3.42-.59.71-.85"/>
      <path class="cls-2" d="M9.14,5.46l-.03-.03c-.5.63-.75,1.32-.75,1.95,0,.45.13.95.4,1.42l.04-.03c-.25-.45-.39-.94-.39-1.4,0-.64.27-1.33.74-1.92"/>
      <path class="cls-2" d="M15.8,8.91s-.01.01-.02.02l.1-.02c.5-.46.76-1.03.76-1.53,0-.11-.01-.23-.04-.35h-.05c.03.12.04.24.04.35,0,.53-.29,1.1-.79,1.53"/>
      <path class="cls-2" d="M11.18,6.53c-.19.28-.28.58-.28.85,0,.16.03.33.1.5.02,0,.03,0,.05,0-.07-.16-.1-.33-.1-.49,0-.27.1-.56.27-.82l-.04-.03Z"/>
      <path class="cls-2" d="M10.07,8.59s-.04,0-.06-.01c.29.46.75.89,1.38,1.2v-.02s.02-.01.02-.01c-.33-.16-.59-.34-.78-.51-.22-.19-.41-.41-.55-.63"/>
      <path class="cls-2" d="M11.98,5.31c.27-.11.59-.19.95-.23v-.04c-.37.04-.7.13-1,.24l.04.03Z"/>
      <path class="cls-2" d="M14.41,9.64s0-.03-.01-.04c-.28.06-.59.1-.94.1-.02,0-.05,0-.07,0,0,.01,0,.03,0,.05.02,0,.05,0,.07,0,.35,0,.67-.04.96-.1"/>
      <path class="cls-2" d="M13.45,4.11c1.68,0,2.73.6,3.31,1.11.15.13.28.26.4.41.01,0,.03-.02.04-.02-.71-.85-1.97-1.53-3.75-1.53-.98,0-1.8.21-2.45.53l.02.04c.59-.3,1.39-.53,2.43-.53"/>
      <path class="cls-2" d="M14.8,4.76v-.04c-.39-.11-.85-.18-1.35-.18-2.54,0-3.82,1.61-3.82,2.84,0,.09,0,.18.02.27,0,0,0,0,.01,0,.01,0,.02,0,.03,0-.01-.09-.02-.18-.02-.27,0-.64.35-1.33.95-1.85.5-.44,1.4-.95,2.83-.95.52,0,.97.07,1.35.17"/>
      <path class="cls-2" d="M12.24,5.7l.04.03c.31-.12.69-.2,1.17-.2.83,0,1.39.26,1.74.52v-.05c-.41-.31-.99-.52-1.74-.52-.47,0-.87.08-1.21.22"/>
      <polygon class="cls-2" points="11.58 6.05 11.62 6.01 11.61 6 11.59 5.98 11.57 5.97 11.22 5.7 11.18 5.67 11.16 5.7 10.84 6.1 11.28 6.43 11.58 6.05"/>
      <polygon class="cls-2" points="12.41 5.92 12.01 5.6 11.98 5.58 11.94 5.62 11.7 5.93 11.69 5.94 11.64 6.01 11.69 6.05 12.07 6.34 12.41 5.92"/>
      <path class="cls-2" d="M9.13,7.89c.3.44.81.61,1.37.61,1.01,0,2.22-.48,2.83-.74.61-.26.89-.39,1.07-.43.19-.03.26.02.13.18-.14.18-.38.48-.36.94,0,.04,0,.09,0,.13-.43.25-.82.46-1.04.54-.31.14-.94.4-1.52.58l-.08.03c-.28.09,1.24,0,1.64-.1.22-.07.65-.28,1.11-.55.17.44.48.64.84.64.86,0,1.97-1.02,2.58-1.82.09-.12.18-.27.2-.34,0-.01,0-.03.01-.04.01-.02.02-.06.03-.1.05-.19.08-.63-.11-1.06-.12-.26-.43-.63-.72-.64-.22,0-.55.31-.59.78-.02.25.08.47.36.53.15.03.42,0,.55,0,.17,0,.32.03.4.15,0,.02.01.03.02.05-.02.03-.05.07-.09.12-.62.79-1.74,1.82-2.6,1.82-.24,0-.49-.07-.67-.21.42-.26.83-.56,1.1-.85.2-.19.27-.3.34-.52,0,0,0,0,0,0,.08-.17.08-.32.08-.46-.01-.18-.08-.38-.16-.52-.06-.11-.1-.21-.13-.3.05.01.09.03.11.04l.07.03c.16.07-.23-.35-.52-.73h0s0,0,0,0l-.1.46-.02.07s0,0,0,0c.05.05.09.09.11.13.06.26.16.5.33.83.07.14.09.17.1.21,0,.01.01.03.02.04-.04.05-.1.11-.18.19-.32.3-.89.68-1.41.99-.05-.27.04-.48.14-.61.06-.09.15-.2.25-.31.38-.42.31-.77,0-.81-.2-.02-.57.13-1.18.39-.6.26-1.75.74-2.74.74-.62,0-1.13-.14-1.46-.6-.21-.34-.08-.77,0-1.05l.02-.07c-.03-.15-.61.82-.13,1.67M17.32,6.5c-.15.01-.29.03-.38.01-.09-.01-.14-.06-.13-.08.03-.1.14-.18.29-.16.14.02.25.11.35.23-.04,0-.08-.01-.13,0"/>
      <polygon class="cls-2" points="11.61 5.68 11.89 5.32 11.53 5.04 11.24 5.4 11.61 5.68"/>
      <path class="cls-2" d="M10.69,11.36c.07.03.08.06.09.07.01.02.01.1-.01.24,0,0,0,0,0,0,0,0,0,0,0,0,0,0,0,0,0,0,0,0,.05-.15.07-.22,0,0,0-.02,0-.03-.02-.04-.06-.05-.16-.07,0,0,0,0,0,0,0,0,0,0,0,0"/>
      <path class="cls-2" d="M8.67,10.38s0,0,0,0c0,0,.12-.1.18-.15,0,0,.02-.02.02-.03,0-.04,0-.05-.07-.12,0,0-.02-.02-.03-.03,0,0,0,0,0,0,0,0,0,0,0,0,.04.06.05.08.04.11,0,.01-.04.08-.14.19,0,0,0,0,0,0,0,0,0,0,0,0"/>
      <path class="cls-2" d="M8.85,11.11s0,0,0,0c.06.06.1.11.1.14,0,0,0,0,0,0,0,.02.01.05-.06.16,0,0,0,0,0,0,0,0,0,0,0,0,0,0,0,0,0,0,0,0,.06-.06.11-.12,0,0,.01-.02.01-.03,0-.04-.07-.09-.16-.16,0,0,0,0,0,0"/>
      <path class="cls-2" d="M8.75,10.58s0,0,0,0c.05.06.08.12.08.14,0,0,0,0,0,0,0,.02,0,.05-.08.15,0,0,0,0,0,0,0,0,0,0,0,0,0,0,0,0,0,0,0,0,.07-.06.12-.11,0,0,.01-.02.01-.03,0-.04-.05-.09-.14-.17,0,0,0,0,0,0"/>
      <path class="cls-2" d="M10.3,12.78s-.09.02-.13.04c-.06.02-.11.03-.18.05-.04.01-.08,0-.1-.02-.06-.06-.06-.06-.07-.06,0,0,0,0,0,0,0,0,.01.05.02.07v.02c.03.05.05.07.08.08,0,0,0,0,.01,0,.03,0,.07-.02.09-.03h0s0,0,0,0c.1-.05.27-.14.27-.14,0,0,0,0,0,0,0,0,0,0,0,0"/>
      <path class="cls-2" d="M9.45,12.43c-.1,0-.16,0-.25-.01h-.03s-.07-.02-.1-.05c-.01-.02-.05-.07-.06-.07,0,0,0,0,0,0,0,0,0,.05.01.07h0c.02.07.03.1.06.1.01,0,.03,0,.04,0,.11,0,.28-.03.32-.04,0,0,0,0,0,0,0,0,0,0,0,0"/>
      <path class="cls-2" d="M15.3,11.85s.08-.03.08-.08c0-.04-.03-.08-.08-.08,0,0-.01,0-.02,0,0,0,0,0,0,0,0,0,0,0,0,0,.03,0,.05.03.05.06,0,.03-.03.05-.06.05-.03,0-.05-.02-.05-.05,0,0,0,0,0,0,0,0,0,0,0,0,0,0,0,0,0,0,0,.05.03.08.08.08"/>
      <path class="cls-2" d="M14.91,11.77s-.01,0-.02,0c0,0,0,0,0,0,0,0,0,0,0,0,.03,0,.05.03.05.06,0,.03-.03.05-.06.05-.03,0-.05-.02-.05-.05,0,0,0,0,0,0,0,0,0,0,0,0,0,0,0,0,0,.01,0,.04.03.08.08.08.04,0,.08-.03.08-.08,0-.04-.03-.08-.08-.08"/>
      <path class="cls-2" d="M14.5,11.83s-.01,0-.02,0c0,0,0,0,0,0,0,0,0,0,0,0,.03,0,.05.03.05.06,0,.03-.03.05-.06.05-.03,0-.05-.02-.05-.05,0,0,0,0,0,0,0,0,0,0,0,0,0,0,0,0,0,.01,0,.04.03.08.08.08.04,0,.08-.03.08-.08,0-.04-.03-.08-.08-.08"/>
      <path class="cls-2" d="M14.1,11.87s-.01,0-.02,0c0,0,0,0,0,0,0,0,0,0,0,0,.03,0,.05.03.05.06,0,.03-.03.05-.06.05-.03,0-.05-.02-.05-.05,0,0,0,0,0,0,0,0,0,0,0,0,0,0,0,0,0,.01,0,.04.03.08.08.08.04,0,.08-.03.08-.08,0-.04-.03-.08-.08-.08"/>
      <path class="cls-2" d="M13.74,11.88s-.01,0-.02,0c0,0,0,0,0,0,0,0,0,0,0,0,.03,0,.05.03.05.06,0,.03-.03.05-.06.05-.03,0-.05-.02-.05-.05,0,0,0,0,0,0,0,0,0,0,0,0,0,0,0,0,0,.01,0,.04.03.08.08.08.04,0,.08-.03.08-.08,0-.04-.03-.08-.08-.08"/>
      <path class="cls-2" d="M15.7,13.04s-.01,0-.02,0c0,0,0,0,0,0,0,0,0,0,0,0,.03,0,.05.03.05.06,0,.03-.03.05-.06.05-.03,0-.05-.02-.05-.05,0,0,0,0,0,0,0,0,0,0,0,0,0,0,0,0,0,.01,0,.04.03.08.08.08.04,0,.08-.03.08-.08,0-.04-.03-.08-.08-.08"/>
      <path class="cls-2" d="M15.23,13.14s0,0,0,0c0,0,0,0,0,0,.03,0,.05.03.05.06,0,.03-.03.05-.06.05-.03,0-.05-.02-.05-.05,0,0,0,0,0,0,0,0,0,0,0,0,0,0,0,0,0,.01,0,.04.03.08.08.08.04,0,.08-.03.08-.08,0-.05-.04-.09-.1-.08"/>
      <path class="cls-2" d="M14.78,13.21s-.01,0-.02,0c0,0,0,0,0,0,0,0,0,0,0,0,.03,0,.05.03.05.06,0,.03-.03.05-.06.05-.03,0-.05-.02-.05-.05,0,0,0,0,0,0,0,0,0,0,0,0,0,0,0,0,0,.01,0,.04.03.08.08.08.04,0,.08-.03.08-.08,0-.04-.03-.08-.08-.08"/>
      <path class="cls-2" d="M14.3,13.27s-.01,0-.02,0c0,0,0,0,0,0,0,0,0,0,0,0,.03,0,.05.03.05.06,0,.03-.03.05-.06.05-.03,0-.05-.02-.05-.05,0,0,0,0,0,0,0,0,0,0,0,0,0,0,0,0,0,.01,0,.04.03.08.08.08.04,0,.08-.03.08-.08,0-.04-.03-.08-.08-.08"/>
      <path class="cls-2" d="M13.84,13.28s-.01,0-.02,0c0,0,0,0,0,0,0,0,0,0,0,0,.03,0,.05.03.05.06,0,.03-.03.05-.06.05-.03,0-.05-.02-.05-.05,0,0,0,0,0,0,0,0,0,0,0,0,0,0,0,0,0,.01,0,.04.03.08.08.08.04,0,.08-.03.08-.08,0-.04-.03-.08-.08-.08"/>
      <path class="cls-2" d="M12.24,1.95s0-.01,0-.02c0-.14,0-.28.04-.41,0-.03.02-.06.02-.09.03-.09.06-.17.1-.25.04-.09.09-.17.15-.25.04-.05.08-.1.13-.14.23-.23.55-.35.93-.29.22.05.4.15.55.28.05.04.09.09.13.14.07.09.13.18.18.28.03.07.06.14.08.22.01.04.02.08.03.13.03.12.04.25.04.38,0,.12-.01.23-.04.35,0,.04-.02.09-.04.13-.01.03-.02.07-.03.1-.05.13-.12.25-.2.36-.05.07-.11.13-.18.18-.07.06-.14.1-.22.15-.12.06-.24.09-.37.11.22,0,.42-.09.6-.22.08-.06.16-.13.22-.21.05-.06.09-.12.13-.19.02-.03.04-.07.05-.1.03-.05.05-.11.07-.17.01-.04.03-.09.04-.13.03-.11.04-.23.05-.35,0-.11,0-.23-.03-.34-.01-.05-.02-.11-.04-.16-.03-.1-.07-.19-.11-.28-.04-.08-.08-.15-.14-.22-.03-.03-.05-.07-.08-.1-.01-.01-.03-.03-.04-.04-.36-.38-.96-.49-1.41-.2-.09.06-.17.12-.24.2-.04.04-.08.09-.11.14-.05.07-.09.14-.12.21-.04.09-.08.19-.1.29,0,.03-.02.07-.02.1-.02.13-.03.27-.02.4,0,0,0,.01,0,.02"/>
      <path class="cls-2" d="M13.24,1.06s-.1.01-.14.03c-.03.02-.07.04-.09.07-.04.04-.06.09-.06.16v.03s.02-.02.02-.02c.03-.04.07-.07.12-.09,0,0,0,0,0,0,.05-.02.1-.03.14-.03.02,0,.04,0,.06,0-.09.04-.15.1-.17.17,0,.03-.01.06,0,.09,0,.01,0,.03,0,.04v.03s.02-.03.02-.03c0-.03.02-.06.04-.08.01-.02.03-.04.04-.05.06-.05.12-.08.16-.08v.51s0,.05,0,.07c-.01.04-.03.07-.03.08h0s.24.01.24.01h.01s0-.01,0-.01c0,0-.02-.04-.03-.08,0-.02,0-.04,0-.07v-.51s.11.03.16.08c.02.01.03.03.04.05.02.02.03.05.04.08v.03s.02-.03.02-.03c0-.01,0-.03,0-.04,0-.03,0-.06-.01-.09-.02-.07-.08-.13-.17-.17.02,0,.04,0,.06,0,.04,0,.09.01.14.03,0,0,0,0,0,0,.04.02.09.05.12.09l.02.02v-.03c0-.06-.03-.12-.06-.16-.02-.03-.06-.05-.09-.07-.05-.02-.1-.04-.15-.04,0,0,0,0,0,0,0,0-.02,0-.03,0,.01-.01.03-.02.04-.03.03-.02.07-.03.11-.03,0,0,.02,0,.03,0,.04,0,.08,0,.11.02h.03s-.02-.01-.02-.01c-.05-.07-.13-.11-.22-.11-.06,0-.12.02-.17.06,0-.02-.02-.05-.04-.07-.01-.02-.03-.03-.04-.04h0s0,0,0,0c-.01.01-.03.03-.04.04-.02.02-.03.04-.04.07-.05-.04-.11-.06-.17-.06-.09,0-.17.04-.22.11l-.02.02h.03s.07-.03.11-.03c0,0,.02,0,.03,0,.04,0,.08.01.11.03.02,0,.03.02.04.03,0,0-.02,0-.03,0,0,0,0,0,0,0"/>
      <path class="cls-2" d="M13.73,2.61s-.02.03-.03.04c-.03.04-.07.07-.11.07h-.04s.03.02.03.02c.03.01.06.02.09.02.05,0,.1-.03.14-.08.05.04.09.06.13.07.04.02.09.03.13.03.11,0,.19-.05.2-.14h0s-.01-.01-.01-.01c-.04.01-.08.02-.12.02,0,0-.02,0-.02,0-.01,0-.03,0-.04,0-.05-.01-.11-.03-.16-.07-.01,0-.02-.01-.03-.02.04-.05.07-.07.09-.08.01,0,.02,0,.02,0,.01,0,.02,0,.02,0h.03s-.02-.01-.02-.01c0-.01-.02-.02-.03-.03-.02-.02-.05-.02-.08-.02-.04,0-.07.01-.09.04,0,0-.02.02-.02.03,0,0,0,.01-.01.02,0,0-.02-.01-.03-.02-.01-.01-.02-.02-.04-.03-.02-.02-.04-.04-.06-.05,0,0-.02-.01-.02-.02-.03-.03-.06-.05-.09-.08.01-.01.04-.03.07-.06.11-.08.3-.2.55-.2.07,0,.13,0,.2.03h.03s-.02-.02-.02-.02c-.09-.09-.2-.14-.32-.14-.25,0-.5.2-.61.29-.11-.09-.36-.29-.61-.29-.12,0-.23.05-.32.14l-.02.02h.03c.07-.03.13-.03.2-.03.25,0,.44.12.55.2.03.02.05.04.07.06-.03.03-.06.05-.09.08,0,0-.02.01-.02.02-.02.02-.04.04-.06.05-.01.01-.03.02-.04.03,0,0-.02.02-.03.02,0,0,0-.01-.01-.02,0-.01-.02-.02-.02-.03-.03-.03-.06-.04-.09-.04-.03,0-.05,0-.08.02-.01,0-.02.02-.03.03l-.02.03h.03s0-.02.02-.02c0,0,.02,0,.03,0,.02,0,.06.03.09.08-.01,0-.02.02-.03.02-.06.04-.11.06-.16.07-.01,0-.03,0-.04,0,0,0-.02,0-.03,0-.04,0-.07,0-.12-.02h-.01s0,.01,0,.01c.01.08.1.14.2.14.04,0,.09,0,.13-.03.04-.01.08-.04.13-.07.04.06.08.08.14.08.03,0,.06,0,.09-.02l.03-.02h-.04s-.08-.03-.11-.07c0-.01-.02-.02-.03-.04.02-.02.04-.03.06-.05.06-.05.13-.11.19-.16l.03-.03.03.03c.06.05.13.11.19.16.02.02.04.03.06.05"/>
      <path class="cls-2" d="M13.43,12.69s-.02-.01-.04-.02c-.29-.16-.69-.2-1.01-.1-.03,0-.06.02-.08.03.03-.02.06-.03.08-.05.26-.17.46-.47.53-.76.02-.07.03-.14.03-.21-.1.04-.2.11-.29.19-.08.07-.15.15-.21.24-.12.17-.2.36-.22.55,0-.41-.23-.87-.57-1.07-.05.4.16.87.48,1.11-.14-.08-.3-.14-.47-.16-.26-.04-.53,0-.74.12.14.11.33.18.52.21.24.04.49.02.69-.07-.36.2-.64.64-.64,1.02.37-.16.67-.58.72-.97,0,.17.03.34.1.5.03.07.07.15.11.21.09.15.22.27.35.35.01-.1,0-.21-.01-.32-.05-.28-.2-.56-.4-.74-.02-.02-.05-.04-.07-.06.02.01.05.03.07.04.32.16.76.18,1.07.04.02-.01.05-.02.07-.03-.02-.01-.03-.02-.05-.03,0,0-.02-.01-.02-.02"/>
      <path class="cls-2" d="M13.02,12.25c.05-.12.09-.27.12-.46,0-.03,0-.06.01-.08,0,0,0,0,0,0,0,0,0,0,0,0,0,0,0,.03-.03.09-.04.12-.13.33-.29.55,0,0,0,0,0,0,0,0,0,0,0,0,.4,0,.7.15.7.15,0,0,0,0,0,0,0,0,0,0,0,0-.19-.12-.36-.2-.5-.24"/>
      <path class="cls-2" d="M11.61,12.93s0,0,0,0c-.1,0-.2-.01-.28-.03-.25-.04-.41-.12-.41-.12,0,0,0,0,0,0,0,0,0,0,0,0,.13.08.24.14.35.18.05.02.11.04.16.05-.06.14-.1.32-.13.54,0,0,0,0,0,0,0,0,0,0,0,0,0,0,.08-.32.32-.63,0,0,0,0,0,0"/>
      <path class="cls-2" d="M10.95,12.3s.32-.09.71-.04c0,0,0,0,0,0,0,0,0,0,0,0-.01-.03-.03-.05-.04-.08-.15-.32-.18-.6-.18-.6,0,0,0,0,0,0,0,0,0,0,0,0,0,.23,0,.41.05.55-.02,0-.03,0-.05,0-.14.02-.3.07-.48.15,0,0,0,0,0,0,0,0,0,0,0,0"/>
      <path class="cls-2" d="M13.49,12.98s-.32.09-.71.04c0,0,0,0,0,0,0,0,0,0,0,0,.1.18.15.35.18.48.03.12.04.2.04.2,0,0,0,0,0,0,0,0,0,0,0,0,0-.07,0-.13,0-.2,0-.14-.02-.26-.05-.36.15-.02.33-.07.53-.16,0,0,0,0,0,0,0,0,0,0,0,0"/>
    </g>
  </g>
</svg>