<?xml version="1.0" encoding="UTF-8"?>
<svg id="Layer_2" data-name="Layer 2" xmlns="http://www.w3.org/2000/svg" viewBox="0 0 36.18 15.57">
  <defs>
    <style>
      .cls-1 {
        fill: #fbf5e9;
      }
    </style>
  </defs>
  <g id="Layer_1-2" data-name="Layer 1">
    <g>
      <path class="cls-1" d="M36.08,2.22h-1.19c-.05,0-.09.04-.09.09v2.8c0,.68-.4.81-.91.81h-.82c-.51,0-.91.01-.91-.59h0c0-.06,0-.11,0-.16v-2.85c0-.05-.04-.09-.09-.09h-1.19c-.05,0-.09.04-.09.09v2.8c0,.68-.4.81-.91.81h-.38c-.45,0-.84-.02-1.19-.05.54-.35.89-.87.89-1.6,0-1.32-1.07-2.39-2.39-2.39s-2.39,1.07-2.39,2.39c0,.55.16,1.13.66,1.62-.27.02-.55.03-.86.03h-.26c-.62,0-1.03-.13-1.03-.81v-2.8c0-.05-.04-.09-.09-.09h-1.19c-.05,0-.09.04-.09.09v2.8c0,.68-.4.81-.91.81H5.42c-.51,0-.91-.13-.91-.81v-.96c0-1.07-.37-1.89-1.85-1.89H.66c-.05,0-.09.04-.09.09v.96c0,.05.04.09.09.09h1.57c.51,0,.91.13.91.81v.91c0,.68-.4.81-.91.81H.09C.04,5.92,0,5.96,0,6.01v.96c0,.05.04.09.09.09h2.56c.85,0,1.34-.27,1.6-.71.3.57.85.7,1.48.71h15.34c.85,0,1.34-.27,1.6-.71.31.59.89.7,1.55.71h.04c1.07,0,1.93-.1,2.6-.27.69.17,1.55.27,2.65.27h.81c.84,0,1.32-.26,1.58-.68.32.58.94.68,1.57.68h.61c1.73,0,2.11-.82,2.11-1.89v-2.85c0-.05-.04-.09-.09-.09h0ZM26.81,3.17c.56,0,1.13.54,1.13,1.13,0,.51-.38,1.05-.91,1.34-1.2-.36-1.36-.98-1.36-1.34,0-.59.44-1.13,1.13-1.13h0Z"/>
      <path class="cls-1" d="M36.08,0h-2.87c-.05,0-.09.04-.09.09v.97c0,.05.04.09.09.09h2.87c.05,0,.09-.04.09-.09V.09c0-.05-.04-.09-.09-.09"/>
      <path class="cls-1" d="M22.83,7.77h-2.87c-.05,0-.09.04-.09.09v.97c0,.05.04.09.09.09h2.87c.05,0,.09-.04.09-.09v-.97c0-.05-.04-.09-.09-.09"/>
      <path class="cls-1" d="M32.08,0h-1.19c-.05,0-.09.04-.09.09v.97c0,.05.04.09.09.09h1.19c.05,0,.09-.04.09-.09V.09c0-.05-.04-.09-.09-.09"/>
      <path class="cls-1" d="M27.35,0h-1.19c-.05,0-.09.04-.09.09v.97c0,.05.04.09.09.09h1.19c.05,0,.09-.04.09-.09V.09c0-.05-.04-.09-.09-.09"/>
      <path class="cls-1" d="M3.13,0h-1.19c-.05,0-.09.04-.09.09v.97c0,.05.04.09.09.09h1.19c.05,0,.09-.04.09-.09V.09c0-.05-.04-.09-.09-.09"/>
      <path class="cls-1" d="M17.33,10.55c0-.05-.04-.09-.09-.09h-1.05c0-.44.15-.81.65-.81h.52c.05,0,.09-.04.09-.09v-.96c.01-.05-.03-.09-.08-.09h-.7c-1.73,0-1.85,1.06-1.85,1.89v.05h-.54c-.05,0-.09.04-.09.09v.85c0,.05.04.09.09.09h.54v3.71c0,.05.04.09.09.09h1.19c.05,0,.09-.04.09-.09v-3.71h1.05c.05,0,.09-.04.09-.09v-.85h0Z"/>
      <path class="cls-1" d="M6.34,10.12c-1.14,0-2.34.62-2.39,2.03,0,.05.04.1.09.1h1.21s.09-.04.09-.09c.04-.65.52-.96,1-.95.5.01,1,.33,1,1.09v.18c-2.63-.48-3.63.67-3.63,1.71,0,.84.74,1.52,2.08,1.35.72-.09,1.31-.5,1.55-1.2v.86c0,.05.04.09.09.09h1.19c.05,0,.09-.04.09-.09v-2.83c0-1.1-.58-2.26-2.38-2.26h0ZM5.26,13.89c0-.54.58-.99,2.08-.62-.28,1.81-2.08,1.46-2.08.62"/>
      <path class="cls-1" d="M19.82,10.12c-1.75,0-2.46,1.47-2.49,2.56h0v.2c0,1.41.78,2.69,2.58,2.69.84,0,1.7-.38,2.2-1.34.02-.05,0-.11-.05-.13l-.94-.4s-.09,0-.12.04c-.28.51-.65.74-1.1.74-.54,0-1.06-.28-1.16-1.22h3.39c.05,0,.09-.04.09-.09v-.5c0-1.7-1.09-2.55-2.39-2.55h0ZM19.82,11.21c.67,0,.96.51.99,1.15h-2.08c.12-.93.64-1.15,1.08-1.15h0Z"/>
      <path class="cls-1" d="M12.41,10.12c-.82,0-1.44.41-1.65,1.32l-.19-.91s-.05-.07-.09-.07h-.89c-.05,0-.09.04-.09.09v4.65c0,.05.04.09.09.09h1.21c.05,0,.09-.04.09-.09v-2.96c0-.71.5-1.05,1-1.04.5.01.79.33.79,1.09v2.9c0,.05.04.09.09.09h1.19c.05,0,.09-.04.09-.09v-3.17c0-.89-.33-1.92-1.63-1.92h0Z"/>
      <path class="cls-1" d="M34.54,10.12c-.77,0-1.35.36-1.6,1.15v-2.67c0-.05-.04-.09-.09-.09h-1.13c-.05,0-.09.04-.09.09v6.6c0,.05.04.09.09.09h1.21c.05,0,.09-.04.09-.09v-2.96c0-.71.5-1.05,1-1.04.5.01.79.33.79,1.09v2.9c0,.05.04.09.09.09h1.19c.05,0,.09-.04.09-.09v-3.17c0-.89-.33-1.92-1.63-1.92h0Z"/>
      <path class="cls-1" d="M25.26,10.12c-1.75,0-2.46,1.47-2.49,2.56h0v.2c0,1.41.78,2.69,2.58,2.69.84,0,1.7-.38,2.2-1.34.02-.05,0-.11-.05-.13l-.94-.4s-.09,0-.12.04c-.28.51-.65.74-1.1.74-.54,0-1.06-.28-1.16-1.22h3.39c.05,0,.09-.04.09-.09v-.5c0-1.7-1.09-2.55-2.39-2.55h0ZM25.26,11.21c.67,0,.96.51.99,1.15h-2.08c.12-.93.64-1.15,1.08-1.15h0Z"/>
      <path class="cls-1" d="M30.92,10.46h-.76c-.22,0-.39-.17-.39-.39v-.67c0-.05-.04-.09-.09-.09h-.98s-.09.03-.09.08l-.14,1.08h-.58c-.05,0-.09.04-.09.09v.85c0,.05.04.09.09.09h.51v2.1h0c.02.8.25,1.7,1.85,1.7h.67c.05,0,.09-.04.09-.09v-.96c0-.05-.04-.09-.09-.09h-.5c-.51,0-.65-.37-.65-.81v-1.86h1.15c.05,0,.09-.04.09-.09v-.85c0-.05-.04-.09-.09-.09h0Z"/>
      <path class="cls-1" d="M3.13,10.46h-.76c-.22,0-.39-.17-.39-.39v-.67c0-.05-.04-.09-.09-.09h-.98s-.08.03-.09.08l-.14,1.08H.09c-.05,0-.09.04-.09.09v.85c0,.05.04.09.09.09h.51v2.1h0c.02.8.25,1.7,1.85,1.7h.67c.05,0,.09-.04.09-.09v-.96c0-.05-.04-.09-.09-.09h-.5c-.51,0-.65-.37-.65-.81v-1.86h1.15c.05,0,.09-.04.09-.09v-.85c0-.05-.04-.09-.09-.09h0Z"/>
    </g>
  </g>
</svg>