<?xml version="1.0" encoding="UTF-8"?>
<svg id="Layer_2" data-name="Layer 2" xmlns="http://www.w3.org/2000/svg" xmlns:xlink="http://www.w3.org/1999/xlink" viewBox="0 0 40.12 18.78">
  <defs>
    <style>
      .cls-1 {
        fill: none;
      }

      .cls-2 {
        fill: #fbf5e9;
      }

      .cls-3 {
        clip-path: url(#clippath);
      }
    </style>
    <clipPath id="clippath">
      <rect class="cls-1" width="40.12" height="18.78"/>
    </clipPath>
  </defs>
  <g id="Layer_1-2" data-name="Layer 1">
    <g class="cls-3">
      <path class="cls-2" d="M27.31,11.22v4.57h-1.57v-4.57h-1.28v4.57h-1.52v-2.97h-1.28v2.97l-5.43-.06c.53-.35.99-1.08.99-1.99v-.91h-4.55v.74l.49,2.23h-1.32c-.36,0-.66-.37-.66-.73v-.55c0-.93-.76-1.69-1.69-1.69h-2.77v2.3c0,.36-.07.87-.86.87-.59,0-.7-.51-.7-.87v-2.3h-2.23c-.97,0-1.59.78-1.59,1.74v1.91c0,.37.04,1-.61,1H0v.91h1.07c1.18,0,1.54-.94,1.54-1.74v-2.32c0-.5.31-.71.7-.71h.54v1.35c0,1.01.41,1.83,1.8,1.83.65,0,1.14-.26,1.43-.59.37.42,1.03.64,1.85.64s1.52-.32,1.83-.79c.2.34.55.59,1.06.59h16.76v-5.42h-1.28ZM9.88,15.13c0,.6-.41.86-.94.86-.48,0-.94-.24-.94-1.01v-1.37h1.2c.37,0,.69.31.69.84v.68ZM14.28,15.71l-.45-2.1h2.1c.11,1.22-.54,1.99-1.65,2.1"/>
      <path class="cls-2" d="M22.9,9.45h2.83v-5.42h-1.28v4.57h-1.52v-3.08h-1.29v3.64c0,.37.03,1.01-.62,1.01h-.25v.91h.6c1.21,0,1.54-.82,1.54-1.63"/>
      <polygon class="cls-2" points="20.15 5.52 18.87 5.52 18.87 8.6 13.15 8.6 13.15 4.04 11.86 4.04 11.86 9.45 20.15 9.45 20.15 5.52"/>
      <path class="cls-2" d="M3.73,11.04c1.5,0,2.42-.65,2.43-1.59h4.59v-2.26c0-.96-.78-1.74-1.74-1.74-1.08,0-2.1.61-2.85,1.09v-1.02h-1.28v3.6c0,.89-.63,1.13-1.15,1.13-.83,0-1.12-.46-1.12-1.09v-2.35h-1.28v2.54c0,1,.82,1.69,2.4,1.69M6.17,7.5c.89-.81,1.83-1.12,2.65-1.12.32,0,.66.28.66.78v1.45h-3.31v-1.11Z"/>
      <polygon class="cls-2" points="8.33 4 7.48 3.32 6.64 4 7.48 4.67 8.33 4"/>
      <rect class="cls-2" x="27.31" y="4.04" width="1.28" height="5.42"/>
      <polygon class="cls-2" points="19.25 13.43 20.15 12.7 19.25 11.98 18.33 12.7 19.25 13.43"/>
      <polygon class="cls-2" points="19.25 10.53 18.33 11.25 19.25 11.98 20.15 11.25 19.25 10.53"/>
      <polygon class="cls-2" points="5.24 18.05 6.16 18.78 7.06 18.05 6.16 17.33 5.24 18.05"/>
      <polygon class="cls-2" points="3.42 18.05 4.34 18.78 5.24 18.05 4.34 17.33 3.42 18.05"/>
      <path class="cls-2" d="M35.9,16.64h4.22v-2.55l-4.22-2.38v4.93ZM36.2,12.22l3.62,2.04v2.08h-3.62v-4.12Z"/>
      <path class="cls-2" d="M40.12,7.99V2.99l-4.05,2.94,4.05,2.07ZM39.83,7.51l-3.18-1.62h0s0,0,0,0l3.18-2.31v3.94Z"/>
      <path class="cls-2" d="M40.12,13.66v-5.01l-4.04,2.72,4.04,2.29ZM39.83,13.15l-3.18-1.8h0s0,0,0,0l3.19-2.14v3.94Z"/>
      <path class="cls-2" d="M39.95,8.32h0s-4.04-2.07-4.04-2.07v4.78l4.04-2.71h0ZM36.2,10.48v-3.74l3.16,1.62-3.16,2.12Z"/>
      <path class="cls-2" d="M31.69,16.64h3.84v-4.9l-3.84,2.58v2.32ZM31.99,14.47l3.24-2.18v4.04h-3.24v-1.86Z"/>
      <polygon class="cls-2" points="35.9 .68 35.9 5.59 40.12 2.53 40.12 0 35.9 .68"/>
      <polygon class="cls-2" points="31.69 3.68 35.53 5.64 35.53 .74 31.69 1.35 31.69 3.68"/>
      <polygon class="cls-2" points="31.69 4.1 31.69 8.64 35.36 5.98 31.69 4.1"/>
      <polygon class="cls-2" points="35.36 11.4 31.69 9.33 31.69 13.87 35.37 11.4 35.36 11.4"/>
      <polygon class="cls-2" points="31.85 8.99 31.85 8.99 35.53 11.07 35.53 6.32 31.85 8.99 31.85 8.99"/>
    </g>
  </g>
</svg>