<?xml version="1.0" encoding="UTF-8"?>
<svg id="Layer_2" data-name="Layer 2" xmlns="http://www.w3.org/2000/svg" viewBox="0 0 46.29 13.61">
  <defs>
    <style>
      .cls-1 {
        fill: #fbf5e9;
      }
    </style>
  </defs>
  <g id="Layer_1-2" data-name="Layer 1">
    <g>
      <path class="cls-1" d="M14.22,6.81h-5.91v.46h4.35c-.2,3.2-2.46,5.8-5.38,6.27-3.05-.49-5.39-3.32-5.39-6.73S4.23.56,7.28.08c2.04.33,3.76,1.7,4.68,3.59h1.89c-1.06-2.18-3.18-3.67-5.62-3.67-.32,0-.64.03-.94.08-.31-.05-.62-.08-.94-.08C2.84,0,0,3.05,0,6.81s2.84,6.81,6.34,6.81c.32,0,.64-.03.94-.08.31.05.62.08.94.08,3.5,0,6.34-3.05,6.34-6.81h-.34Z"/>
      <path class="cls-1" d="M14.22,6.81h-5.91v.46h4.35c-.2,3.2-2.46,5.8-5.38,6.27-3.05-.49-5.39-3.32-5.39-6.73S4.23.56,7.28.08c2.04.33,3.76,1.7,4.68,3.59h1.89c-1.06-2.18-3.18-3.67-5.62-3.67-.32,0-.64.03-.94.08-.31-.05-.62-.08-.94-.08C2.84,0,0,3.05,0,6.81s2.84,6.81,6.34,6.81c.32,0,.64-.03.94-.08.31.05.62.08.94.08,3.5,0,6.34-3.05,6.34-6.81h-.34Z"/>
      <rect class="cls-1" x="16.08" y=".17" width="1.83" height="13.28"/>
      <rect class="cls-1" x="16.08" y=".17" width="1.83" height="13.28"/>
      <polygon class="cls-1" points="17.91 .17 21.32 13.45 23.15 13.45 19.74 .17 17.91 .17"/>
      <polygon class="cls-1" points="17.91 .17 21.32 13.45 23.15 13.45 19.74 .17 17.91 .17"/>
      <polygon class="cls-1" points="28.38 .17 28.38 .17 26.55 .17 23.15 13.45 24.97 13.45 28.38 .17 28.38 13.45 30.21 13.45 30.21 .17 28.38 .17"/>
      <polygon class="cls-1" points="28.38 .17 28.38 .17 26.55 .17 23.15 13.45 24.97 13.45 28.38 .17 28.38 13.45 30.21 13.45 30.21 .17 28.38 .17"/>
      <path class="cls-1" d="M45.95,6.81h-5.91v.46h4.35c-.2,3.2-2.46,5.8-5.38,6.27-3.05-.49-5.39-3.32-5.39-6.73S35.96.56,39.01.08c2.04.33,3.76,1.7,4.68,3.59h1.89c-1.06-2.18-3.18-3.67-5.62-3.67-.32,0-.64.03-.94.08-.31-.05-.62-.08-.94-.08-3.5,0-6.34,3.05-6.34,6.81s2.84,6.81,6.34,6.81c.32,0,.64-.03.94-.08.31.05.62.08.94.08,3.5,0,6.34-3.05,6.34-6.81h-.34Z"/>
      <path class="cls-1" d="M45.95,6.81h-5.91v.46h4.35c-.2,3.2-2.46,5.8-5.38,6.27-3.05-.49-5.39-3.32-5.39-6.73S35.96.56,39.01.08c2.04.33,3.76,1.7,4.68,3.59h1.89c-1.06-2.18-3.18-3.67-5.62-3.67-.32,0-.64.03-.94.08-.31-.05-.62-.08-.94-.08-3.5,0-6.34,3.05-6.34,6.81s2.84,6.81,6.34,6.81c.32,0,.64-.03.94-.08.31.05.62.08.94.08,3.5,0,6.34-3.05,6.34-6.81h-.34Z"/>
    </g>
  </g>
</svg>