<?xml version="1.0" encoding="UTF-8"?>
<svg id="Layer_2" data-name="Layer 2" xmlns="http://www.w3.org/2000/svg" viewBox="0 0 29.93 20.82">
  <defs>
    <style>
      .cls-1 {
        fill: #fbf5e9;
      }
    </style>
  </defs>
  <g id="Layer_1-2" data-name="Layer 1">
    <g>
      <path class="cls-1" d="M.94,20.82c-.11-.12-.18-.25-.19-.49-.13.23-.28.28-.47.22-.13-.04-.19-.11-.13-.26.07-.18.2-.31.36-.4.11-.06.18-.13.16-.27-.01-.07.01-.14.11-.19.03.25.06.49.1.73.02.14,0,.31.14.37.18.07.37.02.52-.1.09-.08.12-.1.21.01.13.17.29.16.45,0,.09-.09.13-.1.23,0,.19.17.27.16.43-.03.18-.21.37-.39.61-.52.1-.06.21-.12.33-.08.31.11.39.23.2.55-.09.16-.02.18.1.2.18.03.34.02.46-.14.06-.08.1-.07.17,0,.22.2.29.19.47-.03.18-.22.41-.4.66-.54.18-.1.33-.04.47.07.15.12.07.26.02.38-.09.22-.07.26.17.27.3.01.56-.14.87-.26-.25-.14-.48-.21-.74-.09.05-.28.26-.41.51-.33.27.08.53.21.82.25.14.02.28.01.42.02.05,0,.15-.04.13.06-.01.08,0,.2-.13.21-.01,0-.02,0-.04,0-.07,0-.18-.05-.19.04-.02.12.12.11.19.11.26,0,.53,0,.72-.24.05.08.09.15.15.19.09.06.17.05.26,0,.09-.05.11-.12.1-.21-.06-.46-.11-.92-.17-1.38-.02-.12-.04-.24.07-.37.04.14.24.21.11.42-.04.06,0,.18.01.27.03.31.1.62.09.93,0,.26-.08.49-.29.67h-.18c-.1-.04-.15-.2-.3-.13-.09.04-.17.09-.25.13h-.51c-.11-.07-.18-.16-.15-.3.03-.12-.02-.14-.14-.13-.43.05-.8.24-1.18.42h-.37c-.14-.05-.26-.16-.42-.13-.13.02-.26.09-.39.13h-.62c-.06-.13-.2-.16-.3-.24-.05-.04-.1.11-.17.15-.04.03-.08.06-.12.09h-.29c-.15-.04-.28-.15-.44-.13-.14.02-.27.09-.41.13h-.62c-.04-.14-.2-.15-.29-.24-.04-.03-.09.09-.14.14-.04.03-.08.07-.12.1h-.18c-.06-.04-.13-.09-.19-.14-.04-.03-.07-.06-.11-.01-.07.08-.17.09-.25.15h-.33ZM2.85,20.56c.33-.02.59-.07.84-.21.06-.03.16-.05.14-.14-.02-.07-.11-.09-.18-.11-.03,0-.07-.01-.11,0-.27.06-.48.21-.69.46M5.24,20.53c.28,0,.54-.05.79-.19.06-.03.15-.05.14-.12-.01-.09-.11-.1-.19-.12-.05-.02-.11-.01-.16,0-.24.07-.44.21-.58.43M.52,20.27c.08-.02.2.03.18-.13,0-.05.02-.14-.08-.15-.09,0-.32.16-.29.21.04.08.12.06.19.07"/>
      <path class="cls-1" d="M14.79,20.4c.03-.14-.03-.28-.05-.41-.01-.11-.05-.23.08-.33.04.19.09.36.13.54.09.37.38.47.68.21.09-.08.12-.08.19.02.07.1.18.15.31.09.12-.06.12-.17.11-.28-.04-.43-.07-.86-.1-1.3-.01-.13.02-.24.13-.37.03.31.06.58.09.86.52-.54,1.18-.82,1.86-1.13,0,.2-.04.32-.23.4-.46.17-.88.42-1.29.68-.07.05-.16.09-.21.19.28.11.57.19.75.46.16.26.12.5-.13.81h-.55c-.13-.12-.16-.28-.2-.47-.05.2-.09.36-.24.47h-.18c-.06-.05-.13-.09-.19-.14-.04-.03-.07-.05-.11,0-.07.08-.17.09-.25.15h-.26c-.15-.09-.19-.26-.29-.4,0,0,0-.01-.01-.02M16.75,20.53c.13,0,.24-.03.35-.09.11-.06.13-.13.03-.22-.13-.13-.27-.23-.44-.29-.09-.04-.21-.13-.29-.08-.09.06,0,.19,0,.29,0,.06.02.12.04.18.04.16.14.24.3.22"/>
      <path class="cls-1" d="M19.09,20.82c.02-.09.03-.19-.04-.26-.15-.16-.07-.32-.01-.49.25.22.37.18.62-.23.08.15.05.31.08.46.03.15.11.23.27.25.23.02.45-.01.65-.13.14-.08.13-.16.03-.27-.13-.14-.27-.26-.44-.35-.25-.14-.27-.46-.04-.65.27-.22.58-.36.9-.49.25-.1.49-.2.76-.26-.01.21-.08.32-.28.39-.45.15-.88.32-1.3.55-.13.07-.16.13,0,.21.14.07.25.17.35.29.33.36.27.76-.16.99h-.66c-.2-.16-.17-.4-.22-.64-.09.15-.18.24-.32.27-.05.01-.05.04-.05.08,0,.1-.02.19-.03.29h-.11Z"/>
      <path class="cls-1" d="M11.39,20.82c-.26-.32-.26-.65.02-.91.03.06-.02.09-.04.13-.12.23-.06.4.18.5.24.1.49.08.74.06.21-.02.42-.08.62-.16.18-.08.27-.2.25-.4-.03-.37-.05-.74-.08-1.11-.01-.14.02-.26.16-.39.02.21.04.4.05.59.02.34.05.68.1,1.02.03.16.06.34.23.38.18.04.35-.03.48-.17.01-.01.03-.02.04-.03.21.27.34.29.65.08,0,0,0,.01.01.02-.05.17-.16.3-.3.4h-.18c-.06-.05-.13-.09-.19-.14-.04-.03-.07-.05-.11,0-.07.08-.17.09-.25.15h-.26c-.17-.13-.2-.34-.27-.56-.12.32-.35.46-.61.56h-1.25Z"/>
      <path class="cls-1" d="M27.64,20.82c-.19-.09-.26-.25-.27-.46-.03-.54-.03-1.07-.14-1.6-.02-.1.05-.17.12-.27.07.28.07.54.1.79.03.27.03.54.04.8,0,.17,0,.35.19.42.19.07.39.03.55-.1.09-.08.13-.1.19.02.05.08.14.14.25.1.09-.03.17-.05.09-.19-.1-.16.02-.46.22-.63.24-.21.46-.2.65.02.02.03.06.05.03.09-.02.03-.06.01-.09,0-.17-.06-.34-.03-.5.03-.08.03-.16.08-.17.18,0,.1.08.15.16.18.16.07.32.04.48-.03.13-.06.25-.13.39-.21,0,.22-.08.35-.29.42-.34.12-.67.25-.98.43h-.18s-.1-.08-.15-.13c-.04-.03-.07-.06-.12-.02-.08.06-.16.1-.24.15h-.33Z"/>
      <path class="cls-1" d="M22.65,20.82c-.04-.06-.12-.05-.18-.08-.41-.19-.45-.64-.08-.92.03.05-.02.06-.03.09-.11.17-.08.32.08.45.13.1.28.15.44.16.53.04,1.05,0,1.54-.21.2-.09.22-.12.09-.29-.11-.15-.06-.27.02-.4.29.31.2.81-.16.98-.2.1-.43.12-.63.22h-1.1Z"/>
      <path class="cls-1" d="M25.95,20.82c-.04-.06-.08-.12-.06-.2.01-.08.02-.13.14-.1.22.06.43-.02.65-.08.09-.02.09-.08.06-.16-.08-.2-.23-.32-.42-.39-.14-.05-.15-.13-.08-.25.08-.14.15-.04.22,0,.26.17.39.41.4.72,0,.18-.06.32-.25.37-.05.01-.11.01-.14.07h-.51Z"/>
      <path class="cls-1" d="M25.29,20.82c.02-.59-.1-1.17-.16-1.76-.02-.18.05-.31.14-.45.06.74.23,1.47.1,2.21h-.07Z"/>
      <path class="cls-1" d="M10.29,20.82c0-.56-.1-1.12-.16-1.67-.02-.2,0-.37.12-.55.07.11.05.23.06.33.04.46.11.92.1,1.38,0,.17-.02.34-.08.5h-.04Z"/>
      <path class="cls-1" d="M8.54,7.4c-1.01,0-1.86-.17-2.6-.71-.81-.58-1.23-1.4-1.31-2.37-.08-.92.06-1.81.55-2.62.46-.75,1.13-1.22,1.96-1.47,1.12-.33,2.23-.3,3.32.12.01,0,.02,0,.03.01.31.12.31.12.22.44-.06.2-.1.4-.12.61,0,.06.02.13-.06.16-.09.03-.13-.04-.18-.09-.25-.29-.53-.55-.89-.68-.96-.37-2.03,0-2.59.88-.55.87-.65,1.82-.52,2.82.09.67.34,1.27.85,1.72.78.68,1.66.72,2.59.36.28-.11.52-.27.74-.46.04-.04.09-.09.16-.04.08.05.03.11.01.16-.07.22-.14.43-.16.66,0,.09-.06.13-.15.17-.63.28-1.29.36-1.85.36"/>
      <path class="cls-1" d="M4.12,9.77c.7,0,1.38.14,2.03.42.12.05.16.11.1.23-.11.24-.13.49-.17.75,0,.05.03.13-.06.15-.08.02-.12-.03-.17-.09-.15-.18-.32-.35-.52-.49-.83-.57-1.99-.42-2.72.35-.46.49-.69,1.09-.77,1.74-.1.76-.08,1.51.23,2.23.53,1.22,1.75,1.76,3.01,1.33.36-.12.68-.29.96-.55.04-.04.07-.08.14-.04.06.04.05.09.03.14-.08.23-.16.46-.18.71,0,.08-.07.1-.13.13-.48.22-.99.31-1.51.35-.88.06-1.73-.02-2.53-.44-.97-.5-1.53-1.3-1.7-2.38-.13-.86-.05-1.71.32-2.51.51-1.09,1.4-1.69,2.55-1.93.36-.08.72-.12,1.09-.12"/>
      <path class="cls-1" d="M14.36,12.83c.21-.28.4-.51.67-.67.27-.16.55-.26.88-.23.17.02.35-.02.52.02.64.16,1.02.65,1.09,1.4.04.42.03.84,0,1.26-.04.75-.03,1.5.02,2.25,0,.11-.01.15-.13.14-.43,0-.86,0-1.28,0-.12,0-.12-.03-.11-.13.11-1.03.11-2.06.08-3.09,0-.15-.04-.3-.1-.44-.14-.35-.36-.51-.72-.53-.36-.01-.61.16-.75.48-.11.26-.18.54-.18.83,0,.92,0,1.83.07,2.75,0,.11-.02.14-.14.14-.42,0-.84,0-1.26,0-.09,0-.13-.01-.12-.12.1-1.36.09-2.72.04-4.09,0-.18,0-.37-.03-.55-.02-.16.06-.22.19-.2.38.05.77.01,1.15.03.07,0,.1.02.1.09,0,.2,0,.4,0,.65"/>
      <path class="cls-1" d="M14.2,6.7c-.08.08-.14.15-.2.23-.56.65-1.59.57-2.09.23-.48-.33-.58-.83-.5-1.36.07-.52.41-.83.87-1.03.39-.17.82-.24,1.23-.36.08-.02.16-.05.24-.08.41-.15.52-.38.38-.8-.16-.45-.66-.7-1.18-.58-.36.08-.7.22-.96.5-.06.06-.1.06-.12-.03-.04-.16-.07-.32-.11-.48-.01-.05,0-.08.04-.11.79-.63,1.9-.89,2.86-.51.61.24.89.73.89,1.36.01.84,0,1.67-.01,2.51,0,.1,0,.21.01.31.03.25.17.37.41.39.07,0,.17-.03.18.1,0,.11-.01.18-.13.22-.33.13-.67.23-1.03.18-.39-.06-.61-.33-.77-.69M14.18,4.63c-.23.09-.44.16-.64.25-.56.24-.77.59-.72,1.19.05.51.42.77.86.59.27-.11.41-.34.45-.62.07-.46.01-.93.04-1.41"/>
      <path class="cls-1" d="M23.83,4.79c-.43,0-.87,0-1.3,0-.15,0-.19.05-.18.19.04.47.11.92.4,1.31.2.26.47.42.8.46.5.06.94-.09,1.34-.37.05-.03.08-.1.16-.04.08.05.04.11.03.18-.08.46-.4.68-.82.78-.73.19-1.46.18-2.15-.13-.62-.27-1-.78-1.17-1.42-.22-.85-.19-1.68.23-2.47.37-.7.99-1.03,1.76-1.11.39-.04.77-.02,1.14.12.76.28,1.1.89,1.21,1.65.04.24.04.47.04.71,0,.12-.04.16-.16.16-.45,0-.89,0-1.34,0M23.13,4.32c.23,0,.45,0,.68,0,.08,0,.12-.02.12-.11-.01-.42-.06-.83-.22-1.21-.09-.2-.22-.35-.46-.37-.25-.03-.44.07-.57.28-.25.4-.29.86-.33,1.31,0,.09.05.1.12.1.22,0,.44,0,.66,0"/>
      <path class="cls-1" d="M7.37,13.1c0-1.25-.02-2.49-.08-3.74,0-.13.03-.15.15-.14.36.05.73.05,1.1.02.27-.02.29,0,.28.27-.1,2.41-.1,4.81,0,7.22.01.28.01.28-.27.28-.38,0-.76,0-1.14,0-.12,0-.13-.04-.12-.14.06-1.26.08-2.52.08-3.78"/>
      <path class="cls-1" d="M22.99,14.61c-.03.28.04.55.11.82.33,1.23,1.68,1.35,2.39.71.04-.04.06-.13.16-.07.1.06.03.12,0,.19,0,.02-.02.03-.02.05-.06.48-.41.65-.81.75-.75.18-1.49.13-2.19-.22-.58-.29-.93-.77-1.09-1.39-.2-.78-.18-1.55.22-2.27.46-.81,1.2-1.19,2.1-1.26.67-.06,1.32.06,1.91.4.09.05.13.09.07.2-.14.26-.24.55-.3.84-.02.08-.05.11-.13.11-.08,0-.14,0-.16-.1-.02-.11-.06-.21-.1-.31-.15-.36-.41-.59-.81-.62-.43-.03-.77.12-1,.49-.2.32-.28.67-.32,1.04-.02.22-.05.44-.03.66"/>
      <path class="cls-1" d="M27.84,17.15c-.45.01-.87-.12-1.27-.33-.1-.05-.14-.11-.11-.23.06-.24.1-.48.11-.72,0-.05-.01-.12.07-.12.07,0,.16-.04.21.06.02.03.03.07.05.1.25.5.76.77,1.32.68.18-.03.34-.1.45-.25.2-.24.17-.55-.08-.74-.25-.2-.54-.3-.83-.42-.34-.14-.66-.3-.94-.56-.66-.63-.57-2.18.69-2.59.24-.08.48-.08.73-.1.46-.03.84.12,1.23.33.15.08.19.18.12.34-.08.19-.12.39-.15.58-.01.07-.02.12-.11.11-.08-.01-.18.05-.22-.08-.05-.14-.11-.27-.2-.39-.28-.38-.76-.51-1.17-.33-.44.19-.5.7-.11.98.29.21.63.31.96.44.25.09.48.21.69.37.52.41.61.97.48,1.57-.12.58-.5.95-1.05,1.15-.29.1-.59.15-.91.14"/>
      <path class="cls-1" d="M18.85,14.51c-.01-.8,0-1.59-.08-2.36-.01-.12.04-.1.11-.1.44.05.88.06,1.31,0,.11-.02.1.04.09.12-.04.5-.06,1-.07,1.5,0,.97-.01,1.94.03,2.91,0,.14.11.33,0,.41-.09.07-.27.01-.41.01-.32,0-.65,0-.97,0-.08,0-.12,0-.11-.11.08-.8.06-1.61.08-2.39"/>
      <path class="cls-1" d="M10.93,17.01c-.21,0-.43,0-.64,0-.1,0-.12-.03-.12-.12.09-1.32.09-2.63.04-3.95,0-.24-.02-.49-.04-.73,0-.13.04-.17.16-.15.38.05.77.05,1.15.01.14-.01.22.02.21.2-.1,1.37-.09,2.74-.03,4.12,0,.17.02.34.04.51.01.1-.03.12-.12.12-.21,0-.43,0-.64,0"/>
      <path class="cls-1" d="M18.39,4.62c.01.84-.03,1.67.07,2.51.01.1-.03.12-.12.12-.43,0-.86,0-1.28,0-.18,0-.13-.11-.12-.19.06-.8.07-1.6.07-2.4,0-.73-.02-1.47-.08-2.2-.01-.14.02-.2.17-.17.36.07.73.04,1.09,0,.09-.01.14,0,.14.12.01.74.03,1.48.05,2.22"/>
      <path class="cls-1" d="M10.92,10.88c-.46,0-.81-.35-.8-.82,0-.46.35-.81.81-.81.46,0,.81.36.81.82,0,.46-.36.81-.82.81"/>
      <path class="cls-1" d="M20.34,10.08c0,.47-.35.81-.81.8-.46,0-.8-.35-.8-.82s.36-.81.82-.81c.46,0,.8.35.8.82"/>
      <path class="cls-1" d="M21.35,1.23c.14.92-.32,1.76-1.19,2.18-.41.2-.82.41-1.19.67-.1.08-.2.16-.29.25-.05.06-.08.05-.08-.03.07-.03.07-.09.09-.15.08-.19.16-.37.27-.54.28-.43.67-.71,1.13-.93.6-.3,1.08-.71,1.22-1.41,0-.02.03-.03.05-.05"/>
      <path class="cls-1" d="M21.35,1.23s-.05.03-.05.05c-.14.7-.62,1.12-1.22,1.41-.45.23-.85.5-1.13.93-.11.17-.19.35-.27.54-.02.06-.02.12-.09.15-.12-.73.17-1.29.72-1.74.17-.14.36-.24.56-.34.52-.26.97-.61,1.35-1.04.09-.1.11-.06.11.04"/>
      <path class="cls-1" d="M11.77,19.75c.17-.05.35,0,.53-.09-.09-.09-.3-.06-.25-.26.05-.18.12-.36.35-.43-.03.12-.04.22-.16.26-.03.01-.06.03-.05.06,0,.02.04.04.07.05.05.02.09.03.14.04.06.01.1.06.09.12-.04.14-.1.28-.24.32-.16.05-.33.02-.48-.08"/>
      <path class="cls-1" d="M8.73,19.46c.14.13.22.06.32-.05.05-.05.15.03.2.09.06.09-.05.15-.08.22-.04.08-.09.04-.13,0-.08-.07-.14-.06-.18.04-.03.06-.07.11-.14.05-.05-.05-.18-.04-.13-.16.03-.08.07-.15.15-.2"/>
      <path class="cls-1" d="M.71,18.96c0,.13-.16.25-.25.19-.07-.04-.12-.04-.16.04-.06.14-.14.06-.22.02-.07-.04-.11-.08-.05-.15.06-.06.08-.21.21-.12.09.06.14.04.19-.05.03-.06.08-.07.14-.04.06.03.12.06.14.1"/>
      <path class="cls-1" d="M23.77,19.33c.01.11-.16.23-.26.18-.07-.04-.12-.03-.15.04-.07.15-.15.05-.23.01-.07-.03-.08-.08-.03-.14.06-.06.08-.21.21-.12.09.06.14.03.19-.05.03-.05.07-.06.12-.03.06.03.12.05.15.12"/>
      <path class="cls-1" d="M7.4,19.37c.08-.09.08-.22.2-.22.07,0,.19.04.19.14,0,.09-.06.21-.16.22-.07,0-.15-.09-.23-.14"/>
      <path class="cls-1" d="M14.76,19.25c-.08-.06-.21-.07-.21-.17,0-.08.06-.19.15-.2.08-.01.19.05.2.13,0,.09-.07.17-.14.24"/>
    </g>
  </g>
</svg>