<?xml version="1.0" encoding="UTF-8"?>
<svg id="Layer_2" data-name="Layer 2" xmlns="http://www.w3.org/2000/svg" viewBox="0 0 66.68 18.52">
  <defs>
    <style>
      .cls-1 {
        fill: #fbf5e9;
      }
    </style>
  </defs>
  <g id="Layer_1-2" data-name="Layer 1">
    <g>
      <path class="cls-1" d="M1.57,17.58c-.18.18-.44.22-.69.22-.22,0-.48-.07-.66-.22C.07,17.47,0,17.28,0,17.06h.4c0,.11.04.22.11.26.11.11.26.11.37.11.15,0,.29-.04.37-.11.04-.04.07-.11.07-.22,0-.15-.11-.22-.26-.26-.15-.04-.33-.04-.48-.07-.29,0-.55-.22-.55-.59,0-.18.07-.33.18-.44.15-.15.4-.22.66-.22.22,0,.48.07.62.22.15.11.22.29.22.48h-.4c0-.07-.04-.15-.11-.22-.07-.07-.22-.11-.33-.11s-.26.04-.37.11c-.04.04-.07.11-.07.18,0,.15.11.22.22.26.15.04.33.04.48.07.33.04.62.26.62.62,0,.18-.07.33-.18.44"/>
      <path class="cls-1" d="M3.29,17.69c-.11.07-.22.15-.4.15s-.37-.07-.44-.15v.73h-.37v-2.23h.33l.04.18c.11-.15.29-.22.44-.22s.29.07.4.15c.18.15.29.4.29.69s-.11.55-.29.69M3.07,16.55c-.07-.07-.15-.11-.26-.11-.29,0-.37.29-.37.51s.07.51.37.51c.11,0,.22-.07.26-.11.07-.11.11-.26.11-.4s-.04-.29-.11-.4"/>
      <path class="cls-1" d="M5.12,17.58c-.11.15-.33.26-.58.26s-.44-.11-.59-.26c-.11-.15-.18-.33-.18-.59,0-.29.07-.44.18-.58.11-.15.33-.26.59-.26s.44.11.58.26c.11.15.18.33.18.58s-.07.4-.18.59M4.79,16.55c-.04-.07-.15-.11-.26-.11s-.18.04-.26.11c-.11.11-.11.26-.11.4s.04.29.11.4c.04.07.15.11.26.11s.18-.04.26-.11c.11-.11.11-.26.11-.4s0-.29-.11-.4"/>
      <path class="cls-1" d="M6.47,16.48c-.29,0-.4.18-.4.48v.8h-.4v-1.61h.33l.04.26c.07-.18.26-.26.48-.26h.11v.37c-.07,0-.11-.04-.15-.04"/>
      <path class="cls-1" d="M7.45,17.79c-.33,0-.48-.18-.48-.51v-.84h-.29v-.33h.29v-.4l.4-.11v.51h.4v.33h-.4v.8c0,.11.07.18.18.18h.26v.33c-.15.04-.26.04-.37.04"/>
      <path class="cls-1" d="M9.21,17.61c-.15.15-.33.18-.55.18s-.4-.07-.51-.18c-.11-.07-.18-.22-.18-.37h.37c0,.07.04.15.07.18.07.04.15.07.26.07.15,0,.33-.04.33-.22,0-.11-.07-.15-.15-.18-.15-.04-.29-.04-.44-.07-.22-.04-.37-.22-.37-.44,0-.18.07-.29.18-.37.11-.11.29-.15.48-.15s.4.07.51.18c.07.11.15.22.15.33h-.37c0-.07-.04-.11-.07-.15-.04-.04-.15-.07-.22-.07s-.11,0-.18.04c-.07.04-.11.07-.11.18s.11.15.18.15c.15.04.18.04.33.04.26.04.44.22.44.47,0,.18-.04.29-.15.37"/>
      <path class="cls-1" d="M11.8,17.61c-.18.15-.37.15-.58.15h-.88v-2.23h.88c.18,0,.37.04.51.11.15.11.26.29.26.48s-.07.37-.26.48c.22.11.33.29.33.51-.04.22-.11.4-.26.51M11.22,15.89h-.51v.55h.51c.18,0,.33-.07.33-.29.04-.18-.15-.26-.33-.26M11.22,16.81h-.51v.62h.51c.18,0,.4-.07.4-.29,0-.26-.18-.33-.4-.33"/>
      <path class="cls-1" d="M13.56,17.58c-.11.15-.33.26-.59.26s-.44-.11-.58-.26c-.11-.15-.18-.33-.18-.59,0-.29.07-.44.18-.58.11-.15.33-.26.58-.26s.44.11.59.26c.11.15.18.33.18.58s-.04.4-.18.59M13.23,16.55c-.04-.07-.15-.11-.26-.11s-.18.04-.26.11c-.11.11-.11.26-.11.4s.04.29.11.4c.04.07.15.11.26.11s.18-.04.26-.11c.11-.11.11-.26.11-.4.04-.15,0-.29-.11-.4"/>
      <path class="cls-1" d="M15.13,17.76l-.04-.22c-.07.15-.26.26-.48.26-.33,0-.55-.22-.55-.58v-1.1h.4v.99c0,.18.07.29.29.29.07,0,.15-.04.18-.07.11-.07.11-.22.11-.37v-.84h.4v1.61h-.33v.04Z"/>
      <path class="cls-1" d="M16.33,17.79c-.26,0-.44-.11-.44-.44v-1.83h.4v1.75c0,.11.04.15.15.15h.07v.33c-.07.04-.11.04-.18.04"/>
      <path class="cls-1" d="M18.16,17.1h-1.1c0,.11.04.26.11.33.07.04.15.11.26.11s.18-.04.22-.07c.04-.04.07-.07.07-.15h.37c0,.11-.07.22-.15.29-.15.15-.33.22-.55.22s-.37-.07-.51-.18c-.15-.15-.26-.37-.26-.66,0-.26.07-.48.22-.66.11-.11.29-.22.51-.22.26,0,.48.11.59.29.11.18.15.37.15.55.07.04.07.11.07.15M17.69,16.52c-.04-.07-.15-.11-.26-.11s-.22.04-.26.11c-.07.07-.07.15-.07.26h.7c0-.11-.04-.18-.11-.26"/>
      <polygon class="cls-1" points="19.26 17.76 18.85 17.76 18.27 16.15 18.67 16.15 19.07 17.28 19.44 16.15 19.84 16.15 19.26 17.76"/>
      <path class="cls-1" d="M21.27,17.79c-.18,0-.26-.11-.29-.22-.07.15-.26.26-.48.26-.4,0-.59-.26-.59-.51,0-.29.26-.48.55-.51l.48-.04v-.11c0-.15-.04-.26-.29-.26-.18,0-.29.07-.29.22h-.37c.04-.37.33-.51.66-.51.29,0,.51.07.62.33.04.11.04.22.04.33v.58c0,.07.04.11.07.11h.04v.29s-.04.04-.15.04M20.94,17.06l-.4.04c-.11,0-.22.07-.22.22,0,.11.11.22.22.22.26,0,.4-.15.4-.37v-.11Z"/>
      <path class="cls-1" d="M22.58,16.48c-.29,0-.4.18-.4.48v.8h-.4v-1.61h.33l.04.26c.07-.18.26-.26.48-.26h.11v.37s-.11-.04-.15-.04"/>
      <path class="cls-1" d="M23.97,17.76l-.04-.18c-.11.15-.29.22-.44.22s-.29-.07-.4-.15c-.18-.15-.29-.4-.29-.69,0-.33.11-.55.29-.73.11-.07.22-.15.4-.15.22,0,.37.07.44.15v-.73h.4v2.26h-.37ZM23.57,16.44c-.11,0-.22.07-.26.11-.07.11-.11.26-.11.4s.04.29.11.4c.07.07.15.11.26.11.29,0,.37-.29.37-.51s-.07-.51-.37-.51"/>
      <rect class="cls-1" x="23.28" y=".18" width="1.02" height="5.34"/>
      <path class="cls-1" d="M1.83,1.68H.8v3.4C.8,5.59.73,6.07,0,6.07v.91c1.24.04,1.83-.84,1.83-1.75V1.68Z"/>
      <path class="cls-1" d="M21.45.18v3.62c0,.51-.26.77-.8.77-.58,0-.84-.29-.84-.66,0-.55-.37-1.79-1.75-1.79-1.28,0-1.75,1.13-1.75,1.79,0,.73-.73.7-.95.7h-2.26V1.68h-.99v2.89h-1.28V1.68h-1.02v2.89h-1.28V1.68h-1.02v2.89h-2.96c-.69,0-.95-.26-.95-.77V.18h-.99v3.62c0,1.02.66,1.68,1.94,1.68h10.96c.33,0,.77-.11,1.02-.26,0,0,.33.95,1.53.95s1.53-.91,1.53-.95c.29.15.69.22,1.06.22,1.13,0,1.83-.69,1.83-1.68V.18h-1.02ZM18.09,5.26s-.04,0,0,0c-.44,0-.73-.29-.73-1.1,0-.88.29-1.17.7-1.17s.69.29.69,1.17c.04.8-.26,1.1-.66,1.1"/>
      <rect class="cls-1" x="23.28" y="7.45" width="1.02" height="5.33"/>
      <rect class="cls-1" x="10.96" y="7.45" width="1.02" height="1.02"/>
      <rect class="cls-1" x="14.76" y="13.3" width=".91" height="1.02"/>
      <rect class="cls-1" x="16.08" y="13.3" width=".91" height="1.02"/>
      <rect class="cls-1" x="1.28" y="13.3" width=".91" height="1.02"/>
      <rect class="cls-1" x="2.59" y="13.3" width=".91" height="1.02"/>
      <path class="cls-1" d="M16.62,11.07c0,.48-.22.73-.84.73s-.8-.29-.8-.77v-3.62h-1.02v3.65c0,.99.66,1.68,1.83,1.68s1.86-.66,1.86-1.64v-2.19h-1.02v2.16Z"/>
      <path class="cls-1" d="M21.45,7.45v3.62c0,.48-.26.77-.8.77-.58,0-.84-.29-.84-.73v-2.16h-1.02v3.4c0,.51-.07.99-.8.99v.91c1.17.04,1.75-.77,1.83-1.61.26.07.62.15.84.15,1.17,0,1.83-.69,1.83-1.68v-3.62h-1.02v-.04Z"/>
      <path class="cls-1" d="M11.51,9.02c-1.02,0-1.64.73-2.05,1.43v-1.53h-.99v2.89h-2.08v-2.89c-1.28,0-2.7.07-2.7,1.79v1.06H1.1c.26-1.75,1.17-1.75,1.9-1.75v-.88c-1.46,0-2.89.51-3,3.58h4.75v-1.94c0-.69.37-.88.66-.88v2.81h5.92c1.5,0,1.86-1.35,1.86-2.01-.04-.69-.48-1.68-1.68-1.68M11.29,11.8h-1.53c.26-.73.77-1.9,1.72-1.9.44,0,.66.4.66.8,0,.62-.29,1.1-.84,1.1"/>
      <path class="cls-1" d="M35.66,14.65c-.04-.18-.15-.37-.29-.51-.18-.18-.44-.29-.73-.29-.26,0-.51.11-.73.29l-.26.26v-1.54l2.23-2.23.77,2.96-.91,1.43-.07-.37Z"/>
      <path class="cls-1" d="M51.3,14.58c-.04-.15-.07-.26-.15-.4-.18-.48-.47-.88-.84-1.24-.33-.33-.7-.59-1.1-.77l-.15-.07.07-.15c.22-.4.55-.73.95-.99.4-.22.88-.37,1.32-.37.47,0,.91.11,1.31.37.4.22.73.59.95.99l.07.15-.15.07c-.4.18-.77.44-1.1.77-.37.37-.66.77-.84,1.24-.07.15-.11.26-.15.4l-.15.51-.07-.51Z"/>
      <polygon class="cls-1" points="49.36 2.41 51.45 4.46 49.36 6.54 49.36 2.41"/>
      <path class="cls-1" d="M55.36,10.71c-.33,0-.62-.07-.91-.18-.29-.11-.55-.26-.77-.48-.22-.18-.4-.4-.55-.62-.15-.26-.26-.51-.33-.77l-.04-.18h5.26l-.04.18c-.11.48-.33.88-.7,1.24-.26.26-.55.44-.84.58-.4.15-.73.22-1.1.22"/>
      <path class="cls-1" d="M33.65,9.83l3.76-3.76,4.46,4.46,3.62-3.62,1.75,1.75-2.3,2.3-.11-.04c-.37-.18-.8-.29-1.21-.29-.99,0-1.86.55-2.34,1.39l-.07.11-.15-.04c-.37-.15-.77-.22-1.17-.26h-.07l-2.59-2.59-3.62,3.65.04-3.07Z"/>
      <path class="cls-1" d="M29.45,16.62c-.07-.07-.11-.11-.18-.18-.29-.29-.55-.58-.77-.91-.22-.33-.4-.69-.58-1.06-.33-.77-.48-1.57-.48-2.41v-.33l3.18,1.86,1.02,1.61-.37-.11c-.11-.04-.22-.04-.33-.04-.33,0-.62.11-.88.37-.22.22-.37.55-.37.88,0,.07,0,.15.04.22l.07.48-.37-.37Z"/>
      <path class="cls-1" d="M59.45,5.88c-.29-.07-.55-.18-.77-.37-.26-.15-.44-.37-.62-.59-.22-.26-.37-.51-.48-.84-.11-.33-.18-.66-.18-.99s.07-.66.18-.99c.11-.29.26-.59.48-.84.18-.22.4-.4.62-.58.26-.15.51-.29.77-.37l.18-.07v5.59l-.18.04Z"/>
      <polygon class="cls-1" points="43.12 4.46 45.16 2.41 45.16 6.54 43.12 4.46"/>
      <path class="cls-1" d="M30.18,10.89c-.33,0-.66-.07-.95-.22-.33-.15-.58-.33-.84-.58-.26-.26-.44-.51-.59-.84-.15-.29-.18-.62-.22-.95v-.15l.15-.04c.11-.04.26-.04.37-.04.22,0,.4.04.62.07.37.11.73.29.99.59.29.29.48.62.59.99.07.33.11.66.07.99l-.04.15-.15.04Z"/>
      <path class="cls-1" d="M51.45,18.27c-.33,0-.69-.07-.99-.18-.29-.15-.59-.33-.8-.55-.22-.22-.4-.51-.55-.8-.15-.33-.18-.66-.18-.99,0-.37-.15-.7-.4-.95-.26-.26-.58-.4-.95-.4s-.69.15-.95.4c-.26.26-.4.59-.4.95,0,.33-.07.69-.18.99-.15.29-.33.59-.55.8-.22.22-.51.4-.8.55-.33.15-.66.18-.99.18s-.69-.07-.99-.18c-.29-.15-.59-.33-.8-.55-.22-.22-.4-.51-.55-.8-.15-.33-.18-.66-.18-.99,0-.37-.15-.7-.4-.95-.26-.26-.59-.4-.95-.4h-.29l.07-.22c.11-.29.18-.59.22-.84l.04-.15h.15c.29.04.59.07.84.22.29.15.59.33.8.55.48.48.73,1.13.73,1.79,0,.37.15.69.4.95.26.26.59.4.95.4s.69-.15.95-.4c.26-.26.4-.58.4-.95,0-.33.07-.7.18-.99.15-.29.33-.59.55-.8.22-.22.51-.4.8-.55.33-.15.66-.18.99-.18s.7.07.99.18c.29.15.59.33.8.55.22.22.4.51.55.8.15.33.18.66.18.99,0,.37.15.69.4.95.26.26.59.4.95.4s.69-.15.95-.4c.07-.07.15-.15.18-.26l.18-.29.11.33c.04.07.07.18.11.26.07.18.18.4.33.55l.07.11-.11.11c-.26.26-.51.44-.84.58-.33.11-.69.18-1.02.18"/>
      <path class="cls-1" d="M31.72,15.24c-.04-.15-.07-.26-.07-.4,0-.55.44-.99.99-.99.26,0,.51.11.69.29s.29.4.29.66v3.44l-1.9-3Z"/>
      <path class="cls-1" d="M41.03,7.45c-.37,0-.73-.15-.99-.4-.26-.26-.4-.62-.4-.99s.15-.73.4-.99c.26-.26.62-.4.99-.4s.73.15.99.4c.26.26.4.62.4.99s-.15.73-.4.99c-.26.26-.58.4-.99.4"/>
      <polygon class="cls-1" points="45.2 6.58 49.33 6.58 47.28 8.62 45.2 6.58"/>
      <polygon class="cls-1" points="57.55 12.39 61.82 12.39 59.67 15.68 57.55 12.39"/>
      <path class="cls-1" d="M55.43,4.2c-.18-.22-.37-.44-.48-.69-.11-.29-.18-.59-.18-.91,0-.37.07-.7.26-1.02.15-.26.33-.51.55-.69l.11-.11.11.11c.22.18.4.44.55.69.15.33.26.66.26,1.02,0,.33-.07.62-.18.91-.11.29-.29.51-.51.73t-.07.07l-.11.11-.29-.22Z"/>
      <rect class="cls-1" x="49.36" y=".48" width="1.86" height="1.86"/>
      <path class="cls-1" d="M35.37,15.6c.22-.33.59-.55.99-.55.66,0,1.21.55,1.21,1.21,0,.18-.04.4-.15.55-.07.18-.22.33-.37.44-.33.22-.66.4-.99.55-.66.29-1.35.44-2.08.48h-.29l1.68-2.67Z"/>
      <path class="cls-1" d="M59.67,12.35v-3.87h5.12c.4,0,.8.15,1.1.44.29.29.44.66.44,1.1,0,.4-.15.8-.44,1.1-.29.29-.66.44-1.1.44h-2.41l-.55.84h-2.16v-.04Z"/>
      <rect class="cls-1" x="28.41" y="1.17" width="3.4" height="3.4" transform="translate(6.79 22.14) rotate(-45.01)"/>
      <path class="cls-1" d="M62.19,5.66c-.15-.26-.22-.51-.29-.8-.07-.29-.07-.55-.04-.84.04-.33.11-.62.26-.91.15-.29.33-.58.59-.8.26-.26.51-.44.8-.59.29-.15.62-.22.91-.26h.26c.48,0,.95.11,1.39.37l.18.11-3.73,3.69s-.04.04-.07.07l-.18.18-.07-.22Z"/>
      <path class="cls-1" d="M55.36,15.71l1.39-2.12.15.11c.11.07.18.15.26.22.22.22.4.51.55.8.11.26.18.55.18.8v.18h-2.52Z"/>
      <path class="cls-1" d="M32.41,8.37c-.22,0-.4-.04-.62-.07-.37-.11-.73-.29-.99-.58-.29-.29-.51-.66-.62-1.02-.07-.33-.11-.66-.07-.99l.04-.15h.15c.33,0,.66.07.95.22.33.15.59.33.84.59.26.26.44.51.59.84.15.29.18.62.22.95v.15l-.15.04c-.11,0-.22.04-.33.04"/>
      <polygon class="cls-1" points="45.2 2.34 47.28 .29 49.33 2.34 45.2 2.34"/>
      <rect class="cls-1" x="33.24" y="1.19" width="3.4" height="3.4" transform="translate(8.2 25.56) rotate(-45.01)"/>
      <path class="cls-1" d="M66.39,14.65c-.15-.33-.33-.62-.59-.88-.26-.26-.55-.44-.88-.58-.33-.15-.7-.22-1.06-.22s-.73.07-1.06.22c-.11.04-.18.07-.29.15l-.55-.84.51-.77h2.34c.22,0,.44-.04.66-.15.22-.07.4-.22.55-.37s.29-.33.37-.55c.07-.22.15-.44.15-.66s-.04-.44-.15-.66c-.07-.22-.22-.4-.37-.55-.15-.15-.33-.29-.55-.37-.22-.07-.44-.15-.66-.15h-4.71l2.19-2.19.07.07c.22.22.51.44.8.55.33.15.66.22.99.22.4,0,.77-.07,1.1-.26.33-.15.62-.4.84-.69l.07-.11-.07-.11c-.22-.29-.51-.55-.84-.69-.33-.18-.73-.26-1.1-.26-.22,0-.44.04-.62.07l3.03-3-.18-.11c-.29-.18-.62-.33-.95-.4-.33-.07-.66-.11-1.02-.07-.33.04-.66.11-.99.26-.33.15-.62.37-.88.62-.26.26-.48.55-.62.88-.15.33-.22.66-.26.99-.04.33,0,.69.07,1.02.07.29.18.55.33.8l-2.23,2.23V.15l-.22.04c-.33.07-.66.18-.95.37-.29.18-.55.4-.77.66-.22.26-.4.55-.51.88-.11.33-.18.69-.18,1.06s.07.69.18,1.06c.11.33.29.62.51.88.22.26.48.47.77.66.26.15.55.26.84.33v1.97l-3.58-3.58s.04-.04.07-.07c.22-.22.44-.51.55-.8.15-.33.22-.66.22-.99,0-.4-.07-.77-.26-1.1-.15-.33-.4-.62-.69-.84l-.11-.07-.15.07c-.29.22-.55.51-.69.84-.18.33-.26.73-.26,1.1,0,.22.04.44.07.62l-1.61-1.61-.11.18c-.18.29-.33.62-.4.95-.07.33-.11.66-.07,1.02.04.33.11.66.26.99.15.33.37.62.62.88.26.26.55.47.88.62.33.15.66.22.99.26.33.04.69,0,1.02-.07.29-.07.59-.18.84-.33l2.23,2.23h-7.82v-1.9h-1.64l1.94-1.94-1.94-1.94h1.64V.29h-2.23v1.64l-1.94-1.94-2.01,1.97V.29h-2.23v2.23h1.64l-1.68,1.68-1.17-1.17v-1.72l-2.92,2.92L34.97.22l-2.41,2.41L30.14.22l-2.67,2.67,2.52,2.52c-.29.04-.59.11-.88.22-.33.15-.66.37-.91.62-.26.26-.48.55-.62.91-.15.37-.22.73-.22,1.1s.07.77.22,1.1c.15.33.37.66.62.91.26.26.55.48.91.62.37.15.73.22,1.1.22.33,0,.62-.04.91-.15l-.62,2.41-3.18-1.94v.66c0,.88.18,1.68.51,2.49.15.37.37.73.58,1.1.22.33.48.66.77.95s.62.55.95.77l.04.04.04.04c.33.22.66.37.99.51.77.33,1.61.51,2.48.51s1.68-.18,2.48-.51c.33-.15.66-.33.99-.51l.04-.04.04-.04c.33-.22.66-.48.95-.77.29-.29.55-.62.77-.95.22-.33.44-.7.59-1.1h.22c.33,0,.62.11.84.33.22.22.33.51.33.84,0,.37.07.73.22,1.06.15.33.33.62.59.88.26.26.55.44.88.58.33.15.69.22,1.06.22s.73-.07,1.06-.22c.33-.15.62-.33.88-.58.26-.26.44-.55.59-.88.15-.33.22-.69.22-1.06,0-.66.51-1.17,1.17-1.17.33,0,.62.11.84.33.22.22.33.51.33.84,0,.37.07.73.22,1.06.15.33.33.62.59.88.26.26.55.44.88.58.33.15.7.22,1.06.22.73,0,1.42-.29,1.94-.8l.04.04c.26.26.55.44.88.59.33.15.69.22,1.06.22s.73-.07,1.06-.22c.33-.15.62-.33.88-.59.26-.26.44-.55.58-.88.11-.29.18-.59.22-.88h1.68l2.01-3.11.47.73c-.11.07-.22.18-.29.26-.26.26-.44.55-.59.88-.15.33-.22.69-.22,1.06s.07.73.22,1.06c.15.33.33.62.59.88.26.26.55.44.88.59.33.15.69.22,1.06.22s.73-.07,1.06-.22c.33-.15.62-.33.88-.59.26-.26.44-.55.59-.88.15-.33.22-.69.22-1.06s-.15-.8-.29-1.13M55.14,3.47c-.11-.26-.18-.55-.18-.84,0-.33.07-.66.22-.95.11-.26.29-.48.51-.66.22.18.37.4.51.66.15.29.22.62.22.95,0,.29-.07.59-.18.84-.11.26-.26.48-.48.69t-.07.07l-.11-.11c-.22-.22-.37-.44-.44-.66M55.25,6.14c-.29-.04-.59-.11-.88-.22-.29-.15-.55-.33-.77-.55-.22-.22-.4-.47-.55-.77-.15-.29-.22-.59-.22-.88-.04-.55.07-1.1.33-1.57l3.65,3.65c-.47.29-1.02.4-1.57.33M63.29,5.34c.26-.11.55-.18.84-.18.33,0,.66.07.95.22.26.11.48.29.66.51-.18.22-.4.37-.66.51-.29.15-.62.22-.95.22-.29,0-.58-.07-.84-.18-.26-.11-.48-.26-.69-.48t-.07-.07l.11-.11c.18-.22.4-.37.66-.44M62.01,4.02c.04-.29.11-.58.22-.88.15-.29.33-.55.55-.77.22-.22.48-.4.77-.55.29-.15.58-.22.88-.22h.26c.48,0,.91.11,1.32.33l-3.65,3.65c-.29-.48-.4-1.02-.33-1.57M58.17,4.86c-.18-.22-.37-.51-.44-.8-.11-.29-.15-.62-.15-.91,0-.33.07-.62.15-.91.11-.29.26-.55.44-.8.37-.4.8-.73,1.35-.88v5.19c-.55-.15-1.02-.47-1.35-.88M57.77,8.62c-.11.44-.33.84-.62,1.17-.22.26-.51.44-.8.55-.33.15-.66.22-.99.22-.29,0-.58-.04-.88-.15-.26-.11-.51-.26-.73-.44-.4-.33-.69-.8-.8-1.32l4.82-.04ZM52.58,8.62c.15.62.48,1.17.95,1.57.26.22.55.37.84.47.33.11.66.18.99.18.4,0,.77-.07,1.13-.22.33-.15.66-.37.91-.62.37-.4.62-.88.73-1.39h1.39v3.58h-2.08c-.62-.37-1.35-.59-2.08-.59-.51,0-.99.07-1.42.26-.48-.91-1.42-1.46-2.45-1.46s-1.97.55-2.45,1.46c-.48-.18-.95-.26-1.43-.26h-.11v-2.92l1.75-1.75v1.64l3.33.04ZM55.65,15.53l1.13-1.75c.07.07.18.15.26.22.22.22.4.48.51.77.11.26.18.51.18.77h-2.08ZM55.9,15.89c-.07.26-.29.44-.58.44-.33,0-.59-.26-.59-.58s.26-.59.59-.59c.07,0,.11,0,.18.04l-.48.73h.88v-.04ZM57.88,14.65c-.15-.33-.33-.62-.59-.88-.11-.11-.18-.18-.29-.26l.55-.84,1.86,2.85h-1.28c-.07-.29-.15-.58-.26-.88M52.62,15.71s0,.04,0,0c0,.33-.15.62-.33.84-.22.22-.51.33-.84.33s-.62-.11-.84-.33c-.22-.22-.33-.51-.33-.84,0-.37-.07-.73-.22-1.06-.15-.33-.33-.62-.58-.88-.26-.26-.55-.44-.88-.58-.33-.15-.69-.22-1.06-.22s-.73.07-1.06.22c-.33.15-.62.33-.88.58-.26.26-.44.55-.58.88-.15.33-.22.69-.22,1.06,0,.66-.51,1.17-1.17,1.17-.33,0-.62-.11-.84-.33-.22-.22-.33-.51-.33-.84,0-.37-.07-.73-.22-1.06-.15-.33-.33-.62-.59-.88-.26-.26-.55-.44-.84-.58-.26-.11-.55-.18-.84-.22.04-.29.07-.58.07-.91v-.11c.44.04.84.15,1.21.29.44.18.84.48,1.17.8.33.33.59.73.77,1.17.18.44.29.95.29,1.42h.33c0-.51.11-.99.29-1.46.18-.44.47-.84.8-1.17.33-.33.73-.62,1.17-.8.48-.18.95-.29,1.46-.29s.99.11,1.46.29c.44.18.84.47,1.17.8.33.33.62.73.8,1.17.18.48.29.95.29,1.46h.33c0-.51.11-.99.29-1.46.18-.44.48-.84.8-1.17.33-.33.73-.62,1.17-.8.48-.18.95-.29,1.46-.29.66,0,1.31.18,1.9.51l-.55.84c-.11-.04-.18-.11-.29-.15-.33-.15-.69-.22-1.06-.22s-.73.07-1.06.22c-.33.15-.62.33-.88.58-.26.26-.44.55-.59.88-.11.4-.18.77-.18,1.13M30.29,5.74c.33,0,.62.07.91.18.29.11.55.29.8.55.22.22.4.51.55.8.11.29.18.58.18.91-.29.04-.62.04-.91-.04-.37-.11-.66-.29-.91-.55-.26-.26-.44-.59-.55-.91-.11-.33-.11-.66-.07-.95M32.85,7.12c-.15-.33-.37-.66-.62-.91-.26-.26-.55-.48-.91-.62-.33-.15-.7-.22-1.06-.22l2.3-2.23,2.19,2.19-1.24,1.24v5.92l-1.79-1.79c.22-.11.4-.29.59-.44.51-.55.8-1.24.8-1.97-.04-.44-.11-.8-.26-1.17M33.47,12.94v1.06c-.22-.22-.51-.33-.84-.33s-.62.11-.84.33c-.15.15-.26.37-.33.59l-.66-1.06.7-2.63,1.97,2.05ZM32.08,15.49l-.15-.22c-.07-.15-.15-.29-.15-.44,0-.48.37-.84.84-.84.44,0,.8.37.84.8v2.89l-1.39-2.19s0,0,0,0M33.84,14.84c0-.48.37-.84.84-.84s.84.37.84.84c0,.15-.04.33-.15.44l-.15.22-1.43,2.19.04-2.85ZM35.81,14.62c-.04-.22-.15-.44-.33-.58-.22-.22-.51-.33-.84-.33s-.62.11-.84.33v-1.06l1.97-2.01.69,2.63-.66,1.02ZM36.76,13.34l-.69-2.67,1.2-1.2,2.23,2.23-2.74,1.64ZM37.27,8.99l-3.47,3.51v-2.59l3.62-3.62,4.46,4.46,3.62-3.62,1.5,1.5-2.12,2.12c-.4-.22-.84-.33-1.28-.33-1.02,0-1.97.55-2.45,1.46-.4-.15-.8-.22-1.21-.26l-2.67-2.63ZM41.95,6.91c-.22.22-.55.37-.88.37s-.66-.15-.88-.37c-.22-.22-.37-.55-.37-.88s.15-.66.37-.88c.22-.22.55-.37.88-.37s.66.15.88.37c.22.22.37.55.37.88s-.15.66-.37.88M43.99,8.19l-2.08,2.08v-2.89l2.08.8ZM45.34,2.52h3.84v3.84h-3.84v-3.84ZM48.96,6.72l-1.68,1.68-1.68-1.68h3.36ZM46.11,11.91c-.22-.4-.51-.73-.88-.99l1.86-1.86v2.59c-.33.04-.7.11-.99.26M43.63,14.54c-.04-.15-.07-.26-.15-.4-.18-.47-.47-.91-.84-1.28-.33-.33-.73-.62-1.17-.84.44-.77,1.24-1.28,2.16-1.28s1.72.47,2.16,1.28c-.4.18-.8.47-1.13.8-.37.37-.66.8-.88,1.28-.04.15-.11.29-.15.44M51.45,14.54c-.04-.15-.11-.29-.15-.4-.22-.47-.51-.91-.88-1.28-.33-.33-.69-.58-1.13-.8.44-.77,1.24-1.28,2.16-1.28s1.72.48,2.16,1.28c-.4.18-.8.48-1.13.8-.37.37-.66.8-.88,1.28-.07.11-.11.26-.15.4M51.08,8.29h-1.57v-1.57h1.57v1.57ZM49.55,6.14v-3.36l1.68,1.68-1.68,1.68ZM49.55.62h1.57v1.57h-1.57V.62ZM48.96,2.19h-3.36l1.68-1.68,1.68,1.68ZM43.44.62h1.57v1.57h-1.57V.62ZM45.02,2.78v3.36l-1.68-1.68,1.68-1.68ZM45.27,6.91l-1.02,1.02-2.05-.8c.29-.29.44-.69.44-1.1,0-.44-.18-.84-.48-1.13-.29-.29-.7-.48-1.13-.48s-.84.18-1.13.48c-.29.29-.48.69-.48,1.13s.18.84.48,1.13c.29.29.69.48,1.13.48.18,0,.37-.04.51-.07v2.38l-3.87-3.91,3.91-3.91v1.02l3.69,3.76ZM33.84,9.43v-2.7l3.58-3.58,1.35,1.35-4.93,4.93ZM34.97.7l2.19,2.19-2.19,2.19-2.19-2.19,2.19-2.19ZM30.11.7l2.19,2.19-2.19,2.19-2.19-2.19,2.19-2.19ZM28.46,6.47c.22-.22.51-.4.8-.55.22-.11.44-.15.69-.18-.04.33-.04.66.07.99.11.4.33.77.62,1.06s.66.51,1.06.62c.22.07.44.07.66.07.11,0,.22,0,.33-.04-.07.55-.29,1.06-.69,1.46-.22.26-.51.44-.8.55-.22.11-.48.15-.7.18.04-.33.04-.66-.07-.99-.11-.4-.33-.77-.62-1.06-.29-.29-.66-.51-1.06-.62-.33-.07-.66-.11-.99-.07.04-.26.07-.48.18-.69.11-.22.29-.51.51-.73M28.46,10.01c-.22-.22-.4-.51-.55-.8-.11-.29-.18-.58-.18-.91.29-.04.62-.04.91.04.37.11.66.29.91.55.26.26.44.59.55.91.07.29.11.62.04.91-.33,0-.62-.07-.91-.18-.26-.11-.55-.29-.77-.51M28.65,15.46c-.22-.33-.4-.66-.55-1.02-.33-.73-.48-1.53-.48-2.34v-.07l2.89,1.72.81,1.24c-.11-.04-.26-.04-.4-.04-.37,0-.73.15-.99.4-.26.26-.4.62-.4.99,0,.07,0,.18.04.26-.07-.07-.11-.11-.18-.18-.26-.33-.51-.62-.73-.95M30.33,17.14c-.29-.18-.44-.51-.44-.84,0-.59.48-1.02,1.02-1.02.37,0,.66.18.88.48l1.54,2.41c-.7-.04-1.39-.18-2.05-.47-.29-.18-.62-.37-.95-.55M35.99,17.65c-.66.26-1.31.44-2.05.48l1.53-2.41c.18-.29.51-.48.88-.48.59,0,1.02.48,1.02,1.02,0,.33-.18.66-.44.84-.29.22-.59.4-.95.55M38.66,15.46c-.22.33-.48.62-.73.88-.07.07-.11.11-.18.18,0-.07.04-.18.04-.26,0-.37-.15-.73-.4-.99-.26-.26-.62-.4-.99-.4-.15,0-.26.04-.4.04l.8-1.24,2.89-1.72v.07c0,.8-.15,1.61-.48,2.34-.15.44-.33.77-.55,1.1M51.45,18.12c-.33,0-.62-.07-.95-.18-.29-.11-.55-.29-.77-.51-.22-.22-.4-.47-.51-.77-.11-.29-.18-.62-.18-.95,0-.4-.15-.77-.44-1.06-.29-.29-.66-.44-1.06-.44s-.77.15-1.06.44c-.29.29-.44.66-.44,1.06,0,.33-.07.62-.18.95-.11.29-.29.55-.51.77-.22.22-.48.4-.77.51-.29.11-.62.18-.95.18s-.62-.07-.95-.18c-.29-.11-.55-.29-.77-.51-.22-.22-.4-.47-.51-.77-.11-.29-.18-.62-.18-.95,0-.4-.15-.77-.44-1.06-.29-.29-.66-.44-1.06-.44h-.07c.11-.29.18-.59.26-.88.26.04.55.07.77.18.29.11.55.29.77.51.44.44.69,1.06.69,1.68,0,.4.15.77.44,1.06.29.29.66.44,1.06.44s.77-.15,1.06-.44c.29-.29.44-.66.44-1.06,0-.33.07-.62.18-.95.11-.29.29-.55.51-.77.22-.22.48-.4.77-.51.29-.11.62-.18.95-.18s.62.07.95.18c.29.11.55.29.77.51.22.22.4.48.51.77.11.29.18.62.18.95,0,.4.15.77.44,1.06.29.29.66.44,1.06.44s.77-.15,1.06-.44c.07-.07.15-.18.22-.29.04.11.07.18.11.26.07.22.22.4.33.59-.44.51-1.06.8-1.72.8M57.55,16.63c-.11.29-.29.55-.51.77-.22.22-.48.4-.77.51-.29.11-.62.18-.95.18s-.62-.07-.95-.18c-.29-.11-.55-.29-.77-.51s-.4-.48-.51-.77c-.11-.29-.18-.58-.18-.91v-.04c0-.33.07-.62.18-.95.11-.29.29-.55.51-.77.22-.22.47-.4.77-.51.29-.11.62-.18.95-.18s.62.07.95.18c.07.04.15.07.22.11l-.8,1.24c-.11-.04-.26-.07-.37-.07-.51,0-.95.4-.95.95s.4.95.95.95c.48,0,.84-.33.91-.77h1.46c0,.29-.04.55-.15.77M59.67,15.42l-1.86-2.85h3.69l-1.83,2.85ZM61.75,12.2h-1.9v-3.58h4.97c.37,0,.69.15.99.4.26.26.4.62.4.99s-.15.69-.4.99c-.26.26-.62.4-.99.4h-2.52l-.55.8ZM66.06,16.63c-.11.29-.29.55-.51.77-.22.22-.48.4-.77.51s-.62.18-.95.18-.62-.07-.95-.18c-.29-.11-.55-.29-.77-.51-.22-.22-.4-.48-.51-.77-.11-.29-.18-.62-.18-.95s.07-.62.18-.95c.11-.29.29-.55.51-.77.07-.07.15-.15.26-.22l.8,1.24c-.18.18-.29.4-.29.7,0,.51.4.95.95.95s.95-.4.95-.95-.4-.95-.95-.95c-.11,0-.26.04-.37.07l-.8-1.24c.07-.04.15-.07.22-.11.29-.11.62-.18.95-.18s.62.07.95.18c.29.11.55.29.77.51.22.22.4.48.51.77.11.29.18.62.18.95s-.04.66-.18.95M63.87,15.13c.33,0,.59.26.59.58s-.26.59-.59.59-.58-.26-.58-.59.26-.58.58-.58"/>
    </g>
  </g>
</svg>