<svg xmlns="http://www.w3.org/2000/svg" width="32" height="32" viewBox="0 0 24 24" fill="none" stroke="#71c182" stroke-width="1.5" stroke-linecap="round" stroke-linejoin="round">
  <!-- Hand outline from Lucide hand-coins -->
  <path d="M2 16c0-1.1.9-2 2-2h1" />
  <path d="m7 21 1.6-1.4c.3-.4.8-.6 1.4-.6h4c1.1 0 2.1-.4 2.8-1.2l4.6-4.4a2 2 0 0 0-2.75-2.9l-4.2 3.9" />
  <!-- Star outline from Lucide star scaled and shifted -->
  <g transform="translate(5.5, 0.5) scale(0.55)">
    <path d="M12 2l3.09 6.26L22 9.27l-5 4.87 1.18 6.88L12 17.77l-6.18 3.25L7 14.14 2 9.27l6.91-1.01L12 2z" />
  </g>
  <!-- Rays/Sparkles around the star -->
  <path d="M12.1 1.2 V 0.2" />
  <path d="M9 2.5 l -0.8 -0.8" />
  <path d="M15.2 2.5 l 0.8 -0.8" />
</svg>
