<?xml version="1.0" encoding="UTF-8"?>
<svg id="Layer_2" data-name="Layer 2" xmlns="http://www.w3.org/2000/svg" viewBox="0 0 139.54 153.46">
  <defs>
    <style>
      .cls-1 {
        fill: #a0dbd1;
      }
    </style>
  </defs>
  <g id="Layer_1-2" data-name="Layer 1">
    <g>
      <path class="cls-1" d="M84.76,147.1c-3.31-.15-6.34-1.48-9.47-2.37-9.35-2.68-18.67-5.47-28-8.25-1.95-.58-3.83-.89-5.72.19-.65.37-.86.72-.42,1.44,3.04,4.99,1.06,5.15-2.5,6.94-5.11,2.58-10.23,5.16-15.35,7.73-2.39,1.2-3.36.9-4.59-1.48-6.04-11.77-12.08-23.55-18.1-35.34-1.13-2.21-.81-3.18,1.44-4.23,5.85-2.73,11.72-5.44,17.59-8.13,2.23-1.02,3.11-.68,4.3,1.54,1.18,2.2,1.17,2.19,3.35.94,6.84-3.92,13.68-7.84,20.53-11.74,2.95-1.68,6.1-1.92,9.29-.85,12.14,4.05,24.28,8.13,36.41,12.22,5.7,1.92,8.06,6.73,6.14,12.45-1.13,3.37-5.92,6.04-10.24,5.73-2.12-.15-4.07-.94-6.07-1.54-4.66-1.39-9.33-2.77-13.98-4.18-1.9-.57-2.68-1.72-2.25-3.18.44-1.49,1.66-2,3.63-1.42,5.67,1.67,11.34,3.37,16.99,5.08,1.27.38,2.52.56,3.82.29,2.3-.47,3.84-2.05,4.08-4.17.19-1.72-1.19-3.6-3.37-4.36-4.07-1.41-8.17-2.75-12.25-4.12-7.88-2.65-15.77-5.27-23.63-7.97-2.5-.86-4.73-.67-7.05.7-6.9,4.07-13.86,8.02-20.85,11.93-1.03.58-1.08.96-.56,1.92,3.29,6.2,6.55,12.42,9.76,18.66.52,1.01.9,1.34,2.04.71,2.56-1.4,5.3-1.44,8.07-.62,11.34,3.35,22.7,6.66,34.02,10.08,2.68.81,4.95.54,7.35-.95,14.12-8.79,28.31-17.48,42.47-26.22.68-.42,1.38-.85,1.93-1.41,1.71-1.75,1.45-4.34-.52-5.79-1.96-1.44-4.38-1.47-6.74.03-7.08,4.48-14.15,8.99-21.22,13.49-2.22,1.41-3.65,1.42-4.51.03-.9-1.43-.32-2.7,1.88-4.1,7.23-4.59,14.44-9.21,21.7-13.77,6.22-3.91,14.45-.43,15.29,6.52.47,3.89-1.4,6.75-4.66,8.76-9.23,5.69-18.47,11.37-27.71,17.06-5.35,3.3-10.71,6.58-16.05,9.89-1.93,1.2-3.98,1.95-6.28,1.87M20,108.78c-.18.07-.36.13-.52.21-4.31,1.98-8.61,3.98-12.93,5.93-1.01.46-.56.99-.25,1.6,1.52,2.96,3.03,5.92,4.55,8.88,3.6,7.01,7.19,14.02,10.8,21.02.33.64.42,1.59,1.67.94,4.21-2.19,8.46-4.29,12.71-6.4.69-.34.89-.66.5-1.4-5.24-9.98-10.46-19.97-15.68-29.95-.2-.38-.33-.8-.85-.83"/>
      <path class="cls-1" d="M127.24,32.03c.09,1.36-.71,2.49-1.76,3.51-4.6,4.47-9.17,8.97-13.8,13.4-.86.83-1.1,1.59-.89,2.74,1.1,6.12,2.1,12.27,3.19,18.39.38,2.13.38,4.1-1.55,5.5-1.97,1.43-3.89.91-5.88-.16-5.54-2.98-11.14-5.83-16.67-8.81-.94-.51-1.61-.45-2.51.04-5.7,3.05-11.45,6.02-17.17,9.05-1.77.94-3.54,1.18-5.23-.03-1.75-1.24-2.14-2.99-1.76-5.08,1.18-6.41,2.25-12.83,3.41-19.25.16-.88,0-1.43-.68-2.09-4.64-4.43-9.19-8.94-13.82-13.38-1.58-1.51-2.6-3.15-1.87-5.4.71-2.17,2.42-2.88,4.53-3.17,6.29-.87,12.56-1.86,18.86-2.71,1.15-.15,1.7-.64,2.17-1.62,2.8-5.76,5.68-11.48,8.48-17.24.88-1.81,2.08-3.05,4.2-3.1,2.18-.05,3.53,1.11,4.45,3,2.84,5.81,5.74,11.59,8.56,17.4.45.92.96,1.38,2.03,1.53,6.6.91,13.18,1.9,19.77,2.89,2.44.37,3.91,2.06,3.93,4.57M122.39,32.02c-.97-.19-1.61-.34-2.26-.43-5.86-.86-11.7-1.77-17.57-2.52-2.38-.3-3.91-1.36-4.95-3.54-2.86-5.99-5.86-11.91-8.8-17.86-.64.23-.7.79-.91,1.21-2.85,5.74-5.69,11.47-8.51,17.22-.79,1.62-1.99,2.6-3.8,2.85-3.54.49-7.08,1-10.62,1.52-3.29.48-6.58.99-10.46,1.58.93.76,1.44,1.11,1.88,1.54,4.33,4.21,8.6,8.49,12.99,12.64,1.74,1.65,2.09,3.54,1.73,5.72-.52,3.1-1.08,6.19-1.61,9.29-.58,3.38-1.14,6.77-1.71,10.17.87.07,1.36-.36,1.89-.64,5.29-2.78,10.6-5.53,15.85-8.38,2.09-1.13,4.02-1.23,6.12-.04,2.68,1.52,5.43,2.91,8.16,4.34,3.15,1.65,6.3,3.29,9.68,5.06-.1-.91-.13-1.51-.23-2.09-1.03-6.01-2.02-12.03-3.12-18.03-.38-2.06.05-3.72,1.6-5.18,2.56-2.41,5.04-4.89,7.55-7.36,2.31-2.28,4.61-4.57,7.1-7.05"/>
      <path class="cls-1" d="M111.76,16.42c-.97.02-1.67-.44-2.04-1.3-.44-1-.22-1.96.54-2.72,3.16-3.17,6.35-6.32,9.53-9.47.7-.69,1.37-1.41,2.07-2.1,1.03-1.01,2.24-1.15,3.3-.21,1.08.95,1.15,2.23.12,3.27-3.97,4.03-8,8.01-12,12.01-.43.43-.94.54-1.52.51"/>
      <path class="cls-1" d="M122.44,52.6c.48-.04,1.04.35,1.6.74,4.15,2.88,8.3,5.76,12.44,8.66,1.68,1.18,2.06,2.5,1.17,3.7-.85,1.14-2.16,1.21-3.77.11-4.26-2.93-8.5-5.91-12.76-8.85-1.06-.73-1.43-1.69-1.05-2.88.31-.98,1.1-1.43,2.38-1.48"/>
      <path class="cls-1" d="M58.99,54.57c.02,1.23-.47,1.88-1.23,2.41-4.36,3.01-8.72,6.03-13.08,9.05-1.25.87-2.43.88-3.41-.39-.88-1.13-.53-2.48.88-3.47,4.24-2.97,8.5-5.91,12.75-8.87.91-.64,1.85-.99,2.93-.42.79.42,1.13,1.1,1.16,1.69"/>
      <path class="cls-1" d="M66.57,16.44c-.81.01-1.38-.42-1.92-.97-3.73-3.74-7.49-7.46-11.21-11.21-1.23-1.24-1.3-2.6-.31-3.58.96-.95,2.42-.84,3.58.32,3.75,3.73,7.47,7.47,11.21,11.21.78.78,1.3,1.65.81,2.8-.4.95-1.15,1.4-2.16,1.42"/>
      <path class="cls-1" d="M87.17,84.01c0-2.4-.01-4.81,0-7.21.01-1.75.84-2.75,2.26-2.77,1.44-.02,2.36.92,2.37,2.69.04,4.87.04,9.74,0,14.6-.01,1.75-.93,2.71-2.37,2.7-1.37-.01-2.25-1.06-2.27-2.8-.03-2.4,0-4.81,0-7.21h0Z"/>
      <path class="cls-1" d="M28.88,137.82c.02,1.58-1.3,2.91-2.91,2.92-1.67.02-2.98-1.2-3.02-2.79-.04-1.64,1.16-2.85,2.89-2.9,1.65-.04,3.03,1.21,3.05,2.77"/>
    </g>
  </g>
</svg>