<?xml version="1.0" encoding="UTF-8"?>
<svg id="Layer_2" data-name="Layer 2" xmlns="http://www.w3.org/2000/svg" viewBox="0 0 159.15 172.82">
  <defs>
    <style>
      .cls-1 {
        fill: #4668ca;
      }
    </style>
  </defs>
  <g id="Layer_1-2" data-name="Layer 1">
    <g>
      <path class="cls-1" d="M79.73,138.7c-7.52,0-15.05,0-22.57,0-2.89,0-3.55-.5-4.2-3.49-1.19-5.5-2.24-11.03-3.58-16.51-1.79-7.37-5.03-14.08-8.49-20.78-14.01-27.14,2.57-59.17,32.8-63.59,23.18-3.39,45.58,13.19,49.06,36.36,1.48,9.86-.06,19.19-4.86,28.04-5.62,10.37-8.63,21.65-10.96,33.13-1.69,8.33-1.65,6.73-8.19,6.81-6.34.08-12.68.02-19.02.02M79.48,133.32h0c6.55-.01,13.09-.05,19.64.02,1.49.01,2.13-.31,2.46-1.95,2.55-12.71,6.39-24.93,12.25-36.63,12.33-24.61-4.11-53.27-31.6-55.28-13.5-.99-24.84,4.09-32.89,14.71-10.21,13.48-10.79,28.17-2.78,43.12,1.68,3.13,3.44,6.21,4.66,9.55,2.9,7.91,4.91,16.06,6.3,24.36.26,1.58.81,2.17,2.51,2.14,6.47-.11,12.95-.04,19.43-.04"/>
      <path class="cls-1" d="M79.73,160.45c5.28,0,10.57.04,15.85-.02,1.43-.02,1.8.35,1.48,1.79-.66,2.88-2.33,5.03-4.6,6.73-7.26,5.42-19.51,5.1-26.52-.68-1.92-1.58-3.25-3.58-3.78-6.06-.28-1.29,0-1.83,1.52-1.8,5.35.1,10.71.04,16.06.04"/>
      <path class="cls-1" d="M79.66,147.17c-6.75,0-13.51,0-20.26,0-.76,0-1.55.05-2.29-.11-1.31-.29-2.03-1.21-2.03-2.54s.71-2.23,2.01-2.57c.4-.1.83-.08,1.24-.08,14.2,0,28.41.01,42.61,0,1.7,0,2.86.58,3.12,2.34.26,1.77-.96,2.95-3.11,2.95-7.1.02-14.2,0-21.3,0v.02Z"/>
      <path class="cls-1" d="M79.48,150.76c5.71,0,11.42,0,17.12,0,2.24,0,3.51.95,3.56,2.62.05,1.65-1.27,2.75-3.44,2.76-11.42.02-22.83.01-34.25,0-2.23,0-3.45-1.03-3.42-2.76.04-1.76,1.18-2.62,3.5-2.63,5.64,0,11.28,0,16.91,0"/>
      <path class="cls-1" d="M35.86,106.66c.03.63-.6,1.27-1.32,1.84-5.69,4.45-11.39,8.9-17.1,13.32-1.26.98-2.63,1.12-3.67-.26-1.02-1.36-.55-2.59.75-3.6,5.7-4.44,11.4-8.89,17.09-13.35.9-.7,1.84-1.01,2.9-.53.9.41,1.34,1.17,1.36,2.57"/>
      <path class="cls-1" d="M37.97,42.61c-.02.72-.43,1.44-1.23,1.84-1.06.52-2,.18-2.89-.51-2.85-2.22-5.72-4.4-8.57-6.61-2.8-2.17-5.6-4.33-8.38-6.53-1.68-1.33-2-2.66-.91-3.87,1.24-1.38,2.54-1.01,3.85.01,5.52,4.32,11.06,8.62,16.58,12.95.81.64,1.64,1.33,1.56,2.73"/>
      <path class="cls-1" d="M141.61,28.29c.04,1.1-.53,1.77-1.27,2.35-5.7,4.45-11.4,8.9-17.1,13.34-1.28,1-2.62,1.14-3.67-.2-1.05-1.33-.63-2.6.66-3.61,5.76-4.49,11.52-8.98,17.27-13.47.9-.7,1.87-.94,2.9-.36.77.43,1.26,1.09,1.2,1.95"/>
      <path class="cls-1" d="M144.96,120.2c.02.93-.42,1.61-1.21,2.03-1.04.55-2.01.31-2.91-.39-3.01-2.35-6.03-4.7-9.05-7.04-2.69-2.09-5.36-4.2-8.07-6.28-1.36-1.04-1.94-2.32-.8-3.74,1.13-1.42,2.51-1.1,3.84-.06,5.52,4.33,11.07,8.65,16.6,12.96.83.65,1.68,1.28,1.59,2.51"/>
      <path class="cls-1" d="M13.82,72.19c3.48,0,6.96-.01,10.43,0,2.07.01,3.29.92,3.14,2.47-.17,1.81-1.39,2.36-3.08,2.35-7.02-.03-14.05-.02-21.07,0-1.72,0-3.11-.4-3.24-2.39-.1-1.54,1.11-2.42,3.17-2.43,3.55-.01,7.09,0,10.64,0"/>
      <path class="cls-1" d="M77.21,13.72c0-3.62.03-7.23-.01-10.85-.02-1.74.68-2.9,2.5-2.88,1.76.02,2.31,1.27,2.31,2.85,0,7.23,0,14.46,0,21.69,0,1.61-.68,2.8-2.4,2.77-1.79-.03-2.45-1.2-2.42-2.95.06-3.54.02-7.09.02-10.64"/>
      <path class="cls-1" d="M145.59,77c-3.47,0-6.95.02-10.42,0-2.29-.01-3.49-.88-3.35-2.47.18-1.98,1.54-2.36,3.27-2.35,6.95.04,13.9.03,20.85,0,1.71,0,3.1.34,3.21,2.37.09,1.6-.96,2.42-3.13,2.43-3.47.03-6.95,0-10.42.01"/>
      <path class="cls-1" d="M111.84,75c-.04,1.32-.76,2.5-2.52,2.64-1.67.14-2.7-.8-2.81-2.41-.72-10.59-7.07-17.14-15.71-22.08-.66-.38-1.36-.69-2.04-1.06-1.5-.81-2.14-2.06-1.41-3.64.76-1.63,2.22-1.84,3.72-1.13,7.63,3.59,13.85,8.75,17.82,16.33,1.8,3.44,2.67,7.14,2.94,11.35"/>
    </g>
  </g>
</svg>