<?xml version="1.0" encoding="UTF-8"?>
<svg id="Layer_2" data-name="Layer 2" xmlns="http://www.w3.org/2000/svg" viewBox="0 0 138.13 136.31">
  <defs>
    <style>
      .cls-1 {
        fill: #faf4e8;
      }
    </style>
  </defs>
  <g id="Layer_1-2" data-name="Layer 1">
    <g>
      <path class="cls-1" d="M115.67,79.64c-.08,25.72-18.29,48.8-44.42,55.07C38.83,142.5,6.36,121.07.83,88.22-4.65,55.74,17.69,25.34,50.34,21.14c16.28-2.09,30.94,2.17,43.86,12.32.53.42,1.04.86,1.51,1.34,1.02,1.03,1.08,2.33.2,3.33-.89,1.01-2.18,1.17-3.33.27-1.78-1.41-3.56-2.83-5.45-4.1C55.56,13.22,12.21,31.73,5.62,69.12c-5.14,29.16,14.54,56.91,43.78,61.7,28.89,4.74,56.53-15.41,60.83-44.39,2.1-14.14-1.04-27.07-9.25-38.77-.21-.3-.44-.58-.63-.88-.76-1.22-.48-2.7.63-3.42,1.11-.72,2.52-.42,3.4.78,2.8,3.8,5.13,7.87,6.92,12.24,2.89,7.07,4.36,14.41,4.38,23.27"/>
      <path class="cls-1" d="M16.6,78.32c-.22-19.86,15.06-37.69,34.75-40.58,11.7-1.71,22.26.98,31.71,8.07.62.47,1.26.93,1.53,1.7.37,1.05.11,1.97-.72,2.65-1.01.83-2.13.77-3.13-.02-1.71-1.35-3.51-2.56-5.42-3.61-22.43-12.33-50.4,1.93-53.63,27.35-2.75,21.67,14.22,40.94,36.06,40.95,18.45,0,33.98-13.62,36.25-31.96,1.05-8.5-.79-16.44-5.28-23.75-.41-.66-.86-1.29-.73-2.14.17-1.09.8-1.81,1.85-2.05,1.19-.27,2.07.26,2.73,1.28,3.02,4.72,5.01,9.83,5.92,15.36,3.29,19.92-7.88,38.91-26.91,45.75-23.8,8.56-50.04-6.7-54.33-31.61-.42-2.45-.6-4.92-.65-7.41"/>
      <path class="cls-1" d="M70.8,71.45c-3.15,3.13-6.31,6.26-9.45,9.41-1.7,1.71-2.84,2.01-3.95.97-1.11-1.03-.8-2.35.89-4.07,3.47-3.54,6.94-7.09,10.4-10.64.17-.19.41-.35.22-.66.06.03.12.04.18.01,1.1-.44,1.77-1.42,2.56-2.21,12.85-12.97,25.67-25.96,38.51-38.93.77-.78,1.21-1.59,1.31-2.69.14-1.59.58-3.17.65-4.76.12-2.87,1.39-4.97,3.49-6.9,3.27-3.01,6.29-6.29,9.42-9.45.46-.47.95-.91,1.62-1.54.24,2.69.46,5.13.7,7.72,1.11-.64,2.17-.94,3.18-.03.91.82.8,1.82.33,3.02,2.39.19,4.66.36,7.26.56-1.51,1.54-2.82,2.88-4.14,4.22-3.02,3.06-6.05,6.1-9.04,9.17-.46.48-.95.71-1.59.81-2.3.35-4.59.79-6.89,1.11-1.13.15-2.01.55-2.83,1.38-13.43,13.63-26.89,27.23-40.33,40.84-.65.66-1.25,1.38-1.87,2.07-.11,0-.18.05-.21.16,0,0-.1.1-.1.1-.07.07-.14.14-.22.21-.05.03-.09.08-.11.14"/>
      <path class="cls-1" d="M80.23,78.48c-.18,11.67-8.68,21.09-20.09,22.26-11.49,1.18-21.8-6.39-24.26-17.83-1.86-8.63,1.81-17.72,9.25-22.93,7.06-4.94,17.07-5.21,24.35-.69,1.03.64,1.86,1.36,1.8,2.66-.09,1.9-2.12,2.8-3.95,1.7-3.09-1.87-6.39-2.86-10.01-2.77-8.98.22-16.67,7.67-17.02,16.52-.39,9.81,6.39,17.62,16.15,18.6,8.79.88,17.24-5.74,18.71-14.6.5-3.03.21-5.96-.76-8.85-.63-1.87-.19-3.09,1.24-3.6,1.43-.52,2.69.27,3.33,2.1.85,2.41,1.23,4.9,1.25,7.45"/>
    </g>
  </g>
</svg>